<svg width="27" height="23" viewBox="0 0 27 23" fill="none" xmlns="http://www.w3.org/2000/svg">
<path d="M18.0455 15.7727V1H1V15.7727H18.0455ZM18.0455 15.7727H26V10.0909L22.5909 6.68182H18.0455V15.7727ZM8.95455 18.6136C8.95455 20.1826 7.68263 21.4545 6.11364 21.4545C4.54465 21.4545 3.27273 20.1826 3.27273 18.6136C3.27273 17.0446 4.54465 15.7727 6.11364 15.7727C7.68263 15.7727 8.95455 17.0446 8.95455 18.6136ZM23.7273 18.6136C23.7273 20.1826 22.4554 21.4545 20.8864 21.4545C19.3174 21.4545 18.0455 20.1826 18.0455 18.6136C18.0455 17.0446 19.3174 15.7727 20.8864 15.7727C22.4554 15.7727 23.7273 17.0446 23.7273 18.6136Z" stroke="#00318A" stroke-width="2" stroke-linecap="round" stroke-linejoin="round"/>
</svg>
