<svg width="38" height="26" viewBox="0 0 38 26" fill="none" xmlns="http://www.w3.org/2000/svg">
<path d="M21.9455 25V22.3333C21.9455 20.9188 21.3938 19.5623 20.4118 18.5621C19.4297 17.5619 18.0979 17 16.7091 17H6.23636C4.84759 17 3.5157 17.5619 2.5337 18.5621C1.55169 19.5623 1 20.9188 1 22.3333V25M29.8 25V22.3333C29.7991 21.1516 29.413 20.0037 28.7022 19.0698C27.9913 18.1358 26.9961 17.4688 25.8727 17.1733M20.6364 1.17334C21.7627 1.46707 22.7611 2.13427 23.474 3.06975C24.1869 4.00523 24.5739 5.15578 24.5739 6.34001C24.5739 7.52423 24.1869 8.67478 23.474 9.61026C22.7611 10.5457 21.7627 11.2129 20.6364 11.5067M36.5979 24.4923V21.8257C36.597 20.644 36.2108 19.496 35.5 18.5621C34.7892 17.6282 33.7939 16.9611 32.6706 16.6657M28.8 1.33333C29.9264 1.62707 30.9247 2.29427 31.6376 3.22975C32.3506 4.16522 32.7375 5.31577 32.7375 6.5C32.7375 7.68422 32.3506 8.83477 31.6376 9.77025C30.9247 10.7057 29.9264 11.3729 28.8 11.6667M16.7091 6.33333C16.7091 9.27885 14.3647 11.6667 11.4727 11.6667C8.58076 11.6667 6.23636 9.27885 6.23636 6.33333C6.23636 3.38781 8.58076 1 11.4727 1C14.3647 1 16.7091 3.38781 16.7091 6.33333Z" stroke="#00318A" stroke-width="2" stroke-linecap="round" stroke-linejoin="round"/>
</svg>
