<svg width="28" height="30" viewBox="0 0 28 30" fill="none" xmlns="http://www.w3.org/2000/svg">
<path d="M1.30298 12.0524L11.0999 17.7128L26.5431 5.88761M11.0999 29V17.7016M26.8462 16.0203V7.05331C26.8458 6.6602 26.7419 6.2741 26.5449 5.93375C26.3479 5.5934 26.0648 5.31077 25.7239 5.11421L18.2734 1.30034C17.9322 1.10358 17.5451 1 17.1512 1C16.7572 1 16.3701 1.10358 16.0289 1.30034L2.12221 11.279C1.78135 11.4756 1.49824 11.7582 1.30127 12.0986C1.1043 12.4389 1.0004 12.825 1 13.2181V22.1851C1.0004 22.5782 1.1043 22.9643 1.30127 23.3047C1.49824 23.645 1.78135 23.9277 2.12221 24.1242L9.97768 28.6077C10.3189 28.8045 10.7059 28.9081 11.0999 28.9081C11.4939 28.9081 11.8809 28.8045 12.2221 28.6077L25.7239 17.9594C26.0648 17.7628 26.3479 17.4802 26.5449 17.1398C26.7419 16.7995 26.8458 16.4134 26.8462 16.0203Z" stroke="#00318A" stroke-width="2" stroke-linecap="round" stroke-linejoin="round"/>
</svg>
