<svg width="27" height="30" viewBox="0 0 27 30" fill="none" xmlns="http://www.w3.org/2000/svg">
<path d="M19.75 11.2748L7.25 4.06651M1.37501 7.88595L13.5 14.8998L25.625 7.88595M13.5 28.886V14.886M26 20.4416V9.33049C25.9995 8.84337 25.8709 8.36494 25.6271 7.94321C25.3834 7.52148 25.033 7.17127 24.6111 6.92771L14.8889 1.37215C14.4666 1.12835 13.9876 1 13.5 1C13.0124 1 12.5334 1.12835 12.1111 1.37215L2.38889 6.92771C1.96703 7.17127 1.61664 7.52148 1.37286 7.94321C1.12909 8.36494 1.0005 8.84337 1 9.33049V20.4416C1.0005 20.9287 1.12909 21.4071 1.37286 21.8289C1.61664 22.2506 1.96703 22.6008 2.38889 22.8444L12.1111 28.3999C12.5334 28.6437 13.0124 28.7721 13.5 28.7721C13.9876 28.7721 14.4666 28.6437 14.8889 28.3999L24.6111 22.8444C25.033 22.6008 25.3834 22.2506 25.6271 21.8289C25.8709 21.4071 25.9995 20.9287 26 20.4416Z" stroke="#00318A" stroke-width="2" stroke-linecap="round" stroke-linejoin="round"/>
</svg>
