<svg width="46" height="46" viewBox="0 0 46 46" fill="none" xmlns="http://www.w3.org/2000/svg">
<rect x="1" y="1" width="44" height="44" stroke="#025BFF" stroke-width="2"/>
<path d="M23.0002 26.6668C24.4729 26.6668 25.6668 25.4729 25.6668 24.0002C25.6668 22.5274 24.4729 21.3335 23.0002 21.3335C21.5274 21.3335 20.3335 22.5274 20.3335 24.0002C20.3335 25.4729 21.5274 26.6668 23.0002 26.6668Z" stroke="#025BFF" stroke-width="2" stroke-linecap="round" stroke-linejoin="round"/>
<path d="M28.6533 18.3466C29.3971 19.0896 29.9871 19.9719 30.3897 20.9431C30.7923 21.9142 30.9995 22.9553 30.9995 24.0066C30.9995 25.0579 30.7923 26.0989 30.3897 27.0701C29.9871 28.0413 29.3971 28.9236 28.6533 29.6666M17.3466 29.6532C16.6028 28.9103 16.0127 28.028 15.6101 27.0568C15.2075 26.0856 15.0003 25.0446 15.0003 23.9932C15.0003 22.9419 15.2075 21.9009 15.6101 20.9297C16.0127 19.9585 16.6028 19.0762 17.3466 18.3332M32.4266 14.5732C34.9262 17.0736 36.3304 20.4644 36.3304 23.9999C36.3304 27.5354 34.9262 30.9262 32.4266 33.4266M13.5733 33.4266C11.0736 30.9262 9.66943 27.5354 9.66943 23.9999C9.66943 20.4644 11.0736 17.0736 13.5733 14.5732" stroke="#025BFF" stroke-width="2" stroke-linecap="round" stroke-linejoin="round"/>
</svg>