<svg width="46" height="46" viewBox="0 0 46 46" fill="none" xmlns="http://www.w3.org/2000/svg">
	<rect x="1" y="1" width="44" height="44" stroke="#025BFF" stroke-width="2"></rect>
	<path d="M12.2383 13.6602L12.291 14.3691C12.7402 13.8184 13.3477 13.543 14.1133 13.543C14.9297 13.543 15.4902 13.8652 15.7949 14.5098C16.2402 13.8652 16.875 13.543 17.6992 13.543C18.3867 13.543 18.8984 13.7441 19.2344 14.1465C19.5703 14.5449 19.7383 15.1465 19.7383 15.9512V20H18.0391V15.957C18.0391 15.5977 17.9688 15.3359 17.8281 15.1719C17.6875 15.0039 17.4395 14.9199 17.084 14.9199C16.5762 14.9199 16.2246 15.1621 16.0293 15.6465L16.0352 20H14.3418V15.9629C14.3418 15.5957 14.2695 15.3301 14.125 15.166C13.9805 15.002 13.7344 14.9199 13.3867 14.9199C12.9062 14.9199 12.5586 15.1191 12.3438 15.5176V20H10.6504V13.6602H12.2383ZM24.7188 20C24.6406 19.8477 24.584 19.6582 24.5488 19.4316C24.1387 19.8887 23.6055 20.1172 22.9492 20.1172C22.3281 20.1172 21.8125 19.9375 21.4023 19.5781C20.9961 19.2188 20.793 18.7656 20.793 18.2188C20.793 17.5469 21.041 17.0312 21.5371 16.6719C22.0371 16.3125 22.7578 16.1309 23.6992 16.127H24.4785V15.7637C24.4785 15.4707 24.4023 15.2363 24.25 15.0605C24.1016 14.8848 23.8652 14.7969 23.541 14.7969C23.2559 14.7969 23.0312 14.8652 22.8672 15.002C22.707 15.1387 22.627 15.3262 22.627 15.5645H20.9336C20.9336 15.1973 21.0469 14.8574 21.2734 14.5449C21.5 14.2324 21.8203 13.9883 22.2344 13.8125C22.6484 13.6328 23.1133 13.543 23.6289 13.543C24.4102 13.543 25.0293 13.7402 25.4863 14.1348C25.9473 14.5254 26.1777 15.0762 26.1777 15.7871V18.5352C26.1816 19.1367 26.2656 19.5918 26.4297 19.9004V20H24.7188ZM23.3184 18.8223C23.5684 18.8223 23.7988 18.7676 24.0098 18.6582C24.2207 18.5449 24.377 18.3945 24.4785 18.207V17.1172H23.8457C22.998 17.1172 22.5469 17.4102 22.4922 17.9961L22.4863 18.0957C22.4863 18.3066 22.5605 18.4805 22.709 18.6172C22.8574 18.7539 23.0605 18.8223 23.3184 18.8223ZM29.8926 15.5527L30.959 13.6602H32.7695L30.9648 16.7656L32.8457 20H31.0293L29.8984 18.0078L28.7734 20H26.9512L28.832 16.7656L27.0332 13.6602H28.8496L29.8926 15.5527ZM15.4756 34H13.5V26.3848L11.1416 27.1162V25.5098L15.2637 24.0332H15.4756V34ZM25.415 29.8848C25.415 31.2611 25.1302 32.3138 24.5605 33.043C23.9909 33.7721 23.1569 34.1367 22.0586 34.1367C20.974 34.1367 20.1445 33.779 19.5703 33.0635C18.9961 32.348 18.7021 31.3226 18.6885 29.9873V28.1553C18.6885 26.7653 18.9756 25.7103 19.5498 24.9902C20.1286 24.2702 20.9603 23.9102 22.0449 23.9102C23.1296 23.9102 23.959 24.2679 24.5332 24.9834C25.1074 25.6943 25.4014 26.7174 25.415 28.0527V29.8848ZM23.4395 27.875C23.4395 27.0501 23.3255 26.4508 23.0977 26.0771C22.8743 25.6989 22.5234 25.5098 22.0449 25.5098C21.5801 25.5098 21.236 25.6898 21.0127 26.0498C20.7939 26.4053 20.6777 26.9635 20.6641 27.7246V30.1445C20.6641 30.9557 20.7734 31.5596 20.9922 31.9561C21.2155 32.348 21.571 32.5439 22.0586 32.5439C22.5417 32.5439 22.8903 32.3548 23.1045 31.9766C23.3187 31.5983 23.4303 31.0195 23.4395 30.2402V27.875ZM32.9756 28.1895H30.6035V34H28.6211V28.1895H26.29V26.6035H32.9756V28.1895Z" fill="#2874FF"></path>
</svg>