<svg width="34" height="45" viewBox="0 0 34 45" fill="none" xmlns="http://www.w3.org/2000/svg">
<path d="M33.9601 0.813477H0V44.5657H33.9601V0.813477Z" fill="#025BFF"/>
<path d="M3.34839 30.2251C4.11438 30.095 5.02501 29.999 6.02243 29.999C7.82986 29.999 9.11657 30.4669 9.96934 31.3578C10.8372 32.2475 11.3428 33.509 11.3428 35.2713C11.3428 37.0506 10.851 38.5066 9.94041 39.5093C9.02978 40.529 7.52673 41.0796 5.63252 41.0796C4.73572 41.0796 3.98357 41.0298 3.34839 40.9495V30.2251ZM4.60617 39.8642C4.92439 39.9298 5.38725 39.9469 5.87904 39.9469C8.56818 39.9469 10.0285 38.2636 10.0285 35.3211C10.0423 32.7482 8.74175 31.1147 6.08154 31.1147C5.43127 31.1147 4.93948 31.1804 4.60617 31.2594V39.8642Z" fill="white"/>
<path d="M21.7396 35.4147C21.7396 39.1677 19.7008 41.1572 17.2141 41.1572C14.6407 41.1572 12.8333 38.9258 12.8333 35.6249C12.8333 32.1636 14.7564 29.8994 17.3588 29.8994C20.0177 29.9006 21.7396 32.1794 21.7396 35.4147ZM14.1778 35.5933C14.1778 37.922 15.3048 40.0087 17.2858 40.0087C19.2807 40.0087 20.4089 37.9548 20.4089 35.4791C20.4089 33.3121 19.3964 31.0467 17.2996 31.0467C15.218 31.0479 14.1778 33.1991 14.1778 35.5933Z" fill="white"/>
<path d="M30.6172 40.6236C30.1544 40.8825 29.2299 41.1414 28.0438 41.1414C25.2968 41.1414 23.229 39.2005 23.229 35.6262C23.229 32.2148 25.2968 29.9009 28.318 29.9009C29.533 29.9009 30.299 30.1913 30.631 30.3858L30.3267 31.5343C29.85 31.2754 29.1708 31.081 28.3607 31.081C26.0754 31.081 24.5585 32.7143 24.5585 35.5776C24.5585 38.2465 25.932 39.9613 28.3029 39.9613C29.0701 39.9613 29.85 39.7826 30.3569 39.508L30.6172 40.6236Z" fill="white"/>
<path d="M33.9999 9.32104H25.2222V0.813477L33.9999 9.32104Z" fill="white"/>
</svg>
