<svg width="34" height="44" viewBox="0 0 34 44" fill="none" xmlns="http://www.w3.org/2000/svg">
<path d="M34 0H0V43.8037H34V0Z" fill="#FF4644"/>
<path d="M3.14844 29.0225C3.87503 28.9057 4.82451 28.8047 6.03214 28.8047C7.51681 28.8047 8.60481 29.1393 9.29489 29.7453C9.93333 30.2807 10.3136 31.1032 10.3136 32.1095C10.3136 33.1328 10.0026 33.9371 9.41578 34.5248C8.62118 35.3462 7.32666 35.766 5.85963 35.766C5.41133 35.766 4.99577 35.7501 4.65074 35.6662V40.1963H3.14844V29.0225ZM4.65074 34.4737C4.9794 34.5577 5.3937 34.5905 5.89363 34.5905C7.70696 34.5905 8.81133 33.7351 8.81133 32.1764C8.81133 30.6834 7.72333 29.9619 6.06614 29.9619C5.41007 29.9619 4.91014 30.013 4.64948 30.0787V34.4737H4.65074Z" fill="white"/>
<path d="M12.8511 29.0393C13.7666 28.9054 14.8546 28.8057 16.0458 28.8057C18.2042 28.8057 19.7405 29.2911 20.7592 30.2134C21.7956 31.137 22.3988 32.445 22.3988 34.2725C22.3988 36.1171 21.812 37.6283 20.7252 38.6686C19.6372 39.7248 17.8415 40.2954 15.5799 40.2954C14.5095 40.2954 13.6117 40.2455 12.8523 40.1616V29.0393H12.8511ZM14.3534 39.0361C14.7337 39.1042 15.2865 39.12 15.872 39.12C19.0831 39.12 20.8272 37.3752 20.8272 34.3224C20.8448 31.6553 19.2909 29.9616 16.1138 29.9616C15.3369 29.9616 14.75 30.0285 14.3534 30.1124V39.0361Z" fill="white"/>
<path d="M24.8669 28.8896H31.133V30.115H26.368V33.8724H30.7716V35.0807H26.368V40.1973H24.8669V28.8896Z" fill="white"/>
<path d="M25.1851 8.51733V0L33.9999 8.51733H25.1851Z" fill="white"/>
</svg>
