<svg width="34" height="44" viewBox="0 0 34 44" fill="none" xmlns="http://www.w3.org/2000/svg">
<path d="M33.8817 0H0V43.6514H33.8817V0Z" fill="#27AE60"/>
<path d="M10.5964 40.0547L9.1169 37.5629C8.51456 36.6111 8.13684 35.9915 7.77543 35.3391H7.74155C7.41528 35.9915 7.08776 36.5941 6.48542 37.5799L5.0925 40.0547H3.37207L6.91585 34.3534L3.51011 28.7866H5.24811L6.77906 31.4275C7.20823 32.1635 7.53575 32.7322 7.84571 33.3336H7.89716C8.22342 32.6643 8.51707 32.1466 8.94749 31.4275L10.5299 28.7866H12.2503L8.72412 34.2685L12.3369 40.0535H10.5964V40.0547Z" fill="white"/>
<path d="M14.5881 28.7876H16.084V38.8349H21.0395V40.0559H14.5881V28.7876Z" fill="white"/>
<path d="M23.0171 38.2823C23.6885 38.6849 24.6698 39.0183 25.7013 39.0183C27.2323 39.0183 28.127 38.2326 28.127 37.0952C28.127 36.0415 27.5071 35.4401 25.9423 34.8544C24.0499 34.2021 22.8791 33.2502 22.8791 31.6618C22.8791 29.9072 24.3762 28.6025 26.6299 28.6025C27.817 28.6025 28.6779 28.8693 29.1937 29.1542L28.7808 30.3401C28.4018 30.14 27.6276 29.8054 26.5785 29.8054C24.9948 29.8054 24.3937 30.7257 24.3937 31.4933C24.3937 32.5457 25.099 33.0647 26.6989 33.6661C28.6603 34.4022 29.658 35.3225 29.658 36.9764C29.658 38.7152 28.3328 40.2188 25.5984 40.2188C24.4803 40.2188 23.2581 39.9023 22.6394 39.4997L23.0171 38.2823Z" fill="white"/>
<path d="M25.1641 0L34.0001 8.48779H25.1641V0Z" fill="white"/>
</svg>
