<svg width="34" height="45" viewBox="0 0 34 45" fill="none" xmlns="http://www.w3.org/2000/svg">
<path d="M34 0.813477H0V44.6174H34V0.813477Z" fill="#8D37E3"/>
<path d="M5.18311 40.1519L11.6406 30.9776V30.9265H5.73591V29.7012H13.5912V30.5906L7.16895 39.7322V39.7833H13.6768V41.0085H5.18311V40.1519Z" fill="white"/>
<path d="M17.5441 29.7031V41.0095H16.0417V29.7031H17.5441Z" fill="white"/>
<path d="M20.6846 29.836C21.4099 29.7192 22.3594 29.6182 23.567 29.6182C25.0529 29.6182 26.1409 29.9528 26.8297 30.5587C27.4682 31.0941 27.8485 31.9167 27.8485 32.923C27.8485 33.9463 27.5374 34.7506 26.9506 35.3383C26.156 36.1596 24.8615 36.5794 23.3945 36.5794C22.945 36.5794 22.5307 36.5636 22.1856 36.4797V41.0098H20.6833V29.836H20.6846ZM22.1869 35.2872C22.5143 35.3712 22.9286 35.404 23.4298 35.404C25.2431 35.404 26.3475 34.5486 26.3475 32.9899C26.3475 31.4969 25.2595 30.7753 23.6023 30.7753C22.9462 30.7753 22.4463 30.8264 22.1869 30.8921V35.2872Z" fill="white"/>
<path d="M25.1851 9.33081V0.813477L33.9999 9.33081H25.1851Z" fill="white"/>
</svg>
