<svg width="73" height="73" viewBox="0 0 73 73" fill="none" xmlns="http://www.w3.org/2000/svg">
<rect width="73" height="73" fill="#FF4644"/>
<path fill-rule="evenodd" clip-rule="evenodd" d="M51.9583 25.5975L50.0897 27.6822L56.0353 33.9364L51.6186 38.4534L45.6731 32.1992C41.9359 36.0212 41.2564 36.5424 40.5769 37.411C42.9551 39.8432 46.5224 43.4915 54.1667 51.4831L49.9199 55.8263C41.5962 47.4873 38.0288 43.6653 36.1603 41.928L22.4006 56L18.1538 51.6568C24.9487 44.5339 29.0256 40.5381 31.7436 37.5847C30.3846 35.6737 27.4968 32.8941 22.4006 27.6822L16.4551 33.7627L10 27.3347L22.0609 15H30.8942L32.9327 17.0847L26.9872 23.1653C32.0833 28.3771 34.6314 30.9831 36.5 32.8941L41.5962 27.6822L35.6506 21.428L40.0673 16.911L46.1827 22.9915L48.0513 21.0805L42.1058 15H50.9391L63 27.3347L58.5833 31.8517L51.9583 25.5975Z" fill="white"/>
</svg>
