<svg width="73" height="73" viewBox="0 0 73 73" fill="none" xmlns="http://www.w3.org/2000/svg">
<rect width="73" height="73" fill="#025BFF"/>
<path fill-rule="evenodd" clip-rule="evenodd" d="M46.2542 29.4649L28.1695 47.7588H14V41.5351H25.5593L43.8305 23.0526H57.8136V29.2763H46.2542V29.4649ZM23.1356 29.8421C23.1356 28.1447 21.8305 26.8246 20.1525 26.8246C18.4746 26.8246 17.1695 28.1447 17.1695 29.8421C17.1695 31.5395 18.4746 32.8596 20.1525 32.8596C21.8305 32.8596 23.1356 31.5395 23.1356 29.8421ZM58 17.2061H41.4068L24.6271 34.1798C23.5085 35.3114 21.8305 36.2544 20.1525 36.2544C16.7966 36.2544 14.1864 33.4254 14.1864 30.0307C14.1864 26.636 17.1695 23.807 20.1525 23.807C23.322 23.807 25.3729 25.693 25.9322 28.3333L40.1017 14H58V17.2061ZM48.8644 41.1579C48.8644 42.8553 50.1695 44.1754 51.8475 44.1754C53.5254 44.1754 54.8305 42.8553 54.8305 41.1579C54.8305 39.4605 53.5254 38.1403 51.8475 38.1403C50.1695 37.9518 48.8644 39.4605 48.8644 41.1579ZM14 53.9825H30.5932L47.3729 37.0088C48.4915 35.8772 49.9831 34.9342 51.8475 34.9342C55.2034 34.9342 58 37.5746 58 41.1579C58 44.5526 55.017 47.193 51.8475 47.193C48.678 47.193 46.8136 45.307 46.0678 42.6667L31.8983 57H14V53.9825Z" fill="white"/>
</svg>
