<svg width="27" height="37" viewBox="0 0 27 37" fill="none" xmlns="http://www.w3.org/2000/svg">
<path d="M13.4 0C6.0112 0 0 6.0112 0 13.3999C0 22.5696 11.9917 36.0311 12.5022 36.5997C12.9818 37.1338 13.8191 37.1329 14.2978 36.5997C14.8083 36.0311 26.8 22.5696 26.8 13.3999C26.7999 6.0112 20.7887 0 13.4 0ZM13.4 20.1418C9.68251 20.1418 6.65819 17.1174 6.65819 13.3999C6.65819 9.68244 9.68258 6.65812 13.4 6.65812C17.1174 6.65812 20.1417 9.68251 20.1417 13.4C20.1417 17.1175 17.1174 20.1418 13.4 20.1418Z" fill="#025BFF"/>
</svg>
