<svg width="28" height="38" viewBox="0 0 28 38" fill="none" xmlns="http://www.w3.org/2000/svg">
<path fill-rule="evenodd" clip-rule="evenodd" d="M2.9375 0H25.0625C25.8659 0 26.5985 0.313772 27.1347 0.81715L27.1364 0.82053L27.14 0.822169C27.6709 1.3289 28 2.02354 28 2.78532V29.9376L26.687 29.9964L27.2143 29.2446L25.8517 22.1185L25.5527 21.7526L25.512 21.7024V2.78706C25.512 2.6696 25.4624 2.56215 25.3846 2.48832L25.3793 2.4833C25.2996 2.40947 25.1899 2.36256 25.0625 2.36256H2.9375C2.81363 2.36256 2.70038 2.40947 2.62075 2.4833L2.61721 2.48832C2.53758 2.56215 2.4898 2.66792 2.4898 2.78706V31.8C2.4898 31.9158 2.53935 32.0216 2.62075 32.1004V32.1054C2.70038 32.1793 2.81186 32.2263 2.9375 32.2263H13.1639L13.9761 32.7917L12.8029 33.0485L13.1869 34.5871H2.9375C2.13234 34.5871 1.39798 34.2716 0.863564 33.7666L0.861796 33.7699C0.329154 33.2649 0 32.5685 0 31.8V2.78706C0 2.02528 0.330923 1.33054 0.861796 0.823807L0.863564 0.822169L0.867102 0.818789C1.40151 0.313733 2.13411 0 2.9375 0ZM5.87677 6.71335V8.28723H21.7233V6.71335H13.8H5.87677ZM23.2345 32.8907L22.6028 30.6104L22.5409 30.3352L22.7054 30.0987L23.7743 28.5718L22.7674 23.3031L22.6824 23.199L22.3179 23.3433L21.9587 23.486L21.6366 23.2729C21.488 23.1739 21.3252 23.0899 21.1641 23.0043C21.0987 22.9691 21.0314 22.9356 20.9642 22.8986L20.8775 22.9406C20.7695 22.991 20.6616 23.0447 20.5926 23.0983L20.2475 23.3618L19.8511 23.1872L19.0973 22.86L18.4425 23.204L17.6179 23.6387L17.4056 22.7661L15.9474 17.3715C15.7793 17.2407 15.6236 17.1685 15.4873 17.1484C15.4219 17.14 15.3617 17.1434 15.3104 17.1602C15.259 17.1769 15.2095 17.2038 15.1706 17.244V17.2458C15.0821 17.3297 15.0149 17.4572 14.9759 17.6233L16.4659 24.5749L16.5632 25.1101C16.0341 25.3098 15.5033 25.5112 14.9759 25.7125L14.238 22.9121C14.1743 23.0597 13.877 23.4507 13.8664 23.6638L15.4059 29.9896L17.1437 31.201L17.356 31.3505L17.4162 31.6004L17.986 34.0401L23.2345 32.8907ZM16.6057 34.3455L16.1509 34.4478L15.0432 34.6912L15.3033 35.7348L15.8678 38L18.0656 37.5134L17.7612 36.2902L24.7564 34.7532L25.1881 36.7701L27.4036 36.3473L26.7401 33.2515L26.5082 32.1709L25.3793 32.4176L24.6077 32.5871L24.0503 30.602L25.112 29.0868L25.2695 28.862L25.22 28.5969L24.1317 22.902L24.0999 22.7427L23.9901 22.6084L23.4646 21.9658L23.1319 21.5597L22.6329 21.7577L22.1108 21.964C22.0206 21.9154 21.9321 21.8684 21.8472 21.8231C21.6844 21.7392 21.5233 21.6537 21.3729 21.5547L20.9358 21.2627L20.52 21.5815C20.4492 21.6352 20.3413 21.6872 20.2333 21.7392C20.1873 21.7627 20.1378 21.7845 20.09 21.8097L19.3627 21.4926L19.0371 21.3516L18.7203 21.5177L18.5752 21.5966L17.2781 16.8682L17.2321 16.6752L17.0906 16.541C16.6429 16.1165 16.1598 15.8867 15.6979 15.8212C15.4059 15.7793 15.1263 15.8027 14.8644 15.8849C14.6025 15.9671 14.369 16.1064 14.1672 16.296H14.1637C13.8505 16.5913 13.6328 17.0108 13.5514 17.5176L13.5355 17.6216L13.555 17.729L14.4238 21.2107L14.1955 21.2895C13.6629 21.4691 13.2293 21.7543 12.9197 22.1687C12.6171 22.5731 12.4454 23.0849 12.4401 23.7226L12.4384 23.798L12.4596 23.8819L14.0787 30.54L14.1371 30.7849L14.3495 30.9326L16.0854 32.1424L16.6057 34.3455ZM9.15756 30.988V30.201H4.73893V4.85927H23.4416V17.7894H24.2733V4.46499V4.07234H23.8574H4.32484H3.91077V4.46499V30.5936V30.9863H4.32484H9.15756V30.988Z" fill="#025BFF"/>
</svg>
