<svg width="30" height="40" viewBox="0 0 30 40" fill="none" xmlns="http://www.w3.org/2000/svg">
<path fill-rule="evenodd" clip-rule="evenodd" d="M1.01308 7.3223H8.21211V5.76378V3.95193H10.0271H10.3742L10.2849 3.70472L10.1712 3.39059V3.09669V1.80981V0H11.9842H14.8508H15.9654H18.8299H20.6449V1.80981V3.09669V3.39059L20.5292 3.70472L20.4419 3.95193H20.6835H22.4965V5.76378V7.3223H28.9829H30V8.33563V38.9846V40H28.9829H1.01509H0V38.9846V8.33563V7.3223H1.01308ZM11.3386 21.1785L10.9833 20.5077L10.3113 20.8603L7.601 22.283L6.92698 22.6377L7.28432 23.3085L11.9517 32.1204L12.3862 32.9412L12.5993 33.3485H13.0581H13.9798H15.7948H16.9053H17.4555L17.6281 32.8196L17.9732 31.7556C18.3671 30.5416 18.7893 29.3357 19.2461 28.142C19.7009 26.9483 20.176 25.8013 20.6713 24.715C21.1667 23.6287 21.7006 22.5647 22.2751 21.527C22.8416 20.5036 23.4466 19.5166 24.0922 18.5722L24.5205 17.944L23.8912 17.5163L21.3616 15.7937L20.7322 15.3661L20.3039 15.9943C19.5852 17.0502 18.9091 18.1487 18.2798 19.2897C17.6545 20.4145 17.0657 21.5919 16.5074 22.816C16.0628 23.7888 15.6547 24.7535 15.2791 25.704C15.0639 26.2491 14.8488 26.8146 14.6356 27.4003L11.3386 21.1785ZM13.9169 29.2932L10.3478 22.5586L8.9856 23.2761L13.2977 31.4171L13.5149 31.8285H13.9798H15.7948H16.3531L16.5257 31.2935C16.9399 30.0187 17.3702 28.7845 17.8209 27.603C18.2737 26.4194 18.7609 25.244 19.2908 24.0847C19.8105 22.9437 20.3607 21.8452 20.9413 20.7954C21.4062 19.9564 21.8955 19.1396 22.4132 18.3472L21.1403 17.4819C20.6064 18.3007 20.0988 19.1478 19.6156 20.0192C18.9964 21.1339 18.4239 22.2769 17.89 23.4463C17.486 24.334 17.086 25.2764 16.6962 26.2614C16.3004 27.2645 15.9369 28.2393 15.608 29.1858L15.4294 29.7006H14.8894H14.5889H14.1301L13.9169 29.2932ZM8.21211 9.35093H2.03018V37.9713H27.9658V9.35093H22.4944V10.9905V12.8023H20.6815H10.025H8.21006V10.9905V9.35093H8.21211ZM12.9485 7.57359H11.838V9.18072H18.8685V7.57359H17.8656H16.1866V5.10108L16.7206 3.62364H15.9654H14.8508H14.0935L14.6478 5.15779L14.6559 5.17808V7.57563H12.9485V7.57359Z" fill="#025BFF"/>
</svg>
