<svg width="34" height="41" viewBox="0 0 34 41" fill="none" xmlns="http://www.w3.org/2000/svg">
<path fill-rule="evenodd" clip-rule="evenodd" d="M7.94776 17.3015H26.029H27.1917V18.4703V31.5631V32.7318H26.029H7.94776H6.78278V31.5631V18.4703V17.3015H7.94776ZM23.1736 2.33769L24.8664 4.95519V2.33769H23.1736ZM24.8641 7.09468V12.1362L18.53 2.33769H21.7854L24.8641 7.09468ZM9.11266 8.29378L12.2193 13.0975H14.9747L9.11266 4.02906V8.29378ZM10.8334 13.0975H9.11266V10.4331L10.8334 13.0975ZM9.40332 2.33769L16.3583 13.095H19.4834L12.5285 2.33769H9.40332ZM13.9121 2.33769H17.1465L24.1014 13.095H20.8646L13.9121 2.33769ZM22.8178 19.6368L24.8641 22.8004V19.6368H22.8178ZM24.8641 24.942L21.4343 19.6391H18.1766L24.8641 29.9859V24.942ZM9.11266 26.1413L11.8658 30.3989H14.6236L9.115 21.8765V26.1413H9.11266ZM10.4823 30.3989L9.11266 28.2806V30.3989H10.4823ZM9.11266 19.7348L16.0048 30.3966H19.1299L12.1774 19.6368H9.115V19.7348H9.11266ZM13.5586 19.6368L20.5111 30.3966H23.7502L16.7954 19.6368H13.5586ZM7.94776 0H26.029H27.1917V1.16878V14.264V15.4327H26.029H7.94776H6.78278V14.264V1.16878V0H7.94776ZM17.6557 35.9538V38.6623H31.6701V35.9538H17.6557ZM15.3281 38.6623V35.9538H2.32988V38.6623H15.3281ZM1.1649 33.6161H32.8351H34V34.7849V39.8312V41H32.8351H1.1649H0V39.8312V34.7849V33.6161H1.1649Z" fill="#025BFF"/>
</svg>
