<svg width="45" height="33" viewBox="0 0 45 33" fill="none" xmlns="http://www.w3.org/2000/svg">
<path fill-rule="evenodd" clip-rule="evenodd" d="M7.00724 0L14.6884 7.32757L15.5334 8.13384L14.8154 9.04758L19.4463 10.8474L20.6935 9.18113L20.9722 8.80829L21.4398 8.8274L33.1626 9.3094L34.5827 8.4789L34.498 8.26734L34.0552 7.13856L35.1666 6.62359L43.871 2.58527L45 4.93645L37.4053 8.45805L40.8948 17.341L43.9856 16.4202L44.753 18.9032L40.4873 20.1742L39.3124 20.5244L38.8943 19.4546L34.7327 21.655L36.4756 23.3351L36.959 23.8015L36.4703 24.268L33.8664 26.7353L33.4466 27.1324L32.995 26.7735L30.9538 25.154L32.8415 27.2902L33.2966 27.8052L32.748 28.2265L30.1759 30.1997L29.7419 30.5309L29.3326 30.1737L26.9669 28.1138L27.863 29.6431L28.1576 30.1477L27.6796 30.491L25.7037 31.9076L25.275 32.2162L24.8763 31.8729L22.2865 29.6344L22.6271 30.2344L22.9269 30.7615L22.4153 31.0944L19.9067 32.7278L19.4868 33L19.1058 32.674L15.8139 29.8443L14.9194 30.6436L14.4167 31.0909L13.9738 30.5881L12.3861 28.7796L12.342 28.7311L12.1444 28.9079L11.7016 28.4034L9.95868 26.4197L9.85988 26.5082L9.41707 26.0053L7.72172 24.0772L7.2648 23.5588L7.81696 23.1392L9.15596 22.1214L6.88019 19.1546L6.8467 19.1963L6.14105 20.0961L5.1443 19.5343L0 16.6352L1.31429 14.3759L5.46183 16.7115L12.0033 8.38349L5.16723 1.86399L7.00724 0ZM18.6365 11.9311L13.9738 10.1192L7.71639 18.0865L10.2004 21.3255L11.4705 20.3615L11.9151 20.0233L12.3261 20.4013L13.9545 21.9046L14.0568 22L14.0797 21.9827L14.526 21.6445L14.9371 22.0243L16.8335 23.7755L17.3558 24.2558L16.8265 24.7274L16.4913 25.0274L16.763 25.2788L18.2908 26.6885L18.8129 27.1706L18.2819 27.6421L16.7965 28.9686L19.5927 31.3718L21.1716 30.3436L19.9967 28.2802L19.6068 27.5954L20.3654 27.3457L20.9282 27.1619L21.2916 27.0422L21.5756 27.2902L25.3526 30.5534L26.42 29.787L24.677 26.8064L24.4529 26.4249L24.7281 26.0816L25.0721 25.6499L25.5044 25.1072L26.0301 25.5649L29.7912 28.8472L31.3825 27.6283L27.0691 22.7473L26.7287 22.3606L27.0303 21.9463L27.3444 21.5145L27.7536 20.9527L28.297 21.3845L33.3672 25.4037L35.0608 23.7981L30.8709 19.7632L31.102 19.5326L26.8557 16.1879L24.2412 15.1579L19.5944 17.8421L19.0282 18.168L18.5501 17.7259L16.6042 15.9382L16.0309 15.4111L16.4948 14.7955L18.6365 11.9311ZM35.2249 10.1209L33.84 10.9324L33.6177 11.0607L33.3566 11.0503L21.8402 10.5769L18.3772 15.1995L19.2698 16.0214L23.7225 13.45L24.0948 13.2333L24.4971 13.3928L27.6337 14.6256L27.7536 14.6724L27.8578 14.7539L34.3657 19.8829L38.2504 17.8282L35.2249 10.1209ZM11.1794 25.825L12.2538 27.0474L15.4046 24.2367L14.4396 23.3455L11.1794 25.825ZM9.17362 23.7443L9.96923 24.6477L12.5255 22.3676L11.8287 21.726L9.17362 23.7443ZM13.838 28.4485L14.5295 29.2322L16.8635 27.1515L16.269 26.6035L13.838 28.4485Z" fill="#025BFF"/>
</svg>
