<svg width="28" height="28" viewBox="0 0 28 28" fill="none" xmlns="http://www.w3.org/2000/svg">
<path d="M13.8889 17.404C15.8303 17.404 17.404 15.8303 17.404 13.8889C17.404 11.9475 15.8303 10.3737 13.8889 10.3737C11.9475 10.3737 10.3737 11.9475 10.3737 13.8889C10.3737 15.8303 11.9475 17.404 13.8889 17.404Z" stroke="#025BFF" stroke-width="2" stroke-linecap="round" stroke-linejoin="round"/>
<path d="M22.5596 17.404C22.4036 17.7574 22.3571 18.1495 22.426 18.5296C22.4949 18.9097 22.6761 19.2604 22.9463 19.5366L23.0166 19.6069C23.2345 19.8245 23.4073 20.083 23.5252 20.3675C23.6432 20.6519 23.7039 20.9569 23.7039 21.2648C23.7039 21.5728 23.6432 21.8778 23.5252 22.1622C23.4073 22.4467 23.2345 22.7052 23.0166 22.9228C22.7989 23.1407 22.5405 23.3136 22.256 23.4315C21.9715 23.5494 21.6665 23.6101 21.3586 23.6101C21.0506 23.6101 20.7457 23.5494 20.4612 23.4315C20.1767 23.3136 19.9182 23.1407 19.7006 22.9228L19.6303 22.8525C19.3542 22.5824 19.0034 22.4012 18.6233 22.3323C18.2432 22.2634 17.8512 22.3099 17.4978 22.4659C17.1512 22.6144 16.8557 22.861 16.6475 23.1754C16.4393 23.4897 16.3276 23.8581 16.3261 24.2352V24.4343C16.3261 25.0559 16.0792 25.6519 15.6397 26.0914C15.2002 26.5309 14.6041 26.7778 13.9826 26.7778C13.3611 26.7778 12.765 26.5309 12.3256 26.0914C11.8861 25.6519 11.6392 25.0559 11.6392 24.4343V24.3289C11.6301 23.9411 11.5046 23.5649 11.2789 23.2494C11.0532 22.9338 10.7378 22.6935 10.3737 22.5596C10.0203 22.4036 9.6283 22.3571 9.2482 22.426C8.8681 22.4949 8.51736 22.6761 8.24121 22.9463L8.17091 23.0166C7.95327 23.2345 7.69481 23.4073 7.41032 23.5252C7.12584 23.6432 6.82089 23.7039 6.51293 23.7039C6.20497 23.7039 5.90002 23.6432 5.61553 23.5252C5.33105 23.4073 5.07259 23.2345 4.85495 23.0166C4.63707 22.7989 4.46422 22.5405 4.34628 22.256C4.22835 21.9715 4.16765 21.6665 4.16765 21.3586C4.16765 21.0506 4.22835 20.7457 4.34628 20.4612C4.46422 20.1767 4.63707 19.9182 4.85495 19.7006L4.92525 19.6303C5.19538 19.3542 5.37658 19.0034 5.4455 18.6233C5.51442 18.2432 5.46789 17.8512 5.31192 17.4978C5.16339 17.1512 4.91676 16.8557 4.6024 16.6475C4.28804 16.4393 3.91967 16.3276 3.54263 16.3261H3.34343C2.72192 16.3261 2.12586 16.0792 1.68638 15.6397C1.2469 15.2002 1 14.6041 1 13.9826C1 13.3611 1.2469 12.765 1.68638 12.3256C2.12586 11.8861 2.72192 11.6392 3.34343 11.6392H3.44889C3.83672 11.6301 4.21285 11.5046 4.52839 11.2789C4.84393 11.0532 5.08427 10.7378 5.21818 10.3737C5.37416 10.0203 5.42068 9.6283 5.35176 9.2482C5.28284 8.8681 5.10164 8.51736 4.83152 8.24121L4.76121 8.17091C4.54333 7.95327 4.37048 7.69481 4.25255 7.41032C4.13462 7.12584 4.07391 6.82089 4.07391 6.51293C4.07391 6.20497 4.13462 5.90002 4.25255 5.61553C4.37048 5.33105 4.54333 5.07259 4.76121 4.85495C4.97885 4.63707 5.23731 4.46422 5.5218 4.34628C5.80628 4.22835 6.11123 4.16765 6.41919 4.16765C6.72716 4.16765 7.0321 4.22835 7.31659 4.34628C7.60108 4.46422 7.85953 4.63707 8.07717 4.85495L8.14747 4.92525C8.42362 5.19538 8.77436 5.37658 9.15446 5.4455C9.53456 5.51442 9.92659 5.46789 10.28 5.31192H10.3737C10.7203 5.16339 11.0159 4.91676 11.224 4.6024C11.4322 4.28804 11.544 3.91967 11.5455 3.54263V3.34343C11.5455 2.72192 11.7924 2.12586 12.2318 1.68638C12.6713 1.2469 13.2674 1 13.8889 1C14.5104 1 15.1065 1.2469 15.5459 1.68638C15.9854 2.12586 16.2323 2.72192 16.2323 3.34343V3.44889C16.2338 3.82593 16.3455 4.19431 16.5537 4.50867C16.7619 4.82303 17.0575 5.06965 17.404 5.21818C17.7574 5.37416 18.1495 5.42068 18.5296 5.35176C18.9097 5.28284 19.2604 5.10164 19.5366 4.83152L19.6069 4.76121C19.8245 4.54333 20.083 4.37048 20.3675 4.25255C20.6519 4.13462 20.9569 4.07391 21.2648 4.07391C21.5728 4.07391 21.8778 4.13462 22.1622 4.25255C22.4467 4.37048 22.7052 4.54333 22.9228 4.76121C23.1407 4.97885 23.3136 5.23731 23.4315 5.5218C23.5494 5.80628 23.6101 6.11123 23.6101 6.41919C23.6101 6.72716 23.5494 7.0321 23.4315 7.31659C23.3136 7.60108 23.1407 7.85953 22.9228 8.07717L22.8525 8.14747C22.5824 8.42362 22.4012 8.77436 22.3323 9.15446C22.2634 9.53456 22.3099 9.92659 22.4659 10.28V10.3737C22.6144 10.7203 22.861 11.0159 23.1754 11.224C23.4897 11.4322 23.8581 11.544 24.2352 11.5455H24.4343C25.0559 11.5455 25.6519 11.7924 26.0914 12.2318C26.5309 12.6713 26.7778 13.2674 26.7778 13.8889C26.7778 14.5104 26.5309 15.1065 26.0914 15.5459C25.6519 15.9854 25.0559 16.2323 24.4343 16.2323H24.3289C23.9518 16.2338 23.5835 16.3455 23.2691 16.5537C22.9548 16.7619 22.7081 17.0575 22.5596 17.404Z" stroke="#025BFF" stroke-width="2" stroke-linecap="round" stroke-linejoin="round"/>
</svg>
