<svg width="48" height="44" viewBox="0 0 48 44" fill="none" xmlns="http://www.w3.org/2000/svg">
<path fill-rule="evenodd" clip-rule="evenodd" d="M10.9804 26.0425H14.7322H15.2977V26.6034V30.0921V30.6551H14.7322H10.9804H10.4148V30.0921V26.6034V26.0425H10.9804ZM41.328 30.3478C40.154 30.2064 38.9733 30.1055 37.7903 30.0584C36.0891 29.9956 34.3698 30.0471 32.6302 30.2491L32.4973 30.2648L32.3598 30.2536C30.4085 30.1145 28.4706 29.9978 26.6207 29.9754C25.1808 29.9552 23.7364 29.9933 22.2763 30.1167V30.4286C23.0379 30.6148 23.8017 30.7471 24.5679 30.8391C25.7283 30.9804 26.8618 31.0276 27.9817 31.0276L29.4485 31.0299V32.4814V34.6576V36.1181H27.9817H22.0757L27.247 40.9057C27.4003 41.0111 27.5558 41.0695 27.709 41.0807C27.9186 41.0942 28.1619 41.0403 28.4346 40.9214L28.4323 40.9192L38.4595 36.2909L38.7096 36.1742L38.998 36.1607L41.3258 36.0396V30.3478H41.328ZM41.328 38.9539L39.4352 39.0526L29.6581 43.5665L29.6423 43.571C28.9168 43.8963 28.2002 44.0399 27.5017 43.9905C26.7536 43.9367 26.0528 43.6697 25.4061 43.1739L25.3453 43.1245L25.3047 43.0887L17.6885 36.0373L16.8458 33.3474L18.3465 33.1993H21.3254C21.0076 33.1185 20.6922 33.0265 20.3745 32.9278L19.3424 32.6048V31.5347V28.802V27.5098L20.6313 27.3527C22.6187 27.1127 24.6287 27.0409 26.6521 27.0678C28.6373 27.0925 30.5437 27.2047 32.4274 27.3371C33.0403 27.2698 33.6554 27.2159 34.2661 27.1823H34.2683L37.5199 27.1396L37.8872 27.1508C39.0364 27.1957 40.181 27.2877 41.3212 27.42V26.0829V24.3981H43.0157H48V27.7678H44.7079V38.2L47.7995 38.3436L47.6417 41.7022L42.9369 41.4778L41.3212 41.4015V39.7997V38.9539H41.328ZM14.7862 35.7794L14.437 33.5336H2.25111V6.40289H15.5276V11.9309V12.7722H16.3749H20.0432H20.8905V11.9309V6.40289H21.0167H34.5027V24.6493L36.7583 24.6269V6.40289V4.96935L36.2603 4.15494L34.0498 0.538418L33.7208 0H33.0899C23.1844 0 13.5334 0 3.66844 0H3.03751L2.70854 0.538418L0.498 4.15494L0 4.96935V6.40289V34.6553V35.7794H1.12892H14.7862ZM19.1937 6.40289V11.0874H17.2176V6.40289H19.1937ZM17.4407 4.15494L17.7944 2.24569H18.7453L19.0225 4.15494H17.4407ZM20.7305 4.15494L20.4533 2.24569H21.0144H32.4544L33.6239 4.15494H21.0144H20.7305ZM16.0797 2.24795L15.7237 4.1572H3.12759L4.29709 2.24795H15.7371H16.0797ZM4.93028 26.0425H8.68426H9.24759V26.6034V30.0921V30.6551H8.68426H4.93028H4.36696V30.0921V26.6034V26.0425H4.93028ZM8.12094 27.1665V29.5312H5.49588V27.1665H8.12094ZM14.1689 27.1665H11.5437V29.5312H14.1689V27.1665Z" fill="#025BFF"/>
</svg>
