<svg width="51" height="29" viewBox="0 0 51 29" fill="none" xmlns="http://www.w3.org/2000/svg">
<path fill-rule="evenodd" clip-rule="evenodd" d="M8.25393 12.4028H49.5524H51V13.8585V15.316H48.1048H46.5801H8.25393C6.78126 15.316 5.44157 15.9227 4.47006 16.8977C3.49856 17.8726 2.8972 19.2215 2.8972 20.7024C2.8972 22.1832 3.50049 23.5284 4.47006 24.5053C5.44349 25.4821 6.78126 26.0888 8.25393 26.0888H46.5801H48.1048H51V27.5444V29H49.5524H8.25393C5.98324 29 3.91883 28.0678 2.42495 26.5637C0.931073 25.0596 0 22.9837 0 20.7024C0 18.4172 0.929145 16.3433 2.42495 14.8411C3.91883 13.3351 5.98517 12.4028 8.25393 12.4028ZM41.2966 1.94215V3.51011V3.99468H40.8147H38.0196H37.5377V3.51011V1.94215H32.4065V8.81509H46.1946V1.94215H41.2966ZM38.5035 1.94215H40.3328V3.02366H38.5035V1.94215ZM31.4428 0H47.1602H48.126V0.971016V9.78623V10.7572H47.1602H31.4428H30.477V9.78623V0.971016V0H31.4428ZM18.8846 1.94215V3.51011V3.99468H18.4007H15.6077H15.1258V3.51011V1.94215H9.99457V8.81509H23.7825V1.94215H18.8846ZM16.0896 1.94215H17.9188V3.02366H16.0896V1.94215ZM9.02884 0H24.7483H25.714V0.971016V9.78623V10.7572H24.7483H9.02884H8.06311V9.78623V0.971016V0H9.02884ZM43.6174 16.7911C42.5842 16.7911 41.6455 17.2135 40.965 17.8958L40.9611 17.8997C40.2807 18.5839 39.8625 19.5279 39.8625 20.5668C39.8625 21.6057 40.2826 22.5476 40.9611 23.2338L40.9631 23.2357L40.965 23.2377C41.6474 23.9219 42.5861 24.3425 43.6174 24.3425C44.6544 24.3425 45.5931 23.9199 46.2736 23.2377C46.954 22.5554 47.3723 21.6096 47.3723 20.5668C47.3723 19.5279 46.9521 18.5859 46.2716 17.8978H46.2736C45.5931 17.2136 44.6544 16.7911 43.6174 16.7911ZM44.9088 19.272C44.5773 18.9386 44.1224 18.7331 43.6174 18.7331C43.1124 18.7331 42.6555 18.9386 42.3239 19.2681C41.9962 19.6014 41.7939 20.0609 41.7939 20.5687C41.7939 21.0784 41.9944 21.5378 42.3221 21.8673L42.3259 21.8712C42.6555 22.2007 43.1104 22.4042 43.6174 22.4042C44.1224 22.4042 44.5773 22.1987 44.9088 21.8673C45.2384 21.5339 45.4428 21.0765 45.4428 20.5687C45.4428 20.0589 45.2404 19.6015 44.9127 19.272H44.9088ZM8.84572 16.7911C7.81253 16.7911 6.87378 17.2135 6.19335 17.8958L6.19141 17.8997C5.50904 18.5839 5.09079 19.5279 5.09079 20.5668C5.09079 21.6057 5.51097 22.5476 6.19141 23.2338V23.2357L6.19529 23.2377C6.87765 23.9219 7.81446 24.3425 8.84572 24.3425C9.88276 24.3425 10.8215 23.9199 11.5019 23.2377C12.1823 22.5554 12.6026 21.6096 12.6026 20.5668C12.6026 19.5279 12.1804 18.5839 11.5019 17.8997L11.4981 17.8958C10.8176 17.2135 9.88083 16.7911 8.84572 16.7911ZM10.1391 19.2681C9.80949 18.9386 9.35267 18.7331 8.84572 18.7331C8.34069 18.7331 7.88383 18.9386 7.55421 19.2681C7.22459 19.6014 7.02219 20.0609 7.02219 20.5687C7.02219 21.0784 7.22458 21.5378 7.55227 21.8673L7.55615 21.8712C7.88384 22.2007 8.33876 22.4042 8.84572 22.4042C9.35074 22.4042 9.80755 22.1987 10.1372 21.8673C10.4668 21.5339 10.6711 21.0765 10.6711 20.5687C10.6711 20.0609 10.4687 19.6014 10.1391 19.2681ZM20.3187 16.7911C19.2816 16.7911 18.3429 17.2136 17.6625 17.8978H17.6644C16.9839 18.5839 16.5638 19.5279 16.5638 20.5668C16.5638 21.6057 16.9859 22.5495 17.6644 23.2357L17.6625 23.2377C18.3429 23.9219 19.2816 24.3425 20.3187 24.3425C21.3557 24.3425 22.2944 23.9199 22.9749 23.2377C23.6553 22.5554 24.0736 21.6096 24.0736 20.5668C24.0736 19.5279 23.6534 18.5839 22.9749 17.8997L22.971 17.8958C22.2925 17.2135 21.3538 16.7911 20.3187 16.7911ZM21.6121 19.2681C21.2805 18.9386 20.8256 18.7331 20.3187 18.7331C19.8137 18.7331 19.3568 18.9386 19.0272 19.272H19.0233C18.6957 19.6015 18.4933 20.0589 18.4933 20.5687C18.4933 21.0784 18.6957 21.5378 19.0233 21.8673H19.0272C19.3568 22.1987 19.8137 22.4042 20.3187 22.4042C20.8237 22.4042 21.2786 22.1987 21.6102 21.8673C21.9398 21.5339 22.1421 21.0765 22.1421 20.5687C22.1421 20.0609 21.9398 19.6014 21.6121 19.2681ZM32.0577 16.7911C31.0206 16.7911 30.0819 17.2136 29.4015 17.8978H29.4034C28.721 18.5839 28.3008 19.5279 28.3008 20.5668C28.3008 21.6057 28.723 22.5495 29.4034 23.2357L29.4015 23.2377C30.0819 23.9219 31.0206 24.3425 32.0577 24.3425C33.0889 24.3425 34.0277 23.9199 34.71 23.2377V23.2357L34.712 23.2338C35.3924 22.5476 35.8126 21.6057 35.8126 20.5668C35.8126 19.5298 35.3905 18.5858 34.712 17.8997L34.71 17.8978C34.0277 17.2136 33.0889 16.7911 32.0577 16.7911ZM33.3472 19.2681C33.0195 18.9366 32.5646 18.7331 32.0577 18.7331C31.5526 18.7331 31.0958 18.9386 30.7662 19.272H30.7623C30.4346 19.6015 30.2322 20.0589 30.2322 20.5687C30.2322 21.0784 30.4346 21.5378 30.7623 21.8673H30.7662C31.0958 22.1987 31.5526 22.4042 32.0577 22.4042C32.5646 22.4042 33.0195 22.2007 33.3472 21.8712L33.351 21.8673C33.6787 21.5378 33.8812 21.0784 33.8812 20.5687C33.8812 20.0589 33.6787 19.6015 33.351 19.272L33.3472 19.2681Z" fill="#025BFF"/>
</svg>
