<svg width="37" height="28" viewBox="0 0 37 28" fill="none" xmlns="http://www.w3.org/2000/svg">
<path fill-rule="evenodd" clip-rule="evenodd" d="M7.6935 6.10075H11.1225V3.82617H11.1261C11.1098 2.74884 11.4167 1.87252 12.0578 1.20425C12.679 0.555387 13.569 0.156907 14.7368 0.0123224L14.8457 0H14.8839H17.3903H19.3954H21.9018H21.9399L22.0489 0.0123224C23.2167 0.156907 24.1067 0.555387 24.7278 1.20425C25.3689 1.87252 25.6741 2.74884 25.6577 3.82617H25.6631V6.10075H29.3083C30.3309 6.10075 31.1573 6.49042 31.8002 7.11108L31.802 7.11457L31.8038 7.11635C32.474 7.76874 32.9154 8.66802 33.1605 9.61311L36.9146 24.1227C36.9728 24.3466 37 24.5652 37 24.7768C37 25.5667 36.6422 26.2773 36.0792 26.831C35.5725 27.3317 34.886 27.7091 34.1631 27.8837C33.8525 27.9612 33.5328 28 33.2186 28H24.686H12.314H3.78137C3.46717 28 3.14748 27.9612 2.8369 27.8837C2.11586 27.7091 1.43116 27.3335 0.920803 26.831C0.359591 26.2773 0 25.5667 0 24.7768C0 24.5652 0.0290542 24.3466 0.085357 24.1227L3.84129 9.61311C4.08466 8.66802 4.52601 7.76874 5.19619 7.11635L5.19802 7.11457L5.1998 7.11108C5.84637 6.49042 6.66915 6.10075 7.6935 6.10075ZM11.7655 21.1763H12.7716V18.6267L14.014 17.4612L16.7129 21.1763H18.0369L14.7168 16.7982L17.9006 13.8131H16.5403L12.7716 17.4648V13.8131H11.7655V21.1763ZM22.423 18.2847H24.6479V19.6652C24.4354 19.8504 24.123 20.025 23.7089 20.1907C23.2948 20.3529 22.8716 20.4358 22.4375 20.4358C21.9381 20.4358 21.4659 20.3265 21.0227 20.1131C20.5796 19.898 20.2381 19.5683 20.0056 19.1257C19.775 18.6814 19.6587 18.133 19.6587 17.4735C19.6587 16.9393 19.7568 16.4456 19.9475 15.9872C20.062 15.7244 20.22 15.4811 20.4252 15.259C20.6304 15.0368 20.901 14.8569 21.2334 14.7229C21.5694 14.5871 21.9636 14.5184 22.4212 14.5184C22.8045 14.5184 23.1513 14.5836 23.4637 14.7124C23.7797 14.8411 24.0195 15.0121 24.1866 15.2254C24.3555 15.4423 24.4972 15.7368 24.6116 16.1106L25.516 15.8708C25.3871 15.3753 25.1946 14.9715 24.9439 14.663C24.6915 14.3562 24.3446 14.1146 23.9015 13.9436C23.4583 13.769 22.9624 13.6862 22.4158 13.6862C21.6602 13.6862 20.9937 13.836 20.4125 14.1375C19.8349 14.439 19.3899 14.8992 19.0812 15.5199C18.7724 16.1423 18.6199 16.8088 18.6199 17.5264C18.6199 18.2493 18.7743 18.9035 19.0848 19.4889C19.3954 20.0743 19.8567 20.5239 20.4634 20.8325C21.0718 21.1428 21.7492 21.298 22.4939 21.298C23.0442 21.298 23.5836 21.201 24.1085 21.0088C24.6316 20.8184 25.1401 20.531 25.6341 20.1501V17.4206H22.423V18.2847ZM13.4908 6.10075H23.2912V3.82617L23.2948 3.80503C23.3057 3.33248 23.204 2.98689 22.9934 2.76473C22.7718 2.53198 22.3903 2.37503 21.8509 2.29745H19.3918H17.3867H14.9275C14.3863 2.37503 14.0067 2.53198 13.7833 2.76473C13.5726 2.98689 13.4727 3.33248 13.4818 3.80503L13.4872 3.82617V6.10075H13.4908ZM12.3121 8.24656H7.6935C7.30846 8.24656 6.99786 8.39119 6.75812 8.6257L6.75268 8.6292C6.39126 8.98185 6.13701 9.53022 5.98081 10.135L2.22483 24.6428C2.21393 24.6851 2.20853 24.7327 2.20853 24.7786C2.20853 24.9673 2.31932 25.163 2.49004 25.3322C2.71525 25.5544 3.03122 25.7237 3.36722 25.8066C3.49981 25.8401 3.63786 25.8577 3.77771 25.8577H12.3103H24.6824H33.215C33.3531 25.8577 33.4911 25.8383 33.6255 25.8066C33.9633 25.7237 34.2775 25.5544 34.5027 25.3322C34.6752 25.1612 34.7842 24.9673 34.7842 24.7786C34.7842 24.7327 34.7788 24.6851 34.7679 24.6428L31.0138 10.135C30.8557 9.53022 30.6015 8.98361 30.2401 8.6292L30.2346 8.6257C29.9931 8.39119 29.6843 8.24656 29.3011 8.24656H24.6806H12.3121Z" fill="#025BFF"/>
</svg>
