<svg width="42" height="36" viewBox="0 0 42 36" fill="none" xmlns="http://www.w3.org/2000/svg">
<path fill-rule="evenodd" clip-rule="evenodd" d="M15.815 4.0836H36.9585H37.4842L37.8799 4.43344L41.5248 7.6463L42 8.06613V8.69582V31.7823V33.1818C32.5378 33.1818 30.8948 33.1818 8.37404 33.1818V30.3868C26.6739 30.3868 32.4932 30.3868 39.2087 30.3868V10.4199H36.01H35.2884L35.3155 9.69682L35.4241 6.88244H15.815V4.0836ZM15.4018 20.8708V22.7347H29.3294V20.8708H15.4018ZM16.0885 16.2683V18.1322H30.0161V16.2683H16.0885ZM16.779 11.8834V13.7473H30.7067V11.8834H16.779ZM4.03861 18.7036L7.81533 19.6968C8.49425 17.6657 9.10726 15.6851 9.63488 13.7843C10.8065 9.56464 11.5455 5.77651 11.5805 2.78525L11.0199 2.63756V2.63946L10.9869 2.63169L10.9772 2.62979L10.9656 2.62588L10.9326 2.61811L10.9345 2.61615H10.9306H10.9229L10.9035 2.61033H10.9015L10.8918 2.60838V2.60642L10.888 2.60452L10.8569 2.59669L10.8472 2.59479L10.8143 2.58702L10.8026 2.58507H10.7968L10.7638 2.5773V2.57534H10.7619H10.758L10.725 2.56757H10.7231V2.56953L10.6901 2.56176L10.6668 2.55399L10.6572 2.55203H10.659L10.6435 2.54811L10.6338 2.54622H10.63L10.597 2.53839H10.5951L10.5621 2.53062L10.5524 2.52872L10.5446 2.5248L10.5116 2.51703L10.5077 2.51507L10.4729 2.50535H10.469L10.4612 2.50345L10.4282 2.49568H10.4224L10.3933 2.48785V2.48981L10.3836 2.48785L10.3758 2.48399L10.3506 2.47818L10.3409 2.47622L10.3293 2.47427L10.2963 2.4665L10.2866 2.46258L10.2769 2.46068H10.273H10.2672L10.2478 2.45677L10.2245 2.45096H10.2226L10.2129 2.449L10.209 2.44514L10.178 2.43737L10.1664 2.43542L10.1353 2.42764L10.1237 2.42569H10.1179L10.0966 2.42177L10.0868 2.41987H10.0849L10.0829 2.41792L10.05 2.41015H10.0461L10.0364 2.40819L10.0112 2.40238V2.40427L10.0015 2.40238L9.99758 2.39846L9.96461 2.39069L9.94525 2.38684L9.93749 2.38488L9.92192 2.38096L9.90061 2.37901L9.89091 2.37711V2.37515L9.8851 2.37319L9.88315 2.37515L9.87344 2.37319L9.86959 2.36934L9.83662 2.36157H9.83271L9.82496 2.35961L9.79199 2.35184L9.78619 2.34988L9.75321 2.34211L9.7338 2.34016L9.72409 2.3382L9.71438 2.3363V2.3382L9.70467 2.3363L9.69692 2.33238L9.6756 2.32847L9.6659 2.32657L9.65814 2.32266L9.62517 2.31489L9.60771 2.31103L9.598 2.30907V2.30712L9.58249 2.30326L9.01414 2.15355C7.57676 4.77746 6.36244 8.4412 5.31496 12.6919C4.87851 14.5675 4.44208 16.5967 4.03861 18.7036ZM7.21401 21.4617L3.69527 20.5345C3.30343 22.7114 2.93681 24.9544 2.59929 27.2245L3.04546 27.3431L3.06872 27.3509L3.07068 27.3469L3.07843 27.3509L3.08423 27.3547L3.11531 27.3625L3.13467 27.3664L3.14438 27.3684V27.3703L3.15409 27.3722V27.3703L3.16379 27.3722L3.16764 27.3761L3.20062 27.3859L3.21032 27.3878H3.21423L3.2472 27.3955L3.25691 27.3994L3.28213 27.4053V27.4033L3.29178 27.4072L3.29959 27.4111L3.32481 27.4169V27.415L3.33446 27.4169L3.33837 27.4208L3.37134 27.4286L3.37909 27.4325L3.41402 27.4403L3.43148 27.4442L3.44119 27.448L3.46055 27.4519L3.4586 27.4538L3.46446 27.4558L3.49352 27.4617V27.4597L3.50323 27.4617L3.51099 27.4655L3.5362 27.4713L3.54591 27.4733L3.55757 27.4772L3.59055 27.485V27.4869L3.59244 27.4888L3.62547 27.4966L3.64288 27.5005L3.65454 27.5025V27.5044L3.6681 27.5083L3.6778 27.5102L3.71078 27.52L3.72048 27.5219L3.75346 27.5296L3.76317 27.5336H3.76512H3.76707L3.79034 27.5394V27.5374L3.80194 27.5394L3.80389 27.5433L3.83687 27.553L3.84658 27.5549H3.85048L3.88345 27.5646L3.89316 27.5666L3.92614 27.5744L3.92803 27.5763V27.5744L3.961 27.5821L3.97267 27.586L3.98237 27.5879V27.5899L4.01144 27.5977L4.02505 27.6016L4.03476 27.6035L4.05027 27.6074L4.05998 27.6113L4.09295 27.6191V27.621L4.09485 27.6191L4.12782 27.6269L4.15695 27.6346L4.16665 27.6366L4.17246 27.6385L4.18216 27.6404L4.18412 27.6424L4.18601 27.6444L4.21904 27.6521L4.22869 27.656L4.26167 27.6637L4.27137 27.6657H4.27913L4.3005 27.6715L4.31021 27.6735L4.32181 27.6774L4.35289 27.6871V27.6852L4.38586 27.6929L4.39551 27.6968L4.39942 27.7007L4.43239 27.7085L4.44985 27.7124L4.45956 27.7143V27.7162L4.47703 27.7202L4.92509 27.8406C5.70876 25.689 6.49047 23.5549 7.21401 21.4617ZM5.43916 29.8951L6.02687 30.0505L6.32368 29.2731C8.31389 24.0875 10.1295 18.9349 11.4233 14.2799C12.7327 9.5666 13.5183 5.33142 13.4271 2.04085L13.4078 1.34307L12.7366 1.16815L11.4835 0.837706L11.4757 0.83385L11.4428 0.82608L11.4331 0.824123L11.4098 0.81831H11.4039H11.4001L11.402 0.816352L11.369 0.808582L11.3574 0.804667L11.3477 0.802769V0.804667L11.3186 0.798855L11.3089 0.796897L11.2759 0.78717H11.274V0.785271L11.241 0.777501H11.2333L11.2274 0.775544L11.1944 0.767774H11.1906L11.1809 0.765816L11.1789 0.761901L11.144 0.754131V0.756088H11.1382L11.1072 0.746361H11.0994L11.082 0.742505L11.0722 0.740548L11.0509 0.732778L11.0179 0.725007L11.0083 0.72305V0.725007L10.983 0.719195V0.721093H10.9811L10.9694 0.717237L10.9404 0.711424V0.709467L10.9306 0.707509L10.8977 0.699739H10.8938L10.8841 0.697782L10.8511 0.690012L10.8472 0.686156L10.8375 0.684199V0.686156L10.8123 0.680284L10.8046 0.676428L10.7968 0.674471L10.7735 0.670556L10.758 0.668658L10.725 0.660888L10.7192 0.65893L10.6862 0.649203L10.6785 0.647245L10.6688 0.645288V0.647245L10.6397 0.639475L10.63 0.637518L10.597 0.629747H10.5951V0.62779L10.5621 0.62002L10.5524 0.616164L10.5407 0.614207V0.616164L10.5155 0.610351L10.5077 0.608394H10.5039L10.4709 0.600624L10.467 0.598666L10.4554 0.596709V0.598666L10.4457 0.596709V0.594752L10.436 0.592854L10.4185 0.588939L10.4069 0.586981V0.585083L10.3972 0.583126L10.3758 0.579211L10.3429 0.571441L10.339 0.567585L10.3293 0.565628V0.567585L10.3041 0.561713L10.2944 0.559815L10.2614 0.552045H10.2575L10.2478 0.550087L10.2342 0.546173L10.2245 0.544215L10.2052 0.54036L10.1722 0.532589L10.1683 0.528675L10.1586 0.526777V0.528675L10.1353 0.522862L10.1237 0.520904L10.114 0.518947L10.1121 0.520904L10.1062 0.518947L10.0966 0.517049L10.0791 0.513134L10.0442 0.505364L8.79297 0.174979L8.12186 0L7.763 0.598666C6.06958 3.42277 4.67678 7.4966 3.50903 12.2488C2.34905 16.9582 1.40442 22.3363 0.597477 27.8173L0.475235 28.6395L1.16772 28.8222L0.0446347 31.5355L0 31.6482L0.0155097 31.7707L0.43066 35.0729L0.471387 35.3936L0.783653 35.4675L1.64106 35.6716L2.47906 35.9126L2.78552 36L2.97951 35.7415L4.96002 33.071L5.03372 32.9699L5.04727 32.8475L5.43916 29.8951ZM4.47312 30.1419L4.18021 32.5792L2.46545 34.8902L1.92036 34.7328L1.89905 34.7269L1.34816 34.5967L0.98735 31.7396L1.92622 29.4714L4.47312 30.1419ZM38.8634 9.01849L36.8033 7.20316L36.7335 9.01849H38.8634Z" fill="#025BFF"/>
</svg>
