<svg width="34" height="48" viewBox="0 0 34 48" fill="none" xmlns="http://www.w3.org/2000/svg">
<path fill-rule="evenodd" clip-rule="evenodd" d="M3.59682 5.58856H7.94159V4.46263V3.19111H9.22414H10.5398L10.5336 3.18291L10.142 2.58202L10.4528 1.94013L11.0495 0.719873L11.3996 0H12.2014H14.8659H15.6284H18.2908H19.0927L19.4448 0.719873L20.0395 1.94013L20.3524 2.58202L19.9587 3.18291L19.9524 3.19111H21.1335H22.416V4.46263V5.58856H26.0273C27.0156 5.58856 27.9148 5.9885 28.5654 6.63451L28.5695 6.63858C29.2201 7.28255 29.6262 8.17262 29.6262 9.15088V27.7438H27.6517V9.15088C27.6517 8.7079 27.4693 8.30801 27.1772 8.01474C26.8809 7.72352 26.4748 7.54509 26.0273 7.54509H22.416V8.98477V10.2542H21.1335H9.22414H7.94159V8.98477V7.54509H3.59682C3.15136 7.54509 2.74525 7.72552 2.45104 8.01674C2.15475 8.31001 1.97447 8.70995 1.97447 9.15088V38.8635C1.97447 39.3065 2.15681 39.7085 2.44895 39.9977L2.45312 40.0017C2.74526 40.2929 3.15138 40.4714 3.59891 40.4714H11.6524V42.4258H3.59891C2.61061 42.4258 1.71346 42.0259 1.0608 41.3799L1.05872 41.3778L1.05663 41.3758C0.406052 40.7318 0 39.8397 0 38.8635V9.14881C0 8.16851 0.40398 7.27846 1.05663 6.63245C1.70928 5.98643 2.60438 5.58856 3.59682 5.58856ZM21.9664 36.22L19.3309 37.5264L21.8752 42.5632L22.3041 43.4143L23.2571 43.3713L24.6288 43.3097L25.6544 43.2626L25.9693 42.3028C26.4086 40.9738 26.9058 39.6941 27.4983 38.4944C28.0806 37.3131 28.7436 36.2261 29.5081 35.2561L27.1835 33.4595C26.2677 34.6162 25.499 35.8754 24.838 37.2105C24.4402 38.0227 24.0777 38.8676 23.7441 39.7413L21.9664 36.22ZM15.4212 29.4727H14.1387V30.7422V46.7285V48H15.4212H32.7154H34V46.7285V30.7422V29.4727H32.7154H15.4212ZM31.4329 32.0137H16.7079V45.4611H31.4329V32.0137ZM12.8956 5.73214H10.5066V7.71326H19.851V5.73214H17.5946H15.2534H15.2368H12.8956ZM13.9688 3.77154L15.2451 5.71981L16.5214 3.77154L17.3273 2.54309H15.6284H14.8659H13.1649L13.9688 3.77154ZM11.8658 25.2931V27.2475H22.273V25.2931H11.8658ZM6.82071 24.2553H6.32759V24.7434V27.7274V28.2155H6.82071H10.0446H10.5377V27.7274V24.7434V24.2553H10.0446H6.82071ZM9.54939 25.2336H7.31384V27.2414H9.54939V25.2336ZM11.8658 19.5999V21.5523H22.273V19.5999H11.8658ZM6.82071 18.5622H6.32759V19.0503V22.0322V22.5204H6.82071H10.0446H10.5377V22.0322V19.0503V18.5622H10.0446H6.82071ZM9.54939 19.5405H7.31384V21.5462H9.54939V19.5405ZM11.8658 14.0504V16.0048H22.273V14.0504H11.8658ZM6.82071 13.0126H6.32759V13.5007V16.4827V16.9707H6.82071H10.0446H10.5377V16.4827V13.5007V13.0126H10.0446H6.82071ZM9.54939 13.9909H7.31384V15.9966H9.54939V13.9909Z" fill="#025BFF"/>
</svg>
