<svg width="45" height="34" viewBox="0 0 45 34" fill="none" xmlns="http://www.w3.org/2000/svg">
<path fill-rule="evenodd" clip-rule="evenodd" d="M30.9393 0H42.4627C43.1586 0 43.793 0.289361 44.2504 0.753546H44.2563C44.7137 1.21773 45 1.85876 45 2.56609V31.4359C45 32.1433 44.7137 32.7843 44.2543 33.2465C43.797 33.7106 43.1606 34 42.4627 34H30.9393C30.2413 34 29.6089 33.7106 29.1496 33.2465L29.1456 33.2424C28.6863 32.7802 28.3999 32.1392 28.3999 31.4359V27.9616H21.5177V29.6114C23.188 29.742 24.8365 29.963 26.4691 30.2644L27.0517 30.3709V30.9637V33.2143V33.9257H26.3478H9.37982H8.67588V33.2143V30.9637V30.3729L9.25457 30.2644C10.8732 29.963 12.4759 29.748 14.0608 29.6194V27.9616H3.48985C2.53337 27.9616 1.66241 27.5657 1.03006 26.9267H1.02411C0.393754 26.2897 0 25.4055 0 24.435V5.516C0 4.54544 0.391766 3.66325 1.02411 3.02424H1.03006C1.66241 2.38724 2.53337 1.9894 3.48985 1.9894H28.4695C28.5789 1.51316 28.8195 1.08712 29.1496 0.753546H29.1536C29.6089 0.287352 30.2433 0 30.9393 0ZM6.68938 11.3173H6.10875L6.2002 11.9L7.0175 17.0985L7.0831 17.5224H7.50668H14.9337H15.3573L15.4229 17.0985L16.2422 11.9L16.3337 11.3173H15.751H6.68938ZM7.00554 18.3182V19.323H7.3018C7.07511 19.6304 6.93794 20.0102 6.93794 20.4201C6.93794 20.9225 7.14275 21.3806 7.46887 21.7122H7.47087C7.79898 22.0438 8.25235 22.2487 8.74749 22.2487C9.24462 22.2487 9.69801 22.0438 10.0261 21.7122H10.0281C10.3542 21.3806 10.559 20.9225 10.559 20.4201C10.559 20.0102 10.4238 19.6304 10.1931 19.323H14.029C13.8003 19.6304 13.6651 20.0102 13.6651 20.4201C13.6651 20.9225 13.8679 21.3806 14.194 21.7122H14.196H14.198C14.5241 22.0438 14.9775 22.2487 15.4746 22.2487C15.9717 22.2487 16.4231 22.0438 16.7512 21.7122H16.7532C17.0813 21.3806 17.2842 20.9225 17.2842 20.4201C17.2842 19.978 17.1271 19.5721 16.8666 19.2546L16.9222 18.899L17.823 13.2644L21.9234 11.9121L21.6171 10.9556L17.2285 12.4024L16.9401 12.4968L16.8924 12.8003L16.0115 18.3162H7.00554V18.3182ZM15.1703 12.324H7.27001L7.93019 16.5158H14.5102L15.1703 12.324ZM26.8568 12.1632L28.1056 10.9013L28.8653 10.1337L27.8212 9.8825L22.7148 8.65075L21.7345 8.41563L22.0009 9.40025L23.3611 14.4199L23.6335 15.4246L24.3613 14.6892L25.7333 13.3026L28.7678 16.2043L29.8615 15.0368L26.8568 12.1632ZM23.4187 10.0674L24.2379 13.0976L26.5009 10.8089L23.4187 10.0674ZM36.5289 19.1541V21.3907H38.2431V19.1541H36.5289ZM36.5289 14.1767H43.1208V12.2758H36.5289V10.0373H43.1208V8.1926H36.5289V5.95606H43.1208V2.56407C43.1208 2.38121 43.0453 2.21442 42.926 2.09586L42.928 2.0939C42.8067 1.97333 42.6416 1.89895 42.4627 1.89895H30.9393C30.818 1.89895 30.7066 1.93111 30.6091 1.98738H31.3171C32.2736 1.98738 33.1445 2.38327 33.7769 3.02228H33.7828C34.4132 3.66128 34.8069 4.54341 34.8069 5.51398V24.433C34.8069 25.4036 34.4152 26.2877 33.7828 26.9247H33.7769C33.1445 27.5617 32.2736 27.9596 31.3171 27.9596H30.2791V31.4339C30.2791 31.6168 30.3526 31.7836 30.4699 31.9021L30.4739 31.9062C30.5952 32.0247 30.7583 32.0991 30.9393 32.0991H42.4627C42.6416 32.0991 42.8067 32.0247 42.926 31.9021C43.0453 31.7795 43.1208 31.6148 43.1208 31.4339V16.4113H36.5289V14.1767ZM15.4687 29.5229C16.3277 29.4807 17.1808 29.4586 18.0299 29.4627C18.7278 29.4667 19.4178 29.4847 20.1078 29.5189V27.9596H15.4687V29.5229ZM18.0259 30.8813C15.4289 30.8713 12.7842 31.0863 10.0838 31.5545V32.5009H25.6419V31.5565C23.1443 31.1265 20.6069 30.8934 18.0259 30.8813ZM31.319 4.83678H3.48784C3.30291 4.83678 3.13392 4.91112 3.01262 5.03369L3.01657 5.03774C2.89328 5.16233 2.81776 5.33112 2.81776 5.51398V24.433C2.81776 24.6179 2.89328 24.7887 3.01657 24.9093L3.01262 24.9132C3.13591 25.0358 3.30291 25.1122 3.48784 25.1122H31.319C31.504 25.1122 31.673 25.0358 31.7943 24.9132L31.7903 24.9093C31.9136 24.7867 31.9892 24.6159 31.9892 24.433V5.51398C31.9892 5.32911 31.9136 5.16032 31.7903 5.03774L31.7943 5.03369C31.671 4.91112 31.502 4.83678 31.319 4.83678Z" fill="#025BFF"/>
</svg>
