<svg width="34" height="44" viewBox="0 0 34 44" fill="none" xmlns="http://www.w3.org/2000/svg">
<path d="M33.8817 0H0V43.6514H33.8817V0Z" fill="#27AE60"/>
<path d="M10.5963 40.0532L9.11677 37.5615C8.51443 36.6096 8.13672 35.99 7.77531 35.3377H7.74143C7.41516 35.99 7.08764 36.5927 6.4853 37.5784L5.09238 40.0532H3.37195L6.91572 34.3519L3.50999 28.7852H5.24799L6.77894 31.4261C7.20811 32.1621 7.53563 32.7307 7.84558 33.3322H7.89703C8.2233 32.6628 8.51695 32.1451 8.94737 31.4261L10.5298 28.7852H12.2502L8.724 34.267L12.3368 40.052H10.5963V40.0532Z" fill="white"/>
<path d="M14.588 28.7871H16.0838V38.8344H21.0394V40.0554H14.588V28.7871Z" fill="white"/>
<path d="M23.017 38.2813C23.6884 38.6839 24.6697 39.0174 25.7012 39.0174C27.2321 39.0174 28.1269 38.2316 28.1269 37.0943C28.1269 36.0405 27.507 35.4391 25.9421 34.8535C24.0498 34.2011 22.879 33.2493 22.879 31.6608C22.879 29.9063 24.376 28.6016 26.6298 28.6016C27.8169 28.6016 28.6778 28.8683 29.1935 29.1533L28.7807 30.3391C28.4017 30.1391 27.6274 29.8044 26.5784 29.8044C24.9947 29.8044 24.3936 30.7247 24.3936 31.4923C24.3936 32.5448 25.0989 33.0637 26.6988 33.6652C28.6602 34.4012 29.6578 35.3215 29.6578 36.9754C29.6578 38.7142 28.3327 40.2178 25.5983 40.2178C24.4802 40.2178 23.2579 39.9013 22.6393 39.4987L23.017 38.2813Z" fill="white"/>
<path d="M25.1641 0L34.0001 8.48779H25.1641V0Z" fill="white"/>
</svg>
