<svg width="34" height="44" viewBox="0 0 34 44" fill="none" xmlns="http://www.w3.org/2000/svg">
	<path d="M34 0H0V43.804H34V0Z" fill="#483C8E"/>
	<path d="M5.18311 39.3375L11.6406 30.1631V30.112H5.73591V28.8867H13.5912V29.7762L7.16895 38.9177V38.9688H13.6768V40.1941H5.18311V39.3375Z" fill="white"/>
	<path d="M17.5441 28.8906V40.197H16.0417V28.8906H17.5441Z" fill="white"/>
	<path d="M20.6846 29.0225C21.4099 28.9057 22.3594 28.8047 23.567 28.8047C25.0529 28.8047 26.1409 29.1393 26.8297 29.7453C27.4682 30.2807 27.8485 31.1032 27.8485 32.1095C27.8485 33.1328 27.5374 33.9371 26.9506 34.5248C26.156 35.3462 24.8615 35.766 23.3945 35.766C22.945 35.766 22.5307 35.7501 22.1856 35.6662V40.1963H20.6833V29.0225H20.6846ZM22.1869 34.4737C22.5143 34.5577 22.9286 34.5905 23.4298 34.5905C25.2431 34.5905 26.3475 33.7351 26.3475 32.1764C26.3475 30.6834 25.2595 29.9619 23.6023 29.9619C22.9462 29.9619 22.4463 30.013 22.1869 30.0787V34.4737Z" fill="white"/>
	<path d="M25.1852 8.51733V0L34 8.51733H25.1852Z" fill="white"/>
</svg>
