<svg width="32" height="31" viewBox="0 0 32 31" fill="none" xmlns="http://www.w3.org/2000/svg">
<path fill-rule="evenodd" clip-rule="evenodd" d="M23.0667 10.9333L10.1333 23.8667H0V19.4667H8.26667L21.3333 6.4H31.3333V10.8H23.0667V10.9333ZM6.53333 11.2C6.53333 10 5.6 9.06667 4.4 9.06667C3.2 9.06667 2.26667 10 2.26667 11.2C2.26667 12.4 3.2 13.3333 4.4 13.3333C5.6 13.3333 6.53333 12.4 6.53333 11.2ZM31.4667 2.26667H19.6L7.6 14.2667C6.8 15.0667 5.6 15.7333 4.4 15.7333C2 15.7333 0.133334 13.7333 0.133334 11.3333C0.133334 8.93333 2.26667 6.93333 4.4 6.93333C6.66667 6.93333 8.13334 8.26667 8.53333 10.1333L18.6667 0H31.4667V2.26667ZM24.9333 19.2C24.9333 20.4 25.8667 21.3333 27.0667 21.3333C28.2667 21.3333 29.2 20.4 29.2 19.2C29.2 18 28.2667 17.0667 27.0667 17.0667C25.8667 16.9333 24.9333 18 24.9333 19.2ZM0 28.2667H11.8667L23.8667 16.2667C24.6667 15.4667 25.7333 14.8 27.0667 14.8C29.4667 14.8 31.4667 16.6667 31.4667 19.2C31.4667 21.6 29.3333 23.4667 27.0667 23.4667C24.8 23.4667 23.4667 22.1333 22.9333 20.2667L12.8 30.4H0V28.2667Z" fill="white"/>
</svg>
