<svg width="38" height="29" viewBox="0 0 38 29" fill="none" xmlns="http://www.w3.org/2000/svg">
<path fill-rule="evenodd" clip-rule="evenodd" d="M30.0833 7.49576L28.7436 8.97034L33.0064 13.3941L29.8397 16.589L25.5769 12.1653C22.8974 14.8686 22.4103 15.2373 21.9231 15.8517C23.6282 17.572 26.1859 20.1525 31.6667 25.8051L28.6218 28.8771C22.6538 22.9788 20.0962 20.2754 18.7564 19.0466L8.89103 29L5.84615 25.928C10.7179 20.8898 13.641 18.0636 15.5897 15.9746C14.6154 14.6229 12.5449 12.6568 8.89103 8.97034L4.6282 13.2712L0 8.72458L8.64744 0H14.9808L16.4423 1.47458L12.1795 5.77542C15.8333 9.46186 17.6603 11.3051 19 12.6568L22.6538 8.97034L18.391 4.54661L21.5577 1.3517L25.9423 5.65254L27.282 4.30085L23.0192 0H29.3526L38 8.72458L34.8333 11.9195L30.0833 7.49576Z" fill="white"/>
</svg>
