<svg width="20" height="20" viewBox="0 0 20 20" fill="none" xmlns="http://www.w3.org/2000/svg">
<path d="M17.7059 5.86536L12.8405 5.86536M12.8405 5.86536V1M12.8405 5.86536L17.7059 1.00012M18.1054 13.8782V16.4585C18.1064 16.698 18.0573 16.9351 17.9614 17.1546C17.8654 17.3741 17.7247 17.5711 17.5482 17.733C17.3717 17.895 17.1633 18.0182 16.9364 18.095C16.7094 18.1717 16.469 18.2002 16.2304 18.1787C13.5838 17.8911 11.0416 16.9867 8.80793 15.5382C6.72982 14.2177 4.96795 12.4558 3.64744 10.3777C2.19388 8.13392 1.2893 5.5793 1.00698 2.92078C0.985488 2.68294 1.01375 2.44323 1.08998 2.21691C1.1662 1.99059 1.28872 1.78263 1.44972 1.60625C1.61073 1.42988 1.80669 1.28896 2.02514 1.19247C2.24359 1.09598 2.47974 1.04603 2.71855 1.0458H5.29879C5.7162 1.0417 6.12085 1.1895 6.43734 1.46168C6.75382 1.73386 6.96054 2.11183 7.01896 2.52515C7.12787 3.35088 7.32984 4.16165 7.62102 4.94198C7.73674 5.24982 7.76178 5.58439 7.69318 5.90603C7.62459 6.22767 7.46523 6.52291 7.23398 6.75675L6.14168 7.84906C7.36605 10.0023 9.14892 11.7852 11.3022 13.0096L12.3945 11.9173C12.6283 11.686 12.9236 11.5266 13.2452 11.458C13.5668 11.3895 13.9014 11.4145 14.2093 11.5302C14.9896 11.8214 15.8003 12.0234 16.6261 12.1323C17.0439 12.1912 17.4254 12.4017 17.6982 12.7236C17.971 13.0455 18.1159 13.4564 18.1054 13.8782Z" stroke="#A9BAD8" stroke-width="2" stroke-linecap="round" stroke-linejoin="round"/>
</svg>
