<svg width="20" height="22" viewBox="0 0 20 22" fill="none" xmlns="http://www.w3.org/2000/svg">
<path fill-rule="evenodd" clip-rule="evenodd" d="M10.9732 21.3819C13.3952 19.7589 19.5 15.1114 19.5 9.5C19.5 4.25329 15.2467 0 10 0C4.75329 0 0.5 4.25329 0.5 9.5C0.5 15.1114 6.60477 19.7589 9.0268 21.3819C9.6218 21.7806 10.3782 21.7806 10.9732 21.3819ZM10 12.5C11.6569 12.5 13 11.1569 13 9.5C13 7.84315 11.6569 6.5 10 6.5C8.34315 6.5 7 7.84315 7 9.5C7 11.1569 8.34315 12.5 10 12.5Z" fill="#A9BAD8"/>
</svg>
