<svg width="24" height="24" viewBox="0 0 24 24" fill="none" xmlns="http://www.w3.org/2000/svg">
<path d="M20.5458 4H3.45416C2.37491 4 1.5 4.87491 1.5 5.95416C1.5 6.60754 1.82654 7.2177 2.37019 7.58013L10.225 12.8166C10.8665 13.2443 11.1872 13.4582 11.5339 13.5412C11.8403 13.6147 12.1597 13.6147 12.4661 13.5412C12.8128 13.4582 13.1335 13.2443 13.775 12.8166L13.775 12.8166L21.6298 7.58013C22.1735 7.2177 22.5 6.60754 22.5 5.95416C22.5 4.87491 21.6251 4 20.5458 4Z" fill="#A9BAD8"/>
<path d="M4.7 20H19.3C20.4201 20 20.9802 20 21.408 19.782C21.7843 19.5903 22.0903 19.2843 22.282 18.908C22.5 18.4802 22.5 17.9201 22.5 16.8V8.5L14.6626 13.725C13.7003 14.3665 13.2192 14.6872 12.6991 14.8119C12.2395 14.922 11.7605 14.922 11.3009 14.8119C10.7808 14.6872 10.2997 14.3665 9.33744 13.725L1.5 8.5V16.8C1.5 17.9201 1.5 18.4802 1.71799 18.908C1.90973 19.2843 2.21569 19.5903 2.59202 19.782C3.01984 20 3.5799 20 4.7 20Z" fill="#A9BAD8"/>
</svg>
