<svg width="26" height="28" viewBox="0 0 26 28" fill="none" xmlns="http://www.w3.org/2000/svg">
<path d="M13 0C10.075 0 5.525 0.26 2.73 2.795C0.78 4.745 0 7.475 0 11.05C0 11.375 0 11.7 0 12.025C0 12.35 0 12.675 0 13C0 16.575 0.78 19.305 2.73 21.255C3.77 22.23 5.135 22.88 6.5 23.27V26.26C6.5 27.3 7.15 27.3 7.28 27.3C7.605 27.3 7.865 27.17 8.125 26.91C8.255 26.845 9.425 25.48 10.725 23.985C11.57 24.05 12.35 24.05 13 24.05C15.925 24.05 20.475 23.79 23.27 21.255C25.22 19.305 26 16.575 26 13C26 12.675 26 12.35 26 12.025C26 11.7 26 11.375 26 11.05C26 7.475 25.22 4.745 23.27 2.795C20.475 0.26 15.925 0 13 0Z" fill="#A9BAD8"/>
<path d="M19.175 16.1848C18.46 15.5998 18.135 15.4048 17.095 14.8198C16.705 14.5598 16.055 14.3648 15.73 14.3648C15.535 14.3648 15.21 14.5598 15.08 14.6898C14.625 15.1448 14.495 15.6648 13.78 15.6648C13.065 15.6648 11.765 14.9498 10.855 13.9748C9.81501 12.9998 9.10001 11.6998 9.10001 10.9848C9.10001 10.2698 9.62001 10.0748 10.075 9.6848C10.27 9.4898 10.4 9.2298 10.4 9.0348C10.4 8.7098 10.205 8.0598 9.94501 7.6698C9.36001 6.6948 9.16501 6.3698 8.58001 5.5898C8.32001 5.3298 8.12501 5.1998 7.86501 5.1998C7.47501 5.1998 6.89001 5.3948 6.56501 5.6548C5.98001 6.0448 5.46001 6.6298 5.26501 7.3448C5.20001 7.4748 5.20001 7.5398 5.20001 7.6698C5.20001 8.3848 5.46001 9.0998 5.78501 9.7498C6.50001 11.2448 7.47501 12.6748 8.51501 13.9748C8.84001 14.3648 9.23001 14.7548 9.62001 15.1448C10.01 15.5348 10.4 15.8598 10.79 16.2498C12.09 17.2898 13.52 18.2648 15.015 18.9798C15.665 19.3048 16.38 19.5648 17.095 19.5648C17.225 19.5648 17.29 19.5648 17.42 19.4998C18.135 19.3698 18.655 18.7848 19.11 18.1998C19.37 17.8098 19.565 17.2898 19.565 16.8998C19.5 16.5748 19.37 16.3798 19.175 16.1848ZM19.5 12.9998C19.11 12.9998 18.85 12.7398 18.85 12.3498V11.6998C18.85 8.4498 16.25 5.8498 13 5.8498C12.61 5.8498 12.35 5.5898 12.35 5.1998C12.35 4.8098 12.61 4.5498 13 4.5498C16.965 4.5498 20.15 7.7348 20.15 11.6998V12.3498C20.15 12.7398 19.89 12.9998 19.5 12.9998ZM15.535 11.6998C15.275 11.6998 14.95 11.5048 14.885 11.2448C14.69 10.5298 14.17 10.0098 13.52 9.8798C13.195 9.8148 12.935 9.4248 13.065 9.0998C13.13 8.7748 13.52 8.5148 13.845 8.6448C14.95 8.9698 15.86 9.8148 16.185 10.9848C16.25 11.3098 16.055 11.6998 15.73 11.7648C15.6 11.6998 15.535 11.6998 15.535 11.6998Z" fill="white"/>
<path d="M17.55 12.3502C17.16 12.3502 16.9 12.0902 16.9 11.7002C16.9 9.62019 15.275 7.93019 13.195 7.80019C12.805 7.80019 12.545 7.47519 12.61 7.08519C12.61 6.69519 12.935 6.43519 13.325 6.50019C16.055 6.63019 18.265 8.90519 18.265 11.7002C18.2 12.0902 17.94 12.3502 17.55 12.3502Z" fill="white"/>
</svg>
