<svg width="26" height="26" viewBox="0 0 26 26" fill="none" xmlns="http://www.w3.org/2000/svg">
<path d="M25.5385 13.1349C25.5385 6.383 19.9875 0.908375 13.1381 0.908375C12.4166 0.908375 11.7081 0.970125 11.0175 1.08713C9.90925 0.39975 8.59788 0 7.19225 0C3.21913 0 0 3.17362 0 7.0915C0 8.39962 0.36075 9.62325 0.988 10.6779C0.823875 11.4709 0.736125 12.2948 0.736125 13.1349C0.736125 19.8884 6.28875 25.363 13.1365 25.363C13.9132 25.363 14.6705 25.2915 15.4083 25.1583C16.4223 25.6945 17.5776 26 18.8094 26C22.7809 26 26 22.8248 26 18.9101C26 17.7791 25.7302 16.7099 25.2525 15.7609C25.441 14.9126 25.5385 14.0367 25.5385 13.1349Z" fill="#A9BAD8"/>
<path d="M19.4984 18.9778C18.9247 19.779 18.0781 20.4127 16.978 20.8612C15.8909 21.3065 14.5892 21.5356 13.104 21.5356C11.323 21.5356 9.82961 21.2268 8.66286 20.6158C7.82923 20.1722 7.14348 19.5726 6.62186 18.8283C6.09373 18.0808 5.82886 17.3382 5.82886 16.6183C5.82886 16.1731 6.00273 15.7831 6.34561 15.4662C6.68523 15.1493 7.12073 14.9917 7.64073 14.9917C8.06648 14.9917 8.43373 15.1168 8.73273 15.3655C9.01711 15.606 9.26248 15.9602 9.45911 16.4136C9.67848 16.9108 9.91736 17.3301 10.1692 17.6567C10.4146 17.9768 10.764 18.2433 11.2109 18.453C11.661 18.661 12.2671 18.7698 13.0114 18.7698C14.0367 18.7698 14.8785 18.5521 15.509 18.128C16.1281 17.7136 16.4271 17.2131 16.4271 16.6021C16.4271 16.1211 16.2695 15.7408 15.9494 15.4435C15.6114 15.1315 15.1661 14.8893 14.6266 14.722C14.0627 14.5497 13.2974 14.3612 12.3516 14.1662C11.063 13.8948 9.96936 13.5747 9.10161 13.2075C8.21273 12.8337 7.49448 12.317 6.97123 11.6718C6.43823 11.0121 6.16848 10.1882 6.16848 9.2197C6.16848 8.2967 6.45123 7.4647 7.01023 6.74645C7.56436 6.03308 8.37361 5.4757 9.41848 5.09708C10.4471 4.7217 11.6707 4.5332 13.0569 4.5332C14.1635 4.5332 15.1369 4.65995 15.951 4.9102C16.7684 5.16045 17.4574 5.49845 17.9985 5.91608C18.5445 6.33858 18.9507 6.78545 19.2042 7.25345C19.461 7.7247 19.5926 8.19433 19.5926 8.6477C19.5926 9.08483 19.422 9.48295 19.084 9.82745C18.7427 10.1752 18.3137 10.3507 17.81 10.3507C17.3517 10.3507 16.991 10.2386 16.7424 10.0225C16.51 9.81933 16.2679 9.50245 16.0014 9.0507C15.6926 8.4722 15.3172 8.01558 14.8882 7.6922C14.4706 7.37858 13.7751 7.22258 12.8164 7.22258C11.9291 7.22258 11.2044 7.39808 10.6681 7.74583C10.1514 8.07895 9.89948 8.46245 9.89948 8.91745C9.89948 9.19533 9.98073 9.4277 10.1481 9.62758C10.3236 9.84208 10.5722 10.0257 10.8875 10.1817C11.2125 10.3426 11.5489 10.4726 11.8852 10.5636C12.2297 10.6578 12.8066 10.7992 13.6012 10.9796C14.6055 11.1908 15.5269 11.4297 16.3426 11.6881C17.1697 11.9465 17.8815 12.2666 18.4665 12.642C19.0596 13.0238 19.5292 13.5113 19.864 14.0963C20.1987 14.6862 20.3677 15.4093 20.3677 16.2511C20.3661 17.257 20.0736 18.1751 19.4984 18.9778Z" fill="#FAFAFA"/>
</svg>
