<svg width="145" height="38" viewBox="0 0 145 38" fill="none" xmlns="http://www.w3.org/2000/svg">
<path d="M15.397 36.0006C23.7687 36.0006 30.5552 29.214 30.5552 20.8423C30.5552 12.4707 23.7687 5.68408 15.397 5.68408C7.02534 5.68408 0.23877 12.4707 0.23877 20.8423C0.23877 29.214 7.02534 36.0006 15.397 36.0006Z" fill="#FF4644"/>
<path d="M52.3074 30.7715L50.9052 27.2093H42.4924L41.0903 30.7715H35.8607L43.9325 11.7099C44.084 11.3309 44.5009 11.0657 44.8798 11.0657H48.5178C48.9726 11.0657 49.3136 11.293 49.4652 11.7099L57.5748 30.7715H52.3074ZM46.7367 16.5227L44.1977 23.0028H49.2757L46.7367 16.5227Z" fill="white"/>
<path d="M85.7313 21.487V30.7335H80.9943V22.5102C80.9943 20.8428 79.8954 19.7817 78.4932 19.7817C76.75 19.7817 75.5753 21.0323 75.5753 23.4955V30.7335H70.8004V22.5102C70.8004 20.8428 69.7015 19.7817 68.2614 19.7817C66.5561 19.7817 65.4193 21.0323 65.4193 23.4955V30.7335H60.6444V16.9016C60.6444 16.409 61.0992 15.9543 61.5918 15.9543H65.4193V17.3185C66.4045 16.1816 67.8825 15.4995 69.8151 15.4995C71.8615 15.4995 73.6805 16.409 74.7037 18.0006C75.8784 16.4848 77.6974 15.4995 79.9712 15.4995C83.1923 15.5374 85.7313 17.9248 85.7313 21.487Z" fill="white"/>
<path d="M105.399 30.7711H100.662V29.5585C99.5253 30.5817 97.9716 31.1501 96.0389 31.1501C92.0599 31.1501 88.7251 28.0048 88.7251 23.3436C88.7251 18.7203 92.0599 15.5371 96.0389 15.5371C97.9716 15.5371 99.5253 16.1434 100.662 17.1287V15.954H105.437V30.7711H105.399ZM100.662 23.3815C100.662 21.1078 98.9569 19.554 97.0242 19.554C94.9779 19.554 93.4241 21.1078 93.4241 23.3815C93.4241 25.6552 94.94 27.209 97.0242 27.209C98.9569 27.1711 100.662 25.6552 100.662 23.3815Z" fill="white"/>
<path d="M125.332 30.771H120.557V29.5584C119.42 30.5816 117.867 31.15 115.934 31.15C111.955 31.15 108.62 28.0047 108.62 23.3435C108.62 18.7202 111.955 15.537 115.934 15.537C117.867 15.537 119.42 16.1433 120.557 17.1286V9.5874H125.332V30.771ZM120.557 23.3814C120.557 21.1077 118.852 19.5539 116.919 19.5539C114.873 19.5539 113.319 21.1077 113.319 23.3814C113.319 25.6551 114.835 27.2089 116.919 27.2089C118.814 27.171 120.557 25.6551 120.557 23.3814Z" fill="white"/>
<path d="M145 23.3816C145 28.0428 141.248 31.1881 136.814 31.1881C132.305 31.1881 128.553 28.0807 128.553 23.3816C128.553 18.7584 132.267 15.613 136.814 15.613C141.248 15.613 145 18.7205 145 23.3816ZM140.415 23.3816C140.415 21.1079 138.671 19.5542 136.814 19.5542C134.882 19.5542 133.139 21.07 133.139 23.3816C133.139 25.6933 134.882 27.2091 136.814 27.2091C138.633 27.1712 140.415 25.6933 140.415 23.3816Z" fill="white"/>
<path d="M6.60526 36.8724C6.56737 36.8345 6.52947 36.8345 6.49158 36.7966C6.56737 36.8345 6.60526 36.8345 6.60526 36.8724Z" fill="#5637E3"/>
<path d="M3.15679 32.2865C3.15679 32.2486 3.1189 32.2486 3.1189 32.2107C3.1189 32.2486 3.15679 32.2486 3.15679 32.2865Z" fill="#5637E3"/>
<path d="M43.8945 0C43.2503 0.34106 42.8334 0.94739 42.1892 1.28845C42.1892 1.25055 42.1892 1.21266 42.1892 1.17476C41.9997 1.28845 42.0376 1.36424 41.9618 1.47793C41.9239 1.55372 41.7723 1.62951 41.6965 1.62951C41.5829 1.62951 41.6586 1.62951 41.6207 1.55372C41.6207 1.59161 40.4839 2.38742 40.3323 2.50111C40.1049 2.69059 39.9154 2.84217 39.6881 3.03165C39.4986 3.18323 39.3091 3.48639 39.1196 3.60008C39.0059 3.67587 38.8544 3.67587 38.7028 3.78956C38.5133 3.90325 38.3617 4.05483 38.1722 4.16852C38.0207 4.2822 37.8312 4.3201 37.7175 4.39589C37.4901 4.58537 37.4522 4.85064 37.3385 5.04011C37.1491 5.26749 36.808 5.45697 36.5806 5.60855C36.3154 5.79803 36.088 5.9875 35.8606 6.21488C35.368 6.63173 34.8374 7.04858 34.3448 7.46543C33.3974 8.29914 32.45 9.17073 31.5405 10.0423C31.01 10.535 30.4794 11.0655 29.911 11.5582C29.6457 11.7855 29.4184 12.0129 29.1531 12.2782C29.0015 12.4298 28.8878 12.5434 28.7741 12.695C28.6983 12.8466 28.5847 13.0361 28.5089 13.1877C28.4331 11.2171 26.9552 9.24653 24.8709 9.17073C24.9088 9.09494 24.9088 9.05705 24.9467 8.98126C23.0898 8.79178 21.3087 9.05705 19.5655 9.81496C17.9739 10.4971 16.5339 11.5203 15.3212 12.7329C15.0938 11.9371 14.7907 11.0655 14.3359 10.3455C14.2222 10.1939 14.1085 10.0044 13.9949 9.85285C13.957 9.81496 13.7675 9.4739 13.8054 9.70127C13.6917 9.09494 13.199 8.37493 12.7822 7.95808C12.8201 7.95808 12.858 7.99597 12.8959 8.03387C12.6685 7.61701 12.2896 7.46543 11.9485 7.16227C11.7969 7.04858 11.6832 6.82121 11.5316 6.74542C11.3801 6.66962 11.1906 6.59383 11.039 6.51804C10.8116 6.36646 10.5843 6.29067 10.319 6.21488C10.2053 6.17698 10.0916 6.13909 9.97792 6.13909C9.90213 6.13909 9.71265 6.17698 9.63686 6.13909C9.56107 6.10119 9.52317 6.0254 9.48528 5.9875C9.37159 5.94961 9.22001 5.94961 9.10632 5.94961C8.84105 5.91171 8.57578 5.94961 8.31052 5.94961C7.32523 6.0254 6.30205 6.36646 5.46835 6.93489C5.05149 7.23806 4.71043 7.65491 4.33148 8.03387C3.91463 8.45072 3.49777 8.90547 3.2704 9.4739C3.15671 9.73917 3.11882 9.92865 3.00513 10.156C2.85355 10.3834 2.73986 10.6108 2.62618 10.8381C2.36091 11.4066 2.13353 12.0129 2.05774 12.6192C2.05774 12.5813 2.05774 12.5434 2.05774 12.5055C1.86826 13.2256 1.71668 13.9835 1.64089 14.7035C1.60299 15.0067 1.60299 15.3098 1.64089 15.5751C1.64089 15.613 1.67879 15.7267 1.67879 15.7646C1.64089 15.8783 1.64089 15.8404 1.5651 15.954C1.45141 16.1056 1.37562 16.1814 1.29983 16.3709C1.18614 16.6362 1.11035 16.9393 1.11035 17.2046C1.11035 17.5457 1.14825 17.8488 1.14825 18.1899C1.14825 18.9099 1.11035 19.6299 1.22404 20.3499C1.26193 20.5773 1.18614 20.7289 1.18614 20.9942C1.18614 21.1836 1.18614 21.3731 1.14825 21.5626C1.14825 21.6384 1.11035 21.5626 1.11035 21.6763C1.11035 21.7521 1.14825 21.8658 1.14825 21.9416C1.18614 22.131 1.22404 22.3205 1.26193 22.51C1.33773 22.9268 1.41352 23.3437 1.48931 23.7605C1.79247 25.4279 2.09564 27.0954 2.4367 28.7628C2.62618 29.6723 2.81565 30.5817 3.04303 31.5291C3.08092 31.7565 3.11882 31.9839 3.19461 32.2113C3.2704 32.4007 3.38409 32.5144 3.57357 32.6281C3.91463 32.8555 4.52096 33.3102 4.48306 33.2344C4.86202 33.765 5.16518 35.0534 5.08939 34.9776C5.54414 35.3187 5.69572 35.9629 6.18836 36.3419C6.30205 36.4177 6.45363 36.4556 6.52942 36.5314C6.56732 36.5693 6.49153 36.6071 6.56732 36.645C6.68101 36.7208 6.87048 37.024 6.7189 36.9482C8.65158 38.3882 11.1148 38.3124 13.0854 36.9482C14.9422 35.6598 16.1549 33.6513 17.4055 31.8323C18.2392 30.6196 19.1108 29.4449 20.0203 28.2701C20.0203 28.3459 20.0203 28.4217 19.9824 28.4975C20.1339 28.1564 20.2476 27.8154 20.3992 27.4364C20.4371 27.4743 20.4371 27.5501 20.4371 27.6259C21.4603 26.6785 21.8771 25.3143 22.7108 24.2153C22.7866 24.2911 22.7866 24.4427 22.9003 24.4427C23.014 24.4427 23.0519 24.1774 23.0898 24.0637C23.2035 23.8363 23.3551 23.6847 23.5445 23.5332C23.9235 23.23 24.113 22.9647 23.8477 22.51C23.9614 22.51 24.0751 22.6237 24.113 22.7374C25.0983 20.9184 26.1214 19.1373 27.2583 17.432C27.5236 17.053 27.751 16.6741 28.0162 16.2951C28.1299 16.1056 28.2815 15.9162 28.3952 15.6888C28.5089 15.4614 28.5089 15.1961 28.5468 14.9309C28.5847 14.6277 28.5847 14.4382 28.7741 14.2108C28.9257 14.0214 29.0773 13.8698 29.2289 13.6803C29.5699 13.3014 29.911 12.9224 30.29 12.5434C30.29 12.6192 30.5552 12.354 30.5552 12.3919C31.1237 12.2782 31.4647 11.7097 31.7679 11.2929C31.9195 11.1034 32.0332 10.9139 32.2226 10.8002C32.2984 10.7623 32.45 10.7245 32.4879 10.6866C32.6016 10.535 32.4879 10.3834 32.3363 10.3455C33.3595 9.32232 34.3827 8.33703 35.4438 7.35175C35.9743 6.8591 36.5048 6.36646 36.9975 5.87382C37.2628 5.64644 37.528 5.38117 37.7554 5.1538C37.907 5.00222 38.2859 4.47168 38.5133 4.73695C39.3091 3.82746 40.2186 3.03165 41.166 2.31163C41.6586 1.93268 42.1513 1.59161 42.606 1.25055C42.7576 1.13687 44.0082 0.189478 44.0082 0.189478C43.8945 0 43.8187 0.0757912 43.8187 0.0757912C43.8187 0.0378956 43.8566 0.0378956 43.8945 0C43.1745 0.34106 43.6671 0.151582 43.8945 0ZM23.8856 10.1181C25.0225 10.2697 26.0835 10.7245 26.993 11.4445C27.2204 11.6339 27.4099 11.7855 27.5615 12.0887C27.6752 12.354 27.751 12.6192 27.7889 12.8845C27.8267 13.1498 27.8267 13.415 27.7889 13.6803C27.7889 13.794 27.7889 13.9456 27.7131 14.0593C27.6373 14.2108 27.4478 14.3245 27.3341 14.4382C26.8415 14.8551 26.273 15.234 25.7804 15.613C25.5151 15.8025 25.2877 16.0298 25.0604 16.2193C24.9467 16.333 24.833 16.4467 24.7193 16.5983C24.6435 16.6741 24.5677 16.8635 24.4919 16.712C24.3025 17.1288 23.9993 17.5078 23.734 17.8488C23.5824 18.0004 23.4688 18.152 23.3172 18.3036C23.1656 18.4173 22.9382 18.5688 22.8624 18.7204C22.7487 18.9099 22.7866 19.1752 22.7108 19.4025C22.6351 19.5541 22.4835 19.6299 22.3319 19.7057C22.0666 19.8952 21.8392 20.0847 21.6119 20.2741C19.8308 21.6763 18.3528 23.3437 16.6475 24.8595C15.1317 26.1859 13.0475 27.3985 11.0769 26.2995C10.7358 26.1101 10.3948 25.8069 10.2053 25.4279C10.0158 25.0869 10.0537 24.67 10.0916 24.2911C10.2053 23.2679 10.7737 22.3584 11.2285 21.4868C12.3274 19.4404 15.0938 15.613 15.018 15.7646C15.2075 15.4993 15.4349 15.2719 15.7002 15.0446C15.7002 15.1961 15.7759 15.3098 15.7759 15.4614C15.7759 15.4993 15.7381 15.4993 15.7381 15.4993C15.7002 15.7267 15.8138 15.8783 15.7759 16.0677C15.7759 16.2193 15.6623 17.2046 15.6623 17.2425C15.6244 17.2804 15.6244 17.3562 15.5865 17.3941C15.5486 17.3941 15.397 18.2278 15.5865 18.2278C15.7002 18.2278 15.6623 17.773 15.7002 17.6593C15.7759 17.3562 15.8138 17.0151 15.8896 16.6741C15.9654 16.2951 15.8896 15.9162 15.8517 15.5372C15.8517 15.4235 15.8517 15.3098 15.8517 15.1961C15.8517 15.1203 15.7759 14.9309 15.8138 14.8551C15.8517 14.7793 16.0412 14.6277 16.117 14.5898C16.7991 13.9835 21.7256 9.81496 23.8856 10.1181ZM25.7804 17.8109C24.5677 19.8573 23.2793 21.8658 22.0287 23.9121C21.9908 23.8742 21.9529 23.8742 21.915 23.8363C20.9298 25.6174 19.6034 27.1711 18.2771 28.687C17.6328 29.4449 16.9886 30.2028 16.3823 30.9607C16.0791 31.3776 15.7381 31.7944 15.4349 32.2113C15.1317 32.666 14.7528 33.0829 14.3738 33.4997C13.0854 35.0155 11.4937 36.8345 9.2958 36.7208C8.27262 36.6829 7.32523 36.1903 6.60521 35.4703C5.92309 34.7882 5.58203 33.8408 5.12729 33.045C4.59675 32.0976 3.99042 31.1502 3.53567 30.1649C3.08092 29.1796 2.85355 28.2322 2.77776 27.1332C2.62618 24.8974 2.3988 22.6616 2.24722 20.4636C2.09564 18.3036 2.05774 16.0298 2.36091 13.8698C2.51249 12.8087 2.92934 11.6718 3.34619 10.6866C3.72515 9.73917 4.25569 8.86757 4.93781 8.14755C6.41574 6.63173 8.72737 5.72223 10.7358 6.78331C11.6832 7.31385 12.4411 7.88228 13.0475 8.82967C13.7296 9.81496 14.2222 10.876 14.677 12.0129C14.677 11.975 14.677 11.9371 14.677 11.8992C14.7149 12.0887 14.7907 12.2403 14.8286 12.4298C14.8665 12.5434 15.0559 12.8466 15.018 12.9603C14.9801 13.074 14.7528 13.2635 14.677 13.3393C14.5633 13.4529 14.4496 13.6045 14.3359 13.7182C14.1085 13.9835 13.8812 14.2487 13.6159 14.514C13.3885 14.7414 13.4264 14.7035 13.199 14.514C12.3653 16.8256 8.91684 17.4699 8.87895 20.1984C8.80316 20.0847 8.68947 19.971 8.61368 19.8573C8.95474 20.4257 8.34841 21.4868 8.34841 21.6384C8.31052 21.8279 8.49999 22.131 8.49999 22.3584C8.49999 22.7753 8.34841 23.1542 8.19683 23.5711C8.00735 24.0637 7.81787 24.5184 7.89366 25.049C7.96946 25.5037 8.27262 25.9585 8.68947 26.148C8.68947 26.148 8.57578 26.148 8.49999 26.148C8.87895 26.4132 9.48528 26.6027 9.75055 27.0575C9.67476 27.0575 9.59897 27.1711 9.48528 27.1711C9.90213 27.9669 10.8116 28.3459 11.6453 28.308C12.7064 28.2701 13.6159 27.7775 14.6012 27.3985C14.6012 27.5501 14.5633 27.7017 14.5633 27.8912C14.8665 27.3985 15.5107 27.1332 16.0033 26.8301C16.5339 26.5269 17.0265 26.1859 17.4055 25.6553C17.4434 25.7311 17.4813 25.769 17.5191 25.8448C17.5949 25.6553 17.6328 25.4658 17.7086 25.2385C17.7844 25.3143 17.8602 25.39 17.936 25.4658C18.0876 25.5795 18.0118 25.6174 18.2013 25.5037C18.5802 25.2764 18.9213 25.0111 19.2244 24.67C19.8308 24.0258 20.2476 23.3058 20.8161 22.6616C20.8919 22.7753 20.9676 22.8889 21.0434 23.0026C21.4224 21.6005 22.8624 21.0321 23.5824 19.8573C23.5824 19.8952 23.6203 19.9331 23.6203 19.971C24.5677 19.0615 25.4393 18.0383 26.3109 17.053C26.0836 17.2804 25.932 17.5457 25.7804 17.8109C24.5298 19.8952 25.932 17.5457 25.7804 17.8109Z" fill="#5637E3"/>
</svg>