<svg width="180" height="157" viewBox="0 0 180 157" fill="none" xmlns="http://www.w3.org/2000/svg">
<path d="M62.136 147.971C96.4527 147.971 124.272 120.152 124.272 85.8353C124.272 51.5185 96.4527 23.6993 62.136 23.6993C27.8192 23.6993 0 51.5185 0 85.8353C0 120.152 27.8192 147.971 62.136 147.971Z" fill="#FF4644"/>
<path d="M179.491 0C176.842 1.40227 175.128 3.8952 172.48 5.29748C172.48 5.14167 172.48 4.98586 172.48 4.83005C171.701 5.29747 171.856 5.60909 171.545 6.07652C171.389 6.38813 170.766 6.69975 170.454 6.69975C169.987 6.69975 170.298 6.69975 170.142 6.38813C170.142 6.54394 165.468 9.81591 164.845 10.2833C163.91 11.0624 163.131 11.6856 162.196 12.4646C161.417 13.0879 160.638 14.3343 159.859 14.8018C159.392 15.1134 158.768 15.1134 158.145 15.5808C157.366 16.0482 156.743 16.6715 155.964 17.1389C155.341 17.6063 154.562 17.7621 154.094 18.0737C153.159 18.8528 153.004 19.9434 152.536 20.7225C151.757 21.6573 150.355 22.4364 149.42 23.0596C148.329 23.8386 147.394 24.6177 146.46 25.5525C144.434 27.2664 142.253 28.9803 140.227 30.6942C136.332 34.122 132.437 37.7056 128.698 41.2891C126.516 43.3146 124.335 45.496 121.998 47.5215C120.907 48.4563 119.972 49.3912 118.882 50.4818C118.258 51.1051 117.791 51.5725 117.324 52.1957C117.012 52.8189 116.544 53.598 116.233 54.2212C115.921 46.1192 109.845 38.0172 101.275 37.7056C101.431 37.3939 101.431 37.2381 101.587 36.9265C93.9523 36.1475 86.6293 37.2381 79.4622 40.3543C72.9182 43.1588 66.9975 47.3657 62.0117 52.3515C61.0768 49.0795 59.8303 45.496 57.9606 42.5356C57.4932 41.9124 57.0258 41.1333 56.5584 40.5101C56.4026 40.3543 55.6235 38.952 55.7793 39.8869C55.3119 37.3939 53.2864 34.4336 51.5725 32.7197C51.7283 32.7197 51.8841 32.8755 52.0399 33.0313C51.1051 31.3174 49.547 30.6942 48.1447 29.4477C47.5215 28.9803 47.0541 28.0455 46.4308 27.7338C45.8076 27.4222 45.0286 27.1106 44.4053 26.799C43.4705 26.1758 42.5356 25.8641 41.445 25.5525C40.9776 25.3967 40.5101 25.2409 40.0427 25.2409C39.7311 25.2409 38.9521 25.3967 38.6404 25.2409C38.3288 25.0851 38.173 24.7735 38.0172 24.6177C37.5498 24.4619 36.9266 24.4619 36.4591 24.4619C35.3685 24.3061 34.2778 24.4619 33.1872 24.4619C29.1361 24.7735 24.9293 26.1758 21.5015 28.5129C19.7877 29.7593 18.3854 31.4732 16.8273 33.0313C15.1134 34.7452 13.3995 36.6149 12.4647 38.952C11.9973 40.0427 11.8414 40.8217 11.374 41.7566C10.7508 42.6914 10.2834 43.6263 9.81594 44.5611C8.72529 46.8982 7.79044 49.3912 7.47882 51.8841C7.47882 51.7283 7.47882 51.5725 7.47882 51.4167C6.69978 54.377 6.07655 57.4932 5.76493 60.4535C5.60912 61.7 5.60912 62.9465 5.76493 64.0371C5.76493 64.1929 5.92074 64.6604 5.92074 64.8162C5.76493 65.2836 5.76493 65.1278 5.45332 65.5952C4.98589 66.2184 4.67427 66.5301 4.36266 67.3091C3.89523 68.3997 3.58362 69.6462 3.58362 70.7369C3.58362 72.1391 3.73943 73.3856 3.73943 74.7879C3.73943 77.7482 3.58362 80.7086 4.05104 83.6689C4.20685 84.6038 3.89523 85.227 3.89523 86.3177C3.89523 87.0967 3.89523 87.8758 3.73943 88.6548C3.73943 88.9664 3.58362 88.6548 3.58362 89.1222C3.58362 89.4338 3.73943 89.9013 3.73943 90.2129C3.89523 90.9919 4.05104 91.771 4.20685 92.55C4.51847 94.2639 4.83008 95.9778 5.1417 97.6917C6.38816 104.547 7.63463 111.403 9.0369 118.258C9.81594 121.998 10.595 125.737 11.5298 129.632C11.6856 130.567 11.8414 131.502 12.1531 132.437C12.4647 133.216 12.9321 133.683 13.7111 134.151C15.1134 135.086 17.6063 136.955 17.4505 136.644C19.0086 138.825 20.2551 144.122 19.9435 143.811C21.8132 145.213 22.4364 147.862 24.4619 149.42C24.9293 149.732 25.5526 149.887 25.8642 150.199C26.02 150.355 25.7084 150.511 26.02 150.666C26.4874 150.978 27.2664 152.225 26.6432 151.913C34.5894 157.834 44.717 157.522 52.819 151.913C60.4536 146.615 65.4394 138.358 70.5811 130.879C74.0089 125.893 77.5925 121.063 81.3319 116.233C81.3319 116.544 81.3319 116.856 81.176 117.168C81.7993 115.765 82.2667 114.363 82.8899 112.805C83.0457 112.961 83.0457 113.272 83.0457 113.584C87.2526 109.689 88.9665 104.08 92.3942 99.5614C92.7058 99.873 92.7058 100.496 93.1733 100.496C93.6407 100.496 93.7965 99.4056 93.9523 98.9381C94.4197 98.0033 95.043 97.3801 95.822 96.7568C97.3801 95.5104 98.1591 94.4197 97.0685 92.55C97.5359 92.55 98.0033 93.0174 98.1591 93.4849C102.21 86.0061 106.417 78.6831 111.091 71.6717C112.182 70.1136 113.117 68.5556 114.207 66.9975C114.675 66.2184 115.298 65.4394 115.765 64.5046C116.233 63.5697 116.233 62.479 116.389 61.3884C116.544 60.1419 116.544 59.3629 117.324 58.428C117.947 57.649 118.57 57.0258 119.193 56.2467C120.595 54.6886 121.998 53.1306 123.556 51.5725C123.556 51.8841 124.646 50.7934 124.646 50.9492C126.984 50.4818 128.386 48.1447 129.632 46.4308C130.256 45.6518 130.723 44.8727 131.502 44.4053C131.814 44.2495 132.437 44.0937 132.593 43.9379C133.06 43.3147 132.593 42.6914 131.969 42.5356C136.176 38.3288 140.383 34.2778 144.746 30.2268C146.927 28.2013 149.108 26.1758 151.134 24.1503C152.225 23.2154 153.315 22.1248 154.25 21.1899C154.873 20.5667 156.431 18.3854 157.366 19.476C160.638 15.7366 164.378 12.4646 168.273 9.50429C170.298 7.94621 172.324 6.54394 174.193 5.14167C174.817 4.67424 179.958 0.77904 179.958 0.77904C179.491 0 179.179 0.311616 179.179 0.311616C179.179 0.155808 179.335 0.155808 179.491 0C176.531 1.40227 178.556 0.623232 179.491 0ZM97.2243 41.6008C101.899 42.224 106.261 44.0937 110.001 47.054C110.935 47.8331 111.714 48.4563 112.338 49.7028C112.805 50.7934 113.117 51.8841 113.273 52.9748C113.428 54.0654 113.428 55.1561 113.273 56.2467C113.273 56.7141 113.273 57.3374 112.961 57.8048C112.649 58.428 111.87 58.8955 111.403 59.3629C109.377 61.0768 107.04 62.6349 105.015 64.1929C103.924 64.972 102.989 65.9068 102.054 66.6859C101.587 67.1533 101.119 67.6207 100.652 68.2439C100.34 68.5556 100.029 69.3346 99.7172 68.7114C98.9382 70.4253 97.6917 71.9833 96.6011 73.3856C95.9778 74.0088 95.5104 74.6321 94.8872 75.2553C94.2639 75.7227 93.3291 76.346 93.0175 76.9692C92.55 77.7482 92.7058 78.8389 92.3942 79.7737C92.0826 80.397 91.4594 80.7086 90.8362 81.0202C89.7455 81.7992 88.8106 82.5783 87.8758 83.3573C80.5528 89.1222 74.4763 95.9778 67.4649 102.21C61.2326 107.663 52.6632 112.649 44.5611 108.131C43.1589 107.352 41.7566 106.105 40.9776 104.547C40.1985 103.145 40.3543 101.431 40.5101 99.873C40.9776 95.6662 43.3147 91.9268 45.1844 88.3432C49.7028 79.9296 61.0768 64.1929 60.7652 64.8162C61.5442 63.7255 62.4791 62.7907 63.5697 61.8558C63.5697 62.479 63.8814 62.9465 63.8814 63.5697C63.8814 63.7255 63.7255 63.7255 63.7255 63.7255C63.5697 64.6604 64.0372 65.2836 63.8814 66.0626C63.8814 66.6859 63.4139 70.7369 63.4139 70.8927C63.2581 71.0485 63.2581 71.3601 63.1023 71.5159C62.9465 71.5159 62.3233 74.9437 63.1023 74.9437C63.5697 74.9437 63.4139 73.074 63.5697 72.6066C63.8813 71.3601 64.0372 69.9578 64.3488 68.5556C64.6604 66.9975 64.3488 65.4394 64.193 63.8813C64.193 63.4139 64.193 62.9465 64.193 62.479C64.193 62.1674 63.8813 61.3884 64.0372 61.0768C64.193 60.7652 64.972 60.1419 65.2836 59.9861C68.0882 57.4932 88.3432 40.3543 97.2243 41.6008ZM105.015 73.2298C100.029 81.6434 94.7314 89.9013 89.5897 98.3149C89.4339 98.1591 89.2781 98.1591 89.1223 98.0033C85.0713 105.326 79.618 111.714 74.1647 117.947C71.5159 121.063 68.8672 124.179 66.3743 127.295C65.1278 129.009 63.7255 130.723 62.4791 132.437C61.2326 134.307 59.6745 136.02 58.1165 137.734C52.819 143.967 46.275 151.445 37.2382 150.978C33.0313 150.822 29.1361 148.797 26.1758 145.836C23.3712 143.032 21.969 139.137 20.0993 135.865C17.918 131.969 15.425 128.074 13.5553 124.023C11.6856 119.972 10.7508 116.077 10.4392 111.559C9.81594 102.366 8.88109 93.1732 8.25786 84.1364C7.63463 75.2553 7.47882 65.9068 8.72529 57.0258C9.34852 52.6631 11.0624 47.9889 12.7763 43.9379C14.3344 40.0427 16.5157 36.4591 19.3202 33.4987C25.3967 27.2664 34.901 23.527 43.1589 27.8896C47.0541 30.071 50.1702 32.4081 52.6632 36.3033C55.4677 40.3543 57.4932 44.7169 59.3629 49.3912C59.3629 49.2354 59.3629 49.0795 59.3629 48.9237C59.5187 49.7028 59.8303 50.326 59.9861 51.1051C60.142 51.5725 60.921 52.8189 60.7652 53.2864C60.6094 53.7538 59.6745 54.5328 59.3629 54.8444C58.8955 55.3119 58.4281 55.9351 57.9606 56.4025C57.0258 57.4932 56.0909 58.5838 55.0003 59.6745C54.0654 60.6093 54.2212 60.4535 53.2864 59.6745C49.8586 69.1788 35.6801 71.8275 35.5243 83.0457C35.2127 82.5783 34.7452 82.1109 34.4336 81.6434C35.8359 83.9806 33.343 88.3432 33.343 88.9664C33.1872 89.7455 33.9662 90.9919 33.9662 91.9268C33.9662 93.6407 33.343 95.1987 32.7197 96.9126C31.9407 98.9381 31.1617 100.808 31.4733 102.989C31.7849 104.859 33.0313 106.729 34.7452 107.508C34.7452 107.508 34.2778 107.508 33.9662 107.508C35.5243 108.598 38.0172 109.377 39.1079 111.247C38.7962 111.247 38.4846 111.714 38.0172 111.714C39.7311 114.986 43.4705 116.544 46.8983 116.389C51.2609 116.233 55.0003 114.207 59.0513 112.649C59.0513 113.272 58.8955 113.896 58.8955 114.675C60.142 112.649 62.7907 111.559 64.8162 110.312C66.9975 109.066 69.023 107.663 70.5811 105.482C70.7369 105.794 70.8927 105.95 71.0485 106.261C71.3601 105.482 71.5159 104.703 71.8276 103.768C72.1392 104.08 72.4508 104.391 72.7624 104.703C73.3856 105.17 73.074 105.326 73.8531 104.859C75.4111 103.924 76.8134 102.833 78.0599 101.431C80.5528 98.7823 82.2667 95.822 84.6038 93.1732C84.9154 93.6407 85.2271 94.1081 85.5387 94.5755C87.0968 88.8106 93.0175 86.4735 95.9778 81.6434C95.9778 81.7992 96.1336 81.9551 96.1336 82.1109C100.029 78.3715 103.612 74.1646 107.196 70.1136C106.261 71.0485 105.638 72.1391 105.015 73.2298C99.873 81.7992 105.638 72.1391 105.015 73.2298Z" fill="#5637E3"/>
</svg>
