<svg width="22" height="22" viewBox="0 0 22 22" fill="none" xmlns="http://www.w3.org/2000/svg">
<path d="M0 1H3.80952L6.3619 13.7524C6.44899 14.1909 6.68753 14.5847 7.03576 14.865C7.38398 15.1454 7.81971 15.2943 8.26667 15.2857H17.5238C17.9708 15.2943 18.4065 15.1454 18.7547 14.865C19.1029 14.5847 19.3415 14.1909 19.4286 13.7524L20.9524 5.7619H4.7619M8.57145 20.0476C8.57145 20.5736 8.14505 21 7.61906 21C7.09308 21 6.66668 20.5736 6.66668 20.0476C6.66668 19.5217 7.09308 19.0953 7.61906 19.0953C8.14505 19.0953 8.57145 19.5217 8.57145 20.0476ZM19.0476 20.0476C19.0476 20.5736 18.6212 21 18.0953 21C17.5693 21 17.1429 20.5736 17.1429 20.0476C17.1429 19.5217 17.5693 19.0953 18.0953 19.0953C18.6212 19.0953 19.0476 19.5217 19.0476 20.0476Z" stroke="#025BFF" stroke-width="2" stroke-linecap="round" stroke-linejoin="round"/>
</svg>
