<svg width="46" height="46" viewBox="0 0 46 46" fill="none" xmlns="http://www.w3.org/2000/svg">
<rect x="1" y="1" width="44" height="44" fill="white" stroke="#025BFF" stroke-width="2"/>
<path d="M23.0007 26.6668C24.4734 26.6668 25.6673 25.4729 25.6673 24.0002C25.6673 22.5274 24.4734 21.3335 23.0007 21.3335C21.5279 21.3335 20.334 22.5274 20.334 24.0002C20.334 25.4729 21.5279 26.6668 23.0007 26.6668Z" stroke="#025BFF" stroke-width="2" stroke-linecap="round" stroke-linejoin="round"/>
<path d="M28.6537 18.3466C29.3976 19.0896 29.9876 19.9719 30.3902 20.9431C30.7928 21.9142 31 22.9553 31 24.0066C31 25.0579 30.7928 26.0989 30.3902 27.0701C29.9876 28.0413 29.3976 28.9236 28.6537 29.6666M17.3471 29.6532C16.6033 28.9103 16.0132 28.028 15.6106 27.0568C15.208 26.0856 15.0008 25.0446 15.0008 23.9932C15.0008 22.9419 15.208 21.9009 15.6106 20.9297C16.0132 19.9585 16.6033 19.0762 17.3471 18.3332M32.4271 14.5732C34.9267 17.0736 36.3309 20.4644 36.3309 23.9999C36.3309 27.5354 34.9267 30.9262 32.4271 33.4266M13.5737 33.4266C11.0741 30.9262 9.66992 27.5354 9.66992 23.9999C9.66992 20.4644 11.0741 17.0736 13.5737 14.5732" stroke="#025BFF" stroke-width="2" stroke-linecap="round" stroke-linejoin="round"/>
</svg>