<svg width="46" height="46" viewBox="0 0 46 46" fill="none" xmlns="http://www.w3.org/2000/svg">
<rect x="1" y="1" width="44" height="44" stroke="#025BFF" stroke-width="2"/>
<path d="M9.94336 17.0293H6.64453V15.6641H9.94336V17.0293ZM12.9551 14.9844H13.8574C14.2871 14.9844 14.6055 14.877 14.8125 14.6621C15.0195 14.4473 15.123 14.1621 15.123 13.8066C15.123 13.4629 15.0195 13.1953 14.8125 13.0039C14.6094 12.8125 14.3281 12.7168 13.9688 12.7168C13.6445 12.7168 13.373 12.8066 13.1543 12.9863C12.9355 13.1621 12.8262 13.3926 12.8262 13.6777H11.1328C11.1328 13.2324 11.252 12.834 11.4902 12.4824C11.7324 12.127 12.0684 11.8496 12.498 11.6504C12.9316 11.4512 13.4082 11.3516 13.9277 11.3516C14.8301 11.3516 15.5371 11.5684 16.0488 12.002C16.5605 12.4316 16.8164 13.0254 16.8164 13.7832C16.8164 14.1738 16.6973 14.5332 16.459 14.8613C16.2207 15.1895 15.9082 15.4414 15.5215 15.6172C16.002 15.7891 16.3594 16.0469 16.5938 16.3906C16.832 16.7344 16.9512 17.1406 16.9512 17.6094C16.9512 18.3672 16.6738 18.9746 16.1191 19.4316C15.5684 19.8887 14.8379 20.1172 13.9277 20.1172C13.0762 20.1172 12.3789 19.8926 11.8359 19.4434C11.2969 18.9941 11.0273 18.4004 11.0273 17.6621H12.7207C12.7207 17.9824 12.8398 18.2441 13.0781 18.4473C13.3203 18.6504 13.6172 18.752 13.9688 18.752C14.3711 18.752 14.6855 18.6465 14.9121 18.4355C15.1426 18.2207 15.2578 17.9375 15.2578 17.5859C15.2578 16.7344 14.7891 16.3086 13.8516 16.3086H12.9551V14.9844ZM23.8652 16.4727C23.8652 17.6523 23.6211 18.5547 23.1328 19.1797C22.6445 19.8047 21.9297 20.1172 20.9883 20.1172C20.0586 20.1172 19.3477 19.8105 18.8555 19.1973C18.3633 18.584 18.1113 17.7051 18.0996 16.5605V14.9902C18.0996 13.7988 18.3457 12.8945 18.8379 12.2773C19.334 11.6602 20.0469 11.3516 20.9766 11.3516C21.9062 11.3516 22.6172 11.6582 23.1094 12.2715C23.6016 12.8809 23.8535 13.7578 23.8652 14.9023V16.4727ZM22.1719 14.75C22.1719 14.043 22.0742 13.5293 21.8789 13.209C21.6875 12.8848 21.3867 12.7227 20.9766 12.7227C20.5781 12.7227 20.2832 12.877 20.0918 13.1855C19.9043 13.4902 19.8047 13.9688 19.793 14.6211V16.6953C19.793 17.3906 19.8867 17.9082 20.0742 18.248C20.2656 18.584 20.5703 18.752 20.9883 18.752C21.4023 18.752 21.7012 18.5898 21.8848 18.2656C22.0684 17.9414 22.1641 17.4453 22.1719 16.7773V14.75ZM10.0664 29.2246H12.1816V30.7539H10.0664V33.1445H8.45508V30.7539H6.33398V29.2246H8.45508V26.9336H10.0664V29.2246ZM13.3828 29.8047L13.875 25.4688H18.6562V26.8809H15.2637L15.0527 28.7148C15.4551 28.5 15.8828 28.3926 16.3359 28.3926C17.1484 28.3926 17.7852 28.6445 18.2461 29.1484C18.707 29.6523 18.9375 30.3574 18.9375 31.2637C18.9375 31.8145 18.8203 32.3086 18.5859 32.7461C18.3555 33.1797 18.0234 33.5176 17.5898 33.7598C17.1562 33.998 16.6445 34.1172 16.0547 34.1172C15.5391 34.1172 15.0605 34.0137 14.6191 33.8066C14.1777 33.5957 13.8281 33.3008 13.5703 32.9219C13.3164 32.543 13.1816 32.1113 13.166 31.627H14.8418C14.877 31.9824 15 32.2598 15.2109 32.459C15.4258 32.6543 15.7051 32.752 16.0488 32.752C16.4316 32.752 16.7266 32.6152 16.9336 32.3418C17.1406 32.0645 17.2441 31.6738 17.2441 31.1699C17.2441 30.6855 17.125 30.3145 16.8867 30.0566C16.6484 29.7988 16.3105 29.6699 15.873 29.6699C15.4707 29.6699 15.1445 29.7754 14.8945 29.9863L14.7305 30.1387L13.3828 29.8047ZM25.7637 30.4727C25.7637 31.6523 25.5195 32.5547 25.0312 33.1797C24.543 33.8047 23.8281 34.1172 22.8867 34.1172C21.957 34.1172 21.2461 33.8105 20.7539 33.1973C20.2617 32.584 20.0098 31.7051 19.998 30.5605V28.9902C19.998 27.7988 20.2441 26.8945 20.7363 26.2773C21.2324 25.6602 21.9453 25.3516 22.875 25.3516C23.8047 25.3516 24.5156 25.6582 25.0078 26.2715C25.5 26.8809 25.752 27.7578 25.7637 28.9023V30.4727ZM24.0703 28.75C24.0703 28.043 23.9727 27.5293 23.7773 27.209C23.5859 26.8848 23.2852 26.7227 22.875 26.7227C22.4766 26.7227 22.1816 26.877 21.9902 27.1855C21.8027 27.4902 21.7031 27.9688 21.6914 28.6211V30.6953C21.6914 31.3906 21.7852 31.9082 21.9727 32.248C22.1641 32.584 22.4688 32.752 22.8867 32.752C23.3008 32.752 23.5996 32.5898 23.7832 32.2656C23.9668 31.9414 24.0625 31.4453 24.0703 30.7773V28.75Z" fill="#2874FF"/>
<path d="M37 25.76V14.5C37 13.837 36.7366 13.2011 36.2678 12.7322C35.7989 12.2634 35.163 12 34.5 12C33.837 12 33.2011 12.2634 32.7322 12.7322C32.2634 13.2011 32 13.837 32 14.5V25.76C31.1973 26.2963 30.5883 27.0766 30.2631 27.9856C29.9378 28.8946 29.9135 29.8841 30.1938 30.8079C30.474 31.7317 31.0439 32.541 31.8193 33.1161C32.5948 33.6912 33.5346 34.0017 34.5 34.0017C35.4654 34.0017 36.4052 33.6912 37.1807 33.1161C37.9561 32.541 38.526 31.7317 38.8062 30.8079C39.0865 29.8841 39.0622 28.8946 38.7369 27.9856C38.4117 27.0766 37.8027 26.2963 37 25.76Z" stroke="#025BFF" stroke-width="2" stroke-linecap="round" stroke-linejoin="round"/>
</svg>