<svg width="38" height="38" viewBox="0 0 38 38" fill="none" xmlns="http://www.w3.org/2000/svg">
<path d="M2.1 1H35.9C36.1917 1 36.4715 1.11589 36.6778 1.32218C36.8841 1.52847 37 1.80826 37 2.1V35.9C37 36.1917 36.8841 36.4715 36.6778 36.6778C36.4715 36.8841 36.1917 37 35.9 37H27.2333V24.3333H31.1933H32.073L32.1852 23.4609L32.9252 17.7076L33.0702 16.58H31.9333H27.2333V13.9133C27.2333 13.1257 27.355 12.7441 27.5253 12.5422C27.6633 12.3785 28.0154 12.1267 29.0733 12.1267H32.1H33.1V11.1267V6V5.10498L32.2105 5.00612C30.6959 4.83781 29.1735 4.7512 27.6496 4.74667H27.6467C25.2537 4.74667 23.1361 5.48037 21.6141 6.98675C20.0891 8.49601 19.2733 10.6706 19.2733 13.3333V16.5533H15.3333H14.3333V17.5533V23.3333V24.3333H15.3333H19.3V37H2.1C1.80826 37 1.52847 36.8841 1.32219 36.6778C1.11589 36.4715 1 36.1917 1 35.9V2.1C1 1.80826 1.11589 1.52847 1.32218 1.32218C1.52847 1.11589 1.80826 1 2.1 1Z" stroke="white" stroke-width="2"/>
</svg>