<svg width="24" height="25" viewBox="0 0 24 25" fill="none" xmlns="http://www.w3.org/2000/svg">
<path d="M12 15.1763C13.6569 15.1763 15 13.8331 15 12.1763C15 10.5194 13.6569 9.17627 12 9.17627C10.3431 9.17627 9 10.5194 9 12.1763C9 13.8331 10.3431 15.1763 12 15.1763Z" stroke="#025BFF" stroke-width="2" stroke-linecap="round" stroke-linejoin="round"/>
<path d="M19.4 15.1763C19.2669 15.4779 19.2272 15.8125 19.286 16.1369C19.3448 16.4613 19.4995 16.7606 19.73 16.9963L19.79 17.0563C19.976 17.242 20.1235 17.4626 20.2241 17.7054C20.3248 17.9482 20.3766 18.2084 20.3766 18.4713C20.3766 18.7341 20.3248 18.9944 20.2241 19.2372C20.1235 19.4799 19.976 19.7005 19.79 19.8863C19.6043 20.0722 19.3837 20.2197 19.1409 20.3204C18.8981 20.421 18.6378 20.4728 18.375 20.4728C18.1122 20.4728 17.8519 20.421 17.6091 20.3204C17.3663 20.2197 17.1457 20.0722 16.96 19.8863L16.9 19.8263C16.6643 19.5957 16.365 19.4411 16.0406 19.3823C15.7162 19.3234 15.3816 19.3632 15.08 19.4963C14.7842 19.623 14.532 19.8335 14.3543 20.1018C14.1766 20.3701 14.0813 20.6845 14.08 21.0063V21.1763C14.08 21.7067 13.8693 22.2154 13.4942 22.5905C13.1191 22.9656 12.6104 23.1763 12.08 23.1763C11.5496 23.1763 11.0409 22.9656 10.6658 22.5905C10.2907 22.2154 10.08 21.7067 10.08 21.1763V21.0863C10.0723 20.7553 9.96512 20.4343 9.77251 20.165C9.5799 19.8957 9.31074 19.6906 9 19.5763C8.69838 19.4432 8.36381 19.4034 8.03941 19.4623C7.71502 19.5211 7.41568 19.6757 7.18 19.9063L7.12 19.9663C6.93425 20.1522 6.71368 20.2997 6.47088 20.4004C6.22808 20.501 5.96783 20.5528 5.705 20.5528C5.44217 20.5528 5.18192 20.501 4.93912 20.4004C4.69632 20.2997 4.47575 20.1522 4.29 19.9663C4.10405 19.7805 3.95653 19.5599 3.85588 19.3172C3.75523 19.0744 3.70343 18.8141 3.70343 18.5513C3.70343 18.2884 3.75523 18.0282 3.85588 17.7854C3.95653 17.5426 4.10405 17.322 4.29 17.1363L4.35 17.0763C4.58054 16.8406 4.73519 16.5413 4.794 16.2169C4.85282 15.8925 4.81312 15.5579 4.68 15.2563C4.55324 14.9605 4.34276 14.7083 4.07447 14.5306C3.80618 14.3529 3.49179 14.2576 3.17 14.2563H3C2.46957 14.2563 1.96086 14.0456 1.58579 13.6705C1.21071 13.2954 1 12.7867 1 12.2563C1 11.7258 1.21071 11.2171 1.58579 10.8421C1.96086 10.467 2.46957 10.2563 3 10.2563H3.09C3.42099 10.2485 3.742 10.1414 4.0113 9.94878C4.28059 9.75617 4.48572 9.487 4.6 9.17627C4.73312 8.87465 4.77282 8.54008 4.714 8.21568C4.65519 7.89129 4.50054 7.59195 4.27 7.35627L4.21 7.29627C4.02405 7.11052 3.87653 6.88995 3.77588 6.64715C3.67523 6.40435 3.62343 6.1441 3.62343 5.88127C3.62343 5.61844 3.67523 5.35819 3.77588 5.11539C3.87653 4.87259 4.02405 4.65202 4.21 4.46627C4.39575 4.28032 4.61632 4.1328 4.85912 4.03215C5.10192 3.9315 5.36217 3.8797 5.625 3.8797C5.88783 3.8797 6.14808 3.9315 6.39088 4.03215C6.63368 4.1328 6.85425 4.28032 7.04 4.46627L7.1 4.52627C7.33568 4.75681 7.63502 4.91146 7.95941 4.97027C8.28381 5.02909 8.61838 4.98938 8.92 4.85627H9C9.29577 4.72951 9.54802 4.51902 9.72569 4.25073C9.90337 3.98244 9.99872 3.66806 10 3.34627V3.17627C10 2.64584 10.2107 2.13713 10.5858 1.76206C10.9609 1.38698 11.4696 1.17627 12 1.17627C12.5304 1.17627 13.0391 1.38698 13.4142 1.76206C13.7893 2.13713 14 2.64584 14 3.17627V3.26627C14.0013 3.58806 14.0966 3.90244 14.2743 4.17074C14.452 4.43903 14.7042 4.64951 15 4.77627C15.3016 4.90938 15.6362 4.94909 15.9606 4.89027C16.285 4.83146 16.5843 4.67681 16.82 4.44627L16.88 4.38627C17.0657 4.20032 17.2863 4.0528 17.5291 3.95215C17.7719 3.8515 18.0322 3.7997 18.295 3.7997C18.5578 3.7997 18.8181 3.8515 19.0609 3.95215C19.3037 4.0528 19.5243 4.20032 19.71 4.38627C19.896 4.57202 20.0435 4.79259 20.1441 5.03539C20.2448 5.27819 20.2966 5.53844 20.2966 5.80127C20.2966 6.0641 20.2448 6.32435 20.1441 6.56715C20.0435 6.80995 19.896 7.03052 19.71 7.21627L19.65 7.27627C19.4195 7.51195 19.2648 7.81129 19.206 8.13568C19.1472 8.46008 19.1869 8.79465 19.32 9.09627V9.17627C19.4468 9.47204 19.6572 9.72429 19.9255 9.90196C20.1938 10.0796 20.5082 10.175 20.83 10.1763H21C21.5304 10.1763 22.0391 10.387 22.4142 10.7621C22.7893 11.1371 23 11.6458 23 12.1763C23 12.7067 22.7893 13.2154 22.4142 13.5905C22.0391 13.9656 21.5304 14.1763 21 14.1763H20.91C20.5882 14.1776 20.2738 14.2729 20.0055 14.4506C19.7372 14.6283 19.5268 14.8805 19.4 15.1763Z" stroke="#025BFF" stroke-width="2" stroke-linecap="round" stroke-linejoin="round"/>
</svg>
