<svg width="130" height="60" viewBox="0 0 130 60" fill="none" xmlns="http://www.w3.org/2000/svg">
<path d="M64.1 60.0007C63.957 60.0007 63.957 60.0007 63.822 60.0007L58.83 58.6347C58.41 58.5007 58.132 58.0857 58.132 57.6707V50.5437L50.084 55.2047C49.807 55.3397 49.528 55.3397 49.394 55.3397L47.171 54.7897C46.758 54.6557 46.481 54.2407 46.481 53.8387V48.0787C46.481 47.6497 46.616 47.3827 46.894 47.2487L51.06 44.7837L26.225 39.2917C25.805 39.1577 25.392 38.7417 25.392 38.3267V34.0807L3.613 42.8537C3.47 42.9887 3.193 42.9887 3.057 42.8537L0.693001 42.1707C0.278001 42.0377 0 41.6227 0 41.2207V35.4537C0 35.0387 0.278 34.6307 0.556 34.4887L17.207 27.9057V26.9477C17.207 26.5317 17.485 26.1237 17.763 25.9827L75.061 3.35167C75.197 3.35167 75.345 3.21767 75.481 3.35167L78.53 3.62567L87.54 0.0626667C87.675 0.0626667 87.824 -0.0783333 87.96 0.0626667L91.577 0.337666C92.119 0.337666 92.539 0.746666 92.539 1.29567V4.86567L116.263 6.78167L122.645 3.07767C122.794 2.94367 123.065 2.94367 123.201 2.94367L125.978 3.21767C126.534 3.21767 126.804 3.62667 126.804 4.17567V7.19667L129.161 7.33067C129.73 7.33067 130.001 7.74567 130.001 8.29467V16.7937C130.001 17.0677 129.866 17.4837 129.581 17.6177L77.702 51.0797C77.418 51.2267 77.134 51.2267 76.862 51.2267L75.06 50.8107V52.1777C75.06 52.4587 74.911 52.8737 74.64 53.0077L64.377 59.5997C64.377 60.0007 64.234 60.0007 64.1 60.0007ZM60.075 56.9867L63.821 57.9367L73.259 51.7757V49.5787C73.259 49.3117 73.394 49.0297 73.665 48.7487C73.949 48.6147 74.234 48.4797 74.505 48.6147L77.134 49.3117L128.198 16.3857V9.25267L125.827 9.11167C125.285 9.11167 125.015 8.70267 125.015 8.15367V5.13267L123.47 4.99867L117.103 8.70267C116.967 8.83667 116.682 8.83667 116.534 8.83667L91.429 6.92067C90.873 6.92067 90.602 6.50567 90.602 5.95667V2.39367L88.245 2.25267L79.222 5.82267C79.086 5.82267 78.951 5.95667 78.816 5.82267L75.754 5.54767L19.145 27.9057V28.8707C19.145 29.2787 18.868 29.6877 18.589 29.8287L1.944 36.4127V40.7927L3.333 41.2217L26.224 32.0257C26.502 31.8857 26.915 31.8857 27.193 32.1607C27.471 32.3017 27.613 32.7097 27.613 32.9837V37.9267L54.108 43.6877C54.528 43.8207 54.805 44.0887 54.805 44.5037C54.805 44.9187 54.662 45.3197 54.385 45.4687L48.559 48.8977V53.2777L49.67 53.5597L58.829 48.2137C59.106 48.0797 59.519 48.0797 59.798 48.2137C60.075 48.3487 60.354 48.7497 60.211 49.0307V49.7147L60.075 56.9867Z" fill="#302D8F"/>
<path d="M77.2691 50.9444C77.1341 50.9444 77.1341 50.9444 76.9981 50.9444C76.8621 50.8104 76.7271 50.6774 76.7271 50.5434V40.3904C76.7271 40.2564 76.8631 40.1214 76.9981 39.9754L128.89 8.56241C129.026 8.42841 129.161 8.42841 129.296 8.56241C129.445 8.70341 129.58 8.83641 129.58 8.97841V16.9354C129.58 17.0694 129.445 17.2104 129.296 17.3444L77.5541 50.8114C77.5541 50.9444 77.4181 50.9444 77.2691 50.9444ZM77.7021 40.5234V49.5784L128.618 16.6604V9.80241L77.7021 40.5234Z" fill="#302D8F"/>
<path d="M77.269 50.9446L73.801 50.1286C73.53 50.1286 73.394 49.8476 73.394 49.7136V44.9176L72.148 44.6496C71.871 44.6496 71.728 44.3686 71.728 44.2206V39.4246C71.728 39.2906 71.728 39.1566 71.871 39.0226C72.006 38.8896 72.148 38.8896 72.284 38.8896L77.269 39.9746C77.554 39.9746 77.703 40.2556 77.703 40.3896V50.5426C77.703 50.6776 77.703 50.8106 77.555 50.9436C77.554 50.9446 77.418 50.9446 77.269 50.9446ZM74.505 49.3126L76.862 49.8476V40.6586L72.839 39.8426V43.6876L74.085 43.9546C74.369 43.9546 74.505 44.2236 74.505 44.3706V49.3126Z" fill="#302D8F"/>
<path d="M49.6701 54.9381C49.5271 54.9381 49.5271 54.7891 49.6701 54.9381L47.3131 54.3751C47.0351 54.3751 46.8931 54.1061 46.8931 53.9741V48.2131C46.8931 48.0791 46.8931 47.9331 47.0351 47.7981C47.1711 47.6511 47.3131 47.6511 47.4491 47.6511L49.8061 48.2131C50.0831 48.2131 50.2261 48.4811 50.2261 48.6151V54.3751C50.2261 54.5101 50.2261 54.6561 50.0831 54.7901C49.8061 54.7891 49.6701 54.9381 49.6701 54.9381ZM47.8681 53.4091L49.1141 53.6901V48.8951L47.8681 48.6141V53.4091ZM77.2691 40.7911L72.2841 39.6921C72.1481 39.6921 72.0061 39.5581 71.8711 39.2911C71.7281 39.0221 71.8711 38.8901 72.1481 38.8901L123.064 8.29509C123.2 8.29509 123.2 8.15409 123.335 8.29509L129.16 8.83709C129.296 8.83709 129.58 8.97809 129.58 9.25309C129.58 9.52809 129.58 9.66209 129.296 9.80209L77.5541 40.6571C77.4181 40.6571 77.4181 40.7911 77.2691 40.7911ZM73.6651 39.0221L77.2691 39.8401L127.779 9.38509L123.47 8.97709L73.6651 39.0221Z" fill="#302D8F"/>
<path d="M49.6702 54.9383C49.5272 54.9383 49.5272 54.9383 49.3932 54.9383C49.2502 54.7903 49.1152 54.6563 49.1152 54.5093V48.7483C49.1152 48.6143 49.2512 48.4793 49.3932 48.3473L67.4262 37.7913L125.692 3.9003C125.827 3.7663 125.976 3.7663 126.112 3.9003C126.26 4.0413 126.396 4.1753 126.396 4.3153V8.7023C126.396 8.8363 126.396 8.97731 126.26 9.11131C126.112 9.25231 125.976 9.25231 125.826 9.25231L123.334 9.11131L72.8392 39.5593V41.2203C72.8392 41.3553 72.7032 41.4883 72.5612 41.6223L70.6172 42.7213C70.4812 42.8543 70.2042 42.8543 70.0612 42.7213C69.6482 42.4523 68.8152 42.1713 67.8462 42.1713C66.3222 42.1713 65.3462 42.7213 65.3462 42.9883V45.3183C65.3462 45.4663 65.3462 45.7473 65.0692 45.8813L49.8062 54.7883L49.6702 54.9383ZM50.0832 48.8963V53.5583L64.5132 45.1853V42.9893C64.5132 41.8903 65.9022 41.2203 67.8462 41.2203C68.8152 41.2203 69.6482 41.3553 70.3392 41.7563L71.8702 40.7913V39.1573C71.8702 39.0223 72.0052 38.8893 72.1472 38.7413L123.063 8.15331C123.199 8.15331 123.199 8.02031 123.334 8.15331L125.42 8.2943V5.13231L50.0832 48.8963ZM66.8702 44.7833C66.5932 44.7833 66.3212 44.5023 66.3212 44.3683C66.3212 44.0873 66.5922 43.9523 66.8702 43.9523C67.1482 43.9523 67.2902 44.2213 67.2902 44.3683C67.2902 44.6493 67.1482 44.7833 66.8702 44.7833Z" fill="#302D8F"/>
<path d="M64.0998 59.4642C63.9568 59.4642 63.9568 59.4642 64.0998 59.4642L59.1068 58.0852C58.9638 58.0852 58.6868 57.8042 58.6868 57.6702V49.5782C58.6868 49.4442 58.6868 49.3112 58.8298 49.1772C58.9648 49.0302 59.1068 49.0302 59.2428 49.0302L64.2348 50.1292C64.5128 50.1292 64.6548 50.4102 64.6548 50.5442V58.9022C64.6548 59.0372 64.6548 59.1842 64.5128 59.3172C64.2338 59.4642 64.0998 59.4642 64.0998 59.4642ZM59.5198 57.4012L63.5438 58.5002V51.0792L59.5198 50.2622V57.4012ZM53.9718 45.3182L26.7798 39.0222C26.5028 39.0222 26.3598 38.7412 26.3598 38.6072V29.2772V29.1372C26.3598 29.1372 26.3598 29.1372 26.3598 29.0032C26.3598 28.8692 26.5028 28.5942 26.6368 28.5942L83.7998 5.4082C83.7998 5.4082 83.9348 5.4082 84.0708 5.4082L116.818 8.0202C116.967 8.0202 117.238 8.1532 117.238 8.4282C117.238 8.5622 117.238 8.8362 116.967 8.9772L66.0438 38.3262L54.1068 45.3182C54.2488 45.1852 54.1068 45.3182 53.9718 45.3182ZM27.3348 38.1922L53.8288 44.3682L64.5128 37.9252L27.1928 29.6872V38.1932H27.3348V38.1922ZM28.4388 28.7292L65.7648 37.0952L115.151 8.5622L84.0698 6.0982L28.4388 28.7292ZM3.19083 42.4522L0.690834 41.7562C0.419834 41.7562 0.277832 41.4872 0.277832 41.3552V35.5872C0.277832 35.4532 0.41983 35.3132 0.41983 35.1792C0.55583 35.0382 0.690832 35.0382 0.832832 35.0382L3.19083 35.7272C3.33283 35.7272 3.46783 35.9962 3.46783 36.1292V41.8892C3.46783 42.0362 3.46783 42.1702 3.33183 42.3182C3.46883 42.4522 3.33283 42.4522 3.19083 42.4522ZM1.38883 41.0722L2.77783 41.4872V36.6922L1.38883 36.2632V41.0722Z" fill="#302D8F"/>
<path d="M63.9568 51.0795L58.9638 49.9805C58.8288 49.9805 58.6868 49.8465 58.5508 49.5785C58.5508 49.4445 58.5508 49.1775 58.8288 49.1775L65.0678 45.4675C65.2098 45.3195 65.4878 45.3195 65.6238 45.4675C65.9008 45.7475 66.7338 46.0165 67.8458 46.0165C68.9578 46.0165 69.7898 45.7475 70.2028 45.3195C70.2028 45.3195 70.3388 45.1855 70.3388 45.0525V43.4045C70.3388 43.2695 70.3388 43.1235 70.4808 42.9895C70.6168 42.8545 70.7588 42.8545 70.8948 42.8545L74.2348 43.8195C74.3698 43.8195 74.5058 43.9535 74.5058 44.2215C74.5058 44.3685 74.5058 44.6505 74.2348 44.6505L64.2348 50.6785C64.0998 51.0795 64.0998 51.0795 63.9568 51.0795ZM60.3538 49.4445L63.8218 50.2615L69.0928 47.1135C68.6798 47.2485 68.2598 47.2485 67.7038 47.2485C66.5938 47.2485 65.7658 46.9805 65.0688 46.5525L60.3538 49.4445ZM71.1718 44.3685V45.3185C71.1718 45.4665 71.1718 45.7475 71.0358 45.8815L72.8388 44.7825L71.1718 44.3685Z" fill="#302D8F"/>
<path d="M64.0999 59.4646C63.9569 59.4646 63.9569 59.4646 63.8219 59.4646C63.6799 59.3176 63.5449 59.1846 63.5449 59.0366V50.6786C63.5449 50.5436 63.6809 50.4096 63.8219 50.2626L73.8009 44.2216C73.9489 44.0876 74.0849 44.0876 74.2349 44.2216C74.3699 44.3686 74.5059 44.5026 74.5059 44.6506V52.6076C74.5059 52.7406 74.3699 52.8756 74.2349 53.0086L64.2349 59.4646H64.0999ZM64.5129 50.9446V54.2406V58.0856L73.5299 52.1786V45.3196L64.5129 50.9446Z" fill="#302D8F"/>
<path d="M67.8462 44.9175C65.9022 44.9175 64.5132 44.0875 64.5132 43.1225C64.5132 42.0375 65.9022 41.3545 67.8462 41.3545C69.7902 41.3545 71.1722 42.1705 71.1722 43.1225C71.1722 44.0875 69.7902 44.9175 67.8462 44.9175ZM67.8462 42.1715C66.3222 42.1715 65.3462 42.7215 65.3462 42.9885C65.3462 43.2685 66.1802 43.8185 67.8462 43.8185C69.5122 43.8185 70.3392 43.2685 70.3392 42.9885C70.3392 42.7215 69.3702 42.1715 67.8462 42.1715Z" fill="#302D8F"/>
<path d="M67.8462 47.1139C65.9022 47.1139 64.5132 46.2839 64.5132 45.3189V42.9889C64.5132 42.7209 64.7902 42.5869 64.9332 42.5869C65.0692 42.5869 65.3462 42.8549 65.3462 42.9889C65.3462 43.1229 65.6242 43.5509 66.3222 43.6859C67.1492 43.9529 68.4022 43.9529 69.2352 43.6859C69.7912 43.5509 70.2042 43.1229 70.2042 42.9889C70.3402 42.8539 70.4812 42.7209 70.7602 42.8539C70.8962 42.8539 71.0372 43.1229 71.0372 43.2689V45.3189C71.0372 45.6009 70.8952 46.0159 70.6172 46.2839C70.2032 46.8339 69.0922 47.1139 67.8462 47.1139ZM65.3462 44.3689V45.3189C65.3462 45.6009 66.1802 46.1499 67.8462 46.1499C68.9572 46.1499 69.7902 45.8819 70.2032 45.4669C70.2032 45.4669 70.3392 45.3189 70.3392 45.1849V44.2209C70.2032 44.3679 69.9262 44.5019 69.6482 44.5019C68.6792 44.7829 67.2912 44.7829 66.1802 44.5019C65.9012 44.5029 65.6242 44.5029 65.3462 44.3689Z" fill="#302D8F"/>
<path d="M77.5538 46.2839C77.4178 46.2839 77.2688 46.1499 77.1338 46.0159C76.9978 45.7469 76.9978 45.4669 77.2688 45.3189L88.3788 38.1929C88.6498 38.0589 88.9348 38.0589 89.0688 38.3269C89.2178 38.6079 89.2178 38.8899 88.9338 39.0229L77.8368 46.1499C77.7018 46.2839 77.7018 46.2839 77.5538 46.2839ZM93.6488 35.8619C93.5128 35.8619 93.3648 35.7279 93.2288 35.5879C93.0928 35.3139 93.0928 35.0389 93.3648 34.9039L99.8948 30.7859C100.166 30.6509 100.451 30.6509 100.585 30.9269C100.734 31.2009 100.734 31.4769 100.45 31.6099L93.9318 35.7289C93.7978 35.8619 93.6488 35.8619 93.6488 35.8619ZM105.017 28.5959C104.881 28.5959 104.746 28.4549 104.611 28.3209C104.475 28.0469 104.475 27.7719 104.747 27.6319L109.462 24.6179C109.746 24.4779 110.03 24.4779 110.166 24.7519C110.302 25.0259 110.302 25.3009 110.03 25.4419L105.301 28.4559C105.166 28.4549 105.166 28.5959 105.017 28.5959ZM114.744 22.2799C114.609 22.2799 114.46 22.1459 114.324 22.0119C114.176 21.7379 114.176 21.4629 114.46 21.3229L117.929 19.1259C118.213 18.9919 118.485 18.9919 118.619 19.2669C118.755 19.5409 118.755 19.8159 118.484 19.9499L115.015 22.1469C114.88 22.2799 114.88 22.2799 114.744 22.2799ZM123.199 16.7939C123.063 16.7939 122.928 16.6599 122.793 16.5199C122.644 16.2459 122.644 15.9709 122.928 15.8369L124.039 15.1529C124.31 15.0129 124.581 15.0129 124.73 15.2869C124.865 15.5619 124.865 15.8359 124.581 15.9699L123.47 16.6609C123.335 16.7939 123.335 16.7939 123.199 16.7939Z" fill="#302D8F"/>
<path d="M93.5142 40.524C93.5142 40.524 93.3652 40.524 93.5142 40.524L88.3792 39.158C88.1082 39.158 87.9592 38.89 87.9592 38.742V33.532C87.9592 33.258 88.2432 33.116 88.3792 33.116C88.6502 33.116 88.7852 33.39 88.7852 33.532V38.327L92.8232 39.426V30.786C92.8232 30.512 93.0942 30.377 93.2292 30.377C93.3642 30.377 93.6492 30.651 93.6492 30.786V39.975C93.6492 40.121 93.6492 40.256 93.5132 40.39C93.6492 40.524 93.6492 40.524 93.5142 40.524ZM90.7362 36.546C90.0452 36.546 89.4902 35.862 89.4902 34.904C89.4902 33.94 90.0452 33.258 90.7362 33.258C91.4272 33.258 91.9822 33.941 91.9822 34.904C91.9822 35.862 91.4282 36.546 90.7362 36.546ZM90.7362 34.081C90.7362 34.081 90.4652 34.355 90.4652 34.904C90.4652 35.454 90.7362 35.728 90.7362 35.728C90.7362 35.728 91.0072 35.454 91.0072 34.904C91.0072 34.355 90.7362 34.081 90.7362 34.081ZM105.017 33.116C105.017 33.116 104.881 33.116 105.017 33.116L99.8962 31.75C99.6252 31.75 99.4762 31.477 99.4762 31.335V26.533C99.4762 26.259 99.7602 26.125 99.8962 26.125C100.167 26.125 100.302 26.399 100.302 26.533V30.927L104.339 32.025V23.519C104.339 23.244 104.61 23.104 104.746 23.104C104.881 23.104 105.166 23.378 105.166 23.519V32.567C105.166 32.708 105.166 32.842 105.017 32.982C105.301 32.982 105.166 33.116 105.017 33.116ZM18.1762 29.279C17.8992 29.279 17.7632 29.005 17.7632 28.871V27.223C17.7632 26.949 18.0342 26.808 18.1762 26.808C18.3122 26.808 18.5892 27.082 18.5892 27.223V28.871C18.5892 29.138 18.4532 29.279 18.1762 29.279ZM102.253 29.138C101.548 29.138 101.006 28.455 101.006 27.497C101.006 26.532 101.548 25.849 102.253 25.849C102.943 25.849 103.499 26.532 103.499 27.497C103.499 28.455 103.093 29.138 102.253 29.138ZM102.253 26.673C102.253 26.673 101.982 26.948 101.982 27.497C101.982 28.046 102.253 28.32 102.253 28.32C102.253 28.32 102.524 28.046 102.524 27.497C102.659 26.948 102.389 26.673 102.253 26.673ZM114.609 26.808L109.461 25.441C109.19 25.441 109.054 25.166 109.054 25.025V20.914C109.054 20.64 109.325 20.499 109.461 20.499C109.745 20.499 109.881 20.773 109.881 20.914V24.618L113.904 25.71V18.034C113.904 17.759 114.175 17.618 114.324 17.618C114.46 17.618 114.744 17.893 114.744 18.034V26.399C114.744 26.533 114.744 26.673 114.609 26.808C114.88 26.808 114.744 26.808 114.609 26.808ZM111.953 22.695C111.276 22.695 110.707 22.012 110.707 21.048C110.707 20.09 111.276 19.401 111.953 19.401C112.658 19.401 113.214 20.09 113.214 21.048C113.214 22.012 112.658 22.695 111.953 22.695ZM111.953 20.224C111.953 20.224 111.682 20.499 111.682 21.048C111.682 21.597 111.953 21.872 111.953 21.872C111.953 21.872 112.238 21.597 112.238 21.048C112.238 20.499 112.103 20.224 111.953 20.224ZM123.199 21.322C123.063 21.322 123.063 21.322 123.199 21.322L118.077 19.949C117.793 19.949 117.644 19.674 117.644 19.54V15.562C117.644 15.287 117.928 15.153 118.077 15.153C118.348 15.153 118.484 15.421 118.484 15.562V19.125L122.507 20.223V12.681C122.507 12.407 122.792 12.266 122.927 12.266C123.063 12.266 123.334 12.54 123.334 12.681V20.772C123.334 20.913 123.334 21.046 123.198 21.188C123.335 21.322 123.199 21.322 123.199 21.322ZM129.16 17.484L124.039 16.111C123.755 16.111 123.619 15.837 123.619 15.696V11.992C123.619 11.724 123.903 11.584 124.039 11.584C124.31 11.584 124.445 11.858 124.445 11.992V15.287L129.025 16.519C129.296 16.519 129.445 16.793 129.296 17.068C129.58 17.344 129.445 17.484 129.16 17.484ZM120.436 17.484C119.731 17.484 119.175 16.794 119.175 15.837C119.175 14.88 119.731 14.19 120.436 14.19C121.113 14.19 121.682 14.88 121.682 15.837C121.682 16.661 121.112 17.484 120.436 17.484ZM120.436 14.879C120.436 14.879 120.151 15.153 120.151 15.696C120.151 16.245 120.436 16.52 120.436 16.52C120.436 16.52 120.707 16.246 120.707 15.696C120.706 15.288 120.57 15.013 120.436 14.879Z" fill="#302D8F"/>
<path d="M58.5512 36.4114C58.4092 36.4114 58.2742 36.2644 58.1312 36.1304C57.9952 35.8614 58.1312 35.5874 58.2742 35.4534L59.9332 34.4884C60.2112 34.3544 60.4892 34.4884 60.6312 34.6304C60.7672 34.9034 60.6312 35.1794 60.4882 35.3134L58.8292 36.2644C58.6872 36.4114 58.6872 36.4114 58.5512 36.4114ZM64.3772 33.2574C64.2342 33.2574 64.1002 33.1154 63.9572 32.9824C63.8212 32.7084 63.9572 32.4324 64.1002 32.2994L65.7662 31.3344C66.0442 31.2004 66.3222 31.3344 66.4572 31.4764C66.5932 31.7494 66.4572 32.0244 66.3212 32.1594L64.6542 33.1164C64.6542 33.2574 64.5132 33.2574 64.3772 33.2574ZM70.2032 30.1024C70.0602 30.1024 69.9262 29.9614 69.7902 29.8274C69.6472 29.5534 69.7902 29.2784 69.9262 29.1374L71.5922 28.1794C71.8702 28.0454 72.1482 28.1794 72.2832 28.3194C72.4252 28.5944 72.2832 28.8694 72.1472 29.0034L70.4802 29.9614C70.4802 30.1024 70.3392 30.1024 70.2032 30.1024ZM31.4942 30.1024C31.3582 30.1024 31.0812 29.9614 31.0812 29.8274C30.9382 29.5534 31.0812 29.2784 31.3582 29.1374L33.1612 28.4544C33.4382 28.3204 33.7162 28.4544 33.8512 28.7294C33.9942 29.0034 33.8512 29.2784 33.5742 29.4124L31.7722 30.1024C31.4942 30.1024 31.4942 30.1024 31.4942 30.1024ZM37.5982 27.4974C37.4632 27.4974 37.1852 27.3564 37.1852 27.2224C37.0422 26.9484 37.1852 26.6734 37.4632 26.5324L39.2652 25.8494C39.5422 25.7094 39.8212 25.8494 39.9552 26.1244C40.0982 26.3984 39.9552 26.6734 39.6782 26.8074L37.8762 27.4974C37.7402 27.4974 37.5982 27.4974 37.5982 27.4974ZM76.1722 26.9474C76.0232 26.9474 75.8872 26.8064 75.7512 26.6724C75.6162 26.3984 75.7512 26.1234 75.8872 25.9824L77.5542 25.0244C77.8382 24.8904 78.1092 25.0244 78.2442 25.1654C78.3802 25.4404 78.2442 25.7084 78.1082 25.8484L76.4562 26.8064C76.3072 26.9474 76.1722 26.9474 76.1722 26.9474ZM43.7012 24.8914C43.5662 24.8914 43.2882 24.7504 43.2882 24.6164C43.1462 24.3424 43.2882 24.0674 43.5662 23.9264L45.3682 23.2434C45.6452 23.1034 45.9242 23.2434 46.0592 23.5184C46.2012 23.7934 46.0592 24.0674 45.7812 24.2014L43.8432 24.8914H43.7012ZM81.9972 23.7934C81.8492 23.7934 81.7132 23.6524 81.5772 23.5184C81.4412 23.2434 81.5772 22.9694 81.7132 22.8284L83.3932 21.8704C83.6642 21.7364 83.9352 21.8704 84.0712 22.0104C84.2072 22.1444 84.0712 22.5534 83.9352 22.6934L82.2832 23.6514C82.1332 23.7934 81.9972 23.7934 81.9972 23.7934ZM49.8062 22.2794C49.6702 22.2794 49.3932 22.1454 49.3932 22.0114C49.2502 21.7374 49.3932 21.4624 49.6702 21.3224L51.4722 20.6394C51.7502 20.4984 52.0282 20.6394 52.1702 20.9134C52.3052 21.1884 52.1702 21.4624 51.8922 21.5964L50.0832 22.2794C49.9472 22.2794 49.8062 22.2794 49.8062 22.2794ZM87.8232 20.6384C87.6742 20.6384 87.5392 20.4974 87.4032 20.3634C87.2672 20.0884 87.4032 19.8144 87.5392 19.6734L89.2192 18.7154C89.4902 18.5814 89.7612 18.7154 89.8972 18.8494C90.0452 18.9894 89.8972 19.3984 89.7612 19.5384L88.1082 20.4964C87.9592 20.6384 87.8232 20.6384 87.8232 20.6384ZM55.9162 19.6734C55.7732 19.6734 55.4962 19.5394 55.4962 19.3994C55.3602 19.1254 55.4962 18.8504 55.7732 18.7164L57.5752 18.0334C57.8532 17.8924 58.1312 18.0334 58.2732 18.3074C58.4092 18.5824 58.2732 18.8504 57.9952 18.9904L56.1872 19.6734C56.0522 19.6734 55.9162 19.6734 55.9162 19.6734ZM93.6492 17.4834C93.5132 17.4834 93.3652 17.3424 93.2292 17.2094C93.0932 16.9344 93.2292 16.6604 93.3652 16.5194L95.0452 15.5614C95.3162 15.4204 95.5872 15.5614 95.7232 15.6954C95.8712 15.8364 95.7232 16.2444 95.5872 16.3844L93.9342 17.3424C93.7982 17.4834 93.6492 17.4834 93.6492 17.4834ZM62.0202 17.0684C61.8772 17.0684 61.6002 16.9344 61.6002 16.7944C61.4642 16.5204 61.6002 16.2454 61.8772 16.1114L63.6802 15.4204C63.9572 15.2864 64.2352 15.4204 64.3772 15.6954C64.5132 15.9694 64.3772 16.2444 64.1002 16.3844L62.2972 17.0684C62.1552 17.0684 62.0202 17.0684 62.0202 17.0684ZM68.1232 14.4624C67.9812 14.4624 67.7032 14.3294 67.7032 14.1884C67.5682 13.9134 67.7032 13.6394 67.9812 13.5044L69.7902 12.8144C70.0612 12.6804 70.3392 12.8144 70.4802 13.0894C70.6162 13.3634 70.4802 13.6384 70.2032 13.7784L68.4012 14.4614C68.2592 14.4624 68.2592 14.4624 68.1232 14.4624ZM99.4762 14.3294C99.3402 14.3294 99.1912 14.1884 99.0562 14.0544C98.9202 13.7794 99.0562 13.5054 99.1912 13.3644L100.872 12.4064C101.143 12.2654 101.414 12.4064 101.549 12.5404C101.698 12.8144 101.549 13.0894 101.414 13.2304L99.7602 14.1884C99.6242 14.3294 99.6242 14.3294 99.4762 14.3294ZM74.2342 11.8574C74.0852 11.8574 73.8002 11.7234 73.8002 11.5834C73.6642 11.3084 73.8002 11.0344 74.0842 10.8994L75.8862 10.2094C76.1712 10.0754 76.4552 10.2094 76.5912 10.4844C76.7262 10.7584 76.5912 11.0334 76.3062 11.1744L74.5042 11.8574C74.3692 11.8574 74.3692 11.8574 74.2342 11.8574ZM105.301 11.1744C105.166 11.1744 105.017 11.0334 104.881 10.8994C104.746 10.6254 104.881 10.3504 105.017 10.2094L106.697 9.25136C106.968 9.11036 107.239 9.25136 107.388 9.38536C107.524 9.66036 107.388 9.93536 107.239 10.0754L105.587 11.0334C105.45 11.1744 105.45 11.1744 105.301 11.1744ZM80.3312 9.38636C80.1952 9.38636 79.9252 9.25237 79.9252 9.11237C79.7762 8.83737 79.9252 8.56336 80.1962 8.42936L81.9982 7.74636C82.2832 7.60536 82.5542 7.74636 82.6892 8.02136C82.8252 8.29536 82.6892 8.56336 82.4182 8.70436L80.6032 9.38736C80.4672 9.25236 80.4672 9.38636 80.3312 9.38636ZM111.141 8.02036C110.992 8.02036 110.857 7.87936 110.707 7.74536C110.571 7.47036 110.707 7.19636 110.991 7.05536C111.276 6.92136 111.547 7.05536 111.682 7.33036C111.818 7.60436 111.682 7.87936 111.411 8.02036C111.276 8.02036 111.276 8.02036 111.141 8.02036Z" fill="#302D8F"/>
<path d="M3.19092 36.8267C3.05492 36.8267 3.05491 36.8267 2.91291 36.6927L1.11092 36.4117C0.832916 36.4117 0.690918 36.2647 0.690918 35.9967C0.690918 35.7277 0.832915 35.5877 0.967915 35.4537L88.1069 1.02072H88.2429L91.4279 0.886719C91.7119 0.886719 91.8479 1.02072 91.8479 1.29472C91.8479 1.56972 91.7119 1.70372 91.5769 1.84372L3.19092 36.8267C3.33292 36.8267 3.33292 36.8267 3.19092 36.8267ZM3.05592 35.8617H3.33292L88.7849 1.97872H88.3789L3.05592 35.8617Z" fill="#302D8F"/>
</svg>
