<svg width="99" height="82" viewBox="0 0 99 82" fill="none" xmlns="http://www.w3.org/2000/svg">
<path d="M51.4768 81.5888C51.3678 81.5888 51.3678 81.5888 51.4768 81.5888C51.2648 81.5888 51.1578 81.4858 51.1578 81.3838C50.8438 80.6468 50.5238 80.0138 50.2098 79.3788C49.7878 78.4368 49.4738 77.5978 48.9428 76.7588H48.8388L44.0898 77.8138C43.8788 77.8138 43.6678 77.7098 43.6678 77.4968C41.6648 69.0128 37.2358 62.6178 32.9098 56.7538C26.6878 49.6218 19.1998 40.7198 10.2328 27.4118C10.1248 27.3088 10.1248 27.0998 10.3358 26.9928L12.5558 25.3198C12.5558 25.3198 12.5558 25.3198 12.6588 25.3198L11.3918 23.6418C11.2888 23.5398 11.2888 23.4318 11.2888 23.3298C11.2888 23.2228 11.3918 23.1208 11.4998 23.1208L53.5828 1.63783C53.6898 1.53583 53.9018 1.63783 54.0048 1.74483L56.4358 4.46683L62.9658 2.47683C63.1828 2.47683 63.2849 2.47683 63.3988 2.68683L77.3138 27.2018V27.3088L81.6398 32.0218C84.9058 35.5868 85.8528 37.4708 86.6978 39.1488C87.8618 41.4558 88.8198 43.5488 95.3498 48.8958C95.4538 48.9988 95.4538 49.1108 95.4538 49.2118C95.4538 49.3158 95.3498 49.4168 95.3498 49.5198L91.7658 51.8328L93.6608 53.9188C93.7648 54.0228 93.7648 54.1348 93.7648 54.2358C93.7648 54.3488 93.6608 54.4518 93.5588 54.4518L71.7218 68.3878L51.6878 81.5888C51.5788 81.5888 51.4768 81.5888 51.4768 81.5888ZM33.5428 56.3338C34.5988 57.4798 35.5458 58.6378 36.4938 59.6898C41.6648 65.4508 45.7798 70.0658 49.0498 75.5098C49.7868 76.6558 50.3129 77.8128 50.8428 79.1728C51.0538 79.7048 51.2649 80.2158 51.5788 80.8508L71.3088 67.8558L92.9188 54.0218L91.2399 52.2408L91.1268 52.1388L52.5268 77.4958C52.4228 77.5978 52.2128 77.5978 52.0018 77.3918L37.6578 58.2168L13.0818 25.7388L11.1818 27.2018C19.9368 40.5098 27.3218 49.3148 33.5428 56.3338ZM37.3388 61.7778C40.2948 66.1768 42.9319 71.1098 44.3018 77.0868L48.5198 76.1458C48.5198 76.0338 48.4168 75.9298 48.4168 75.9298C45.4608 71.0088 41.8758 66.8118 37.3388 61.7778ZM12.1338 23.4308L38.1838 57.8068L52.3158 76.7578L94.5058 49.1098C88.2838 43.8658 87.2348 41.7678 86.0698 39.3578C85.2248 37.6798 84.2769 35.7968 81.1149 32.3378L55.8998 4.88383L53.4788 2.26483L12.1338 23.4308ZM56.9608 4.78183L75.3058 24.5818L62.9658 2.89383L56.9608 4.78183ZM32.2758 75.4078C31.4308 75.4078 30.3798 74.7728 29.5358 73.7288L0.421848 38.2068C0.318848 38.0988 0.318848 37.9968 0.318848 37.8898C0.318848 37.7868 0.421846 37.6798 0.529846 37.6798L5.69585 35.0598C5.80385 34.9578 6.01485 35.0598 6.11785 35.1678L32.3838 68.8998C32.4868 69.0118 33.9658 70.9048 33.9658 72.8898C33.9658 74.5688 33.2288 75.0898 32.8068 75.3058C32.6988 75.3068 32.4868 75.4078 32.2758 75.4078ZM1.26685 38.0998L30.0608 73.3108C30.9058 74.3548 31.9618 74.8768 32.5948 74.6718C33.1199 74.4668 33.3308 73.8328 33.3308 72.9928C33.3308 71.2128 31.8528 69.4308 31.8528 69.4308L5.69585 35.8998L1.26685 38.0998ZM49.0498 63.0478C48.9428 63.0478 48.8398 62.9348 48.7308 62.8318C48.6278 62.6178 48.7308 62.4128 48.8388 62.4128L83.4328 44.7048C83.6488 44.5978 83.8548 44.7048 83.8548 44.8078C83.9578 45.0178 83.8548 45.2218 83.7508 45.2218L49.1528 62.9348C49.1528 63.0478 49.0498 63.0478 49.0498 63.0478ZM47.0418 61.2568C46.9388 61.2568 46.8358 61.1528 46.7278 61.0408C46.6248 60.8368 46.7278 60.6318 46.8358 60.6318L81.4249 42.9198C81.6409 42.8168 81.8578 42.9198 81.8578 43.0258C81.9608 43.2368 81.8578 43.4458 81.7448 43.4458L47.1498 61.1528C47.1498 61.2568 47.0418 61.2568 47.0418 61.2568ZM46.2028 58.9538C46.0948 58.9538 45.9918 58.8508 45.8838 58.7498C45.7808 58.5338 45.8838 58.3198 45.9918 58.3198L80.5798 40.6168C80.7959 40.5098 81.0128 40.6168 81.0128 40.7198C81.1158 40.9288 81.0128 41.1388 80.9088 41.1388L46.3058 58.8518C46.3058 58.9538 46.2028 58.9538 46.2028 58.9538ZM45.7798 56.4358C45.6718 56.4358 45.5688 56.3328 45.4608 56.2318C45.3578 56.0158 45.4608 55.8018 45.5688 55.8018L80.1678 38.0998C80.3738 37.9978 80.5798 38.0998 80.5798 38.2078C80.6928 38.4168 80.5798 38.6268 80.4758 38.6268L45.8828 56.3338C45.8828 56.4358 45.7798 56.4358 45.7798 56.4358ZM44.6158 54.2358C44.5128 54.2358 44.4049 54.1338 44.3018 54.0218C44.1988 53.8168 44.3018 53.6128 44.4048 53.6128L79.1068 35.8998C79.3228 35.7968 79.5288 35.8998 79.5288 36.0068C79.6318 36.2168 79.5288 36.4258 79.4258 36.4258L44.8258 54.1338C44.7238 54.2358 44.7239 54.2358 44.6158 54.2358ZM42.9318 52.3528C42.8238 52.3528 42.7208 52.2408 42.6128 52.1388C42.5098 51.9338 42.6128 51.7288 42.7208 51.7288L77.3138 34.0168C77.5308 33.9098 77.7368 34.0168 77.7368 34.1188C77.8398 34.3288 77.7368 34.5388 77.6328 34.5388L43.1428 52.3528C43.0348 52.3528 43.0348 52.3528 42.9318 52.3528ZM39.3418 48.2708C39.2388 48.2708 39.1308 48.1578 39.0278 48.0548C38.9248 47.8408 39.0278 47.6358 39.1308 47.6358L73.8328 29.9288C74.0499 29.8208 74.2558 29.9288 74.2558 30.0318C74.3588 30.2408 74.2558 30.4508 74.1518 30.4508L39.5538 48.1578C39.4508 48.2708 39.4508 48.2708 39.3418 48.2708ZM37.6578 46.3788C37.5498 46.3788 37.4468 46.2748 37.3388 46.1628C37.2358 45.9578 37.3388 45.7538 37.4468 45.7538L72.0408 28.0408C72.2569 27.9378 72.4628 28.0408 72.4628 28.1478C72.5668 28.3578 72.4628 28.5668 72.3598 28.5668L37.7608 46.2748C37.7608 46.3788 37.7608 46.3788 37.6578 46.3788ZM35.9688 44.4948C35.8658 44.4948 35.7578 44.3878 35.6548 44.2858C35.5468 44.0748 35.6548 43.8658 35.7578 43.8658L70.3618 26.1578C70.5678 26.0508 70.7738 26.1578 70.7738 26.2608C70.8768 26.4708 70.7738 26.6798 70.6698 26.6798L36.0768 44.3878C36.0768 44.4948 36.0769 44.4948 35.9688 44.4948ZM34.2798 42.6068C34.1768 42.6068 34.0688 42.4998 33.9658 42.3978C33.8578 42.1868 33.9658 41.9768 34.0688 41.9768L68.6729 24.2698C68.8789 24.1628 69.0848 24.2698 69.0848 24.3718C69.1878 24.5818 69.0848 24.7918 68.9809 24.7918L34.3878 42.4998C34.3878 42.6068 34.3878 42.6068 34.2798 42.6068ZM32.5958 40.7198C32.4878 40.7198 32.3848 40.6168 32.2768 40.5098C32.1738 40.2998 32.2768 40.0898 32.3848 40.0898L66.9828 22.3818C67.1889 22.2798 67.3949 22.3818 67.3949 22.4898C67.5079 22.6988 67.3948 22.9088 67.2908 22.9088L32.6988 40.6168C32.6988 40.7198 32.6988 40.7198 32.5958 40.7198ZM30.9058 38.8358C30.8028 38.8358 30.6948 38.7288 30.5918 38.6268C30.4838 38.4168 30.5918 38.2078 30.6948 38.2078L65.3969 20.3928C65.6029 20.2908 65.8188 20.3928 65.8188 20.5008C65.9228 20.7098 65.8188 20.9198 65.7058 20.9198L31.0148 38.7288C31.0148 38.8358 30.9058 38.8358 30.9058 38.8358ZM27.7438 35.0598C27.6358 35.0598 27.5328 34.9578 27.4248 34.8508C27.3218 34.6408 27.4248 34.4358 27.5328 34.4358L62.2348 16.7228C62.4508 16.6208 62.6568 16.7228 62.6568 16.8298C62.7608 17.0398 62.6568 17.2498 62.5538 17.2498L27.8458 35.0598H27.7438ZM26.0548 33.1778C25.9468 33.1778 25.8438 33.0698 25.7408 32.9678C25.6328 32.7588 25.7408 32.5478 25.8438 32.5478L60.4328 14.8398C60.6488 14.7328 60.8658 14.8398 60.8658 14.9428C60.9688 15.1518 60.8658 15.3618 60.7618 15.3618L26.1578 33.1778H26.0548ZM24.3658 31.2898C24.2628 31.2898 24.1548 31.1878 24.0518 31.0798C23.9438 30.8708 24.0518 30.6608 24.1548 30.6608L58.7548 12.9528C58.9708 12.8498 59.1768 12.9528 59.1768 13.0598C59.2799 13.2698 59.1768 13.4798 59.0728 13.4798L24.4738 31.2898H24.3658ZM22.6818 29.4018C22.5738 29.4018 22.4708 29.2988 22.3628 29.1968C22.2598 28.9878 22.3628 28.7778 22.4708 28.7778L57.0648 11.0648C57.2808 10.9618 57.4868 11.0648 57.4868 11.1718C57.5908 11.3818 57.4869 11.5908 57.3839 11.5908L22.7848 29.4008H22.6818V29.4018ZM20.9918 27.5188C20.8838 27.5188 20.7808 27.4108 20.6728 27.3088C20.5698 27.0998 20.6728 26.8898 20.7808 26.8898L55.3748 9.18183C55.5908 9.07483 55.7968 9.18183 55.7968 9.28483C55.9008 9.49483 55.7968 9.70383 55.6938 9.70383L21.0948 27.5188H20.9918ZM19.1998 25.6308C19.0918 25.6308 18.9888 25.5288 18.8808 25.4208C18.7778 25.2118 18.8808 25.0018 18.9888 25.0018L53.6898 7.29383C53.9018 7.19083 54.1128 7.29383 54.1128 7.40083C54.2158 7.60983 54.1129 7.81983 54.0048 7.81983L19.4108 25.6298C19.4108 25.6308 19.3028 25.6308 19.1998 25.6308Z" fill="#FDCB2B"/>
<path d="M51.477 81.9984C51.369 81.9984 51.369 81.9984 51.265 81.9984C51.054 81.8954 50.843 81.7944 50.843 81.5894C50.632 81.1694 49.154 78.3354 48.52 77.2914L44.302 78.2324C43.88 78.3354 43.565 78.1294 43.457 77.7104C42.823 75.6134 42.087 73.6284 41.242 71.6324L35.866 74.7744C35.655 74.8784 35.444 74.9794 35.232 75.1944C34.176 75.9304 33.332 76.4534 32.595 76.4534C31.22 76.4534 30.38 75.4094 29.747 74.4684C29.639 74.3564 29.536 74.1414 29.428 74.0384L0.210999 38.5194C-1.46031e-06 38.3104 0 38.1004 0 37.8904C0 37.6804 0.211001 37.4714 0.422001 37.3684L4.537 35.4804L0.952999 30.9784C0.844999 30.7694 0.742001 30.5584 0.845001 30.3494C0.845001 30.1394 1.056 29.9304 1.267 29.8224L11.392 24.9014L10.445 23.6424C10.337 23.4324 10.234 23.2234 10.337 23.0134C10.337 22.8044 10.548 22.5944 10.759 22.4924L16.878 19.3454L15.508 14.7354C15.4 14.5264 15.508 14.3164 15.611 14.1064C15.719 13.8974 15.93 13.7944 16.141 13.7944L36.078 9.60337L53.795 0.588374C54.114 0.486374 54.429 0.486373 54.748 0.798373L56.962 3.31537C59.073 2.37437 61.072 1.42737 62.339 0.798373C63.184 0.383373 63.812 0.173374 63.915 0.067374C64.244 -0.035626 64.554 -0.0356257 64.76 0.174374C65.924 1.32537 94.507 28.8824 96.938 32.7604C97.886 34.3304 98.195 35.6914 97.886 37.0574C97.463 38.7304 96.197 39.4674 96.093 39.5694C95.352 39.9894 94.405 40.5114 93.25 41.1404C92.292 41.6664 91.345 42.1884 90.397 42.7104C91.767 44.3894 93.662 46.3804 96.196 48.8974C96.402 49.1124 96.402 49.3174 96.402 49.5214C96.402 49.7364 96.298 49.9514 96.092 50.0534L92.817 52.1414L94.506 53.8194C94.712 54.0244 94.712 54.2384 94.712 54.4544C94.712 54.6584 94.609 54.8634 94.403 54.9754L92.61 56.1314L93.764 59.3754C93.877 59.7954 93.66 60.2144 93.352 60.3154L74.677 67.5504L52.109 81.7944C51.688 81.9984 51.579 81.9984 51.477 81.9984ZM48.839 75.6134C49.153 75.6134 49.576 75.6134 51.79 80.1154L73.73 66.1784C73.73 66.1784 73.833 66.1784 73.833 66.0764L91.972 59.1594L90.922 56.0164C90.818 55.6994 90.922 55.2904 91.241 55.1884L92.816 54.2364L91.128 52.5694C90.922 52.3534 90.922 52.1394 90.922 51.9344C90.922 51.7294 91.025 51.5154 91.241 51.4024L94.506 49.3154C91.869 46.6954 90.077 44.7054 88.707 43.0264C88.603 42.8174 88.49 42.6074 88.603 42.3984C88.707 42.1874 88.82 41.9774 88.922 41.8764C90.076 41.2474 91.343 40.5104 92.507 39.8804C93.66 39.2564 94.609 38.7294 95.35 38.3094C95.556 38.2074 97.565 36.7394 95.669 33.5974C93.454 30.0324 67.508 4.88437 64.129 1.63637C63.81 1.74337 63.501 1.95337 62.965 2.16337C61.606 2.79237 59.381 3.83637 57.064 4.88537C56.745 4.99337 56.435 4.99337 56.219 4.67637L54.004 2.16437L36.705 10.9644C36.602 10.9644 36.602 11.0674 36.494 11.0674L17.3 15.1534L18.67 19.5534C18.778 19.8704 18.567 20.2904 18.248 20.3924L12.449 23.4314L13.396 24.6904C13.504 24.9004 13.607 25.1094 13.504 25.3194C13.504 25.5294 13.293 25.7394 13.082 25.8414L2.957 30.6614L6.541 35.1694C6.649 35.3784 6.752 35.5884 6.649 35.7984C6.649 36.0084 6.438 36.2184 6.227 36.3204L2.112 38.2084L30.592 72.9944C30.695 73.0974 30.803 73.3114 31.014 73.4134C31.642 74.2534 32.173 74.7744 32.698 74.7744C33.12 74.7744 34.068 74.1404 34.598 73.8344C34.809 73.6294 35.123 73.5264 35.231 73.4134L40.819 70.1704C40.927 70.0674 41.241 69.9554 41.561 69.9554C41.767 69.9554 42.298 70.0674 42.612 70.6924C43.457 72.5744 44.198 74.5704 44.826 76.6574L48.838 75.8184C48.731 75.7164 48.731 75.6134 48.839 75.6134Z" fill="#FDCB2B"/>
</svg>
