<svg width="48" height="143" viewBox="0 0 48 143" fill="none" xmlns="http://www.w3.org/2000/svg">
<path d="M33.7002 47.8998V72.7998C33.7002 73.8998 31.6002 74.7998 28.9002 74.7998C26.3002 74.7998 24.1002 73.8998 24.1002 72.7998V47.8998C25.5002 48.0998 27.1002 48.2998 28.9002 48.2998C30.7002 48.2998 32.4002 48.0998 33.7002 47.8998ZM20.6002 36.1998C20.6002 37.2998 24.4002 38.1998 29.0002 38.1998C33.6002 38.1998 37.4002 37.2998 37.4002 36.1998L41.7002 30.1998C41.9002 30.0998 42.0002 29.8998 42.0002 29.7998C42.0002 28.6998 36.2002 27.7998 29.1002 27.7998C22.0002 27.7998 16.2002 28.6998 16.2002 29.7998C16.2002 29.8998 16.3002 30.0998 16.5002 30.1998L20.6002 36.1998Z" stroke="#F28128" stroke-width="0.6673" stroke-miterlimit="22.9256" stroke-linecap="round" stroke-linejoin="round"/>
<path d="M14.0002 6.90039L46.8002 22.2004L44.5002 27.2004L11.7002 11.9004L14.0002 6.90039Z" stroke="#F28128" stroke-width="0.6681" stroke-miterlimit="22.9256" stroke-linecap="round" stroke-linejoin="round"/>
<path d="M12.6001 10.0002L14.7001 10.9002L15.7001 8.7002L17.1001 9.4002L16.4001 11.7002L17.7001 12.3002L19.2001 9.3002L21.9001 10.6002L20.6001 13.6002L22.4001 14.4002L23.5001 12.1002L26.6001 13.6002L25.4001 15.8002L27.6001 16.7002L28.5001 14.8002L31.8001 16.1002L30.7001 18.3002L32.9001 19.2002L34.4001 16.4002L37.1001 17.7002L35.6001 20.4002L37.5001 21.1002L38.9001 18.5002L41.3001 19.6002L40.3001 22.6002L42.2001 23.2002L43.0001 21.8002L44.9001 22.6002L44.1001 24.3002L45.5001 25.0002" stroke="#F28128" stroke-width="0.6673" stroke-miterlimit="22.9256" stroke-linecap="round" stroke-linejoin="round"/>
<path d="M3.6 14.9004V28.2004H1V14.9004H3.6Z" stroke="#F28128" stroke-width="0.5651" stroke-miterlimit="22.9256" stroke-linecap="round" stroke-linejoin="round"/>
<path d="M16.0998 28.2C16.7998 28.2 17.2998 25.2 17.2998 21.6C17.2998 18 16.7998 15 16.0998 15H6.7998C7.4998 15 7.9998 18 7.9998 21.6C7.9998 25.3 7.4998 28.2 6.7998 28.2H16.0998V28.2Z" stroke="#F28128" stroke-width="0.6673" stroke-miterlimit="22.9256" stroke-linecap="round" stroke-linejoin="round"/>
<path d="M37.4 36.9L41.7 30.1C41.9 30 42 30.3 42 29.7V26.3L41.9 26.2L44.5 27.4L47.1 21.8L45.8 21.2C44.7 17.5 41.8 13.8 37.6 10.9L39 7.8L36 6.4L34.7 9.2C34.2 8.9 33.7 8.7 33.2 8.4C32.9 8.3 32.6 8.1 32.3 8L34.1 4.2L35 4.6L35.7 3.1L31 1L30.3 2.5L31.2 2.9L29.3 6.9C24.2 5.5 19.2 5.6 15.5 7.2L14.2 6.5L11.6 12.1L16.1 14.2H16V14.9H6.8C6.4 14.9 6 16 5.8 17.8H5.2H4.1V14.9H1V28.1H4.1V25.2H5.3H5.9C6.1 27 6.5 28.1 6.9 28.1H16.1V29.7C16.2 29.9 16.1 29.9 16.4 30.1L20.7 36.9V46.6C20.7 47.3 22.2 47.9 24.4 48.3V73.2C24.4 73.8 25.1 74.4 26.1 74.8V140C26.1 141.1 27.5 142 29.1 142C30.7 142 32.1 141.1 32.1 140V74.8C33.2 74.4 33.8 73.9 33.8 73.2V48.3C36 47.9 37.5 47.3 37.5 46.6L37.4 36.9Z" stroke="#F28128" stroke-width="1.4173" stroke-miterlimit="22.9256" stroke-linecap="round" stroke-linejoin="round"/>
<path d="M34.2999 4.00039L30.8999 2.40039M37.6999 11.4004L34.2999 9.30039L37.6999 11.4004Z" stroke="#F28128" stroke-width="0.6673" stroke-miterlimit="22.9256" stroke-linecap="round" stroke-linejoin="round"/>
</svg>
