<svg width="66" height="134" viewBox="0 0 66 134" fill="none" xmlns="http://www.w3.org/2000/svg">
<path d="M36.822 133.002C28.138 133.002 21.1 125.945 21.1 117.247C21.1 113.792 22.152 110.658 24.243 107.949L24.843 107.348C26.341 105.709 28.285 103.454 28.739 101.814C28.885 101.053 29.039 99.999 29.184 98.798C29.184 98.212 29.637 97.758 30.237 97.758H30.537V94.464H26.494C25.894 94.464 25.441 94.01 25.441 93.409V87.714C25.441 87.114 25.894 86.66 26.494 86.66H29.038V73.022C26.041 71.521 24.097 68.374 24.097 64.925C24.097 64.771 24.097 64.624 24.097 64.471V56.527C23.944 56.827 23.644 56.973 23.344 56.973H20.501C19.901 56.973 19.456 56.527 19.456 55.926V46.782C19.456 46.181 19.901 45.727 20.501 45.727H23.344C23.944 45.727 24.397 46.181 24.397 46.627C24.543 46.327 24.843 46.181 25.143 46.181H27.986C28.439 46.181 28.885 46.481 29.039 46.928V43.48H1.046C0.446001 43.48 0 43.033 0 42.433V1.047C0 0.445997 0.446001 0 1.046 0H64.963C65.562 0 66 0.445997 66 1.047V42.433C66 43.033 65.562 43.48 64.963 43.48H36.969V46.928C37.122 46.481 37.568 46.181 38.021 46.181H40.865C41.165 46.181 41.464 46.327 41.61 46.627C41.61 46.026 42.056 45.727 42.655 45.727H45.506C46.091 45.727 46.559 46.181 46.559 46.782V55.926C46.559 56.527 46.091 56.973 45.506 56.973H42.655C42.348 56.973 42.056 56.827 41.91 56.527V64.47C41.91 64.623 41.91 64.77 41.91 64.924C41.91 68.372 39.966 71.52 36.97 73.021V86.661H39.513C40.113 86.661 40.566 87.115 40.566 87.715V93.41C40.566 94.011 40.113 94.465 39.513 94.465H35.471V97.759H35.771C36.071 97.759 36.371 97.906 36.524 98.067C36.67 98.213 36.824 98.506 36.824 98.799C36.671 100.307 36.671 101.508 36.371 102.547C35.771 105.71 34.28 108.843 32.183 111.244L32.03 111.39C30.239 112.899 29.186 114.992 29.186 117.246C29.186 121.448 32.483 124.743 36.671 124.743C40.713 124.743 44.162 121.448 44.162 117.392C43.709 113.058 44.908 110.042 48.051 108.11C48.489 107.801 48.957 107.948 49.249 108.11C49.542 108.256 49.687 108.841 49.542 109.31C49.396 109.896 49.249 110.511 49.249 111.096C49.249 112.444 49.542 113.951 50.302 115.606L50.448 115.752V115.898V116.044V116.19L50.14 116.336C50.14 116.336 50.14 116.497 49.994 116.497L50.447 116.336V116.497L50.593 116.643V116.803V116.95V117.102V117.248L49.687 117.702L50.74 117.394V117.541V117.701C50.74 117.701 50.74 117.701 50.74 117.847V118.008V118.154V118.302V118.448V118.594V118.741V118.902V119.048V119.194V119.356V119.502L49.687 119.648H50.74V119.794C50.74 121.448 50.302 123.104 49.542 124.597C49.542 124.597 49.542 124.743 49.396 124.743C47.596 129.985 42.348 133.002 36.822 133.002ZM30.982 99.999C30.828 100.907 30.828 101.654 30.536 102.4C29.936 104.655 27.839 107.056 26.194 108.842L25.741 109.457C24.096 111.697 23.198 114.553 23.198 117.393C23.198 124.89 29.338 130.893 36.669 130.893C41.463 130.893 45.943 128.346 48.341 124.144C48.341 123.997 48.341 123.997 48.487 123.835C49.247 122.635 49.54 121.448 49.54 120.087V119.648V119.502L50.592 119.194L49.54 119.356L50.592 119.047H49.54L50.592 118.74L49.54 118.886L50.592 118.592L49.54 118.739L50.592 118.446L49.54 118.592V118.446L50.592 118.153L49.394 118.446V118.302V118.156L50.447 117.702L49.394 118.01L50.3 117.542L49.247 117.849V117.703L49.101 117.395L49.539 117.103H49.393L49.101 117.249V117.102L49.247 116.956L49.101 116.809L48.955 116.649C48.955 116.649 48.955 116.649 48.955 116.503C48.955 116.503 48.955 116.342 48.794 116.342C48.049 114.556 47.756 113.062 47.596 111.554C46.996 112.448 46.704 113.356 46.558 114.556V114.702V114.848C46.558 114.994 46.558 115.142 46.558 115.302V115.448V115.609V115.755C46.558 116.194 46.704 116.809 46.704 117.248C46.704 122.49 42.348 126.853 37.122 126.853C31.881 126.853 27.539 122.49 27.539 117.248C27.539 114.407 28.885 111.553 31.128 109.752C32.926 107.644 34.278 104.948 34.87 102.109C35.024 101.346 35.17 100.615 35.17 99.708H34.87C34.278 99.708 33.825 99.269 33.825 98.653V93.264C33.825 92.65 34.278 92.21 34.87 92.21H38.912V88.754H35.923C35.324 88.754 34.87 88.316 34.87 87.715V72.421C34.87 71.967 35.17 71.667 35.47 71.367C38.167 70.319 39.812 67.772 39.812 64.925C39.812 64.771 39.812 64.624 39.812 64.471V53.98C39.812 53.379 40.265 52.925 40.865 52.925H42.816C43.401 52.925 43.854 53.379 43.854 53.98V54.727H44.599V47.676H43.854V48.43C43.854 49.031 43.401 49.478 42.816 49.478H40.865C40.265 49.478 39.812 49.031 39.812 48.43V48.277H39.067V48.43C39.067 49.031 38.613 49.478 38.021 49.478H35.923C35.324 49.478 34.87 49.031 34.87 48.43V42.281C34.87 41.681 35.324 41.234 35.923 41.234H63.924V2.104H2.09V41.38H30.083C30.683 41.38 31.128 41.834 31.128 42.435V48.577C31.128 49.178 30.683 49.632 30.083 49.632H27.985C27.385 49.632 26.94 49.178 26.94 48.577V48.431H26.194V48.577C26.194 49.178 25.741 49.632 25.142 49.632H23.198C22.598 49.632 22.152 49.178 22.152 48.577V47.831H21.4V54.874H22.152V54.127C22.152 53.526 22.598 53.08 23.198 53.08H25.142C25.741 53.08 26.194 53.526 26.194 54.127V64.624C26.194 64.77 26.194 64.925 26.194 65.07C26.194 67.918 27.839 70.466 30.536 71.52C30.982 71.666 31.128 72.121 31.128 72.567V87.861C31.128 88.462 30.683 88.901 30.083 88.901H27.539V92.355H31.428C32.028 92.355 32.481 92.809 32.481 93.41V98.799C32.481 99.413 32.028 99.853 31.428 99.853H30.982V99.999ZM35.923 69.72C35.77 69.72 35.623 69.72 35.47 69.574C35.17 69.421 34.87 68.973 34.87 68.674V66.572H31.128V68.674C31.128 69.12 30.982 69.421 30.536 69.574C30.236 69.72 29.783 69.72 29.483 69.421C27.839 68.219 26.94 66.418 26.94 64.471C26.94 64.325 26.94 64.325 26.94 64.17V54.126C26.94 53.525 27.385 53.079 27.985 53.079H30.083C30.683 53.079 31.128 53.525 31.128 54.126V56.827H34.87V54.126C34.87 53.525 35.324 53.079 35.923 53.079H38.021C38.613 53.079 39.067 53.525 39.067 54.126V64.324C39.067 64.324 39.067 64.47 39.067 64.624C39.067 66.571 38.168 68.373 36.523 69.573C36.369 69.573 36.223 69.72 35.923 69.72ZM29.038 58.028V64.47C29.038 64.623 29.038 64.924 29.038 65.07C29.184 64.624 29.637 64.47 30.083 64.47H36.069C36.522 64.47 36.968 64.77 37.122 65.07C37.122 64.924 37.122 64.624 37.122 64.47V64.17V57.874C36.969 58.328 36.522 58.621 36.069 58.621H30.083C29.483 58.921 29.184 58.475 29.038 58.028Z" fill="#21ACEC"/>
<path d="M55.2402 26.2399H10.7721C10.4721 26.2399 10.3271 26.0859 10.3271 25.7859V5.25088C10.3271 4.95088 10.4731 4.79688 10.7721 4.79688H55.3862C55.6791 4.79688 55.8242 4.95088 55.8242 5.25088V25.7859C55.8251 26.0859 55.5331 26.2399 55.2402 26.2399ZM11.2261 25.3399H54.7731V5.69688H11.2261V25.3399Z" fill="#21ACEC"/>
<path d="M52.6971 18.7445H13.3161C13.0161 18.7445 12.8701 18.5905 12.8701 18.2905V8.09948C12.8701 7.79948 13.0161 7.64648 13.3161 7.64648H52.5361C52.8441 7.64648 52.9891 7.79948 52.9891 8.09948V18.2905C53.1361 18.4435 52.8441 18.7445 52.6971 18.7445ZM13.7701 17.6905H52.0831V8.40048H13.7701V17.6905Z" fill="#21ACEC"/>
<path d="M48.7941 23.692C47.7561 23.692 46.8501 22.792 46.8501 21.738C46.8501 20.69 47.7561 19.79 48.7941 19.79C49.8321 19.79 50.7381 20.69 50.7381 21.738C50.7381 22.792 49.8321 23.692 48.7941 23.692ZM48.7941 20.845C48.3411 20.845 47.9021 21.291 47.9021 21.739C47.9021 22.192 48.3401 22.639 48.7941 22.639C49.2481 22.639 49.6861 22.192 49.6861 21.739C49.6861 21.291 49.2471 20.845 48.7941 20.845ZM36.5221 23.692C35.4691 23.692 34.5711 22.792 34.5711 21.738C34.5711 20.69 35.4691 19.79 36.5221 19.79C37.5671 19.79 38.4661 20.69 38.4661 21.738C38.4671 22.792 37.5671 23.692 36.5221 23.692ZM36.5221 20.845C36.0691 20.845 35.6231 21.291 35.6231 21.739C35.6231 22.192 36.0691 22.639 36.5221 22.639C36.9681 22.639 37.4211 22.192 37.4211 21.739C37.4221 21.291 36.9691 20.845 36.5221 20.845ZM30.0831 23.692C29.0381 23.692 28.1391 22.792 28.1391 21.738C28.1391 20.69 29.0381 19.79 30.0831 19.79C31.1281 19.79 32.0271 20.69 32.0271 21.738C32.0271 22.792 31.1281 23.692 30.0831 23.692ZM30.0831 20.845C29.6371 20.845 29.1841 21.291 29.1841 21.739C29.1841 22.192 29.6371 22.639 30.0831 22.639C30.5361 22.639 30.9821 22.192 30.9821 21.739C30.9821 21.291 30.5361 20.845 30.0831 20.845ZM23.6441 23.692C22.5991 23.692 21.7001 22.792 21.7001 21.738C21.7001 20.69 22.5991 19.79 23.6441 19.79C24.6971 19.79 25.5961 20.69 25.5961 21.738C25.5961 22.792 24.6961 23.692 23.6441 23.692ZM23.6441 20.845C23.1991 20.845 22.7521 21.291 22.7521 21.739C22.7521 22.192 23.1981 22.639 23.6441 22.639C24.0971 22.639 24.5431 22.192 24.5431 21.739C24.5431 21.291 24.0971 20.845 23.6441 20.845ZM17.2121 23.692C16.1591 23.692 15.2681 22.792 15.2681 21.738C15.2681 20.69 16.1601 19.79 17.2121 19.79C18.2571 19.79 19.1561 20.69 19.1561 21.738C19.1561 22.792 18.2571 23.692 17.2121 23.692ZM17.2121 20.845C16.7591 20.845 16.3131 21.291 16.3131 21.739C16.3131 22.192 16.7591 22.639 17.2121 22.639C17.6581 22.639 18.1111 22.192 18.1111 21.739C18.1111 21.291 17.6581 20.845 17.2121 20.845Z" fill="#21ACEC"/>
<path d="M47.596 37.0312H18.41C18.111 37.0312 17.957 36.7312 17.957 36.5852V28.1882C17.957 27.8882 18.257 27.7422 18.41 27.7422H47.449C47.756 27.7422 47.902 28.0422 47.902 28.1882V36.5852C48.049 36.7312 47.902 37.0312 47.596 37.0312ZM19.01 35.9842H46.996V28.6342H19.01V35.9842Z" fill="#21ACEC"/>
<path d="M44.7448 34.9379H40.5638C40.2638 34.9379 40.1108 34.6379 40.1108 34.4849V30.2899C40.1108 29.9899 40.4108 29.8359 40.5638 29.8359H44.7448C45.0518 29.8359 45.2128 30.1359 45.2128 30.2899V34.4849C45.2128 34.6379 45.0518 34.9379 44.7448 34.9379ZM41.1638 33.8839H44.3068V30.7359H41.1638V33.8839ZM38.3128 34.9379H34.1248C33.8248 34.9379 33.6798 34.6379 33.6798 34.4849V30.2899C33.6798 29.9899 33.9788 29.8359 34.1248 29.8359H38.3128C38.6118 29.8359 38.7658 30.1359 38.7658 30.2899V34.4849C38.7668 34.6379 38.6118 34.9379 38.3128 34.9379ZM34.7248 33.8839H37.8678V30.7359H34.7248V33.8839ZM31.8808 34.9379H27.6858C27.3858 34.9379 27.2408 34.6379 27.2408 34.4849V30.2899C27.2408 29.9899 27.5398 29.8359 27.6858 29.8359H31.8808C32.1808 29.8359 32.3268 30.1359 32.3268 30.2899V34.4849C32.3268 34.6379 32.1808 34.9379 31.8808 34.9379ZM28.2848 33.8839H31.4278V30.7359H28.2848V33.8839ZM25.2958 34.9379H21.1008C20.8008 34.9379 20.6548 34.6379 20.6548 34.4849V30.2899C20.6548 29.9899 20.9548 29.8359 21.1008 29.8359H25.2958C25.5958 29.8359 25.7408 30.1359 25.7408 30.2899V34.4849C25.8948 34.6379 25.5958 34.9379 25.2958 34.9379ZM21.6988 33.8839H24.8428V30.7359H21.6988V33.8839Z" fill="#21ACEC"/>
<path d="M42.2008 39.5875H23.7967C23.4977 39.5875 23.3438 39.2865 23.3438 39.1335C23.3438 38.9875 23.6437 38.6875 23.7967 38.6875H42.3478C42.6548 38.6875 42.8158 38.9875 42.8158 39.1335C42.8148 39.2865 42.5088 39.5875 42.2008 39.5875Z" fill="#21ACEC"/>
<path d="M35.47 74.0682C35.17 74.0682 35.025 73.7602 35.025 73.6142V68.5182C35.025 68.2182 35.325 68.0732 35.47 68.0732C35.623 68.0732 35.923 68.3732 35.923 68.5182V73.6142C35.923 73.7612 35.77 74.0682 35.47 74.0682ZM30.536 73.4692C30.236 73.4692 30.083 73.1682 30.083 73.0222V68.6732C30.083 68.3732 30.383 68.2192 30.536 68.2192C30.682 68.2192 30.982 68.5192 30.982 68.6732V73.0222C31.128 73.1682 30.828 73.4692 30.536 73.4692Z" fill="#21ACEC"/>
<path d="M27.3859 56.2283C27.0859 56.2283 26.9409 55.9273 26.9409 55.7743V47.9773C26.9409 47.6763 27.2409 47.5303 27.3859 47.5303C27.5389 47.5303 27.8389 47.8313 27.8389 47.9773V55.7743C27.9849 56.0733 27.6859 56.2283 27.3859 56.2283Z" fill="#21ACEC"/>
<path d="M43.5459 56.2284C43.2539 56.2284 43.1079 55.9274 43.1079 55.7744V47.9774C43.1079 47.6764 43.4009 47.5304 43.5459 47.5304C43.7069 47.5304 44.0139 47.8314 44.0139 47.9774V55.7744C44.0139 56.0734 43.8529 56.2284 43.5459 56.2284ZM40.4109 56.2284C40.1109 56.2284 39.9649 55.9274 39.9649 55.7744V47.9774C39.9649 47.6764 40.2649 47.5304 40.4109 47.5304C40.5639 47.5304 40.8639 47.8314 40.8639 47.9774V55.7744C40.8639 56.0734 40.7109 56.2284 40.4109 56.2284ZM38.6119 56.2284C38.3129 56.2284 38.1669 55.9274 38.1669 55.7744V47.9774C38.1669 47.6764 38.4669 47.5304 38.6119 47.5304C38.7659 47.5304 39.0659 47.8314 39.0659 47.9774V55.7744C39.0659 56.0734 38.9119 56.2284 38.6119 56.2284ZM35.4699 56.2284C35.1699 56.2284 35.0249 55.9274 35.0249 55.7744V47.9774C35.0249 47.6764 35.3249 47.5304 35.4699 47.5304C35.6229 47.5304 35.9229 47.8314 35.9229 47.9774V55.7744C35.9229 56.0734 35.7699 56.2284 35.4699 56.2284ZM30.5359 56.2284C30.2359 56.2284 30.0829 55.9274 30.0829 55.7744V47.9774C30.0829 47.6764 30.3829 47.5304 30.5359 47.5304C30.6819 47.5304 30.9819 47.8314 30.9819 47.9774V55.7744C31.1279 56.0734 30.8279 56.2284 30.5359 56.2284ZM25.5959 56.2284C25.2959 56.2284 25.1429 55.9274 25.1429 55.7744V47.9774C25.1429 47.6764 25.4419 47.5304 25.5959 47.5304C25.7419 47.5304 26.0409 47.8314 26.0409 47.9774V55.7744C26.1939 56.0734 25.8949 56.2284 25.5959 56.2284ZM22.5989 56.2284C22.2989 56.2284 22.1529 55.9274 22.1529 55.7744V47.9774C22.1529 47.6764 22.4529 47.5304 22.5989 47.5304C22.7519 47.5304 23.0519 47.8314 23.0519 47.9774V55.7744C23.1979 56.0734 22.8979 56.2284 22.5989 56.2284ZM1.78987 11.9944C1.64387 11.9944 1.48987 11.9944 1.48987 11.8484C1.34387 11.6944 1.34387 11.3944 1.48987 11.0934L10.3269 1.50342C10.4729 1.35042 10.7719 1.35042 11.0719 1.50342C11.2249 1.64942 11.2249 1.94942 11.0719 2.25042L2.24287 11.8484C2.08987 11.9944 1.94287 11.9944 1.78987 11.9944Z" fill="#21ACEC"/>
<path d="M10.7719 42.4347C10.6259 42.4347 10.4719 42.4347 10.3269 42.2807L1.48987 32.6827C1.34387 32.5367 1.34387 32.0897 1.48987 31.9357C1.64287 31.7897 2.08987 31.7897 2.24287 31.9357L11.0719 41.5347C11.2249 41.6807 11.2249 42.1347 11.0719 42.2807C10.9259 42.4347 10.7719 42.4347 10.7719 42.4347Z" fill="#21ACEC"/>
<path d="M64.3622 11.9944C64.2162 11.9944 64.0702 11.9944 63.9242 11.8484L55.0802 2.25042C54.9342 2.10442 54.9342 1.64942 55.0802 1.50342C55.2402 1.35042 55.6802 1.35042 55.8252 1.50342L64.6542 11.0934C64.8002 11.2474 64.8002 11.6944 64.6542 11.8484C64.6542 11.9944 64.5092 11.9944 64.3622 11.9944Z" fill="#21ACEC"/>
<path d="M55.5331 42.4347C55.3871 42.4347 55.2401 42.4347 55.2401 42.2807C55.0801 42.1347 55.0801 41.8347 55.2401 41.5347L64.0701 31.9357C64.2161 31.7897 64.5081 31.7897 64.8001 31.9357C64.9611 32.0897 64.9611 32.3827 64.8001 32.6827L55.9711 42.2807C55.6801 42.4347 55.5331 42.4347 55.5331 42.4347Z" fill="#21ACEC"/>
<path d="M61.6731 40.1799C61.0591 40.1799 60.4741 39.5869 60.4741 38.9869C60.4741 38.3869 61.0591 37.7869 61.6731 37.7869C62.2571 37.7869 62.8711 38.3869 62.8711 38.9869C62.8711 39.7319 62.4181 40.1799 61.6731 40.1799ZM61.6731 38.5319C61.3651 38.5319 61.2201 38.6859 61.2201 38.9859C61.2201 39.2859 61.3661 39.4319 61.6731 39.4319C61.9651 39.4319 62.1111 39.2859 62.1111 38.9859C62.1111 38.6859 61.9651 38.5319 61.6731 38.5319ZM4.34107 40.1799C3.74107 40.1799 3.14307 39.5869 3.14307 38.9869C3.14307 38.3869 3.74207 37.7869 4.34107 37.7869C4.93307 37.7869 5.53207 38.3869 5.53207 38.9869C5.53207 39.7319 4.93307 40.1799 4.34107 40.1799ZM4.34107 38.5319C4.04107 38.5319 3.88807 38.6859 3.88807 38.9859C3.88807 39.2859 4.04107 39.4319 4.34107 39.4319C4.63307 39.4319 4.78707 39.2859 4.78707 38.9859C4.78707 38.6859 4.48707 38.5319 4.34107 38.5319ZM61.6731 5.69688C61.0591 5.69688 60.4741 5.09688 60.4741 4.49688C60.4741 3.89688 61.0591 3.29688 61.6731 3.29688C62.2571 3.29688 62.8711 3.89688 62.8711 4.49688C62.8711 5.25088 62.4181 5.69688 61.6731 5.69688ZM61.6731 4.05088C61.3651 4.05088 61.2201 4.19688 61.2201 4.49688C61.2201 4.79688 61.3661 4.95088 61.6731 4.95088C61.9651 4.95088 62.1111 4.79688 62.1111 4.49688C62.1111 4.19688 61.9651 4.05088 61.6731 4.05088ZM4.34107 5.69688C3.74107 5.69688 3.14307 5.09688 3.14307 4.49688C3.14307 3.89688 3.74207 3.29688 4.34107 3.29688C4.93307 3.29688 5.53207 3.89688 5.53207 4.49688C5.53207 5.25088 4.93307 5.69688 4.34107 5.69688ZM4.34107 4.05088C4.04107 4.05088 3.88807 4.19688 3.88807 4.49688C3.88807 4.79688 4.04107 4.95088 4.34107 4.95088C4.63307 4.95088 4.78707 4.79688 4.78707 4.49688C4.78707 4.19688 4.48707 4.05088 4.34107 4.05088Z" fill="#21ACEC"/>
<path d="M37.2679 93.8498H29.0379C28.4379 93.8498 27.9849 93.4108 27.9849 92.8098C27.9849 92.2098 28.4379 91.7708 29.0379 91.7708H37.2669C37.8669 91.7708 38.3129 92.2098 38.3129 92.8098C38.3129 93.4098 37.7209 93.8498 37.2679 93.8498ZM37.2679 89.3688H29.0379C28.4379 89.3688 27.9849 88.9008 27.9849 88.3148C27.9849 87.7138 28.4379 87.2598 29.0379 87.2598H37.2669C37.8669 87.2598 38.3129 87.7138 38.3129 88.3148C38.3129 88.9008 37.7209 89.3688 37.2679 89.3688Z" fill="#21ACEC"/>
<path d="M35.77 99.9988H30.683C30.383 99.9988 30.083 99.7068 30.083 99.4128C30.083 99.1058 30.383 98.7988 30.683 98.7988H35.77C36.07 98.7988 36.37 99.1068 36.37 99.4128C36.369 99.7068 36.069 99.9988 35.77 99.9988Z" fill="#21ACEC"/>
</svg>
