<svg width="97" height="133" viewBox="0 0 97 133" fill="none" xmlns="http://www.w3.org/2000/svg">
<path d="M33.4293 39.9009C33.4107 39.759 33.3326 39.5986 33.2155 39.562L33.4293 39.9009ZM65.93 44.8655C66.2273 44.9583 66.5451 44.9894 66.8244 44.9383C67.1025 44.8911 67.3632 44.6981 67.4653 44.3898C67.568 44.0795 67.4712 43.7771 67.2946 43.5179L65.93 44.8655ZM67.2958 43.5204C67.0988 43.3228 66.8813 43.1869 66.5245 43.0756C66.2272 42.9828 65.9101 42.9498 65.6307 43.0009C65.2932 43.0295 65.0919 43.241 64.9688 43.613C64.8674 43.9195 64.9635 44.2237 65.1401 44.483C65.3372 44.6805 65.5546 44.8164 65.9114 44.9278L67.2958 43.5204ZM62.8102 35.4483L62.9291 35.4854C63.048 35.5225 63.1075 35.5411 63.167 35.5596C64.7114 36.2456 66.1141 37.3658 66.9997 38.6607C67.8636 39.8169 68.3119 41.0455 68.2021 42.1701C68.1613 42.2934 68.1595 42.497 68.1186 42.6204C68.0363 42.869 67.9944 43.194 67.9325 43.3809C67.9121 43.4426 67.8917 43.5043 67.8917 43.5043L67.5579 45.3054C66.5514 46.7605 64.9681 47.9697 62.9505 48.9053C59.6144 50.4543 55.0325 51.2022 50.141 50.903L50.0834 50.885C45.1933 50.5819 40.8484 49.2263 37.8218 47.2635C35.607 45.8219 34.1495 44.0743 33.6098 42.1368L33.582 40.629L33.6024 40.5673C33.6228 40.5057 33.5831 40.4274 33.6048 40.3618C33.645 40.2404 33.6085 40.1588 33.6487 40.0374C33.7968 38.7908 34.4455 37.6302 35.4281 36.6439C36.6323 35.3844 38.3116 34.2753 40.1701 33.4241C40.2296 33.4427 40.3076 33.399 40.328 33.3373L42.0463 35.0961C40.8869 35.4148 39.8478 35.9773 39.0658 36.754C38.0832 37.7402 37.3956 39.0248 37.3248 40.2296C37.1646 42.4974 38.7393 44.4857 41.293 45.8948C43.7891 47.286 47.1824 48.1406 50.8009 48.3148C54.5 48.4504 58.0067 47.7732 60.5834 46.5358C63.1609 45.2965 64.8078 43.4926 64.9456 41.2923C65.035 40.2293 64.5868 39.2049 63.8773 38.369C63.208 37.6159 62.3567 37.01 61.3271 36.5527L62.1056 36.1832C62.1848 36.142 62.1848 36.142 62.2059 36.0784L62.7482 35.4311L62.8095 35.4502L62.8102 35.4483ZM67.4061 46.755L65.4192 57.9173C65.0774 58.355 64.7357 58.7928 64.3549 59.1503C63.9537 59.5695 63.4727 60.0318 63.0318 60.3726C62.7717 60.5637 62.7087 60.9523 62.8054 61.2546C61.9249 61.9325 60.944 62.5111 59.8863 62.9317C56.1923 64.5711 51.8301 65.0515 47.7983 64.54C43.6835 64.0748 39.818 62.6646 37.09 60.5866C36.5572 60.2141 36.1036 59.8004 35.7096 59.4053C35.7113 59.2017 35.6536 58.9796 35.5161 58.8006C35.4789 58.7209 35.4398 58.6407 35.319 58.603C34.9825 58.2258 34.7074 57.8678 34.4936 57.5289C34.2191 57.169 34.0213 56.7692 33.8464 56.3064L33.7147 44.0067C34.5588 45.4268 35.821 46.7732 37.5601 47.8623C40.7049 49.8641 45.1706 51.2574 50.181 51.5937C55.1907 51.932 59.8538 51.1372 63.3465 49.5051C64.9851 48.7235 66.405 47.8035 67.4303 46.6945L67.4098 46.7561L67.4061 46.755ZM63.4554 61.8678L69.2889 63.6879C69.1682 63.8543 69.0481 64.0189 68.9658 64.2675C68.5016 65.0753 67.9718 66.273 67.5431 67.5682C67.1138 68.8653 66.8244 70.1359 66.7182 71.0575C66.696 71.3227 66.6942 71.5263 66.633 71.7113L62.5854 70.4485L60.7995 69.8913C60.8217 69.626 60.8439 69.3608 60.8661 69.0955C60.9537 68.2362 61.2821 67.0458 61.7115 65.7487C62.1402 64.4536 62.6272 63.3786 63.032 62.5522C63.1942 62.2605 63.3353 62.0324 63.4554 61.8678ZM69.9412 63.8914C69.9802 63.9716 69.7004 64.2224 69.6163 64.6746C69.5293 65.532 69.2207 66.6627 68.792 67.9578C68.383 69.1932 67.8755 70.3299 67.4906 71.0965C67.2882 71.5096 67.3645 71.8737 67.2846 71.9168C67.2864 71.7132 67.3086 71.448 67.3512 71.121C67.4389 70.2617 67.7673 69.0713 68.1966 67.7742C68.6253 66.479 69.1124 65.4041 69.5171 64.5777C69.68 64.2841 69.823 64.0565 69.9412 63.8914ZM61.6028 71.2306L55.3796 111.853C55.179 112.062 54.9375 112.395 54.6757 112.79C54.3111 113.495 53.8656 114.444 53.5185 115.493C53.1504 116.605 52.8832 117.61 52.8371 118.344C52.729 119.265 52.8426 119.913 53.2013 120.025L53.7365 120.192C53.079 122.575 51.3138 124.34 49.1959 125.38C47.7171 126.075 45.944 126.477 44.253 126.426C42.5621 126.374 40.8555 125.98 39.4102 125.187C37.2523 123.969 35.6002 121.819 35.1518 118.615L35.6387 60.406C35.9956 60.7214 36.3097 60.9555 36.6666 61.271C39.4516 63.369 43.4385 64.8149 47.6716 65.3191C51.9035 65.8208 56.384 65.3794 60.1777 63.6371C60.9363 63.3273 61.5976 62.9213 62.337 62.4715C61.9323 63.2978 61.4656 64.3111 61.0771 65.4849C60.6484 66.78 60.359 68.0506 60.2503 68.9736C60.1021 70.0161 60.256 70.7466 60.6525 70.9363L61.6021 71.2326L61.6028 71.2306ZM55.5917 112.599C55.6902 112.698 55.7497 112.717 55.8686 112.754L55.9281 112.772L60.0333 114.053C59.9924 114.176 59.8921 114.281 59.8513 114.405C59.4868 115.11 59.0412 116.059 58.6941 117.108C58.326 118.22 58.0588 119.225 58.0127 119.959C57.9718 120.083 57.9905 120.224 57.9497 120.348L54.796 119.364L53.4858 118.955C53.4263 118.937 53.6136 117.974 53.6544 117.851C53.7991 117.216 53.9642 116.519 54.2303 115.715C54.5773 114.666 54.9437 113.758 55.2872 113.117C55.4301 112.889 55.4914 112.704 55.5917 112.599ZM60.1842 115.189C60.0396 115.824 59.8534 116.585 59.588 117.387C59.3226 118.188 59.0175 118.912 58.7539 119.51C58.8986 118.875 59.0847 118.114 59.3501 117.312C59.6155 116.511 59.9218 115.79 60.1842 115.189ZM40.8134 32.6701C40.8158 32.4646 40.7785 32.1808 40.6205 32.0634L38 29.2704L38.4752 13.7558L39.0566 13.1887L44.6755 9.69817L57.2195 13.0675L63.5431 20.1459L61.6576 35.5607L60.279 36.1513L55.0059 38.5909L43.6322 35.6568L40.8134 32.6701ZM41.7797 10.7041L46.494 6.38487L48.3705 5.67749L44.5632 9.05282L44.4808 9.09729L41.8224 10.7855L41.7797 10.7041ZM50.1862 4.94906L50.4853 4.83825L61.918 7.99697L57.2631 12.3348L45.3752 9.17009L50.1862 4.94906ZM62.6707 8.29984L67.9418 14.9839L67.8158 15.7611L63.8637 19.5676L57.8152 12.8472L62.5685 8.40406L62.6707 8.29984ZM67.6669 16.8055L65.6598 30.2091L62.5871 33.7435L64.2573 20.1688L67.7282 16.8247L67.6669 16.8055ZM56.1009 29.132C56.9263 28.2306 57.4331 27.0959 57.6221 25.9301C57.6426 25.8685 57.663 25.8068 57.684 25.7432C58.0825 23.1457 57.0953 20.1819 54.8263 18.1109C53.0703 16.4723 50.829 15.7049 48.7584 15.8095L48.7008 15.7916C46.8892 15.9068 45.2134 16.6087 43.9461 18.0526C41.313 21.0458 41.9064 25.9983 45.2226 29.0743C48.6162 32.1085 53.4481 32.185 56.1009 29.132ZM55.6102 28.6387C52.9573 31.6916 48.3692 30.8725 45.7445 28.4886C43.1186 26.1022 41.7852 21.6014 44.4591 18.4849C45.524 17.25 46.9006 16.6588 48.3351 16.494C48.185 17.74 48.3522 19.0191 48.7986 20.247C49.286 21.5559 50.1115 22.8341 51.215 23.8609C52.062 24.6717 53.0527 25.2529 54.1033 25.6467C55.0356 26.0077 55.9685 26.1627 56.8827 26.1757C56.6576 27.0602 56.251 27.886 55.6102 28.6387ZM49.0505 16.513C51.0183 16.5146 52.9622 17.3933 54.3817 18.6548C56.1972 20.3121 57.3689 22.9231 57.0663 25.4165C56.2116 25.422 55.2787 25.267 54.4053 24.9265C53.4723 24.5673 52.543 24.0052 51.7363 23.2772C50.67 22.33 49.943 21.1506 49.4767 19.9823C49.0687 18.8365 48.9406 17.6376 49.0505 16.513ZM59.4812 40.9461C59.4962 41.291 59.3942 41.5994 59.3119 41.8481C59.1281 42.4031 58.7072 42.882 58.166 43.3277C57.7251 43.6686 57.1665 43.9685 56.5658 44.1915C55.9472 44.4748 55.2281 44.6587 54.4124 44.7444C53.0189 44.9901 51.3689 45.0196 49.7986 44.8019C48.2872 44.6046 46.8396 44.221 45.6507 43.6438C45.0783 43.3972 44.5412 43.0255 44.1285 42.6926C43.7128 42.3566 43.38 41.9806 43.1829 41.5789C42.8873 41.0784 42.7923 40.5725 42.7797 40.0221C42.8019 39.7568 42.8241 39.4916 42.9064 39.2429C43.2368 40.0286 43.8485 40.7638 44.6997 41.3696L44.7573 41.3876C46.1997 42.3819 48.3443 43.051 50.7897 43.2016C53.2147 43.4138 55.4833 43.101 57.182 42.336C58.0998 41.9419 58.8602 41.4286 59.4044 40.7818L59.4812 40.9461ZM42.7133 38.2343C42.3308 38.7954 42.1056 39.4758 42.1002 40.0865C42.0764 40.7595 42.2476 41.4253 42.5804 42.0055C42.8147 42.4868 43.2107 42.8825 43.6642 43.2962C44.1172 43.7118 44.6717 44.0188 45.2862 44.3487C46.5333 44.942 48.1017 45.3633 49.6125 45.5625C51.2626 45.7371 52.9721 45.7261 54.4269 45.4996C55.2631 45.3522 56.0403 45.1843 56.7197 44.9221C57.3984 44.6554 58.0369 44.3124 58.4994 43.9123C59.1205 43.4235 59.6628 42.7762 59.888 42.0958C60.1132 41.4155 60.2182 40.7019 60.0061 39.9553C60.0884 39.7066 60.1898 39.4002 60.212 39.1349C60.275 38.7463 60.2197 38.3187 60.1434 37.9547C60.1061 37.6709 59.9896 37.4282 59.8334 37.1073L60.3932 36.8036C61.6031 37.3171 62.6303 37.98 63.3002 38.7312C63.9093 39.4677 64.2998 40.27 64.2147 41.128C64.0383 43.0484 62.5332 44.6222 60.2549 45.7507C57.7573 46.9469 54.3906 47.5976 50.8303 47.4394C47.3307 47.3023 44.0563 46.4848 41.6216 45.1128C39.2841 43.837 37.8266 42.0894 37.9436 40.1505L37.9633 40.0907C38.0527 39.0278 38.5986 37.9733 39.4815 37.0899C40.2654 36.3138 41.3249 35.6897 42.5587 35.5302L43.1523 36.1216C43.0309 36.29 42.9493 36.5367 42.8286 36.7031C42.7271 37.0096 42.6251 37.318 42.5825 37.6449C42.5807 37.8485 42.5398 37.9718 42.5578 38.1156L42.7133 38.2343ZM66.9889 44.2433C66.7703 44.309 66.473 44.2163 66.1756 44.1235C65.8783 44.0307 65.6013 43.8763 65.4409 43.7603C65.343 43.6596 65.203 43.6861 65.224 43.6225C65.2438 43.5627 65.2835 43.641 65.4817 43.6369C65.7009 43.5693 65.9983 43.662 66.2975 43.7554C66.5967 43.8487 66.8717 44.0026 67.0297 44.1199C67.1289 44.2168 67.2676 44.1941 67.2478 44.2539C67.2268 44.3175 67.1883 44.2353 67.0484 44.2618L66.9889 44.2433ZM45.2762 41.0093L45.4728 36.8477L51.2275 38.3051L50.8328 42.675C48.6066 42.4567 46.6219 41.9055 45.3375 41.0285L45.2762 41.0093ZM44.7369 36.6861L44.5854 40.5195C43.7155 39.7718 43.2469 38.8091 43.3747 37.8283C43.3994 37.5617 43.481 37.315 43.5627 37.0683C43.6444 36.8216 43.7638 36.6526 43.905 36.4245L44.7579 36.6225L44.7369 36.6861ZM51.4689 42.7352L51.8841 38.5078L54.9597 39.3313C55.021 39.3504 55.099 39.3067 55.1604 39.3259L59.1751 37.5165C59.2929 37.7552 59.4101 37.9959 59.4678 38.2181C59.5639 38.5223 59.5213 38.8493 59.5586 39.1331C59.429 40.3174 58.4458 41.3056 57.0468 41.9579C55.5896 42.5941 53.6573 42.8757 51.5668 42.8359L51.4689 42.7352ZM38.8058 32.3861C37.0688 33.273 35.5288 34.3576 34.3425 35.5567C33.1364 36.8156 32.3287 38.2647 32.1751 39.9179C32.1343 40.0412 32.1523 40.1851 32.1715 40.325L32.1505 40.3886C32.1307 40.4484 32.1698 40.5286 32.1289 40.652L32.1085 40.7136L32.3248 56.7162C32.3434 56.8581 32.3825 56.9383 32.4234 57.0191C32.6373 57.5622 32.9311 58.0621 33.2249 58.562C33.4796 58.9817 33.8161 59.3589 34.0894 59.7163L33.594 118.743C33.594 118.743 33.5736 118.805 33.6331 118.823C34.0978 122.579 36.0258 125.086 38.5794 126.495C40.2429 127.422 42.1885 127.893 44.0783 127.938C45.9681 127.984 47.9401 127.576 49.6585 126.751C52.0762 125.598 54.0216 123.685 54.9 121.031L57.9348 121.978C58.4719 122.146 59.1127 121.597 59.6363 120.604C60.0002 119.901 60.4669 118.888 60.8343 117.778C61.2018 116.667 61.4696 115.66 61.5566 114.803C61.7253 113.699 61.5138 112.95 60.9983 112.723L56.8318 111.423L62.8647 71.9709L66.7357 73.1787C67.3304 73.3642 68.0536 72.7712 68.6403 71.5934C69.125 70.7239 69.6331 69.5854 70.0822 68.2285C70.5313 66.8717 70.8003 65.6628 70.9294 64.6781C71.0794 63.4321 70.9062 62.5616 70.332 62.3143L64.7958 60.5871C64.976 60.4391 65.1772 60.2276 65.2973 60.0631C65.7189 59.5822 66.161 59.0397 66.5851 58.5575C66.6847 58.4546 66.7256 58.3313 66.6865 58.2511L69.2797 43.6716C69.3416 43.4846 69.3638 43.2194 69.4455 42.9727C69.5271 42.726 69.5295 42.5204 69.5307 42.3188C69.6434 40.789 69.0618 39.1764 68.0194 37.7604C66.9765 36.3463 65.534 35.1478 63.8323 34.3425L66.7043 31.0177C66.8046 30.9129 66.8454 30.7896 66.9067 30.6046L69.2529 14.7891C69.2553 14.5836 69.2565 14.382 69.1195 14.201L63.4134 7.04098C63.3161 6.94471 63.1581 6.82737 63.0373 6.78968L50.5751 3.37778C50.4562 3.34068 50.2555 3.34612 50.1162 3.37068L45.7662 5.00956C45.6863 5.05268 45.5458 5.07474 45.4467 5.18204L37.1041 12.9304C36.9239 13.0783 36.8633 13.2614 36.8609 13.4669L36.3227 29.5743C36.321 29.7779 36.3805 30.0006 36.5366 30.1173L38.6849 32.3547L38.8039 32.3918L38.8058 32.3861Z" fill="#025BFF"/>
</svg>
