<svg width="75" height="113" viewBox="0 0 75 113" fill="none" xmlns="http://www.w3.org/2000/svg">
<path d="M29.4378 113C22.694 113 16.5963 110.651 13.7472 107.007C11.5433 106.092 0 101.42 0 91.9216V90.3724C0 88.5437 0.386441 86.8556 1.16536 85.039C0.386441 83.3379 0 81.661 0 79.96V34.063C0 28.8624 3.76091 23.9232 10.245 20.5384C10.3718 19.1108 11.024 17.6815 12.0565 16.5135V11.1801C12.0565 10.3994 12.0565 9.75164 12.3161 8.83729C13.748 3.77127 20.8774 0 29.4378 0C39.1636 0 46.813 4.67958 46.813 10.66V10.9205L49.6622 9.6188C49.9287 9.492 50.3212 9.492 50.5748 9.75164L54.981 13.2624C55.2346 13.3892 55.3734 13.6497 55.3734 14.037V18.2016C55.3734 18.5889 55.1078 18.8494 54.8542 18.9823L50.0547 21.319C55.7659 24.703 58.8816 29.1221 58.8816 34.0613V79.9583C58.8816 81.6593 58.4753 83.3362 57.7033 85.0372C58.4762 86.5865 58.8816 88.2892 58.8816 89.9773V91.7931C58.8816 97.9132 53.6888 103.628 45.1284 106.878C42.4061 110.651 36.1816 113 29.4378 113ZM1.81835 90.626V91.9208C1.81835 100.379 13.0951 104.797 14.3933 105.191C14.7857 105.318 14.9125 105.457 15.1722 105.712C17.7686 108.963 23.3401 111.045 29.4387 111.045C35.5303 111.045 41.2346 108.963 43.7051 105.712C43.9648 105.319 44.0907 105.319 44.4711 105.191C52.3984 102.207 57.1858 97.2542 57.1858 91.7948V90.1059C57.1858 88.5428 56.8062 86.9945 56.0204 85.4194C55.8945 85.1666 55.8945 84.7854 56.0204 84.5188C56.8054 82.9567 57.1858 81.3954 57.1858 79.8332V34.0622C57.1858 29.7759 54.1969 25.7442 48.7522 22.6207L48.245 22.3602C47.9793 22.2334 47.3332 21.8392 47.3332 21.1922C47.3332 20.9317 47.4591 20.5375 47.9793 20.2779L53.6905 17.5478V14.2967L50.0555 11.4397L46.4214 13.1287C46.1678 13.2615 45.7753 13.2615 45.5088 13.1287C45.2561 13.0019 45.1293 12.6077 45.1293 12.3481V10.6591C45.1293 5.84667 38.1267 1.94774 29.5655 1.94774C21.9168 1.94774 15.2999 5.19886 14.1345 9.35744C14.0077 10.0113 14.0077 10.5254 14.0077 11.1792V16.9C14.0077 17.1605 13.8748 17.2864 13.748 17.5478C12.7095 18.7218 12.1902 20.0234 12.0574 21.319C12.0574 21.7124 11.7977 21.9729 11.5441 22.0997C5.31359 25.0895 1.81835 29.5154 1.81835 34.1941V80.0851C1.81835 81.6593 2.20479 83.2085 2.98372 84.7836C3.10966 85.0372 3.10966 85.4176 2.98372 85.6851C2.20479 87.1221 1.81835 88.7973 1.81835 90.626C1.81835 90.5001 1.81835 90.626 1.81835 90.626Z" fill="#56A277"/>
<path d="M29.4374 43.0334C19.1924 43.0334 11.1504 38.0934 11.1504 31.7265V21.4539C11.1504 21.1934 11.41 21.0605 11.5429 21.0605C11.6697 21.0605 11.9293 21.3211 11.9293 21.4539C11.9293 23.1429 12.5754 24.705 14.0064 26.2663C17.2481 29.7771 22.9533 31.8542 29.3046 31.8542C35.9215 31.8542 42.0132 29.7779 45.128 26.394C46.547 24.8318 47.2052 23.2766 47.2052 21.5816C47.2052 21.3211 47.4579 21.1942 47.5847 21.1942C47.7106 21.1942 47.9772 21.4548 47.9772 21.5816V31.8542C48.2437 37.9674 39.8093 43.0334 29.4374 43.0334ZM12.057 24.831V31.5928C12.057 37.3127 19.8385 41.9983 29.4383 41.9983C39.2908 41.9983 47.3328 37.3118 47.3328 31.7257V24.9638C46.9533 25.6116 46.5479 26.2654 45.9138 26.9133C42.6653 30.5508 36.308 32.7668 29.4383 32.7668C22.8213 32.7668 16.8565 30.5508 13.488 26.7796C12.9679 26.2654 12.4495 25.6116 12.057 24.831Z" fill="#56A277"/>
<path d="M29.4377 20.7992C20.0975 20.7992 12.5757 16.2524 12.5757 10.6593C12.5757 5.06627 20.2312 0.519531 29.4377 0.519531C38.6442 0.519531 46.2937 5.06627 46.2937 10.6593C46.2937 16.2524 38.771 20.7992 29.4377 20.7992ZM29.4377 1.42784C20.6168 1.42784 13.3537 5.58642 13.3537 10.6593C13.3537 15.7323 20.49 19.8908 29.4377 19.8908C38.2517 19.8908 45.5079 15.7323 45.5079 10.6593C45.5079 5.58642 38.3854 1.42784 29.4377 1.42784Z" fill="#56A277"/>
<path d="M29.4379 29.9039C20.0978 29.9039 13.0952 25.7453 13.0952 20.1514V10.9199C13.0952 10.6594 13.3549 10.5266 13.4877 10.5266C13.6145 10.5266 13.8741 10.7871 13.8741 10.9199C13.8741 12.6089 14.1338 13.65 15.1723 14.8188C18.0284 17.8095 23.3403 19.7641 29.3051 19.7641C35.27 19.7641 40.7224 17.8086 43.4448 14.8188C44.09 14.0382 44.6101 11.9619 44.8758 10.9199C45.1286 10.0116 45.1286 9.75195 45.5081 9.75195C46.0403 9.75195 46.0403 10.273 46.0403 10.5266V19.7641C46.2939 25.4848 38.9049 29.9039 29.4379 29.9039ZM14.007 14.6912V20.1514C14.007 25.2243 20.6179 28.9956 29.4379 28.9956C38.126 28.9956 45.2554 24.831 45.2554 19.7641V13.3895C45.0018 14.1702 44.6093 14.9517 44.2168 15.4718C41.2339 18.7229 35.5287 20.6715 29.4379 20.6715C23.3403 20.6715 17.5083 18.7221 14.6522 15.4718C14.3934 15.2122 14.1338 14.9517 14.007 14.6912Z" fill="#56A277"/>
<path d="M29.4381 108.568C19.193 108.568 9.59406 105.318 4.40728 100.124C1.81777 97.5208 0.386719 94.3974 0.386719 91.2869V89.7126C0.386719 89.4582 0.646362 89.3322 0.779201 89.3322C1.03884 89.3322 1.16564 89.4582 1.16564 89.7126C1.42528 98.5499 14.0071 105.839 29.3052 105.839C44.8759 105.839 57.4388 98.5499 57.4388 89.4582V88.7974C57.4388 88.5429 57.7045 88.417 57.8442 88.417C57.9701 88.417 58.2237 88.6715 58.2237 88.7974V91.1471C58.4765 100.772 45.5091 108.568 29.4381 108.568ZM2.46385 95.7051C3.10993 97.0007 4.0217 98.2963 5.1862 99.4634C10.2453 104.543 19.5786 107.667 29.564 107.667C42.4055 107.667 53.1698 102.587 56.5382 95.8327C52.258 102.207 41.7533 106.752 29.564 106.752C17.2496 106.753 6.61207 102.207 2.46385 95.7051ZM29.4381 99.3375C21.9154 99.3375 15.0388 96.7471 12.0568 92.5816C11.93 92.4557 11.93 92.1883 12.0568 92.0494C12.1896 91.9217 12.4493 91.7949 12.5761 91.9217C17.5084 94.0049 23.3404 95.1737 29.4381 95.1737C35.5297 95.1737 41.3678 94.0058 46.294 91.9217C46.4208 91.7958 46.6865 91.9217 46.8142 92.0494C46.9531 92.1883 46.9531 92.4557 46.8142 92.5816C43.8313 96.6073 36.9608 99.3375 29.4381 99.3375ZM14.1339 93.4968C17.3755 96.4805 23.2136 98.424 29.5649 98.424C35.9222 98.424 41.6274 96.4805 45.0027 93.4968C40.3301 95.1728 35.1433 96.0863 29.5649 96.0863C23.9925 96.0863 18.6737 95.1728 14.1339 93.4968ZM29.4381 55.2623C16.9891 55.2623 5.70548 50.97 0.646362 44.2081C0.520423 43.9485 0.520423 43.6871 0.779201 43.5543C1.03884 43.4275 1.29848 43.4275 1.42528 43.6871C6.35157 50.1902 17.3764 54.3479 29.5649 54.3479C41.8879 54.3479 53.0318 50.0557 57.8442 43.4275C57.9701 43.1678 58.2237 43.1678 58.4765 43.2946C58.743 43.4275 58.743 43.688 58.6162 43.9493C53.4363 50.8372 42.1467 55.2623 29.4381 55.2623ZM47.9787 21.7142C47.8519 21.7142 47.7122 21.7142 47.5862 21.5814C47.4594 21.4546 47.3326 21.3209 47.3326 21.1941C47.3326 20.0261 46.9531 18.9841 46.1672 17.943C46.0413 17.8101 46.0413 17.6825 46.1672 17.5496C46.2932 17.4228 46.2932 17.2882 46.4208 17.2882L54.336 13.5239C54.462 13.391 54.6017 13.5239 54.7285 13.5239C54.8544 13.6507 54.9812 13.7783 54.9812 13.9112V18.2035C54.9812 18.3303 54.8553 18.5908 54.7285 18.5908C54.462 18.7236 54.1963 18.8513 53.6899 19.1118C50.3215 20.9336 48.7516 21.7142 47.9787 21.7142ZM47.2067 17.943C47.713 18.8513 48.1184 19.8924 48.2444 20.7999C49.157 20.5385 52.2589 18.9841 53.2975 18.3303C53.564 18.2035 53.9435 18.0689 54.0703 17.943V14.559L47.2067 17.943Z" fill="#56A277"/>
<path d="M62.5039 19.2448C60.946 19.2448 59.7815 18.7237 59.1354 17.8103C57.3119 15.734 59.1354 13.9113 60.3008 12.7434C60.9469 11.9627 61.7198 11.3089 61.8587 10.5282C61.9855 10.1409 61.8587 10.0133 61.593 9.88041C60.4276 9.2326 56.9324 9.75361 52.9058 12.871C52.5262 13.1315 51.8672 13.1315 51.6136 12.7442C51.3609 12.3509 51.3609 11.7031 51.7404 11.4426C56.4131 7.93181 60.6803 7.1503 62.5047 8.45196C63.4174 8.97296 63.7969 10.0141 63.5433 11.0492C63.2897 12.2232 62.3779 13.2644 61.4662 14.0399C60.0481 15.602 59.7824 15.9954 60.4285 16.6432C61.2134 17.4238 63.0249 17.8111 65.3677 16.5164C67.8244 15.2147 70.8124 13.1324 72.2314 12.0912L72.7506 11.7039C73.1431 11.4434 73.7892 11.5711 74.0558 11.9644C74.3085 12.3517 74.1817 13.0056 73.7892 13.2661L73.2699 13.6534C71.851 14.6946 68.8629 16.9045 66.2665 18.2053C64.8337 18.8514 63.5424 19.2448 62.5039 19.2448Z" fill="#56A277"/>
<path d="M29.4381 96.0863C13.4878 96.0863 0.386719 88.4169 0.386719 78.7921C0.386719 78.5376 0.646362 78.4117 0.779201 78.4117C0.906003 78.4117 1.16564 78.6653 1.16564 78.7921C1.16564 87.7691 13.7475 95.1728 29.3052 95.1728C44.8759 95.1728 57.4388 87.8959 57.4388 78.7921C57.4388 78.5376 57.7045 78.4117 57.8442 78.4117C57.9701 78.4117 58.2237 78.6653 58.2237 78.7921C58.4765 88.2901 45.5091 96.0863 29.4381 96.0863ZM29.4381 51.3573C13.4878 51.3573 0.386719 43.6871 0.386719 34.0631C0.386719 33.8017 0.646362 33.6758 0.779201 33.6758C0.906003 33.6758 1.16564 33.9363 1.16564 34.0631C1.16564 43.0332 13.7475 50.4489 29.3052 50.4489C44.8759 50.4489 57.4388 43.1678 57.4388 34.0631C57.4388 33.8017 57.7045 33.6758 57.8442 33.6758C57.9701 33.6758 58.2237 33.9363 58.2237 34.0631C58.4765 43.5542 45.5091 51.3573 29.4381 51.3573Z" fill="#56A277"/>
</svg>
