<svg width="220" height="200" viewBox="0 0 220 200" fill="none" xmlns="http://www.w3.org/2000/svg">
<path fill-rule="evenodd" clip-rule="evenodd" d="M0 0H220V200H0C0 150.002 0 49.9978 0 0ZM142.751 82.5415L138.636 87.1805L151.73 101.097L142.003 111.148L128.909 97.2316C120.678 105.736 119.182 106.896 117.686 108.829C122.923 114.241 130.779 122.359 147.614 140.142L138.262 149.807C119.93 131.251 112.074 122.746 107.959 118.88L77.6559 150.193L68.3031 140.529C83.2675 124.679 92.2461 115.787 98.2319 109.216C95.239 104.963 88.8792 98.7779 77.6559 87.1805L64.562 100.711L50.3458 86.4073L76.9076 58.9601H96.3614L100.851 63.599L87.7568 77.1293C98.9801 88.7268 104.592 94.5255 108.707 98.7779L119.93 87.1805L106.836 73.2635L116.563 63.2124L130.031 76.7428L134.146 72.4904L121.053 58.9601H140.506L167.068 86.4073L157.341 96.4584L142.751 82.5415Z" fill="#FF4644"/>
</svg>
