<svg width="44" height="43" viewBox="0 0 44 43" fill="none" xmlns="http://www.w3.org/2000/svg">
<path d="M1.12701 12.6826L1.127 12.6828C1.02559 14.9475 1 15.6641 1 21.4957C1 27.3272 1.02559 28.0439 1.127 30.3172L1.12701 12.6826ZM1.12701 12.6826C1.22503 10.4853 1.57259 9.03253 2.05784 7.77951C2.5669 6.48805 3.22867 5.40483 4.31675 4.31675C5.40906 3.22445 6.48416 2.55725 7.77529 2.05947L7.77688 2.05886M1.12701 12.6826L7.77688 2.05886M7.77688 2.05886C9.03071 1.573 10.4841 1.22508 12.6741 1.12701L7.77688 2.05886ZM21.4957 1C15.6643 1 14.9475 1.02559 12.6742 1.127L21.4957 1ZM21.4957 1C27.3253 1 28.045 1.02556 30.3279 1.11856M21.4957 1L30.3279 1.11856M30.3279 1.11856C32.5241 1.2167 33.9764 1.56422 35.2291 2.04934C36.5205 2.5584 37.6037 3.22017 38.6918 4.30822C39.784 5.40042 40.4512 6.47543 40.9489 7.76639C41.4357 9.03029 41.7835 10.4845 41.8815 12.6741L30.3279 1.11856ZM42.0085 21.4957C42.0085 15.6558 41.983 14.9476 41.8815 12.6742L42.0085 21.4957ZM42.0085 21.4957C42.0085 27.3358 41.983 28.0439 41.8815 30.3174M42.0085 21.4957L41.8815 30.3174M41.8815 30.3174C41.7835 32.5148 41.4359 33.9677 40.9506 35.2208M41.8815 30.3174L40.9506 35.2208M40.9506 35.2208C40.4415 36.5121 39.7798 37.5952 38.6918 38.6833C37.5996 39.7755 36.5246 40.4426 35.2336 40.9404L40.9506 35.2208ZM21.5043 42C27.3442 42 28.0525 41.9744 30.3258 41.873L21.5043 42ZM21.5043 42C15.6642 42 14.9561 41.9744 12.6826 41.873M21.5043 42L12.6826 41.873M12.6826 41.873C10.4853 41.775 9.03251 41.4274 7.77948 40.9422M12.6826 41.873L7.77948 40.9422M7.77948 40.9422C6.48804 40.4331 5.40482 39.7713 4.31675 38.6833C3.22445 37.5909 2.55726 36.5158 2.05947 35.2247C1.57283 33.9609 1.22505 32.5068 1.12701 30.3174L7.77948 40.9422ZM35.2333 40.9405C33.9694 41.4272 32.5153 41.7749 30.326 41.873L35.2333 40.9405Z" stroke="white" stroke-width="2"/>
<path d="M11.4535 21.5037C11.4535 15.9551 15.9547 11.4614 21.4958 11.4614C27.0449 11.4614 31.538 15.9546 31.538 21.5037C31.538 27.0528 27.0449 31.546 21.4958 31.546C15.9466 31.546 11.4535 27.0528 11.4535 21.5037Z" stroke="white" stroke-width="2"/>
<path d="M32.9732 12.5951C34.3965 12.5951 35.5503 11.4413 35.5503 10.018C35.5503 8.59473 34.3965 7.44092 32.9732 7.44092C31.5499 7.44092 30.3961 8.59473 30.3961 10.018C30.3961 11.4413 31.5499 12.5951 32.9732 12.5951Z" fill="white"/>
</svg>