<svg width="200" height="36" viewBox="0 0 200 36" fill="none" xmlns="http://www.w3.org/2000/svg">
<path d="M0 36H36.2956C36.2956 25.1443 36.2956 11.2268 36.2956 0H0C0 10.6701 0 25.9794 0 36ZM12.5351 8.16495H28.0636V23.567L23.1057 18.6495L12.0674 29.5979L6.54818 24.0309L17.5865 13.0825L12.5351 8.16495Z" fill="#025BFF"/>
<path d="M12.5348 8.16492H28.0633V23.567L23.1054 18.6495L12.067 29.5979L6.54785 24.0309L17.4927 13.0824L12.5348 8.16492Z" fill="white"/>
<path d="M153.227 11.6907H157.063V15.4949H153.227V11.6907ZM200 20.6907V3.5258H192.797L189.804 11.6907L186.81 3.5258H179.607V20.6907H184.846V10.3918L188.681 20.6907H191.02L194.855 10.3918V20.6907H200ZM176.707 20.6907V3.5258H160.056V20.6907H165.295V8.07219H171.469V20.6907H176.707ZM144.154 10.7629H140.786V8.07219H144.154C144.995 8.07219 145.744 8.53611 145.744 9.37116C145.744 10.2062 145.089 10.7629 144.154 10.7629ZM140.879 20.6907V15.3093H144.902C148.924 15.3093 151.076 12.6186 151.076 9.46394C151.076 6.3093 148.924 3.61858 144.902 3.61858H135.641V20.7835H140.879V20.6907ZM124.322 16.4227C121.796 16.4227 120.206 14.567 120.206 12.1547C120.206 9.74229 121.796 7.88662 124.322 7.88662C126.848 7.88662 128.531 9.74229 128.531 12.1547C128.531 14.567 126.848 16.4227 124.322 16.4227ZM124.322 20.9691C129.654 20.9691 133.77 17.3505 133.77 12.0619C133.77 6.77322 129.654 3.15466 124.322 3.15466C118.99 3.15466 114.874 6.77322 114.874 12.0619C114.874 17.3505 118.99 20.9691 124.322 20.9691ZM109.822 20.6907V8.07219H114.406V3.5258H99.9066V8.07219H104.584V20.6907H109.822ZM100 20.6907L93.1713 11.5052L99.7195 3.5258H93.3584L88.8682 9.92786V3.5258H83.6297V20.6907H88.8682V15.9588L89.8037 14.6598L93.7326 20.6907H100ZM81.1975 20.6907V16.1444H73.3397V14.2887H81.0104V9.74229H73.3397V8.07219H81.1975V3.5258H68.1011V20.6907H81.1975ZM59.495 16.3299H55.2854V14.1031H59.495C60.2433 14.1031 60.711 14.567 60.711 15.2165C60.711 15.866 60.1498 16.3299 59.495 16.3299ZM59.3079 9.83508H55.2854V7.79384H59.3079C59.8691 7.79384 60.3369 8.16497 60.3369 8.72167C60.3369 9.37116 59.8691 9.83508 59.3079 9.83508ZM60.8981 20.6907C64.3593 20.6907 65.9496 18.4639 65.9496 16.0516C65.9496 13.8248 64.5464 12.1547 62.6755 11.8763C64.3593 11.5052 65.5754 10.1134 65.5754 7.97941C65.5754 5.93817 64.0787 3.61858 60.4304 3.61858H50.0469V20.7835H60.8981V20.6907Z" fill="#151616"/>
<path d="M54.35 32.4742V27.9279H50.0469V32.4742H51.263V28.9485H53.1339V32.4742H54.35ZM58.1853 32.6598C59.3079 32.6598 60.2433 31.732 60.2433 30.2474C60.2433 28.7629 59.4014 27.8351 58.1853 27.8351C57.6241 27.8351 57.0628 28.1134 56.7821 28.4846V27.9279H55.5661V34.2371H56.7821V31.9175C57.1563 32.3815 57.6241 32.6598 58.1853 32.6598ZM57.8111 31.5464C57.437 31.5464 56.9692 31.2681 56.7821 30.9897V29.3196C56.9692 29.0413 57.437 28.8557 57.8111 28.8557C58.5595 28.8557 58.9337 29.4124 58.9337 30.1547C58.9337 30.9897 58.5595 31.5464 57.8111 31.5464ZM63.2368 32.6598C64.7335 32.6598 65.6689 31.5464 65.6689 30.2474C65.6689 28.9485 64.7335 27.8351 63.2368 27.8351C61.74 27.8351 60.8046 28.9485 60.8046 30.2474C60.8046 31.5464 61.74 32.6598 63.2368 32.6598ZM63.2368 31.5464C62.4884 31.5464 62.1142 30.8969 62.1142 30.2474C62.1142 29.598 62.4884 28.9485 63.2368 28.9485C63.9851 28.9485 64.4529 29.598 64.4529 30.2474C64.4529 30.8969 63.9851 31.5464 63.2368 31.5464ZM67.8205 32.4742L69.7849 29.598V32.4742H71.001V27.9279H69.7849L67.914 30.7114V27.9279H66.698V32.4742H67.8205ZM73.8074 32.6598C75.2106 32.6598 76.0525 32.1031 76.0525 31.2681C76.0525 30.6186 75.3041 30.2474 74.7429 30.1547C75.3977 30.0619 75.9589 29.6907 75.9589 29.0413C75.9589 28.2062 75.117 27.7423 73.7139 27.7423C72.8719 27.7423 72.2171 28.0206 71.7494 28.4846L72.3107 29.2268C72.6849 28.8557 73.1526 28.6701 73.7139 28.6701C74.2751 28.6701 74.6493 28.8557 74.6493 29.134C74.6493 29.4124 74.3687 29.598 73.7139 29.598H72.7784V30.5258H73.7139C74.3687 30.5258 74.7429 30.7114 74.7429 30.9897C74.7429 31.2681 74.3687 31.4536 73.8074 31.4536C73.2461 31.4536 72.6849 31.2681 72.2171 30.8969L71.6559 31.6392C72.1236 32.2887 72.8719 32.6598 73.8074 32.6598ZM79.9814 32.4742C80.9168 32.4742 81.3846 31.9175 81.3846 31.2681C81.3846 30.7114 81.0104 30.2474 80.5427 30.1547C81.0104 30.0619 81.3846 29.6907 81.3846 29.134C81.3846 28.4846 80.9168 27.9279 79.9814 27.9279H77.0815V32.4742H79.9814ZM79.7008 31.5464H78.204V30.7114H79.7008C79.9814 30.7114 80.1685 30.8969 80.1685 31.1753C80.1685 31.3608 79.9814 31.5464 79.7008 31.5464ZM79.6072 29.6907H78.1105V28.9485H79.6072C79.8878 28.9485 80.0749 29.134 80.0749 29.3196C80.0749 29.5052 79.8878 29.6907 79.6072 29.6907ZM84.6587 32.6598C86.1554 32.6598 87.0908 31.5464 87.0908 30.2474C87.0908 28.9485 86.1554 27.8351 84.6587 27.8351C83.1619 27.8351 82.2265 28.9485 82.2265 30.2474C82.2265 31.5464 83.1619 32.6598 84.6587 32.6598ZM84.6587 31.5464C83.9103 31.5464 83.4426 30.8969 83.4426 30.2474C83.4426 29.598 83.9103 28.9485 84.6587 28.9485C85.407 28.9485 85.7812 29.598 85.7812 30.2474C85.7812 30.8969 85.407 31.5464 84.6587 31.5464ZM87.5586 33.6804H88.8682V32.4742H91.6746V33.5876H92.8907V31.3608H92.4229V27.8351H88.6811L88.4005 30.0619C88.3069 31.1753 88.0263 31.3608 87.6521 31.3608V33.6804H87.5586ZM89.7101 28.9485H91.2068V31.4536H89.0553C89.3359 31.1753 89.523 30.8041 89.6166 30.2474L89.7101 28.9485ZM95.7906 32.6598C96.726 32.6598 97.2873 32.1959 97.6615 31.8248L96.8196 31.0825C96.6325 31.3608 96.2583 31.5464 95.8841 31.5464C95.1357 31.5464 94.668 30.9897 94.668 30.2474C94.668 29.4124 95.1357 28.9485 95.8841 28.9485C96.3518 28.9485 96.6325 29.134 96.8196 29.4124L97.6615 28.6701C97.3808 28.2062 96.8196 27.8351 95.7906 27.8351C94.3874 27.8351 93.3584 28.8557 93.3584 30.2474C93.3584 31.6392 94.3874 32.6598 95.7906 32.6598ZM100.468 32.4742V28.9485H101.777V27.9279H97.9421V28.9485H99.2517V32.4742H100.468ZM105.519 32.4742C106.455 32.4742 106.922 31.9175 106.922 31.2681C106.922 30.7114 106.548 30.2474 106.081 30.1547C106.548 30.0619 106.829 29.6907 106.829 29.134C106.829 28.4846 106.361 27.9279 105.426 27.9279H102.526V32.4742H105.519ZM105.239 31.5464H103.742V30.7114H105.239C105.519 30.7114 105.706 30.8969 105.706 31.1753C105.706 31.3608 105.519 31.5464 105.239 31.5464ZM105.239 29.6907H103.742V28.9485H105.239C105.519 28.9485 105.706 29.134 105.706 29.3196C105.613 29.5052 105.426 29.6907 105.239 29.6907ZM110.29 32.6598C111.038 32.6598 111.693 32.3815 112.161 32.0103L111.6 31.2681C111.319 31.5464 110.758 31.732 110.384 31.732C109.542 31.732 109.168 31.2681 109.074 30.7114H112.535V30.433C112.535 28.9485 111.6 27.9279 110.197 27.9279C108.793 27.9279 107.764 29.0413 107.764 30.3402C107.858 31.732 108.887 32.6598 110.29 32.6598ZM111.319 29.7835H109.074C109.168 29.3196 109.448 28.7629 110.197 28.7629C111.038 28.7629 111.319 29.3196 111.319 29.7835ZM114.593 32.4742V30.6186H116.464V32.4742H117.68V27.9279H116.464V29.598H114.593V27.9279H113.377V32.4742H114.593ZM120.112 32.4742V30.6186H121.983V32.4742H123.199V27.9279H121.983V29.598H120.112V27.9279H118.896V32.4742H120.112ZM126.567 32.6598C128.064 32.6598 128.999 31.5464 128.999 30.2474C128.999 28.9485 128.064 27.8351 126.567 27.8351C125.07 27.8351 124.135 28.9485 124.135 30.2474C124.135 31.5464 125.07 32.6598 126.567 32.6598ZM126.567 31.5464C125.819 31.5464 125.444 30.8969 125.444 30.2474C125.444 29.598 125.912 28.9485 126.567 28.9485C127.315 28.9485 127.783 29.598 127.783 30.2474C127.783 30.8969 127.315 31.5464 126.567 31.5464ZM132.086 32.6598C132.835 32.6598 133.489 32.3815 133.957 32.0103L133.396 31.2681C133.115 31.5464 132.554 31.732 132.18 31.732C131.338 31.732 130.964 31.2681 130.87 30.7114H134.331V30.433C134.331 28.9485 133.396 27.9279 131.993 27.9279C130.589 27.9279 129.56 29.0413 129.56 30.3402C129.654 31.732 130.683 32.6598 132.086 32.6598ZM133.209 29.7835H130.964C131.057 29.3196 131.338 28.7629 132.086 28.7629C132.835 28.7629 133.115 29.3196 133.209 29.7835ZM142.283 32.6598C143.779 32.6598 144.715 31.5464 144.715 30.2474C144.715 28.9485 143.779 27.8351 142.283 27.8351C140.786 27.8351 139.85 28.9485 139.85 30.2474C139.757 31.5464 140.692 32.6598 142.283 32.6598ZM142.283 31.5464C141.534 31.5464 141.16 30.8969 141.16 30.2474C141.16 29.598 141.628 28.9485 142.283 28.9485C143.031 28.9485 143.499 29.598 143.499 30.2474C143.499 30.8969 143.031 31.5464 142.283 31.5464ZM147.708 31.5464C146.96 31.5464 146.586 30.8969 146.586 30.1547C146.586 29.5052 146.96 28.8557 147.708 28.8557C148.457 28.8557 148.831 29.5052 148.831 30.1547C148.924 30.8969 148.457 31.5464 147.708 31.5464ZM147.708 32.6598C149.205 32.6598 150.14 31.5464 150.14 30.2474C150.14 28.9485 149.299 27.8351 147.989 27.8351C147.334 27.8351 146.773 28.1134 146.399 28.5773C146.492 28.0206 146.96 27.5567 148.082 27.4639C148.831 27.3712 149.953 27.0928 149.953 26.2578H148.737C148.737 26.4433 148.457 26.5361 147.708 26.6289C146.118 26.8145 145.276 27.8351 145.276 30.0619C145.276 31.5464 146.212 32.6598 147.708 32.6598ZM154.724 32.4742C155.753 32.4742 156.314 31.8248 156.314 30.9897C156.314 30.1547 155.753 29.5052 154.724 29.5052H153.134V27.9279H150.608V28.9485H151.918V32.4742H154.724ZM154.537 30.5258C154.818 30.5258 155.098 30.7114 155.098 30.9897C155.098 31.2681 154.911 31.4536 154.537 31.4536H153.134V30.433H154.537V30.5258ZM159.401 32.6598C160.15 32.6598 160.805 32.3815 161.272 32.0103L160.711 31.2681C160.43 31.5464 159.869 31.732 159.495 31.732C158.747 31.732 158.279 31.2681 158.185 30.7114H161.647V30.433C161.647 28.9485 160.711 27.9279 159.308 27.9279C157.905 27.9279 156.876 29.0413 156.876 30.3402C156.969 31.732 157.998 32.6598 159.401 32.6598ZM160.43 29.7835H158.185C158.279 29.3196 158.56 28.7629 159.308 28.7629C160.15 28.7629 160.43 29.3196 160.43 29.7835ZM162.114 33.6804H163.33V32.4742H166.137V33.5876H167.353V31.3608H166.885V27.8351H163.143L162.863 30.0619C162.676 31.1753 162.488 31.3608 162.114 31.3608V33.6804ZM164.172 28.9485H165.669V31.4536H163.517C163.798 31.1753 163.985 30.8041 164.079 30.2474L164.172 28.9485ZM169.317 32.4742L171.282 29.598V32.4742H172.498V27.9279H171.188L169.317 30.7114V27.9279H168.101V32.4742H169.317ZM174.836 32.4742V30.6186H176.707V32.4742H177.923V27.9279H176.801V29.598H174.93V27.9279H173.714V32.4742H174.836ZM181.385 32.6598C182.133 32.6598 182.788 32.3815 183.255 32.0103L182.694 31.2681C182.414 31.5464 181.852 31.732 181.478 31.732C180.636 31.732 180.262 31.2681 180.168 30.7114H183.63V30.433C183.63 28.9485 182.694 27.9279 181.291 27.9279C179.888 27.9279 178.859 29.0413 178.859 30.3402C178.859 31.732 179.981 32.6598 181.385 32.6598ZM182.414 29.7835H180.168C180.262 29.3196 180.543 28.7629 181.291 28.7629C182.039 28.7629 182.414 29.3196 182.414 29.7835ZM185.688 32.4742V30.6186H187.559V32.4742H188.775V27.9279H187.559V29.598H185.688V27.9279H184.472V32.4742H185.688ZM191.113 32.4742L193.078 29.598V32.4742H194.294V27.9279H193.078L191.207 30.7114V27.9279H189.991V32.4742H191.113ZM197.755 32.6598C198.503 32.6598 199.158 32.3815 199.626 32.0103L199.065 31.2681C198.784 31.5464 198.223 31.732 197.849 31.732C197.007 31.732 196.539 31.2681 196.539 30.7114H200V30.433C200 28.9485 199.065 27.9279 197.661 27.9279C196.258 27.9279 195.229 29.0413 195.229 30.3402C195.229 31.732 196.258 32.6598 197.755 32.6598ZM198.784 29.7835H196.445C196.539 29.3196 196.82 28.7629 197.568 28.7629C198.41 28.7629 198.69 29.3196 198.784 29.7835Z" fill="#151616"/>
</svg>
