    <svg version="1.1" id="Layer_1" xmlns="http://www.w3.org/2000/svg" xmlns:xlink="http://www.w3.org/1999/xlink" x="0px" y="0px"
        viewBox="662 -104.1 1920 1049" style="enable-background:new 662 -104.1 1920 1049;" xml:space="preserve">
      <style type="text/css">
        .st0{fill:#EFF2F4;}
        .st1{fill:#025BFF;}
        .st2{fill: #025BFF;font: 18px/25px 'Montserrat'}
      </style>
      <g>
        <path class="st0" d="M1897.8,435.3l0.5-1l-1.3-1.6C1895.1,434,1895.4,434.9,1897.8,435.3z"/>
        <path class="st0" d="M1894.7,452.6l-0.4-0.3c-0.9,1.5-1.1,2.8-0.4,4.2C1893.9,456.6,1894.8,453.3,1894.7,452.6z"/>
        <path class="st0" d="M1901.2,435c-2.6,4.8-4,7.3-5.8,10.4c0.9,0.6,1.7,1.2,2.7,1.9c1.6-2.9,3.3-5.4,5.4-7.9
          C1903.5,437.6,1902.8,436.2,1901.2,435z"/>
        <path class="st0" d="M1879.9,487.4l-1.1,1.9l0.5,0.3c1.1-0.7,1.6-1.8,1.6-3.3l-0.5-0.2L1879.9,487.4z"/>
        <path class="st0" d="M1885.9,473.5l0.5,0.8l0.8-0.3C1886.8,473.3,1886.4,473.1,1885.9,473.5z"/>
        <path class="st0" d="M1890.5,460.6l-0.6-0.3l-0.4,0.6c0.4,0.4,0.8,0.5,1.2,0.3L1890.5,460.6z"/>
        <path class="st0" d="M1891.3,463.2l-0.7,1.9c1.5-0.5,2-1.5,1.4-2.9L1891.3,463.2z"/>
        <path class="st0" d="M1133,23.1c3.1-2.7,6.5-3.5,8.6-0.7c-2.2-0.9-10.5,1.4-7.9,5.3c4.6-0.5,8.2,0,11.8,1.5
          c-0.6-0.7-0.7-1.4-0.2-2.1c8.7,3.6,9.8-0.3,5.6-8.5c1.1,0,2.1,0.1,3.2,0.2c0.2,1.3,0.5,2.1,1.1,3c0.4-2.5,0.1-6.6-0.7-9.1
          c0.3,2.1,1.3,3.5,3.3,4.4c1.7-3.4,1.8-6.7-0.2-10.5c2.5,1.3,4.6,1.9,3-0.9l0.5-2c1.4,0.3,2.9,1.2,4,2.4l0.8-0.8
          c-0.9-0.4-1.2-1-0.9-1.9c0.8,0,1.5,0.4,2,1c1.5-0.5,2.1-1.6,1.4-3c1.3-0.4,2.4-1.1,3.3-2.1c-1.6-1.1-1.8-2.4-0.4-3.6l0.5,1.5
          c4.9-4,8.6-7.7,12.4-12.6c13.2-2.7,24.1-9.3,26-18.2c0.8-4.2-0.3-6.9-3.2-10.3c-1.2,0-2.1,0.5-2.5,1.5c-6.3-1.4-10.6,1.4-11.3,7.7
          c-2.4,1.2-5.5,2.9-8.7,4.6c-2.3-0.8-4.4,0.1-6.2,2c-0.6-0.4-0.9-1.1-0.8-1.9l-0.7-0.1c-0.2,1.2-0.6,2.3-1.2,3.2
          c-5.3-5.1-8.4-2.8-10.2,2.9l-0.5-0.4c0.6-0.9,0.9-1.5,1.2-2.5c-2.7,0.3-4.4,1.5-3.3,3.6c-4.6,0.9-7.6,3.2-7.3,6.7
          c-3.1-0.4-5.3,0.7-5.5,4.1c2.5,3-2.3,4.7-7.5,7c-1.1-0.8-1.7-1.9-1.7-3.3c-0.7,3.7-0.5,6.1,0.7,9.5c1.6-0.3,3.1-0.4,5-0.1l0.4,0.5
          c-1.4,0.8-3.2,1.3-4.8,1.3l-1.1-0.7c-1.2,2.5-0.3,3.9,2.5,3.9l0.4,0.6c-3.9,0.4-7.9,1.1-2.1,3l-0.1,0.5c-0.9,0.2-1.7,0.2-2.6,0
          c1.1,1.4,3.3,3.3,5.3,4.6c-0.1,0.5-0.2,1-0.2,1.5c-5.8-4.7-10-2.4-13.6,3.2C1130.7,20.9,1131.7,22.3,1133,23.1z"/>
        <path class="st0" d="M1903.3,434.6c1.1,3.1,1.6,2.8,1.3-0.7L1903.3,434.6z"/>
        <path class="st0" d="M1893.3,457.7l-0.5,0.2c0,0.7,0.3,1.2,0.8,1.7l0.8-0.2C1894.6,458.5,1894.3,457.9,1893.3,457.7z"/>
        <path class="st0" d="M1838.7,518.3c-0.7-0.3-1.1-0.7-1.4-1.4c-2.7,3.2-3.8,7-2.8,10.4c-0.2-3.5,3.5-7.2,5.9-9
          C1839.8,518.2,1839.3,518.2,1838.7,518.3z"/>
        <path class="st0" d="M1841.7,526.7c1.3,0.6,2.3,0.1,2.8-1.3C1843.4,525.4,1842.4,525.9,1841.7,526.7z"/>
        <path class="st0" d="M1790.3,387.9l-0.7-1.5c-1.4,7.2-0.3,18.8,2.5,27.2l-0.9,0.3c4,6.7,6.3,13,7.4,20.3
          c-0.6,20.4,2.5,42.8,6.4,61.5c-0.3-4,0.6-7.6,2.9-10.4c0.8,2.6,2.8,3.3,5.6,2.2l0.3,0.9c-0.4,1.9,0.1,4.4,1.2,6.4
          c0.9-3.8,0.8-6.9-0.4-10.6c-8.7-8.2-10.8-21.6-6.6-34.5c5.6,1.2,9.5,4.9,11.9,10.4c-5.9-13.8-10.3-28.9-15.4-42.5l-0.2,0.7
          c-2-3.1-3.3-8.7-3-13.3l0.3,0.4c0.3-5-0.6-8.9-2.8-12.9c1.5,0.6,2.5,2.3,2.8,4.2c-0.1-3-1.4-6-3.5-7.7c-2.2-5.9-3.9-9.8-6.6-15.1
          l-0.7,0.7c0.5,0.6,0.5,1.3,0.2,2c-1.2-0.2-2.1-0.5-3.3-1.1c2.6,2.1,4.2,4.9,3.8,7.9c0.5-0.6,1.1-0.7,1.8-0.4c0.3,1.3-0.3,2-1.8,2
          l0.1,1.1l1.2,0.3l0,1.7C1791.9,388.6,1791.1,388.6,1790.3,387.9z"/>
        <path class="st0" d="M1856.3,504.9c-1.3,0.5-2.2,1.4-2.7,2.7c-1.7,0.7-2.9,0.6-3.3-1.4c-0.7,1.9-1.9,3.4-3.7,4.4
          c-1.4,1.5-2.2,3-2,4.6c-1.2,0.6-1.7,1.8-1.3,3.3c1.5-2.5,3.9-4.9,5.9-5.7c4.3-2.1,7.1-4.6,8.1-7.9L1856.3,504.9z"/>
        <path class="st0" d="M1753.7,370.2l-0.3-0.4c-0.9,0.5-0.9,1.3-0.3,2.3C1753.6,371.5,1753.8,370.9,1753.7,370.2z"/>
        <path class="st0" d="M1752.5,373.5c-2,1.1-2.3,2.4-0.8,3.8c1.8-1,2.8-2.1,3.3-3.8L1752.5,373.5z"/>
        <path class="st0" d="M1119.9,57.6c3.9,7.7,7.4,6.9,10.4-0.8c-1.5,4.6-1.9,8,2.6,3.7c-0.7,4.5,1.1,7.3,5.3,7.4
          c-1.4,0.4-2.7,1.2-3.8,2.5c1.1,0.7,1.4,1.6,1,2.7c-0.7,0-1.2-0.2-1.7-0.6c1.3,2.5,4.4,4.4,7.7,5l0.2-1.4c3,4.5,5.1,7.2,2.2,0.5
          c2.5,0.1,3.9,1.8,4,4.6l0.6,0.1c0.1-1,0.5-1.4,1.4-1.4c0.5,1.7,1.6,2.7,3.3,2.8c0.9-0.1,3.4,1.2,2.7-2.3l0.4-0.5
          c-1.3-3.9-13.9-24.2-10-39.7c-1.4-0.2-2.4-0.5-3.4-1.3c3.6,0.8,5.6-0.8,5.5-4.8c-1,0-1.9,0-2.9,0.1c-1.3-6.6-8-6.7-16.4,0.3
          c0.9,0,1.5,0.4,1.7,1.1l-0.5,0.8c-3.6-0.6-5.5,1-4.9,4.5c1.2,0,2.4-0.3,3.6-0.7l0.2,0.8c-1.2,0.3-2,1-2.3,2.2
          c1.1-0.2,2.1-0.5,3.2-0.9l0.2,0.8c-2.6,1.5-2.4,2.9,0.4,3.8c-2.7-0.2-4,0.9-3,3.7C1122.2,48.6,1119.6,51.1,1119.9,57.6z"/>
        <path class="st0" d="M1747.6,361.1c-1,0.4-2.1,0.7-3.3,1c-0.5,0.9-0.5,1.7,0.2,2.5c0.6-0.2,0.9-0.4,1.3-1l0.8,0.7l0.6-0.3
          C1747.3,362.8,1747.3,362.3,1747.6,361.1z"/>
        <path class="st0" d="M1756.3,364l0.4-0.7l-1.3-0.2c-0.2,0.6-0.7,1-1.4,1l-0.2-0.5c1.8-1.8,0.2-2.4-1.9-2.7c-2.6,1.3-3.6,3.3-2.5,6
          C1752.3,368,1754.6,367.6,1756.3,364z"/>
        <path class="st0" d="M1755.9,371.3l-0.7-0.9c-0.2,0.7-0.5,1.2-1.1,1.8l0.2,0.5C1755.1,372.5,1755.7,372,1755.9,371.3z"/>
        <polygon class="st0" points="1884.1,481.8 1884.8,481 1884,480.8 	"/>
        <path class="st0" d="M1884.6,478.3l0.1,1.4c0.7-0.6,0.9-1.2,0.6-2L1884.6,478.3z"/>
        <path class="st0" d="M1882,483.2c-0.1,0.5,0.1,0.9,0.7,1l0.4-0.8l-0.7-0.5L1882,483.2z"/>
        <path class="st0" d="M1611.2-45.9l0.9,1.1c-0.5,0.5-1.1,0.6-1.8,0.3c0.8,2.8,2.3,6.3,3.5,8.4l0.6,0.9c1.1-0.4,1.9-0.1,2.3,1.1
          l-1.2,0.6c3,7.3,12.6,17.7,21.2,9.7c-1.9-0.3-2.3-1.4-1.2-3c1.6,1.2,2.6,2.9,2.7,4.6c3.2-2.9,7.5-5.5,11.9-7.1l0.6,0.6l-0.9,1
          c3.1,1.6,5.8,0.8,8.6-2c-10.1-2.1-16.1-9.2-17.4-19.5l1-0.2l-0.6-1.3c0.6-3.6-4-6.5-9.6-7.8c1.4,1.7,2.4,2.8,3.6,4.3
          c-6.7-0.7-5.5,4.1-2,10c-2.2-1.8-5.2-3.7-8-5c-0.4-0.7-1.1-1.1-1.9-1.3c-0.9-3.3-3.2-6.2-6.2-8.4
          C1611.7-55.8,1609.4-50.8,1611.2-45.9z"/>
        <path class="st0" d="M1868.1,496.6c-2.4,2.4-4.5,5-6.4,7.8c3.6-1.2,6.7-4.1,8.9-7.9C1869.8,496.7,1869,496.8,1868.1,496.6z"/>
        <path class="st0" d="M1613.8,717l-0.7-1.2l-1.3,0.3l0,0.8C1612.5,717.5,1613.1,717.5,1613.8,717z"/>
        <path class="st0" d="M1655.6,657.4l-0.6-0.4c0.3,1.3,1.2,2.3,2.5,3C1658,658.5,1657.2,657.6,1655.6,657.4z"/>
        <path class="st0" d="M1651.6,640.6l-1.8-0.8c0.2,1.6,1.6,2.7,3.6,3.3l0.2-1.7C1652.7,641.6,1652.1,641.3,1651.6,640.6z"/>
        <polygon class="st0" points="1634,700.1 1633.6,699.4 1632.9,699.5 1632.9,701.4 1633.7,701.2 	"/>
        <path class="st0" d="M1634.9,724.8c0.7,0.3,0.9,0.9,0.7,1.6l-0.4,0c1.9,3.2,3,6.2,3.3,10.3c0.9-0.4,1.7-0.2,2.3,0.5
          c0.2-5,2.2-9,6-12.3l-0.7-0.5c1.5-5.2,3.1-9.7,5.3-14.7l0.6,0c-0.5-2.9-2.2-4.9-4.8-5.4l-0.1,1.1c-4.6,3-8.4,7.1-11.5,12.2
          C1635.8,719.9,1635.5,722.6,1634.9,724.8z"/>
        <path class="st0" d="M1718.9,644.9c-0.5-0.7-0.6-1.4-0.5-2.2l-0.3-0.2c-1.2,1.3-1.2,2.7,0.2,3.6L1718.9,644.9z"/>
        <path class="st0" d="M1788.2,540.2l0.6-1.3c-2.1,0.2-3,1.2-2,3.1C1787.8,541.8,1788.3,541.2,1788.2,540.2z"/>
        <path class="st0" d="M1755.2,633c-5-1.5-10-2.4-13.1-2.5c-2.4,1.1-4.6,3-6,5.3c1.5,2.6,2.2,3.8,4.1,6.6c-0.4,0.6-0.3,1,0.3,1.3
          l0.6-0.4c0.5,0.6,1,0.7,1.7,0.5c0.3-1.1,0-2-0.9-2.8c1.2-2.3,2.8-3.7,5-4.8c1.9,0.5,3.4,1.8,3.9,3.7
          C1753.7,638.4,1755.5,636,1755.2,633z"/>
        <path class="st0" d="M1753,628.6l0.2-0.7c-0.9-0.7-1.7-0.5-2.5,0.5C1751.5,628.9,1752.2,629,1753,628.6z"/>
        <path class="st0" d="M1757.6,627.3c-2.1,0.9-2.3,2.3-0.7,3.8C1757.4,630,1757.6,628.7,1757.6,627.3z"/>
        <path class="st0" d="M1835,530.9c-0.5,1.1-1.2,1.3-2.2,0.8c-2-4.2-2.2-8.1-0.6-12.8c-12.3,5.3-22.3-5.7-28.6-18
          c-0.3,1.2-1.2,1.7-2.3,1.8c2,6.2,2.5,12.4,1.7,18.7c-2.5,1.6-2.3,4-0.4,6.8c-2-0.4-4,2.8-7.9-0.9c0.5,6.1-2.7,5.6-4.3,13.2
          c3.3,2,4.2,5.4,2.7,8.9c0,1.1,0.5,2,1.5,2.5c2-3.3,4.1-4.7,7.1-2.5c0.5-1,1.2-1.8,2.2-2.4c-5-3.4-13.9-9.1-3.8-7.2
          c7.1-3.5,13.2,0.2,17.9,7.9c0.2-7.5,3.5-12.5,10.6-11.2c-0.2-0.9,0.3-1.4,1.3-1.4c2.7,0.1,5.5-1.8,7.4-4.8
          C1836.4,529.9,1835.6,530.1,1835,530.9z"/>
        <path class="st0" d="M1723.3,666.2c-2.3,0.7-1.8,1.9,0.3,3.1C1724.3,668.4,1724.2,667.3,1723.3,666.2z"/>
        <path class="st0" d="M1709.6,639.6c-0.8-0.3-1-0.9-0.7-1.7c-1.5,1.8-1.7,3.1,1,2.9L1709.6,639.6z"/>
        <path class="st0" d="M1720.9,643.7l-0.5-0.4c-0.6,0.2-0.9,0.6-0.7,1.3l0.8,0.1L1720.9,643.7z"/>
        <polygon class="st0" points="1718.6,646.1 1717.8,646.7 1718.3,647.2 1719,646.4 	"/>
        <path class="st0" d="M1725.8,663.6l-0.2,2.6c1.4-1,1.6-2.3,0.5-3.6L1725.8,663.6z"/>
        <path class="st0" d="M1810.4,573.3c-3.5-5.8-5.4-13.1-5.4-20.6c-1.5,0.4-2.8-0.2-4-1.5c-1.1,1.3-1.6,2.9-0.9,4.5
          c1.1-0.2,2.1-0.6,2.9-1.3c0.8,1.9,0.2,3.2-1.6,3.8c-0.2-0.6-0.6-1-1.2-1c0.6,1.3,0.4,2.1-0.8,2.6c-1-1.2-1.4-2.8-1.2-4.6
          c-0.8,0.3-1.4,0.1-1.8-0.6c-0.5,1.7-0.8,3.4-0.8,5.2c-0.5,3.1-1.7,6.1-4.1,8c-0.3,2.6,0.7,3.1,3,1.5c0.5,16.1-6,29.1-19.9,35.6
          c-3.6-3.3-2.9-6.1,0.5-8.6c-5.6,3.7-9.6,10.8-10.8,18.5c0.3,0.9-0.1,1.4-1.1,1.3l0.3,0.8c-0.9,0.6-1.6,0.4-2-0.6
          c-19-7.3-32.3,10.1-46.2,18.9c1.7,0.5,2.3,2,2,3.9l-0.7,0.4c0.2-0.8,0-1.6-0.4-2.3c0.1,2,0,3.3-0.4,5.1c1-1.1,2.2-1.5,3.6-0.9
          l-0.7,0.4c0.4,0.7,0.9,0.8,1.7,0.4c0.5-1.8-0.2-2.7-2-2.4c0.4-1.3,0.8-2.2,1.6-3.2c3.2,4.3,2.8,8.3-1.3,10.9
          c1.3,3.4,1.6,7.2,0.6,9.9c0.8,1.2,1.6,1.8,2.9,2.4c0-2,0.6-4.5,1.5-6.5l0.7,0.8c-0.1,2-0.3,4.5-0.7,7c1.5-0.3,2.7-1.1,3.6-2.4
          c-1-0.7-1.3-1.6-1-2.6c1-0.3,1.9,0.1,2.5,1.1c1.3-5.5,3.4-12.9,4.6-16.3l0.3-1.5l-0.8-0.3l0.5-0.9c-1.7,0.4-2.6,0.1-2.8-1.1
          c2.6-1.7,2.9-3.4-0.1-4.4c-5-3.2-1.7-2.9,4.9-1.1c8.3-5.8,18.7-6.3,22.5-1.4c8.1,12.8,11.8,5.1,13.9-5.4c-0.7,0.9-0.8,2-0.2,2.9
          c1.5-0.6,3-0.3,4.4,0.7c-0.6,0.4-1.5,0.8-2.2,1c3.2-0.1,6.5,0.2,9.9,1.1c-0.9-3.2,0.2-4.7,3.4-4c-5.8,4.8,7.8-3.6,9.4-5.5
          c0.3,1.4-1.6,7.2-1.5,8.9c11.7-9.9,4.3-31.4,12.9-38C1808.9,585.8,1809.7,579.7,1810.4,573.3z"/>
        <path class="st0" d="M1745.2,607.4l0-1.3c-0.8-0.4-1.5-0.1-1.8,0.8C1743.8,607.9,1744.4,608.1,1745.2,607.4z"/>
        <polygon class="st0" points="1711.7,637.1 1712.1,636.8 1711.1,636.7 	"/>
        <path class="st0" d="M1742.4,607.3l-0.4,0.8c0.3,0.4,0.6,0.4,1,0.1L1742.4,607.3z"/>
        <polygon class="st0" points="1710,637.3 1710,638 1711,637.7 	"/>
        <path class="st0" d="M1784.2,588.5c-1.2,0.9-1.9,2.4-2,3.9c0.6-0.5,1-0.5,1.4-0.1c-0.7,0.6-1.1,1.3-1.1,2.3c2.3-0.8,3-2.2,1.4-3.8
          C1784.2,590.1,1784.3,589.3,1784.2,588.5z"/>
        <polygon class="st0" points="1712.8,636.1 1712.3,636 1712.4,636.4 	"/>
        <path class="st0" d="M1712.9,634.7c-0.1,0.5,0.2,0.8,0.7,1.1l0.6-0.2C1713.9,635,1713.5,634.7,1712.9,634.7z"/>
        <polygon class="st0" points="1701.3,615.6 1701.5,616.4 1702.8,616.2 1702.1,615.3 	"/>
        <path class="st0" d="M1690.1,618.8c0.3-0.8,0.3-1.6,0-2.3c-1.2,0.4-1.8,1.1-1.2,2.4C1689.3,618.6,1689.7,618.5,1690.1,618.8z"/>
        <path class="st0" d="M1714.7,621.6c0-0.6,0-1.3-0.2-1.9c-1.5,0.6-2.1,2-1.6,3.7C1713.7,623,1714.3,622.4,1714.7,621.6z"/>
        <path class="st0" d="M1708.2,617.2c0.9-0.8,1.1-1.8,0.4-2.6c-1.4,0.4-1.8,1.4-1.2,2.7L1708.2,617.2z"/>
        <polygon class="st0" points="1643.5,761.8 1644.1,760.1 1642.7,760.7 	"/>
        <polygon class="st0" points="1639.6,762.7 1641.1,762.8 1640.3,761.5 	"/>
        <path class="st0" d="M1422.9,721.6l-1-1.5l-1.3,0.3c-0.1,1.2,0.4,2,1.6,2.5L1422.9,721.6z"/>
        <polygon class="st0" points="1386.8,688.4 1387.4,687.9 1387.1,687 	"/>
        <path class="st0" d="M1383.9,687.7l0.7,0.8c0.4-0.9,0.2-1.7-0.5-2.4L1383.9,687.7z"/>
        <path class="st0" d="M1385.5,687.6l0.5,0.5c0.3-0.6,0.5-1.2,0.4-1.8l-1,0.3L1385.5,687.6z"/>
        <path class="st0" d="M1381.8,686.1l-0.1,0.8c1.3-0.5,1.8-1.5,1.4-2.8L1381.8,686.1z"/>
        <path class="st0" d="M1409.8,683.3l-0.7,0.2l-0.2,1.7C1410,684.9,1410.4,684.3,1409.8,683.3z"/>
        <path class="st0" d="M1406.7,686.9c2.1-1.7,1.9-3.4-0.3-5C1406.2,683.6,1406.3,685.3,1406.7,686.9z"/>
        <path class="st0" d="M1405.2,685c0.6-1.4,0.5-2.7-0.3-3.9l-1.5,0.3C1403,683.2,1403.5,684.6,1405.2,685z"/>
        <path class="st0" d="M684.4,243.7l-1,1.5l1.2,0.3l0.1,1l3.9-0.4c-1.6,0.5-3.1,1.1-4.5,1.9c1.6,0.7,3.2,0.5,4.8-0.4
          c-0.1,1.3-1,1.8-2.7,1.5l1.1,0.3l-0.5,0.7c3.3,1.3,6.9,1.3,10.5,0.1l-0.3-1.6l1.4,0.4l-0.6,0.8c1.6,0,2.9-0.2,4.4-0.6l0.7-1.4
          c2.6,1.6,4.3,1.5,5.1-0.5l0.4,1.3c1.3-0.7,2.7-0.5,4.3,0.4l-1.1-2.3c3.9-1.9,5.6-5.5,4.5-9.8c1.5-1.3,1.9-3.2,1.6-5.4l-1-1.1
          l0.8-0.8l0.9,0.4c-4.9-5.6-5.8-6.3-11.2-8.1l0,0c5.6,2.2,6.3,2.8,11.5,8.3l0.2-1.2c1.2,0.5,2.1-0.1,2.4-1.4l1.8,0.7l0.5-1.2
          l-1.1-0.5c0.8-0.6,0.9-1.3,0.5-2.1l0.9,0.1l0.3,2.9l0.3-3.6l-2.1-0.6l1.3-0.6c-1.4-6.8-5.6-8.1-11.6-5c0.8-0.1,1.5-0.5,2.1-1
          l-0.7,0c1-0.7,2.2-1.1,3.4-1.3c-1-0.7-1.8-1.5-2.4-2.6l0.3,1.2l-1.6-0.4c0.3,1.5-0.2,2.5-1.6,3.2c0.1-0.8,0.5-1.3,1.2-1.7l-0.5-1.5
          l-1.1,0l0.5,1c-1.4-0.8-2.3-1-4-0.9l-0.2,1l-0.7-0.2l-0.8,1.2l1,0.7l-0.4,0.5l-1.1-0.2l0,0.6l-1.6,0.1l0.1,1.3l1.7,0.4l-0.3,0.4
          c0.8-0.2,1.6-0.2,2.4,0.1c-1.3,1.3-2.8,2-4.7,1.9l0.6,0.9c-1.3,0.4-2.4,0.1-3.3-0.8l-1.3,0.9c0.3-2.1-0.9-3-3.6-2.9l-0.1,0.6
          l-1.9-1l-0.8,2.1l1.2-0.8c0.1,1.3,0.2,1.9,0.5,3.1l-0.9-0.1l0-0.8l-1.9-0.3c0.7,1.8,1.8,2.5,3.5,2l0.2,1.3c-2-0.5-2.8,0.1-2.1,1.7
          l-2.2-0.4l0.2,1.5l-0.8,0.1c0.5,0.9,1.1,1.2,2,0.8l-0.7,0.6l1.8,0l0.1,2l4.3,0.9l-1.7,1.1l-0.8-0.8l-2.2,2.3l0.7,0.1
          c-1.3,1.5-2.9,2.5-4.9,2.8c2.5,0.5,4.6,0.4,6.9-0.1l0,0.6l1.5,0.5c-3.4-0.3-6-0.1-8.9,0.8c0.6,0.6,0.6,1.2-0.1,1.6l0.7,0.4
          c-1.1,0.3-1.8-0.1-2.2-1.2l-0.5,0.5l-0.3-0.5l-2.3,0.6l0.1,0.7l4.9,0.8C687.3,243.7,685.9,244,684.4,243.7z"/>
        <path class="st0" d="M731,192l0.9,0.2c-0.9,0.4-1.6,0.2-2.1-0.7c0.1,0.8,0,1.6-0.3,2.3l2,0.1c-0.8-0.1-1.4,0.1-1.7,0.7
          c0.4,0.6,1,0.6,1.7,0.2l-0.4,0.2l0.4,0.8c-0.8-0.8-1.3-0.6-1.7,0.4l0.4,0.5c-0.6-0.2-1.1-0.1-1.4,0.5c0.7,0.1,1,0.5,0.8,1.2
          l-1.3-0.9l-0.5,0.9l0.5,0.5c-1,0.8-2.1,1.1-3.3,1.1c0.7,0.4,1.5,0.8,2.3,1c-0.3,0.5-0.6,0.5-1.2,0.1c0.2,1.1,0.6,1.6,1.4,1.4
          l0.5,0.8l3.9-2.5l-0.7,0.8l0.4,0.4c-1.4,0.8-2.7,2.3-3.6,4l0.3,0.3c-0.8,1.6-1.5,2.9-2.3,4.3l0.3,0.8l0.6-0.1
          c-1.2,1.5-2.3,3.2-3,4.7l1.6,0.4c1.2-2.5,1.9-4.8,2.3-7.5c1.3,0.5,2.3-0.1,3.1-1.8c-1.8,1-2.7,2.5-2.1,4c0.1-0.9,0.5-1.4,1.5-1.5
          l0.1,1.6c1-0.8,1.4-1.7,1.3-2.9l0.7-0.2c-1,1.3-0.8,2.4,0.8,3.2l-1.4-0.7c0,4.3-0.8,7.1-3.6,11.2l-1-1c-0.6,1.5-0.3,2.9,0.8,4.2
          l-0.1-2.1c1.7-0.4,2.8,0.5,3.4,2.5c0.7-1.1,0.5-2-0.6-2.7c1.2,0.9,2.7,1.5,4.2,1.9l0.1-0.6l1.4,0.4l0.7-1.3l3.8,1
          c-4.5,0.6-5.9,3.6-4.1,8.1l1.1-0.3l-0.4,1.8c0.9-1.4,1.9-1.6,3.1-0.6l-1,1.8l0.4,0.4c-3,2.2-3.5,4.9-0.5,7.5
          c-1.3,0.6-2.1,0.2-2.4-1.3l-0.9,0.2c0,0.9,0.4,1.6,1.1,2.1c-4.5-2.7-9.3-1.8-13.5,2.2c0.7-0.2,1.3,0,1.8,0.4
          c0.4-1.2,1.5-1.5,3.2-0.8c-0.8,0.9-0.7,1.7,0.1,2.5l-1.2,0.5c-0.1,0.8,0.2,1.3,0.9,1.5c-2.9,3.1-6.6,4.7-10.9,4.9l1.5,0.5l-0.1,1.1
          l-1.2,0.3l1.8,0.7l-0.5,0.4c1.5,0.6,3.6,0.4,5.3-0.2c-0.3,1.1,0.2,1.7,1.5,1.7c-1-0.4-1.6-0.1-1.7,0.8l2.2,0.5l0.1-0.4
          c3,3.3,6.9,3.6,11.5,1c-2.5,1.1-4.3,2.9-5.1,5.3c-2.9-1-5.8-1.7-9-2.1c-0.2,1.6-1.1,2.2-2.7,1.7c-1.2,2.7-3,4.5-5.2,5.7l-0.6-0.1
          c-2.2,0.6-3.9,1.6-5.2,3l1.4,0.4l0.3-1c1.2,1.1,2.4,1.5,3.6,0.8c-0.5-0.7-0.2-1.2,0.8-1.6l0.2,0.6c0.5-0.7,1.1-0.8,1.7-0.6l0.7-1
          c1.3,0.7,2.8,0.9,4.2,0.6c0.7,1.3,1.9,2.1,3.3,2.5l-0.1-0.9c3.3-4.2,7.9-4,13-0.5c2.4-1.3,5.2-1.8,8.2-1.6c4,1.8,9.6,2.5,14.3,1.6
          l0-0.9c1-0.7,2.1-1,3.3-0.8c0.1-1.1,0.3-1.9,0.7-2.9c-2.2,0.2-4.3-0.2-6.2-1.3c0.5-0.2,0.8-0.3,1.2-0.5c-0.7-0.6-1.5-0.8-2.3-0.4
          c1.5-0.5,2.5-0.7,4-0.7l-0.1-1.1l-1.2-0.3c0.6-0.3,1.3-0.7,1.9-1.1l0.6,0.8c0.8-0.2,1.4-0.5,1.9-1.2l-0.5-0.2l0.5-0.5l-1.2-0.4
          l0.7-0.7c0.7,0.1,0.9,0.4,0.9,1c5.8-5.8,4.4-10.2-4.3-12.3c-0.1,1.1-0.6,1.9-1.4,2.5c-0.3-1.3-1.1-2-2.3-2.3c4.1-2.9,3-6.1-0.5-9.2
          c-1.1,0.1-1.9-0.1-2.8-0.6c2.2,0.1,3.9,0.7,5.6,2c-0.8-1.5-1.5-3-2.3-4.5c0.3-0.7,0.8-1,1.4-0.9c-1.5-3-3.4-5.1-6.5-6.9
          c0.2-11-4.5-17.8-13.9-19.9c1.7,1.5,3.5,1.7,4.9-0.1c1.1,0.6,2.1,0.5,3.1-0.4c-1-0.7-1.4-1.3-1.6-2.4l-2.2,0.6l-0.2-0.5
          c7-1.6,11-6.5,10.6-12.8c-3.1-0.3-6.1-0.9-9.1-1.9c-1.2,0.4-3,0.9-4.4,1.2l-0.2-0.3c1.2-0.8,2.2-1.7,3.1-2.8
          c-0.8,0.5-1.4,0.4-2-0.3c3.3-1.3,6.4-3.8,7.5-6.1c0.6-0.3,0.9-0.8,0.9-1.4c-2.8-0.4-5.9-0.4-8.8,0l0.3-0.7
          c-0.7-0.7-1.4-0.5-2.1,0.4l0.6-0.9l-1.6-1.2c-0.8,0.8-1.2,1.4-1.3,2.4l-0.4,0l-0.2,1.3l-1.4,0c0.6,1.3,0.2,2-1.1,2
          c0.8,0.8,1.3,1.7,1.5,2.8l-1.4-1.1l-0.7,0.4l-1-1c0,0.7-0.1,1.3-0.5,1.8l-0.3-1.3l-0.8,1.1l0.5,0.8l-0.6,0.5L731,192z"/>
        <path class="st0" d="M2046,144.6c1.4,0.1,2-0.6,1.8-2.2c-1-0.2-1.9-0.7-2.6-1.5c-1,0.2-1.5,0.9-1.5,1.9l-0.4-1.3l-1.9,0
          c1.2-2.1,0.8-3.2-1.4-3.1l-0.4,1.2c-0.8-1.7-0.3-2.6,1.8-2.6c0.8-1.5,0.5-2.6-0.7-3.1l2.1-0.9c-0.1-4.6-1.8-6.7-6.2-4.3
          c0-1.8,0.8-2.8,2.4-2.9c-1-1.1-1.3-2.4-0.9-3.7c-0.8-0.5-1.6-0.2-2.2,0.8c-0.5-1.9-1.8-2.7-3.9-2.3c2.4-0.7,3.8-1.1,6.3-1.8l0.4,1
          c4.5-2,6.3-4.2,0.7-6.8c5.8,1.4,7.5,0,3.9-4.8l-1.6,0c-0.1-3.7,0.7-7.2,2.6-10.4l-1.4-0.9c-1,0.9-2.1,1.6-3.4,2.1l0.4-2l-1.4-0.5
          c0,1-0.4,1.5-1.4,1.3c-0.4-0.8-0.3-1.7,0.5-2.4c-4.7-1.2-8.2-2.9-11.3-5.5c-0.1-1-0.7-1.5-1.7-1.5c-1.6,1.6-3.1,2.4-5.3,2.7l2,0.4
          c-0.8,1.3-2.2,1.9-3.7,1.7c0,1.2,0.4,2.2,1.4,3l-0.5,0.5c-1.9-1-2.4-2.8-1.7-4.8c-2.3,1.4-5.1,3.5-7.3,5.5l0.1,0.9
          c1-1.1,2.2-1.5,3.4-1c2.9,3.3,4.1,6.7,2.7,10.3c1.5,0.2,3,0.1,4.4-0.6c0.8,2,1.2,4.2,1.1,6.5c-0.6-1.7-1.5-3.3-2.4-4.6
          c-1.4,1-1.6,2.1-0.5,3.4l-0.4,0.4c-3.9-1.9-6-3.5-6.2-6c-2.9-4.8-5-9.4-6.6-14.6c-0.4-0.9-1-1.5-2-1.6c0.6,0.7,0.4,1.3-0.5,1.9
          c-1-3.4-3.5-5.4-7.1-5.5c0.4,1.9,1.9,3.2,4,3.9c-3.5,0.5-5.7-1-5.4-4.2c-0.7-1-1.7-1.5-3.1-1.4c0.8,0.4,0.9,0.9,0.5,1.6l-2.3,0.1
          l-0.9-1.8l0.6-0.7c-1-1-2-1.3-3.1-0.9l0,1.6c-1-1.5-1.9-2.2-3.8-2.6l0.4,1.4c-3.8-1.5-7.2-2.7-10.8-3.9l0.2-1l-2.2-1.1
          c-0.4,0.3-0.6,0.7-0.6,1.2c-1.2-1.4-2.9-2.5-4.4-2.7l0.1,1.4c-2-1.1-3.8-1.1-5.1,0.3c-2.5-0.4-4.7-1.5-6.7-3.3l0.3-0.6
          c1.4,0.7,2.6,1.6,3.8,2.6l0.4-0.6c-3.2-3.9-7.6-6.1-12.2-6.5l1.1-0.7c-0.6-1.2-1.5-1.6-2.8-1.1l0.5,0.6c-3.2-2.3-7.4-3.5-11-3.2
          c-0.9-0.3-1.4-0.9-1.6-1.8c-3.5-0.5-6.3-1.2-9.5-2.6c-0.9,0.5-1.6,1.3-1.9,2.3l-0.4-1.7l-6.7,0.3l-0.4,1.5l-1.4-0.9
          c-1,2-1.8,2.2-2.2,0.3l-2.3-0.2l-0.3,1.5c-2.5-1.4-4.8-1.8-6.7-0.5c-4.3-1.4-8.8-2.1-12.8-2.1c3.1,3.9,4,8.5,2.5,12.9
          c0.9,0.5,1.8,0.3,2.6-0.7c4.7,4.3,8,9.8,9.3,15.5l-0.8,0.5l0.7,1.7c-1.5,0.2-1.9,0.2-3.9,0.7l0,1.3c-9.3-4.4-17.5-12.1-24.2-21.6
          c-1.3,3.4-3.3,6-5.5,9.2c-0.7-0.6-0.9-1.4-0.8-2.3c-6.2-0.1-16-0.4-18.9-0.6c-10.4,0.8-13.4,6.8-9.9,16.6c-0.9-3.4-2.7-5.5-5.5-6.8
          c1,1.9,1.5,3.6,1.4,6.1c-0.1-2.4-1.1-3.7-3.1-3.7c-0.1-3-0.9-5.7-2.6-8.4l-1.4-0.1c0.5,1.5,0.3,2.8-0.6,4c0-2.6-1.4-3.8-4-3.6
          l-0.3,1.1c-2.2-2-4.7-1.5-7.2,0.1c3.4-15.4-7.5-31.2-24.7-27.9c-12.2,2.9-24.9,5.9-37.2,6.7c8.3-4.3,4.1-8.8-4-12.8
          c-1.8,1.2-3.1,3-3.4,5.1l-0.4-1.3c-1.1,0.8-2.3,1.5-3.5,2.3c1.8-2.5,2-5-0.2-7.3c-1.8,1-2.7,2.1-3.6,4c-0.7-2.3-1.2-4.9-1.3-7.5
          c-2.3,1.3-5.3,1.6-7.6,0.8c1.6-1.5,2.3-3.8,2.2-6.2l2.4,2.8c-8.6-22.3-24.7,1.7-30.4,4c0.9-1,1.6-0.9,2.3,0c2.2-3.2,1.9-6.3,0-9.5
          c0.9,1,1.9,0.9,2.9-0.5c0.1,2.1,0.5,4.1,1.3,6.3c1.2-2.3,1.7-5.2,1.2-7.9c-5.4,0.5-10,2.4-13.6,5.6l-1.3-1.3c0.2-1.1,0.9-1.6,2-1.4
          c-1.8-1.8-1.6-3.5,0.5-5.3c3.5,2.2,7.4,2.4,11.8,0.8c-14.9-2.1-30.1-5.2-44.3-7.5c2.6,2.3,5.4,4.2,8,6.3
          c-11.8,2.7-4.7,8.4-6.6,11.1c0.9-2.5,3-3.6,5.8-3.2l-1.2,2.7l-2.7-0.5l0.8,2.2l-0.4,0.3l0.4,1.5l-2.2,0.7c1,0.9,2.1,1,3.3,0.4
          c1.1,3.8,2.6,7.6,4.3,10.8c-0.6-1.3-1.5-1.5-2.8-0.8l0.1,2l-1.1,0.3c-0.3-1-0.9-1.2-1.8-0.8c-0.1-2.4-1.4-4-3.6-4.1l0.6,1.4
          l-1.5,0.6l-0.8-1.1l-1.1,0.5c0.4,1.5,0.4,3,0,4.5c1.2,1.1,2.5,1.2,3.9,0.3l1,1.7l-1.5,0.8l1.5,1.3c-1.2,1.2-2.5,1.1-3.7-0.2
          c-0.3,1.2,0.3,2,1.9,2.5c-6.5-7.4-14.7-10.8-23.6-7.6c0.7,1.8,0.9,2.3,1.2,4.4l-0.4,0.3l-1.3-1.6c-8.1,0.2-14.4-3.4-17.8-10.6
          c1.3,9.2,1.7,19,1,28.2c-1.2-1-2.2-2.9-2.7-4.8l-1,0.4c0.6,0.8,0.5,1.5-0.4,2.1c-5.5-5.4-12.5-11.5-17.9-15.7
          c1.5-2.1,3.2-2.7,5.1-1.8c-1.6-1.4-3.2-3-4.4-4.5c-1.5,8.7-6.7,1.6-11-4.3c4.7,3.4,8.7,4.3,11.4-0.2l-1.4,0.3l-0.1-1.3l-1.6-0.1
          c1.5-1.6,1.4-3.1-0.3-4.5l-1.3,0.5c-0.8-1.9-2.7-2.3-5.4-1.9c0.9-2.1,2.4-4,3.8-5.4c-1.5-0.8-2.8-0.4-3.9,1.3
          c0.9-1.9,1.2-2.8,1.5-4.7c-0.5,0-1,0.1-1.4,0.5l-0.1-1.6c-1.3-0.2-2.2-1.1-2.8-2.4l1.3-1.9l-0.5-0.9c-1.1,0.3-2,0.9-2.5,2.1
          c0.8-1.9,0.4-3.5-1.1-4.7c-0.8,0.8-1.7,1-2.6,0.5l-0.1-2.3c-1.3,0.4-2.2,1-3,1.8c-0.1-1.1-0.1-2.2,0.2-3.3
          c-1.1-0.6-2.1-0.7-3.2-0.2c-1.4-1-3.5-1.2-4.9-0.4c0.8,0.7,1.1,1.6,0.9,2.7c-1.2-0.8-1.9-0.5-2,0.9c-0.9-0.1-1.9-0.5-2.7-0.9
          c0.5-0.9,1.2-1.5,2.2-1.8c0-1.3-0.6-2.1-1.9-2.3c0.2,1.2-0.3,1.8-1.4,2c-1.1-1.5-1.9-2.6-3-4c-1.5,1.4-3.3,1.2-4.4-0.6
          c-0.2,1-0.8,1.6-1.7,1.7c-0.5-1.5-1.4-2.2-2.8-2c-0.1,0.7,0,1.4,0.3,2.1l-2.1,1c-0.6-0.3-0.9-0.9-0.7-1.6c-1.2,2.9-1.1,6.1,0,9.1
          c2.6,2,3.1,5,1.5,7.8c-0.8-0.2-1.1-0.8-0.9-1.7c-1.9,0-3.3-0.2-5.2-0.6c-11.2,4.4-23.9,2.1-25.1-9.8c-10.5-3-22.2-2.4-31.9,2
          c0.4,2.4,1.7,3.1,3.6,3.1c-1.5,0.7-2.9,1.9-3.8,3.1c-0.2-5.7-2.4-10.4-6.9-14.5c-2.5,10.8-5.6,7.7-8.5-1.2l-2.3,0.4
          c0.2,1.4-0.3,2.3-1.6,2.8c-4.1-4-6.7-2.5-8.2,2.4c2.1,4,5.2,3.3,8.7,0.3c0.8,2.6-0.5,4.1-3.6,4.6l0.6,1.4c-1.6,2-3.3,2.2-5,0.3
          c0.7,2.9-0.7,4.7-3.9,5.4l0.6,1.5c-8.1-0.3-14.3,1.1-8.4,8.9c-3.5,0.7-6.1,2-9,4.5c1.8-1.9,2.8-3.2,4.1-6
          c2.5-12.8,7.9-19.8,14.4-32.4c-1.5,0.9-3,0.8-4.6-0.4c5.2-1.7,9.3-5.1,12.2-9.4c4.8-9.7,7-18.9-0.9-21.1c-1-0.9-1.4-2.2-0.8-3.2
          c-1.5-0.7-2.6-1.6-3.4-3c2.4-0.5,4.7,0.7,6,3.1c1.5-1.1,2-0.3,2,1.4l0.6,0.2c-1.6-7.6-6-13.6-10.2-14.1c1,0,1.7,0.5,2.2,1.3
          c-0.8,1.1-1.6,1.9-2.5,2.5c-1.7-7-6.7-12.1-13.8-13.9c0.2-1.3,0.4-1.9,0.7-3.1c-1.8-0.9-3.5-0.9-5.4,0.2l-0.5-0.5
          c-1.3,0.4-2.1,1.2-2.6,2.4c-6.3-0.7-12-0.9-10.4,2.7c0.3,6.8-3.7,9.1-10.4,7.7c4.2-4.2,5.5-10.9,3.4-17.5c-1.2,0.3-2.1,0.1-3.2-0.6
          l-0.8,1.7c-1.3,0.4-2.2,0-2.6-1.1c-1.7,1.2-3.3,1.9-5,2c0.6-1.3,1.2-2.4,1.9-3.7l-1.1-0.5c-2.1,3.2-5.1,4.4-8.5,3.3
          c3.5-2.7,5.9-5,8.6-8.2c-3.2-4.2-4.1-5.2-8-7.3c-1.2-0.5-2.3-0.2-3.2,0.9c-2.1-3.5-4.6-2.6-7.2-0.2l0.6,1.8
          c-4.4,5.1-6.4,11.8-5.4,18.5l-1.4-0.3c0.5,3.5,2.5,6.3,5.8,8.1l-2.6,1c0.4,1.1,0.4,2.2,0,3.3c3.8,0.2,7.4,1.6,10,3.9
          c-6.8-1.4-14.1-1.8-21-1.1c1,0.8,1.5,1.7,1.7,2.9c1.3-0.4,2.2-0.1,2.7,1l1.9-0.7c4.2,4.5,4.9,8.6-0.8,11.2c1.7-2.2,2.2-4.1,1.9-6.7
          c-2.6-2.8-5.6-3.4-9.5-1.3l1.5,1c-0.8,0.9-1.7,1-2.8,0.3c1.3,2,0.4,3.2-2.4,3.6c0.4-2-0.2-2.5-1.9-1.4c0.6,1.3,0.3,2.4-0.7,3.3
          l-1.3-0.3c0.6-1.6,0.4-3-0.7-4.3c-0.8,2.2-2,4.3-3.5,6.3c1.1-8.1-4.7-9.7-13.8-9l1.4,2l-1.5,0.9c-0.4-0.6-0.7-1.1-1.1-1.6
          c-2.2,1.5-3.2,3.7-2.1,6.3l2.2-1.4l0.7,1.1c1.4-1.3,2.7-1.5,3.9-0.6c-3.2,2.8-7.7,4.4-12.3,4.4c-0.7,0.7-0.7,1.5-0.1,2.3
          c-3.7-1-6.5-0.5-9.6,1.7l0.7,1.6l-0.7-0.1c-0.2,1-0.7,1.5-1.7,1.5c-2.4-0.4-4.7,2.3-5.9,6.1c-3-0.9-5.6-0.5-6.9,2.2
          c0.9,0.6,1.6,0.4,2.2-0.6l3.5,1.7c-0.7,1.2-1.6,1.4-2.6,0.4l-0.5,0.5c1.4,2.1,0.7,3.9-1.6,5c0.2,1,0,1.8-0.5,2.7l-1.2-2.8l-1.5,0.1
          c0-1.7-0.8-2.8-2.2-3.2l-0.5,0.5c1.2,1.3,1,2.5-0.5,3.4l0.6,1.8c2-0.2,4,0.4,5.8,1.6c-0.1,2.7,1.3,3.6,3.8,2.8l0.4,1.1
          c-2.1,1-3.8,0.5-4.9-1.5c-1,0.6-1.6,1.1-2.4,1.9l1.4,2.6c1.3-0.4,2.7-0.4,4,0.2c-0.3,1.4,0.1,2.4,1.1,3.3c0.9-1.2,2-1.2,3.4-0.1
          l-0.8,1.2c0.6,6.1,0.7,8.6,1,15.7c-6.9-3.4-5.6-7.4-0.3-11.8l-0.4-0.8c-12.2,3.1-24.6,5-37.3,6.3c0.1,2.7,0.8,4.8,2.3,6.6
          c0.4,0.9,0.1,1.6-0.7,2.1c2.4,3.3,3.8,7.4,3.9,10.6c1.4,4.7,5.7,6.3,11.1,5.1c7.8,11.5,17,29.3,11.7,40.8c2.9,3.3,6.2,7,9.6,10.5
          c7.4-1.7,12.6,1,13.2,8.7c-2.6-7.8-6.4-11.3-11.3-3.7c-4.7-6.3-8.4-9.9-14.9-14.4c0.7-1.1,1.4-2,2.4-2.8c0.9-3.2,0.6-6.5-1-9.2
          c-0.3,1.7-1.2,2.6-2.8,2.5c-0.6,2.3-1,3.5-2,5.6l-1-0.1c-0.7-9.3,0.4-15.6,4.2-23.7c-1.6,0-2.8-0.7-3.4-2
          c-7.1,2.6-12.2,0.2-14.4-6.6c-6.9-7.2-14.1-9.1-20.6-2.5l-0.6-0.7c-0.9,0.7-0.8,1.4,0.1,2.2c3.5,1.7,5.5-3.7,6.5,3.4
          c-5.1,0.2-9.5,0-15.4-0.8c-0.2,2.6,0.7,4,2.5,4.4c2,5.4,6.4,8.3,11.8,7.9l0,1.3l2.6,0.6c0.7,2.5,0.8,2.7,1.4,4.8
          c1.6,1.3,3.2,1.4,4.7,0.4c-5-1.8-10.7-3-16.3-3c-2.1-2.5-5.9-4.3-9.7-4.9l-0.5-1.4c0.8-7.3-1-18.7-4.4-27.1l-1.1,0.4
          c-4.1,12.7-5.9,24.9-0.4,36.7c0.4,18.2,2.8,36.6,23.8,30.7c5.3,4.1,9,8.9,11.5,15.3c-0.9,0.7-2,1-3.1,0.8c-1.1,2.1-0.9,4.2,0.7,5.9
          c0,4,2.3,5.3,6.2,3.5l0.3,1.3c1-0.4,1.9-0.2,2.6,0.6c-5,2.1-9.4,0.9-12.3-3.5c0.2-4.8-1-14.3-4.8-18c-16.6-16.2-11,17.3-11.2,17.5
          c-11.7,13.6-13.4,36.2-34.1,13.8c-1.7-0.7-3-0.3-3.8,1.2c-0.2-0.7-0.7-1.1-1.4-1.2c2.6-1.7,6.4-2.4,9.5-2c1.6,2.8,3.3,3.7,4.9,2
          l1.7,0.4c-0.1,1.6-1,2.2-2.9,2c2.3,2.5,4.9,2.3,7.5,0.3c-0.4-1.5-0.7-3-0.9-4.4l1.7,1.4c0.7-2.2,1.8-3.8,3.8-4.7l-0.1-1l-1.3,0
          l-0.2-0.7c2.4-0.7,3.1-2.6,2.2-5c3-4.1,3.7-8.6,3-14.4l0.7,0.5c-3.8-4.7-6.8-10.5-8.6-16.8l1.1-1.2c-1-9.4-4-22-7.2-29.8l0.1-0.4
          c-2.2-1.6-3.6-4.2-3.8-7.1c2.6-5.4,3.5-13.3,2.3-20.2l1.4-0.3c-5.2-5.2-12.4-7.5-20.1-6.5l-0.4-0.8l0.7-0.6
          c-0.6-0.9-1.4-1.2-2.5-0.9c-1.1,2.7-1.3,5.4-0.5,8c0,9.6-3.4,17.8-10.8,24.4c-0.1,1.1,0.1,2.2,0.7,3.1c-2.2,1.8-2.4,3.8-0.5,5.9
          l1.1-0.4c0.7,3,1.9,4.7,4.3,6.4l-1.1-0.6c-0.2,3-0.6,5.5-1.6,8.1l-0.9-1.1c0.3,3.1,0.7,6,1.2,9l1-1.1c1.7,1.1,2.9,2,4.5,3.2l2-1.8
          c-0.1,5.7,2.9,10.1,8.5,11.1l0.1,0.7l1.5,0.2c-1.3,2.3-3.5,7.1-4.1,8.5c0.2,1.1,0,2.2-0.4,3.3c-4.2-7.7-10.5-13.5-19-17.5l0-1.6
          c-1.8-2-4-2.3-6.4-0.5c-4.9-8.1-16.3-13.2-27.1-13c0.5,1,0.5,2.1,0.1,3.1l-1.8,0.2c1,2.6,1.7,5.1,2.2,8l0.6-1.3
          c1.4,0.9,1.9,2.7,1.5,4.6c1.8,0.6,2.9,1.8,3.3,3.7c-1.4-0.9-2.4-1.3-3.8-1.8c-3.2,5.1-8-0.6-5,7.2c-6.9,1.6-3.9-1.4-5.4-4.5
          c2.5-1.4,1.7-3-0.7-4.4l1.5-1.1l-0.2-0.6c-3,0.4-5.9,1.7-8,3.5c-3.7,1.9-7.8,1.9-11.7-0.3c-3.5,0.6-6,1.8-5.4,4.5
          c-0.3,1-0.6,1.6-1.1,2.4c-1.7-3.3-3.6-2.7-5.5,0.8l0.4-1.8c-7.9-1-5.4-4.1-0.9-7.2l-1.4-2.1c-1.2,0.5-2,0.1-2.4-1
          c2.1-0.5,4-0.8,6.2-0.7l-0.2-0.7c-3-0.4-6.1,0-8.9,1.3c0.3,1.1,0.7,2.3,0.9,3.5c-1.4,1.6-2.5,1.4-3.2-0.9c0.3-0.5,0.8-0.7,1.3-0.8
          l0-1.1c-4.2,0.9-5.5,3.1-5.5,3.1c-7.3,0.9-13.2,3.6-19.3,8.8c-0.2-1-0.8-1.6-1.7-1.6c0.7,1.7,1.4,3.3,2.2,5l-2.3-1.5
          c-1.7,0.5-4.1,0.8-6.1,0.8c1,6-1.9,9.8-7.7,10.6l-0.6-1.9c-5.7-0.4-9-5.3-8.5-11.5l0.7,0.7c1.6-2.8,4.5-3.5,8-2.4
          c0.1-1.8-0.3-3.9-1-5.7c-4.7-5.4-11.4-9.1-19.2-11c3.3,3.8,5.3,8.5,5.6,13.6c-1.1,0.7-1.4,1.8-1.1,3.1c-1.4,2-2.4,5.2-2.3,7.9
          c4.1,1.2,5.1,3.9,4.2,7.4c-1.9,3.4-2.6,6.7-2.2,10.6c-0.6-2-1.3-3.4-2.6-5.1l-2.3,1.4c-11.4-7.6-25.7-0.5-20,17
          c-0.7,1.1-1.6,1.4-2.7,0.9c-0.4,1.6-1.4,2.8-3.1,3.6c-6-5.8-11.6-10.3-18.2-14.5c-0.6,1.2-0.8,2.5-0.5,3.8
          c-0.8,0.9-1.7,1.1-2.7,0.3c0.6,5.8,3.8,9.3,9.2,8.5c0.9,1.1,1.6,2.2,0.8,3.6c-6.1,5.4-13.3,0.8-20-7.8c1.3-4,0.8-7.9-1-11.7
          l-1.2-0.6c1.7-1.2,2.7-2.9,2.9-5.4l-0.5-0.3c0.1-0.8,0.5-1.4,1.1-1.9c-1.1-2.7-3.4-4.8-6.3-5c-1.2-1.1-2.3-2.5-1.3-3.4l-1.7-0.6
          l0.1-0.4l1.3-0.2l-0.9-1c-1.4,0.7-2.6-1.1-1.5-1.1c-2.8-2.2-4.5-5-5.5-8.4c1.3-0.3,2.8,0.1,4.2,1c0.1,2.4,1.6,4.5,3.8,5.4
          c0,0,3.2,1.8,4.8,1l0.7,1.4l-1.1,0.4c0.6,0.4,0.7,0.9,0.3,1.5c2,0,2.6,0,4.9,0.4l-0.7,0.2c0.9,0.5,1.9,0.7,2.9,0.6
          c-0.6,1.3-0.2,2.3,1.3,3.3c1.4-0.9,2.4-0.6,2.7,0.9c1.6,0.9,3.2,1.1,4.7,0.6c14.2,9,27.9,3,29.6-11.6c-0.7-3.1-2.2-5.7-4.3-7.8
          l-0.5,0.6l-1.6-1.2l0.4-1c-1.7-2.8-2.7-4.3-4.4-6.6c0.2,1,0.5,2,1,3l-1.3,0.2c-1.6-2-3.5-3.9-5.4-5.4c-0.2,0.5-0.2,1.1,0,1.6
          c-4.6-6.6-11-13-18-18l-0.4,0.6c-0.8-1.1-1.9-1.8-3.2-2.2l0,0.8c-2.9,0.1-5.3-1.3-7-3.7c0.3,0.8,0.3,1.6,0.1,2.4
          c-2.5-1.2-4.6-0.9-5.5-0.8c0.2-0.5,0.6-1,1-1.3c0,0-2.3,0.7-3.1,1.4c0.4-0.7-0.5-1.3-1.1-1.3c0.1-1.9-0.9-2.2-2.6-1.1
          c0.3-0.9-3.9-5.8-2.8-5.4c-1.9-0.4-3.1,0.4-3.3,2.7c-0.6-3.6-2.5-5.3-5.2-4.3c-0.2-1-0.7-1.7-1.5-2c0.1,0.9-0.1,1.7-0.6,2.5
          c-0.6-0.4-0.9-1-0.9-1.7c-0.9,0.1-1.5,0.5-1.9,1.3c-0.1-1-0.2-2.1-0.2-3.1c-1.4-2.1-3.6-3.9-6.1-5.3c6.5,3.1,12.7,2.7,18.2-1.3
          c-2.7-2.5-5.9-3.9-8.6-3.7c1.1,0,1.7-0.5,1.9-1.5c-1.6-1.8-3.2-1.7-4.6-0.2L986,58c-0.8,0.3-1.5,0.4-2.3,0.5l-0.1-0.9
          c-1.8-4.7-3.7-0.8-5.5,4.4c0.2-1.2-1.6-1.4-1.6-1.4c-1-0.7-2.1-0.8-3.3-0.1c2-0.9,3.5-2.2,4.2-3.9c-1.1,0.5-2.2,0.7-3.2,0.3
          c0.6-0.6,0.4-2.4,0.4-3.2c1.2,0,2,0.2,3.2,0.8c1.2-0.9-0.3-3-0.8-3.9c0.6-0.6,0.7-1.4,0.4-2.2c-1.1,1-5.5,3.1-5.9,1.1
          c-0.8,2.3-1,2.9-1.1,4.3c-0.8,0.9-2.3,3.3-2.3,3.3c0.6,1,0.4,1.7-0.4,2.1l-0.8-0.9c-1,0.6-1.8-1.4-0.5-2.5c0,0-9,2.5-8.5-0.3
          c2.1-0.9,2-5.8,1.2-6.3c0.3,1.1-0.1,1.9-1.2,2.2c0.4-2.2-0.7-3.3-2.8-2.8c0.2,1.1-0.1,2-0.9,2.7c-0.2-0.7-0.6-1.2-1.2-1.6
          c0,0.9,0.2,3.3,0.4,4.5l-0.6-1c-1.2,0.3-1.7,1-1.3,2l-6.9,5.9c0.7,0.3-6.8-5.1-8.8-5.3l-0.3-1.2c-0.8,0.8-1.8,1.1-2.9,0.8
          c0.5,2.4,1.5,6.9,0.3,5.2c-0.3,1.1-1.9,0.1-1.9,0.1c-3.3,1.5-5.6,7.7-7.3,8.5c-0.1-0.9,0.4-1.4,1.5-1.5c1.1-2.5,1.5-4.5,1.5-7.7
          c-2.4,2-8.8,4.1-12.4,5.8c1.2,1.3,1.2,2.3,0.2,2.7l0.6,1.7c-1.2-1.5-1.6-3.1-1.7-5c-1.5,1.3-5.6,7.2-6.4,7.7l0.7,0.8
          c-0.5,0.7-1.1,0.8-1.9,0.4c-0.4,0.5-3,0-3.6,2.3c-1.3-0.1,3,5.2,2.1,6.6c-0.5-0.6-2.6-3.3-3.7-3.1l0.4,0.7l-0.6,0.8
          c-0.5-0.9-1.1-1.2-2-0.9c0.9,0.6,1.2,1.4,1.1,2.4c-1.3,0.2-4.1-0.5-5.1-0.7c-0.6-0.7-1.5-1.9-2.2-0.8c1.1,1.2-3.4,6.3-3.4,6.3
          c1.7-1.2,0.9,2.1-1.1,3l0.9,1.1c-1.6-0.5-1.5,2.7-0.5,1.8c0.3,1.1-4.1,3.7-5.3,3.6c0,0-2.5,0.1-3.6-0.2l-0.3,0.7
          c0.9,0.4,0.4,2-0.5,2l0.8,1.1l-2.6-0.2l0.8,1.1c-0.8,0.1-1,0.6-0.8,1.3l0.8,0.2c-1,0.6-1.8,0.6-2.4-0.3c0,0.7-0.3,1.2-0.9,1.6
          c1.4,1.9,2.9,2.8,4.9,2.9c-0.9,0.1-6.1,2.1-5.1,2c0.2,1.2-2.1,2.1-2.8,3.7c0.5,0.6-0.6,1.7-0.8,1c-0.8,0.1-1.1,0.6-0.9,1.5
          c1.3,0.3,1.6,1.1,1,2.2c-1.3-1.9-2.1-2-2.6,0l0.4,0.2c-0.5,0.9-0.5,1.8,0,2.8c1-0.2-5.2,4.4-5.2,4.4c-2.4,0.2-4.4,4-5.7,4.1
          c0.3-0.8-1.6-1.1-2.3-1.5l0.2,1c-1,0.4-1.4,1.2-1,2.2c-2.2-0.6-5.6,5.3-7.6,5.8l0.3,0.7c0.8-0.7-3.9,2.6-3.9,2.6l1.9,0.4
          c0,0-5,0.1-6.5,1.5c0.5,0.4,1,0.5,1.6,0.2c0,0-5.2,2.4-5.2,0.8l-0.6-0.1c-0.2,2.5-2.5,2.1-2.5,2.1c-1.1-1-2-1.6-3.2-2.4
          c-0.5,1-0.9,1.6-1.8,2.4c0.5,1.8,1.7,2.3,3.6,1.3l-6.6,0c-1.5,0.1-1.4,0.1-3,0.3c1.7,1.1,1.8,4.7,1.2,5.2l-2,1.1
          c-0.7-0.2-4.5-2.1-4.5-2.1l0.4,1.7l-1.1,0.4c0.1-1.6-0.5-2.7-1.9-2.9c-0.2,1,0.3,1.9,1.2,2.6l-0.8,0.8c2.8,1.6,2.2,2.9-2.1,2.4
          l-0.2,0.6c0,0,1.8,3.9,0.1,3.2l-0.1,0.4c0.5,0.6,0.5,1.5-0.3,1.5c1.8,2.4-0.5,4.4-1.3,5c1,0.8,1.9,1.9,1.2,2.9c0,0-0.9,1.2-0.1,1.9
          c0,0,3.9,8,2.8,7.5l-0.7,1c1.4,0.3-2.3,1.9-2.3,1.9c-3.3,1.3-3.6,3.4-1.1,6.2l0.7-1.2c0.3,0.8,4.1,5.4,3.3,6c0.7,0.7-5.5,0-6.4,0.3
          c1.7,3.6,4.3,7,7.3,9.5l-0.8,0.2l0.9,1.3l1.2-0.3l-0.1-1.6c0.9-0.1,1.5,0.3,1.8,1.2l-0.7,0.5l1.1,2.3l0.9-0.7
          c5.3,0.2,8.7-0.9,9.5-4.8l1.8,1.8l2-1.3c0,0,1.2-1.2,0.9-2.2c4-1.5,3.5-4.1,4.7-2.5c-0.6,0.6,1.8,1.5,1.8,1.5
          c0-0.7-0.3-1.2-0.8-1.6l0.8-0.9c0.8,0.5,1.2,1.2,0.9,2c3.3-1.6,4-7.2,4.4-7.7c-1-1.5,0.1,6,4.5,8.2l-0.6,0.5
          c0.9,0.7,1.3,1.5,1.4,2.7c1.8-1.6,2.4-3.7,1.9-6.3c0.3,2.4-0.4,4.8-1.8,6.6c-0.1-1.1-0.5-2-1.4-2.7c-1.8,3.3-2.2,7.4-1.4,11.2
          l1.9-0.4c-0.9-0.8-1-1.6-0.3-2.5l0.7,0.2l-0.5,0.7c0.9,0.4,1.3,1.1,1.3,2c-1.7,1.6-2.8,3.4-3.6,5.7c2.2,4.9,4.2,9.8,5.9,14.9
          l1.9-0.6c0,3-1.7,4.3-4.1,4.5c2.3,2.4,2.8,5.2,1,8.3c4.8,2.5,8.9,2.9,9.6-1c0.6-2.3,2-3,4.1-2.1l1.1-2.4c2,0.8,4.7,2.4,6.7,3.9
          c3.1-3.1,5.4-6.6,7.1-10.6c-1.5-1.7,0.2-6.1,0.2-6.1l1.6-1l-1.5-1.4c1.3-0.7,2.5-1.5,3.9-1.8l-1.3-1.9c2-1.7,1-5.6-0.3-5.8
          c0.8-1,1.6-1.1,2.2-0.3c0.9-0.2,2.3-0.4,2.3-0.4c0.3-1.7,1.3-2.6,2.9-2.4c-0.3-0.8,0-1.4,0.8-1.8c0.6,0.7,0.5,1.4-0.2,2.2
          c6.1-2.8,5.7-4.6-1.1-5.2c-1-2-2.9-3.3-5.3-3.5l-0.4,0.7c-0.6-0.9-1.6-1.4-2.8-1.4l0.1-0.6c1-0.5,1.8-0.2,2.4,0.7l1.5-1.2
          c0.8,1.2,1.7,1,2.6-0.2c1,0.8,1.7,1.2,2.7,1.6l0.3-0.9c0.4,1,1.2,1.6,2.2,2l-0.4,1c3.3,1.2,6.2-0.6,8.3-4.4c-0.7-2.2-1.4-3.3-3-4.9
          l0.6-0.8c-1.7-1.9-2.4-3.2-3.2-5.3l-1.7,1.4l-0.5-1.6l-0.8,0.3l0.3-1.5c-1-0.7-1.8-1.7-2.2-3c1.5-0.6,1.8-1.6,0.9-3
          c0.8,0,1.1-0.4,1-1.2l-1.1-0.8c1.4-1.1,1.9-2.4,2-4.1l0.8,1.1c0.9-3.9,1-8.2,0.1-12.3c3.4,1.5,5.2,0.2,5.4-3
          c1.8,0.8,3.3,0.2,4.1-1.6l-1-0.5c0.3-1,1-1.6,2-2l0.5,1c1,0.2,1.5-0.4,1.5-1.6c0.8,0,1.1,0.4,1.1,1.3c1.2-1,2.1-2.3,2.7-4l1.2,0.3
          l-0.1,1.2l0.9,0.3c0.6-1.4,1.7-2,3.3-2.1c-0.5-1-0.4-2,0.3-2.9l0.6,1.2c3.7-3,6.2-5.2,9.8-8.3c-1.1,0.1-0.7-1.8-0.7-1.8
          c-0.6-1.2-0.7-3.1-0.7-3.1c1.9-2.7,0.8-7.7,0.8-7.7c0.6,0.2,1,0.7,1.1,1.3c0.7,0.1-0.4-1.9-0.4-1.9c1.6,0,8.4-3.5,8.4-3.5l4-0.1
          c0.8,1.3,1.9,1.4,3.2,0.2c0.6,1.6,1.8,2,3.3,1.2c2.6,1.9,5,3.8,7.5,6l-1.3,0.3c0.8,1.4,0.6,3-0.6,4l1.9,2.7
          c-0.7-0.7-1.5-0.9-2.3-0.6c1.4,0.8-9,4-12.5,10.1l-0.2-0.8l-0.7-0.1c0.5,1.1,0.3,2-0.4,2.8c-3,0-3.6,1.5-2,4
          c-1.1-0.2-1.9-0.8-2.2-1.8c-1.4,0.1-2.1,1.1-2,2.5l-1-0.7l-0.4,0.5c1,2.2-0.3,3.5-2.8,4.2c-0.5-1.3-1.4-2-2.8-1.7l0.1,1.5l-1.1,0.6
          c-1.1,2.3-1.6,3.8-1.9,6.2c-0.7,0.7-1,1.6-0.7,2.6l1.1-0.2c-0.8,3.1-0.6,6.2,0.8,9.4c-1.1,0.8-1.1,1.7,0,2.9l-1.3,0.2
          c-1.1,4.1-1.8,7.9-2.2,11.6c1.4-1,2.3-0.9,2.9,0.3l0.6-0.9c1.4,2.4,3.4,3.7,6.2,4.2l-0.9,1c1.1,0.4,2.1,0.2,3-0.7
          c0,1-0.5,1.7-1.5,2.1c1.7,2,1.9,3.9,0.6,5.7l0.5,0.4c0.3-1.5,1.1-2.3,2.4-2.4l0,1c3.9-0.3,7.8-1.4,11-3.2c1.9,1.6,5,0.9,4.2,1.3
          l0.8,0.5l1.3-1.7l0.7,0.4c0,0,0.7-0.3,1.8-0.1l1,0.8c1,0.2,1.4-0.2,1.4-1.2c0.8,0.1,1.1,0.6,1,1.4c2.4-0.7,4.5-0.4,6.8,0.8
          c0.6-0.6,0.5-1.1-0.1-1.6c1.4,0.2,2.3,0.8,3.3,2.1c0.5-2.3,3.6-2.8,5.5-2.5l-1.3,0.7c0.4,0.8,0.4,1.6,0,2.5l-1.4-1.8
          c1.8,3.3,4.7,6.3,8.1,8.3l-1.2,1c-2.3-1.7-4.2-1-6.1,1.2c0,0-2.9-0.4-2.6,0.8l-1.9-1.3l-0.8,0.1c0.2,1.7-0.1,3.1-0.9,4.6
          c-5.8-1.6-11.3-4.2-15.6-7.4l-0.3,1l-1-0.4c-0.3,0.6-0.1,1.2,0.6,1.6c-1.9,0.7-4,0.1-5.4-1.5l-0.7,1.5c-1.6-1-2.9-0.8-3.6,0.8
          c-4.3-0.8-6.2,1.6-6,6.5c1.2,0.3,1.7,0.4,3,0.6c-0.5,1-1.2,1.3-2.1,0.8c-0.6,2.9,0.6,5.5,3.1,6.8c0.1-1.3,0.8-2,2.2-2.2
          c0.1,2-0.5,4.2-1.6,6.1c3.3-1.6,6-1.2,8.3,0.9l0.6-1.3c0.8,0.6,1.2,1.4,1.3,2.4c-0.1-1-0.5-1.7-1.2-2.3l-0.6,1.3
          c-2.4-2.2-5.1-2.5-8.3-1c-4.1,12.6-7.7,10.8-10.7-0.8c-4,0.1-7.2,1.6-9,4.5l-0.7-0.4c-3.9,6.1-5.6,12-5.7,19.3
          c0.8,0.8,1.9,0.9,3.2,0.3c2.7,3,5.1,5.4,7.2,7.2c0.8,0.2,1.3,0.6,1.5,1.4c-1.4,0.8-1.9,2.1-1.5,3.9l1.6,0.2
          c-9.2-2.3-19.4-3.3-27.4-2.7c1.9-0.3,3.6-1.1,5.1-2.4c-4.8,2.5-8.7,2.6-8.6-2.9c1,0.1,1.8,0.5,2.4,1.3l0.2-0.5
          c-7.1-4.3-14.6-3.9-20.1,0.9c-5-1-9.3,0.3-12,4l0,0.8c-3.7-0.4-5.6-2.4-5.5-5.9c-2-0.5-3.8-2-4.8-3.9c-1.6,0-2.9,0.2-4.4,0.8
          l-0.4-0.7l1-0.7l0.2,0.3c0.7-0.6,1.5-0.9,2.5-0.8c-2.1-0.8-3.8-0.2-5.1,1.4c-2.4-0.8-4.1,0-4.9,2.2c-2.1-0.9-3.6-1.6-6-2.5
          c2.8-1.1,6.5-2.6,1.5-2c-1-0.7-1.7-1.6-2.1-2.8c-1,0.6-1.8,1-2.9,1.6c-0.3-1.3,0.1-4.2,0.6-5.2c-1.4-0.3-2.3-1.2-2.8-2.7l0.6-0.9
          c-0.2-0.9-0.4-3.1,0.3-4.2l-0.7-0.5c0.1-1.7,3.1-2.6,3.1-2.6l1.4-1c0.5,0.8,1.3,0.9,2.3,0.3c0.6-1.3,0.6-2.5,0-3.8
          c1.4-1.2,2.5-1,3.3,0.6c0.4-0.4,0.8-0.4,1.2,0.1c1.5-1,1.8-2.2,0.4-3.6c-2.3,0.3-3.8-0.8-4.7-3c1.1-4-1.6-4.6-5.6-3.7l1,2.1
          c0,0-1.3,1.8-2.2,2.1c-0.3-0.8,0-1.3,1-1.5c-0.3-2.3-1.1-2.3-2.5-0.4l0.5,1.2c0,0-3.3-1-4.5-1.5l-1.3,0.9c1.4,0.8,0.3,2-0.5,2.2
          c0.1,2.2,0.4,3.7,1.1,5.7c-1.9-0.1-3.2,0.7-3.8,2.6l0.7,0.9l1.5-0.4c1.5,1.2,1.9,2.7,1.3,4.5l-0.7,0.3l0.1,1.3l0,0
          c-0.7,1.4-0.3,2.4,1.3,2.8c-0.7,1.2-0.3,2.2,1,3.1c-1,0.3-3.1,1.3-3.1,1.3l1.5-0.3c-0.8,1.4-0.6,2.4,0.8,3.1
          c-1.8,2.8-5.8,4.3-4.7,9.6c-0.4-2.4-1.1-4.2-2.5-5.2c-0.4,0.9-0.3,1.8,0.1,2.7l-0.9,0.7c-3.3-5.5-5.6-7-5.4-1.1l0,1.6l-0.1-0.1l0,0
          c-6.2-4.4-13-4.7-20.1-1.6c0.1,1.6-0.6,2.5-2.3,2.7c-2.9,3.9-3.4,9.8-4.5,10.7c0.1,0.9,0.6,1.3,1.4,1.4l-0.1,0.8
          c-1.4-1.4-3.2-2.3-5.1-2.6c0.9,0.9,3.9,2.6,4.2,3.7c-1.7-1.1-3.7-0.4-2.5,0.8c1.3-0.7,1.2-0.6-0.1,0.1c-1.7-3.1-3.8-3.8-6.4-0.6
          l0.1,0.2c-1.2,0.8-2.8,0.9-3.8,0c-3,2.5-5.6,5.9-7.5,9.6c-5-1.1-15.1,3.6-18,2.3c0-0.9-0.4-1.6-1.1-2.1l0.7-1.2
          c-1.6-0.6-3.3-1.1-5.1-1.7c0.5,1,0.4,1.9-0.3,2.6c0,0,0.9,6.7,1.4,8.7c-2.4-0.5-5-1.2-6.9-2l-2,1.1c-0.9-4-3.2-5.1-6.5-3l-0.7-0.6
          l-1.1,0.7c-2.2-0.9-4.9-0.6-7.2,0.6l0.4,1.1c1.3-0.4,1.4,0.4,0.6,0.4l1,0.6c0.9,0.2,1.2,0.8,0.9,1.6c-0.8,0.1-0.8,3-1.4,3.8
          c3.6-0.6,10.4,3,11.2,3.7c-0.6,0.5,1.2,1,1.2,1s2.5,3.8,1.3,5.2c2.9,4.4,4.6,10,4.1,15.4c2.9,1.5-1.1,3-1,10.3
          c-1.6,5.5-5.2,9.9-10.3,11.5c-8.8-3.5-16.9-6.8-26.6-10.9c-3.6-0.3-11.9-3.7-14.2-2.8l-0.3-0.6l-3.2,1c-0.3,0.9-6.9,1.6-8.2,5.4
          l1.1-0.1l0.3,1.3l-0.9,2.1l0.7,2.5c0,0-1,1.1-1,2.2c1.8-0.4,1.7-0.3-0.1,0.1c-0.5,4.7-1,9.8-1.3,13.9c-4.2,5.3-7.8,10.8-10.8,16.9
          c1.6,0.2,3-0.2,4.4-1.3c-0.6,0.6-0.6,1.2-0.2,1.9c-2.6,0.1-3.5,1.1-2.5,3.2c1-1,2.2-1.1,3.4-0.3c-1.3,3.8-3.3,8.5-5.2,12.5l0.5,0.6
          c3.8,1.2,7.9,1.6,12.2,1.1c0.5-1.4,0.3-2.7-0.4-3.9c0.8,1.2,1,2.5,0.4,3.9c2.9,0.7,4.8,2.3,6,5.2c5.8,6.6,15.2,8.3,27.5,7.4
          c1.1-0.3,1.9-1,2.5-2c0.6,1.2,1.5,2.1,2.7,2.7c2.8-4.2,6.8-6,11.6-5.7c0.3-2.7,2-5.7,3.9-7.8c1.9,0.4,3.5,0,4.8-1.4
          c-1.7-2.8-2.6-5-3.2-8.2c3.5-3.3,6.6-6.1,10.2-9.1l0.8,0.5l-0.4,0.2l0.2,0.2c1.7-0.5,2.3-1.6,1.4-3.1c9,0.4,15.6-3.2,18.4-10.8
          l0.2,0.1c6.3-11.9,15.9-10.2,26.5-2c1.5-2.2,4.5-4.1,7.7-4.8l0-0.5c14.9-5.8,22.8,3.7,25.1,18.8c3.6,4.1,8.4,10.6,11.7,15.6
          c4.3,0.5,7.2,2.6,9.6,6l-0.3,1c3,0.3,4.1,1.7,2.5,4.3c6.8,4.2,8.8,10.8,5.1,17.5c1.4,3.9-3.9,3.2-2.3,8
          c9.3-11.1,8.3-21.1,19.7-20.5c-0.8,2.1,0,4,1.9,5.2c-1.8-5.3-10.8-21.5-12.1-23c-13.5-8.1-18.6-19.6-25.1-34.2c1-0.4,1.8-1.1,2.4-2
          c-0.5-5.5,3.7-6.6,9.3-5.5c0.2,0.5,0.9,1,1.5,1.3l-0.3,1.1l-1.4,0.1l-0.4,1.4c4.1-0.9,13.9-3.1,11.2,1.7c-3.6-2-7-2.5-11.1-1.6
          c-0.3,2.3,5.2,1.7,8.1,1.7c0.5,4.7,2.4,9,5.4,12.8c-1.8,3.6,3.9,9.3,12.4,15.1c-1.1,0.1-2-0.4-2.7-1.5c1.6,2.1,4.2,3.4,6.9,3.5
          c2.2,4.9,5,9.2,8.6,12.9c-4.9,11.4,2.9,20.5,1.1,21.1c0.2,2.9,1.7,6,3.9,8.2c0.1,2,1.1,5.4,2.2,7.1l1.7-1.3
          c2.3,1.9,4.7,2.8,8.2,3.2c0,0-4.9-0.6-8.3-0.8c-1.8,3.8-1.1,9,1.5,14.6c0.4-1.3,0.6-1.7,1.3-3c1.5,2.3,2.2,4.3,2.4,6.9
          c0-1.5,2.9-3.5,2.9-3.5c0,1.6,0.8,2.8,2.3,3.6c-0.4-3.1,0.3-9.2,0.9-8.2l-0.7,0.5l0.4,0.7c0.9-1.1,1.1-3.7-0.4-5.4
          c1.5,0,5.9,2.1,7.4,2.7c0-5.8-3.2-10.6-8.6-13.8c1.6,0.4,2.7-0.1,3-1.7l-1.5-0.7c0.9-0.3,2.7-0.8,3.2,0c-0.5,0.4-0.8,1-0.7,1.6
          c1.4-3,0-7.1-3-10.7c0.2-2.9,1.5-5.1,4.6-5.2l-0.1,1.6l-0.9-0.2c0.8,2.8,2.5,5.1,5,6.5c-1.3-0.9,1.4-1.3,2.3,0l0.8-0.9
          c-0.5-0.8-1.1-1.4-2-1.8l0.2-0.9c1.9-0.2,3.1,0.5,3.7,2l0.6-0.4c-1.7-1.6-2.6-2.7-4-4.5c4.5-0.9,7-1.5,10.9-2.4
          c2.2,1.9,5.4,3.2,8.6,3.4c-0.4,0.5-1,0.6-1.9,0.2c0.6,2.4,2.3,3.5,4.9,3.3c-0.8,0.6-1.7,0.8-2.7,0.5c-0.9,0.9-1.4,2-1.4,3.2
          c7.7-0.6,15-5.8,21.5-5.6c-4.4-2.9-3.7-6.6-6-9.6l-1.6-0.8c0.5-0.3,1.1,0,1.6,0.8c-0.6-2.5-1.8-4.7-3.1-6.2
          c6.6-4.1,10.2-9.8,11.1-17.9c1.1-0.4,1.8-1.2,2-2.4c3.8,1,6.3,0.2,5.7-3.4c1.4-1.3,1.9-3.1,1.7-5.1c2.2,2.5,4.1,0.4,5-2.6
          c2.5-2.5,4.9-4.1,8.5-5.5c0.7,0.4,0.8,0.9,0.5,1.4c1.4,0.5,2.4,0,3.2-1.3c0.7,2.2,2.3,3.1,4.7,2.5c-2.9,0.8-5.8,0.7-8.9-0.4
          c1.3,1.2,3.3,2.4,5.4,3c-0.3,0.5-0.8,0.8-1.4,0.9c3.2,1.9,6,3.2,9.7,4.4l0.8-1c0.5,1-5,4.6-7.2,7.1c0.8,1.1,1.6,1.2,2.5,0.2
          c4.2,1.7,5.6,4.4,2.3,8.1c7.6,0.9,19.1-0.6,24-3c0.7-0.3,1.3-0.7,1.7-1.4c-2.2-1.2-4.2-1.1-5.5,0.7c-1.1-1.7-2.4-1.8-3.8-0.4
          c-2.5-2.7-4.1-6-4.6-9.7l-0.8,0.3c0.7,3.3,2.2,6.5,4.4,9.2c-2.5-0.3-3.7-2-3.9-4.4l-1.1,0.6c0,0-0.5-1.4-1-1
          c-0.1-0.7-0.5-4.7,0.6-4.8c1.6-0.7,22.1-4,28.4-5.4c2.4-0.7,4.6-1,7.6-0.8c-0.5,2.9-6.1,5.4-5.3,5.3c-1.7,0.8-3.7,0.7-5.8-0.1
          c0,1.5,0.5,2.8,1.4,3.9l1-0.5c0,1,1.6,2.4,1.6,2.4c-0.8-0.2-1.5,0.1-1.9,0.8c-3.2,0.4-4.6,2.9-4.5,6.4c-0.6-0.7-1.3-0.8-1.9-0.4
          c-0.6-1-1.5-1.7-2.7-2c-0.3,0.7-0.3,1.3,0.1,2c-0.9,0.1-1.8,0.4-2.6,1c9.6,7.3,19.3,18.8,28.3,26c1.4,0.8,1.9,1.9,1.5,3.2
          c3.7,3.5,4.7,8.9,3.1,13.7l1,0.3c-0.4,1.1-0.1,1.7,0.9,2l-0.2,0.4c-0.6-0.9-1.1-1.5-1.7-2.4c-9,5.1-19.2,4.8-29-0.3
          c-2.4-1.4-7.4-3.6-9.4-4.1c-1-3.8-2.4-6.6-6.4-4.6c-0.4-0.6-0.8-0.6-1.4-0.1c-8.4-8.4-21.2-8.5-31.4-1c-7.9-3-19.6-8.1-12,1
          l-0.5,0.8c-2.6-1.1-5.3-0.9-7.5,0.7l0.4,0.9l1.6-0.1l0.4,1c-2.9-0.6-5.7-1.1-8.3-1.4c-5.7-3.8-11.4-2.7-14.7,4.7l0.3,1.1
          c2.1-0.2,4.2,0,6.3,0.6c-2.1,1.4-2.6,3.1-2.3,5.6l0.4,0.5l1.6-0.6c-0.4,1.4-1.7,2.3-3.5,2.4c0.4,0.6,1,0.9,1.7,0.9
          c-1,0.8-2.1,1.3-3.1,1.5c0.3-1.2,0-2.1-0.9-2.7c-1.2,2.1-1.3,4,0,5.7l0.4-0.6c3.2,1.4,5,3.3,2.6,6c0.8,0.6,1,1.3,0.6,2.1
          c1.4,0.1,2.2,1,2.5,2.6l-1,1.1l-1.2-0.6l-0.5,0.8c2,0.6,4.5,1,6.7,1.3c-2,1.3-4.5,1.9-6.5,1.7c1.5,0.5,3.3,0.7,5,0.5
          c-0.4,0.6-0.4,1.2,0.1,1.6c2.4-2.5,4.5-2,6.5,0.7c0.5-1,1.2-1.1,2.1-0.4c-0.1,0.7-0.4,1-1.1,1c1.5,4.6,5.1,5.9,9.7,4.3
          c0.6,1.1,1.3,1.3,2.3,0.7c0.4-1.6,0.6-2.9,0.8-4.5c8.3,5.8,15.5,9,25.1,10.9c6.5-2.9,10.8-4.7,17.7-2.4c-2,3.2-3.4,5.5-4.4,7.8
          c0.9,4.3,0.6,8.4-1.1,12.5l-1.1,0c-4.9,15.4-15.2,30.5-31.3,22.2c-0.5,1.4-0.5,2.6-0.2,4.1c-1.1-1.5-1.8-2.9-2.2-4.5l0.8-0.2
          c-1.6-1.2-4.5-2.4-6.4-2.7c0.8,0,1.2,0.4,1.2,1.1c-1.6-0.5-3.2-0.6-4.9-0.3c-0.4-0.3-0.5-0.6-0.3-1c1,0.2,1.9,0.2,2.9-0.1
          c-4.6-0.7-9.3,0.4-13,3c-4.2-2.4-9.3-4.5-13.5-5.7c-5.1-3.7-11.6-6.3-17.9-7.2c-3.3-4.1-9.2-8.1-15-10.5l0.7-0.1
          c-1.5-2.4-4.4-4.6-7.6-5.7l-1,0.5c-29.2-0.8-6.4,19.4-36.4,9.1c-18.3-6.3-20.1-24.4-42.3-28.6c-0.7,1.4-0.7,3.1,0,4.5
          c-0.5,1.1-1.3,1.9-2.4,2.3l2.3-2.2c-0.7-1.4-0.7-3.1,0-4.4c-2.1-1.5-3.3-3.2-3.8-5.3c-1.1,1.5-1.9,1.4-2.3-0.8
          c-6.4-5.1-2.7-8.7,5.2-11.1l-0.5-1c1-1.3,1.3-2.9,1.1-5c-3.3-4.7-1.8-8.9,1.8-12.9c-1.6,0.8-3.1,1.7-4.5,2.7
          c-0.5-1.3-1.3-2.9-1.9-4c0.8-1.9,0-2.7-2.1-2.5l-0.3,1c-2.2-2.1-5.5-1.5-8.3,0.8c-3.9-0.2-7.4-1.5-10.6-4c-0.8,2-2.4,2.3-4.5,0.9
          c0.2-2-0.7-2.8-2.8-2.3l-0.3,1c-1.2-0.4-2.1-0.1-2.7,1c-6.2-2.3-14-4.1-20.6-4.7c-22.9-1.2-46.4,13.2-62.4-5.3l-0.3-0.6
          c-7.7,9.5-22.1,19.5-36.5,22.6c-7.4,25.9-22.6,27.2-42.1,42.8c-4.1,0.1-7.7,1.4-10.8,3.6c-6,6.8-14.2,16.9-19.2,23.5
          c-6.2,3.4-9.9,8.9-11.1,16.2l2.2-1.6c-0.3,1.2-0.1,2,0.8,2.5l1.1-0.5l1.5,3.8c-1.1,1.3-1.8,3-2.1,5.1c-0.7-0.4-1.4-0.3-2.1,0.2
          c2.6,15-3.6,28.4-16.1,37c1.3,2.5,3,4.9,4.7,6.7l-0.4,1.6l-0.7,0l1.7,1.7l-1.3,0.5c-0.1,2.5,1.3,3.7,3.9,3.3
          c-2.2,1.5-3.9,0.9-4.7-1.9l-1.7,1c1,1.6,0.7,3.2-0.8,4.4l0.3,0.7c1.7-1,3.2-0.7,4.4,1c-1.4,0.9-2.7,0.7-3.9-0.4
          c0.6,0.7,0.5,1.5,0,2.2c0.7,1.5,2.2,2.3,4,2.4l-1.6,0.7c2.6,3,5.8,4.5,9.8,4.9c-1.5,0.8-3,0.6-4.7-0.5c0.7,0.7,1.4,1.4,2.1,2.1
          l-0.7,0.6l0.9,0.2l-2.3,1.6l3.4,0.4c-0.5,0.6-0.5,1.3-0.1,1.9c2,2,3.8,4.7,5.8,8.3l0.9-0.8l1.2,0.8c-1.6,1.5-1.2,2.6,1.1,3
          c2.2,2.5,2.9,5,1.4,7.8l1,0.9c-1,3.1-0.4,6.6,1.5,10.4l1.7-0.3c0,0.7-0.3,1.2-1,1.6c0.6,0.9,1.2,1.7,1.7,2.7l-0.7,0.9
          c3.1,2.2,6.1,4,9.4,5.5l-0.8,1c8.6,13.6,20.5,27.3,36.6,21c7.3,0.5,14.8,2.1,20.9,4.6l0.8-1.9l1.6,0c15.4,11.8,31.8-3.5,50,2.2
          c17.4,5.4,12.4,30.9,36.6,22.1l1.1,1.8l0.7-0.2c0.6,0.8,1.4,1,2.4,0.4l-0.1,5c1,0,1.7,0.5,1.9,1.5l2.5-0.5c0.3,4.6,0,10.4-0.6,14.6
          c-0.6,0.4-1.3,0.8-1.9,1.2c-0.8,2.2-3.1,5.1-5.6,7c1.8,0.8,2.2,2,1.1,3.7l-1.8-0.1c0.1,2.3,1.2,3.6,3.3,4c-2.2,1.1-3.7,0.8-4.3-1
          c-0.2,4.3-1.5,7.7-5.5,6.2c0.4,6,1.9,11.5,4.6,16.9l-0.7,0.3c8,10.3,14,22.6,16.4,32.2l-2.5,0.8c4.4,8.1,4.5,16.8-0.2,23.8
          c9.5,22.9-10.5,27.3-17.5,45c-10.1,25.5-2.3,40.5,1.8,67.8l-1.1,0.2c-0.3,7.7-0.5,15.2-0.7,22.8l-1.3,0.5c0.1,2.8,0.6,5.4,1.7,8
          c-1.6,5.9,0.4,13.5,5.1,19.2l0,0c0.9-0.5,1.9-0.6,3-0.4c-1-0.2-2-0.1-3,0.4c3.2,12.1,5.1,29.8,1.9,36.9c-0.1,5.1-0.3,11.2-0.5,16.7
          c0.3-2.2,1.5-2.7,3.6-1.6c0.5,1.2,0.3,1.9-0.7,2.1c2.1-0.1,3.4,0.7,2.9,3.2c1.6,0.7,4.2,1.8,6,2.7c5.3-1.7,11.5-1.9,17.3-0.9
          c2.6-0.9,7.2-0.6,9.4,0.2c3.5,1.2,7.7,2.7,10.9,4l-0.2-1.1c2.1-0.6,4.5-0.1,6.8,1.3c0.5-0.6,0.2-1.2-0.8-1.6
          c4.1-0.7,8.5-0.9,13.3-0.7l0.1-0.5c4-0.7,8.3-2.6,11.3-5c18.6-8.9,37.5-23.6,48.5-40.7l-0.5-0.3c0.8-0.3,1.2-0.7,1.3-1.4
          c-6.4,0.6-6.9,0,0-0.2c0.9-1.6,1.7-3.3,2.3-5.2c-0.7-0.2-1.1,0.2-1.2,1.2l-1.1-0.6c0,0,19.9-10.2,27.2-15.6l-1.3,0.4l0-1.4l0.4,0.1
          c0.9-2.1,1.8-3.8,3.2-5.9c0.2-1.6,0.8-3.6,1.7-5.3l-0.4,0l0.3-1.7c-1,0.8-1.6,1.8-1.6,3.1l-0.6-0.1c1.4-4.2,1.5-8.7,0-12.5
          c2.1-1.1,1.9-3-0.2-5.2c1.6-1.7,2.2-3.7,1.8-5.9c1-0.2,1.7,0.3,2.1,1.3c3.7-2.1,6.7-3.2,11.3-4.5l0.1-1.1c3.3-1,6.1-3,7.9-5.7
          l0.3,1.4c1.7-0.3,3.2-1.5,3.7-3.1c1.7,0.2,5.2-0.6,7-1.7c2.9,0.9,6,0.1,8.1-1.9c2.9,0.2,5.8-0.9,6.9-3.1c2-1.2,4.7-3,6.8-4.4
          c0.1-1.1,0.6-1.9,1.5-2.4c-0.5-0.4-1-0.5-1.4-0.1l-0.2-0.5c0.7-0.9,1.4-1.1,2.3-0.6c0.5-0.5,0.6-1,0.1-1.5c3-2.3,2.7-4.5,0.3-6.2
          l1.2,0.1c1-1.5,1.1-2.9,0.4-4.3l0.3,0c1.6-4.2,2.7-7.7,3.7-11.5c-0.9-3.6,0-6.7,2.7-9.1l-0.3-0.4c0.6-0.8,1.1-1.7,1.3-2.6
          c-3.6-3.1-5.7-7-6.3-11.9l1-1.1c-0.7-1.1-1-2.3-1-3.6l0.5,0c-0.4-5,1-10,3.7-12.7c1.1-1,1.2-2.3,0.2-3.9c-4.5-5.3-3-11.2,1.6-16.8
          c4.9-1.5,9.4-5.5,12.2-10.5c1.4-3.1,5.1-4.6,9.6-4.7l-0.3-0.8c27.7-22.9,62.5-31.8,85-62c3.3-4.8,11.6-14.8,15-18.2l0.6-0.1
          c0.1-0.7-0.1-1.1-0.7-1.3l0,0.4l-1.1-0.1c0.3-2.4,1-4.2,2.5-6.1c-1.6-1.4-0.6-3.4,1.6-5.1c-1.5-0.4-2.8-1.3-3.9-2.4l0,0.4
          c-0.7-0.4-1.3-0.3-1.8,0.5l0.2,0.2l-0.9,1l-0.3-0.3c-1.5,0.6-3.3,1.2-4.5,1.4c-21.9-1-45.9,3.8-58-14.7c2.3,0,4.4-0.6,6.6-1.9
          c-0.2-1.2,0-2.3,0.6-3.2c-1.1-1.1-1.8-2.3-2.3-3.7l-0.7,0.4c-1.5-0.5-2.2-1.4-1.6-2.9c-1.5-2-2.3-4-2.7-6.6l-0.1,0.4
          c-3.1-4.4-6.5-9.1-9.6-13.5c-1.2-0.3-2.3-0.3-3.6,0c-0.8-1-1.3-2.1-1.6-3.4l0.7-0.5l-1-2.3c-0.9,0-1.3,0.5-1.1,1.7l0.4,0l-0.4,2.2
          c-0.6-1.4-1.7-3.9-2.4-5.6c0.6-6.7-0.8-14.8-3.5-20.8c0.2-1.7-1-2.6-2.9-2.8c-4.4-7.1-5.7-16.2-3.8-25.4c0.3,0.4,0.5,0.9,0.5,1.4
          l0.4,0.1c-1.2-2.9-1.5-6.1-0.6-8.9c-2.2-2.2-3.9-4.7-5-7.3c-5.2-1.7-5.9-6.2-4-11.4c0.6,1,1.5,1.4,2.8,1.3
          c-1.1-1.3-1.9-2.6-2.7-4.2l-0.2,0.5c-7.1-17.6-10.4-36.5-14.9-53.2c0,0.6,0.3,0.8,0.9,0.7c1.7,7.6,4.9,14.3,10,20.5
          c1.8-1.3,2.9-3.1,2.4-5.2c1.5-3.4,3.5-6.7,5.9-9.6c-1.6,3.9-3.1,8.1-4.1,12l1.2-0.2l0.3,0.6c1.1-0.9,2-0.6,2.7,0.9l-0.5,0.2
          c2.9,6.4,5.6,12.5,8.1,18.3c1.9,6.2,3.5,12.1,4.7,17.8l1.5-0.9c2.7,2.2,4.8,5.1,5.9,8c1.7,4.7,1.9,9.7,0.1,14
          c0.7,9,4.3,16.6,10.2,22.2l1.9,0.8l-0.5,1.1c0.6,6.9,3.2,13.3,7.9,18.7c2.3,4.9,3,10.6,2,16.9l-0.9-0.2l-0.2,0.8l-1.2-0.6
          c-0.2,1,0.2,1.5,1.1,1.5c1,5.3,1.3,12.4,0.8,16.5c0.9,2.7,1.5,5.1,1.9,8c0.9,0.4,1.6,0.3,2.2-0.4c2.8,0.3,5.3,0.8,7.5,1.5
          c9.7-3.6,20.3-5.1,30.5-4.7c9.2-2.7,21.9-5,32.9-6.1c-0.3-0.6-0.2-1,0.2-1.4c0.5-4.3,3.8-6.1,8.6-5.4l-0.5-0.9
          c5.4,0.5,12-0.4,16.3-2.3l0.4,0l0.3-0.9l-0.7-0.6c1.4-3.6,4.5-3.9,8.1-1.9c3.9-5.4,8.7-7.7,15-6.8c-0.9-1-1.2-2.3-0.9-3.8l0.5,0
          c0.1-0.9-0.1-1.5-0.8-1.7c0.6-2.2,2-4,3.9-4.8l-0.3-1.1c0.7-1.2,1.9-2,3.2-1.5c-0.5,0.4-0.8,0.9-0.9,1.5c0.4,0.5,0.9,0.8,1.6,0.9
          c24.5-16.7-2.8-29.6-10.8-44.5l1,0.1c0.2-1,0.3-2,0.3-3.1c-1.3-1-0.6-3.2,0.5-5.1c0.6-0.5,0.7-0.9,0.2-1.4c0.2-0.2,0.5-0.2,0.7,0
          l-0.3-0.7c-0.4,0.1-0.8,0-1.2-0.2c-0.1,1.1-0.5,1.9-1.3,2.5l-0.3-0.6c-0.3,0.4-0.5,0.9-0.6,1.4l0.9,0.5l-0.4,2.8l0,0l0.4-2.8
          l-0.9-0.5c-4.1,3.3-8.2,6.3-13.2,9.6c0.6,0.2,0.9,0.7,0.8,1.4l-2.5,1.6l-0.5-1.2c-0.5,0.4-1.1,0.5-1.8,0.1l-0.2,1.3
          c-6.1-1-12.2-1.5-18.9-1.6l0.3-3.6l-0.8,0.6c-0.4-0.1-0.6-0.3-0.6-0.5l-0.5,0.1c-0.7-1.2-0.5-2.2,0.7-2.9c-0.9,0.3-1.4,0-1.4-0.6
          c0,0,2.9-4.2,1.3-5.6l0.6-2.6c1.5-1.5,1.7-2.7,0.3-3.2c0.1-1.2-2.1-1.5-2.6-1.8c-0.6,0.7-0.8,1.2-0.8,2.3l-0.5,2.4
          c-0.2-0.4-0.5-0.6-1-0.5c-0.1,2.4-4.1-1.9-5.9-6l0.8,0.4c-0.7-4.3-3.8-13.8-3.8-13.8c-3.8-2.6-5.8-6.6-5.8-11.3l-0.6,0.2
          c-0.3-0.7-0.7-1.4-1.1-2.1c0.2-0.1,0.4-0.1,0.6,0c-0.5-1.3-0.7-2.4-0.7-3.9l-0.5,0.7l-2.6-2.7l4.7,0.2c-0.7-3.1,0.3-5.4,3.2-6.1
          c1.8,3.1,2.6,2.8,2.1-0.8c0.8,0.6,1.8,0.6,2.5,0.1c-0.3,0.5-0.7,1.1-0.9,1.7c0.6,1.1,1.4,1.4,2.4,1c4.5,1.5,8,6.3,9.6,12.4l0.5,1.6
          c-0.5,0-0.8-0.2-1.1-0.6l-0.4,0.3c0.3,1.3,0.9,1.8,1.9,1.4c1.5,7,5.9,11.2,12.3,13.4l-1.1,0.6c2.7,2.9,5.2,5.5,8,8.4
          c3.3-0.6,6.1,0.8,8,3.8c2.4-0.9,5.5-2.5,7.2-3.8l0,0.7c2.7-0.9,5.5-0.9,8.3,0l-0.1,0.5l0.8,0.1c0.9,4.4,1.8,9.2,2.6,13.3
          c2.9-0.1,5.4,0.8,7.2,2.7c4.1,1.3,15,4.4,18.6,5.2l1,0.1c1.8,3.3,4.7,4.4,7.9,3.5l-0.3,1.1c1.4,0,3.3-0.1,5-0.1l-0.1,0.7
          c2.5-0.5,5.1-0.3,7.7,0.6c0.1-0.7,0.5-1.2,1.2-1.5c0.5,1.1,1.3,1.6,2.4,1.6l0.3-0.6c3.5,2.4,7.7,3.1,12.5,2.4l0.4-0.5
          c4.9,0.1,8.3,1.8,8.4,6.7l-0.4,0.1l-0.1,0.6c1.3,0.5,2.5,0.5,3.8-0.2c0.9,2.7,1,6.2,0,8.5c0.3,0.3,0.7,0.4,1.1,0.5l0.2,1.8
          c2.4-0.1,4.5,0.8,6.2,2.6l-0.4,0.9l1.4-0.5l-0.1,0.3c1.5-0.9,3.1-1.2,4.8-0.8c-2.2,0.3-3.8,1.7-4.4,3.8c4,6.1,9.5,8.2,14.7,5.1
          c0.5,0.5,1.2,0.8,2,0.8l-0.9,1.4l-0.4-0.2c-2.1,1.7-4.6,3.1-7.2,4.2c-1.1-0.7-2.2-0.9-3.5-0.7l0.4-1.7l-1,0.1
          c-3.4,0.6-0.4,3.8,2.8,6.4c10,14.9,18.6,13.5,23.4-2.3l0.3,1.4c1.6,0.6,2.9,0.7,4.4,0.3c-3.4,0.6-4.9,2.5-4.6,6.1
          c1.5,0.1,2.8,0.5,4.2,1c-1.4-0.1-2.7,0.3-4,1.2c0.4,4.6,0.5,9.8,0.2,13.3l-1.6,0.4c-0.1,3.5,0.5,7.1,1.6,10.3l-1.1,0
          c-0.8,1.8-0.4,3.5,1.2,5.1l-1.7-0.3c0.7,10.2,2.5,20.2,5.6,29.4c-0.1,1.4,0.6,2.9,1.7,3.8c0.3,12.2,2.8,23.2,7.5,34.2l0.6,0.2
          c-1.1,13.9,1.6,23.6,12.6,20.4c2.9-3.3,7-3.9,10.4-1.7c-2.9-2.4-3.2-4.8,1.1-7c0.9-2.1,2.9-2.4,5.4-1.6c0.9-9.2,3.3-16.8,7.7-24.7
          l-1.8-1.1c0.8-21.4,29-31.6,48.8-43.1l-0.6-0.5c-0.5,0.6-1.1,0.8-1.9,0.7l0.8-2c2-1,3.4-0.9,3.5,1.4c3.5-0.9,5.5-1.8,8.4-3.7
          l-0.1-1l0.9,0.1c0.4-1.4,1.3-2.2,2.8-2.5l-0.4-0.4c1-5.5,5.1-8.8,10.7-10.5c-0.5-0.6-1-1.2-1.3-1.8c1.7,1.5,2.5,3.3,2.9,5.5
          c0.6,0.1,1.3,0,1.9-0.4l0.1,0.4c0.2-0.5,0.5-1,0.8-1.5c-0.1,1.4,0.2,2.6,1.1,3.5l0.2-0.8l0.9,1.6c1.4-0.8,1.6-1.8,0.7-3.2l0.4-0.1
          l0,0l0.6-0.1c-0.2,1.4,0.2,2.4,1.4,2.7c0.7-1.6,1.5-1.5,2.3,0c1.4-0.7,1.6-2,0.8-3.7l0.5,0c0.7-1.1,1.1-2.2,1.1-3.3
          c-0.3,1.8-0.4,3.6-0.4,5.5c0.6-1.1,1.4-1.6,2.6-1.7c-0.9,0.7-1.3,1-2.3,1.9l1,1.1c3.4-1.7,4.8-3.9,2.4-7c2.5-0.6,2.6-2.9,1.8-5.7
          c0.6,4,3.2,6.3,7.1,6.5l0.1-0.5c1.9,2.7,2.7,6.5,1.7,9.8l0.5,0.5c-0.9,0.9-1.2,1.8-0.7,2.8c0.7-0.2,1.2-0.6,1.5-1.3
          c-0.8,2.7-0.4,5.6,1.1,8.5l0.3,0c-0.2-2.4,0.7-4.3,2.8-5.6l0,0c-1.3,0.7-2.1,1.8-2.2,3.2l0.1,0c0,3.1,1.1,5.6,3.4,7.9
          c-0.5-0.7-0.6-1.5-0.3-2.2c0.5,1.2,1.3,1.7,2.6,1.5c-1.1,0.2-1.7,0.8-1.5,1.8l1.5,0.1l0.4-1c2.3,2,4.1,4.6,5,7.7
          c-0.9,0.4-1.5,0.1-1.7-1l-1.4,0.4c0.3,0.7,0.8,1.2,1.3,1.7l-0.6,0.5c-0.8-1.3-1.5-2-2.8-2.6c0.5,3,2.1,5.4,4.8,6.9
          c0.4-1.5,0.4-2.9-0.1-4.3c1.4,2.6,2.6,6.1,3.3,9.3l-0.5,0.2c0.5,2.8,1.1,6.1,1.7,9.2c-3.3,2.5-5.3,6.9-5.3,11.3
          c2-1.4,3.6-2.9,5-4.8c-1.3,2.4-2.3,3.9-3.7,6.2l0.9,0.1c0.3-1.3,1.3-1.9,2.9-1.7l0.6,1.3c0.7,0.2,1.1,0,1.2-0.7l0,0.4
          c2.6,0.7,5.2-0.1,7-2.3c1,1.2,2.3,1.3,3.7,0.3l-1.2-0.6c0.4-0.6,0.3-1.2-0.1-1.9c1.1,2,2.6,2.5,4.8,0.8c0.6-1.9,1-3.5,1.3-5.4
          l-0.7-1.2c1.2,0.4,1.5,1.1,1.1,2.1l0.7,0.2c0.8,2.4,1.3,4.8,1.4,7.3c1.3,0.6,2.4,0.4,3.2-0.7c-0.7,1.5-0.8,2.9-0.5,4.5l-0.7,0.1
          c0.7,2.7,0.8,5.3,0.1,8.4l0.5,0.2c-1.2,2-0.8,3.4,1.1,4.3c-0.7,2.7-1,6.6-0.9,10c1.1-0.3,1.6-1.2,1.4-2.7c1,6.3,1.7,12,2.1,17.8
          l-1.2,0.6c0.1,3.7-1.5,7-4.1,8.4c-0.1,2.2-0.1,4.4,0,6.7c0.2-1.4,0.8-2.7,1.8-3.7c-0.5,0.9-0.8,1.7-1.1,2.8l0.9,0.3
          c-1.3,1.9-1.1,1.5-2.6,3.4l0.9,0.4l-0.9,1.1l-0.8-0.4c0.5,2.2-0.1,3.3-1.7,3.3c-1.2,2.7-1.2,5.4,0.5,7.2l0.3-1.5l1.7-0.4
          c0.2,1,0.3,1.6,0.3,2.8c1.8,0.3,2.4,1.5,1.7,3.6c1.7,0.6,2.5,2.2,2.2,4c1.3,0.8,1.8,1.3,2.6,2.3c2.1,7.1,3.2,18.4,2.6,26.6
          c0.7,2.4,2.7,6.4,4.7,9.2c1,6.4,6.8,13.8,14.9,19.1l0.6-0.4l0.4,1c1.2,0.1,1.8-0.2,1.8-1l-0.7-0.3c0.9-0.2,1-0.8,0.5-1.6
          c0.1,1.3,0.6,2.2,1.8,2.9c0.5-2,0.2-4.2-0.9-5.9c-0.6-12.5-2.3-24.5-6.8-37.7c-0.9,0.4-1.6,0.6-2.6,0.5c-0.5-3.4-2.6-6.3-5.9-7
          c-1.9-1.9-3.3-4.2-3.6-6.6l-0.5,1.1l-2.1-1.4c0.1-1,0.8-1.6,1.9-1.6l0.3,0.6c0.9-2.8,0.8-5.9-0.3-8.9c-0.2,0.5-0.4,1-0.4,1.5
          l-0.9-0.1c0.2-1.2-0.2-2-1.2-2.4c0.9-2.5,0.4-4.7-1.8-6.1c-0.6,0.8-1.3,1.2-2.2,1.4c-0.5-2.6-0.2-6.2,0.9-8.9
          c-0.1-0.5-0.4-0.8-0.9-0.8c3.7-5.4,7.2-12.2,9.3-17.8c1.7-2.1,2.3-4.3,0.9-6.2c0.4-0.4,0.6-0.8,0.7-1.3c0.6,0.7,1.3,0.7,1.9,0
          c4.3,0.1,6,2.2,4.7,6.6c-0.7,0.3-1.1,0.9-1.3,1.6c2.2,0.2,4.2,0.9,6.1,2.1c0.3-0.2,0.3-0.4,0.1-0.7c2.1-0.5,3.7,1.1,4.6,3.3
          l-0.2,0.7c0.9,0.4,1.7,1.3,2.1,2.4l0.3,0l0.3-1.1l0.6,0.2l-0.1,0.2c0.8,2.5,1.4,4.7,1.9,7.4l0.7-0.1c0.2,1.6,0.3,3.1,0.3,4.8
          c0.7,0.4,1.4,0.5,2.2,0.5c0.1-1.3,0.9-2,2.2-2.2c0.4,1.7,0,3.1-1.5,4.1c0.3,0.5,0.4,1,0.4,1.5c1.1,0.3,2-0.1,2.6-1.1
          c0.6,1,1.7,1.6,2.7,1.5l1.2,1.4c2.3-0.9,3.5-1.7,5-3.5c2.7,0.4,5.3,1.1,7.5,2.3c-2.4-1-4.9-1.7-7.6-2.2c-1.5,1.7-2.7,2.6-5,3.5
          c0.4,0.6,0.3,1.4-0.3,2c2.2,1,4.5,1.5,7,1.4c-3.5,1.2-5.5,3.5-5.9,7l0.4,0.2c-0.8,0.5-1.1,1.4-1,2.6c0.5,0.8,1.1,1.1,1.8,0.7
          c-1.1,0.8-2.5,1.3-3.9,1.6c1.8,1,3.6,1,5.6-0.1l0-0.4c1.5-0.2,2.3-1.4,2.7-2.9c1.9,0.1,4-0.5,5.6-1.6c-0.2-0.7-0.3-1.3-0.3-2.2
          c0.9,0.2,1.5,0.7,2,1.5c1.4-0.9,1.5-2,0-3.3c0.5,1.6,1.4,2,2.7,1.3c-0.6-0.9-0.5-1.5,0.3-2l-1.9-1.5c1.8,0.7,2.2,0.3,1.1-1.2
          l1.3,0.6c0.4-0.3,0.7-0.7,0.9-1.2c1.2,3.9,5.8,3.4,10.5,1.3c3.1-2.2,6.5-4.7,9.6-6.8c0.3-1.4,0.3-2.3-0.2-3.9
          c2.3-1.4,3.3-3.1,3.3-5.1c0.4,0.4,0.5,0.8,0.3,1.3l0.3,0.1c0-6.8-0.4-13.5-1.4-20.5c0.4-1.7,0-3.8-0.7-5.4l-0.5-0.1
          c-7.6-10.9-14.7-21.9-21.1-32.1c2.2,0,2.2-1,0.4-2.6c1.9-1.3,3-3.1,1.5-4.6c0.7-1.5,1.7-3,2.9-4.1c3.1,0.2,4.6-1.9,4.4-5.7
          c0.7-0.4,1.1-1,1.1-1.8c0.5,0.2,0.8,0.6,0.8,1.2c1.1-0.7,2.3-0.9,3.4,0c0.3-0.5,0.7-0.8,1.3-0.9c1.1-0.6,5.4-2.6,6.9-3.3l0.1,0.1
          l-0.8-0.7c0.2,0,0.4,0.1,0.6,0.3l0-0.1c1.1,0.4,2.1,0.5,3.4,0.4c0.1-0.8,0.3-1.6,0.8-2.3c1.2,3.9,3.7,5.8,6.9,4.4
          c1.2,0.8,2,1.5,2.8,2.3l-1.2-0.1c-2,3.3-1.8,6.3-0.2,9.8c0.5-0.2,1-0.6,1.2-1.1l1.6,0.7l0,0.5c1.1,0.5,2,0.1,2.6-1.2
          c0-0.6-0.2-1-0.8-1c0.2-1.2-0.2-2.1-1.3-2.4c0.4-1.7,1-3,1.9-4.7c0.4,0.1,0.8,0,1.1-0.4c0,0.6,0.2,1,0.7,1.2
          c-0.3,0.1-0.4,0.3-0.3,0.6l0.7,0.3l-0.4,0.3c1.4,0,2.8-0.5,3.8-1.5c1.4,0.9,3,0.9,4.6,0l-0.4-1.2c4,1.8,7.7,1.1,10.6-2.3
          c0.2,0.4,0.5,0.8,0.8,1.2c1-0.8,2-1.4,3.2-1.8c0.2-1.9,0.3-3.7,0.3-5.5c1.3,2.2,3,4.1,4.7,5.2c-0.5,0.8-1.2,1.2-2.1,1.3l0.1,0.7
          c2.9-1,3.6-1.5,6-2.9c0.6,1,1.4,1.3,2.4,1l0.3-1c0.9,0.3,1.5,0.1,1.8-0.7c0.3,1,0.7,1.8,1.3,2.6c0.9-0.2,1.4-0.8,1.4-1.8l0.8,0.2
          l0,0.5l1.3,0.3l0.4-0.7c1.5,0.3,2.7-0.1,3.9-1.1l0,0.9l0.7-0.6c0.7,0.6,1.4,0.6,2.2,0.1c0.5-1.5,0.9-3.3,1-5.2l0.7,0.4
          c0.6-1,1.5-1.2,2.8-0.6l0,0.7l1.5,0.3l0.8-1.8l0.8,0.2l0.5-1.2l0.7,0.1l0,0.7c0.7-0.2,1.3-0.7,1.8-1.4l0.7,1.2l0.6-1.5
          c0.9,0.4,1.5,0,1.8-1c-1.8-0.2-3.1-0.8-4.1-2.4c1.8,1,3.2,0.7,4.2-0.9l0.5,0.7l1-0.6l1.9,1.8l1-1.5c-1.4-0.5-1.9-1.3-1.1-2.5
          l1.3,1.5l1.1-0.9c0-0.6-0.4-0.8-1.2-0.7c0.4-1,0.2-1.8-0.6-2.3l1.2,0c0.7,0.8,0.9,1.1,1.6,1.9c-0.2-1.5-0.3-2.3-0.4-3.8
          c0.7,0.4,1.3,0.2,1.6-0.6c1,0.6,1.2,1.4,0.7,2.4c1,0,1.5,0.5,1.4,1.7c0.8-1.5,0.7-2.8-0.6-3.3l-0.1-1c1,0.3,1.5-0.1,1.5-1.1
          l-1.2-0.7l2.1-1.1c-0.6-1.3-1.5-1.6-2.7-0.8c1-1.7,3-2.6,5.3-2.5l-0.7-1.1l-1.1,0.7l-1.5-2.1l1.6,0.4c-0.1-1.3-0.7-2-2-2.1l1-0.5
          l-0.5-1l0.9,0.5l0.6-1.2c0.4,0.2,0.8,0.3,1.3,0.3l-0.4,1.5c1.7,0.2,3.1-0.8,3.7-2.4l1.8,0.5c-0.1-1.2-0.8-1.9-1.9-1.9l0.6-1.3
          l0.8,1.4c1.3-0.4,1.9-1,2.4-2.2c-0.7-1.2-0.4-2.1,0.9-2.5c0-1.4-0.4-2.3-1.5-3.1c2.6,1.4,4.6,0.2,6.2-1.8c-0.2,0.7-0.1,1.4,0.3,1.9
          c0.1-1.2,0.7-1.9,1.9-1.9c-0.5-1.4-1.3-2.2-2.6-2.9c1.1-0.1,1.7-0.2,2.9-0.6c-0.3-0.7-0.8-1.3-1.4-1.6c0.6-0.8,1.2-1,1.8-0.5
          c0.4-1.6-0.8-2.3-3-2.1c1.7-0.7,3.2-1.4,4.6-2c0.7,0.2,1,0.7,0.8,1.3l1.2-0.5c0.2-1.5,0-3-0.6-4.2l-1.2,0.7
          c0.3,0.4,0.3,0.7,0.1,1.2c-1.7-0.3-3.3-0.2-5,0.1l0.3-1.4c2.5,0.5,4.6-0.3,6.5-2.4c-0.8-0.4-1.5-1.1-2.2-1.9l-0.6,0.6
          c-4.1-3.2-4.9-3.8-8.8-6.3c-1.9-0.2-3.5,0.5-4.4,2.2c4.8-2.6,8.7-4,14.9-5.2c-5.3-12.4-14.3-18.1-25.6-15.3c1.8-2.8,4-3.7,6.6-3.2
          c0.9,1,2,1.2,3.4,0.4c2.8,3.3,5.5,5.2,10.3,7.6c2.4-0.5,4.5-0.2,6.5,0.7c-4.4-7-7.8-13.2-11.1-20.2l1.2-1.7c-0.6-4.3-3-7.5-6.9-8.4
          c-0.2-1.9-1.9-3.4-4-4c0.9-3.7,1.8-7,2.7-10.5c1.4,1,2.7,0.3,3.7-1.6l0.7,0.6l1.8-1.3c-0.9-0.6-1.5-1.3-1.8-2.3
          c1.1-1.3,2.4-1.5,3.9-0.5l0.4-1.6l2,0.1c0.4-1.3-0.1-2.2-1.5-2.8c1.4-0.3,2.4,0.1,2.9,1.4l0.6-0.9c2.4,0.4,4.6-0.3,6.3-2.1l0.4,1.1
          l0.9-0.7c-0.2,1.2,0.4,2,1.6,2.6c1.6-0.1,2.4-0.7,2.5-1.9l-1.2-0.5l0.2-1.7c0.6-0.4,1.3-0.4,2-0.1c-1.5-2.1-1.2-3.3,1.2-3.2
          c-1.5-0.8-3.2-1.2-5-1.2l0.2-0.6c-4.9,0.9-8.8-0.9-11-5.2c-1.9,1-3.9,1.1-5.8,0.5c0.8,2.3-0.7,3.2-3.4,3.1c-3.8,5.4-6.2,2.1-7.2-6
          c-1-0.5-2.1-0.6-3.1-0.2l0.1-0.8c-0.8-0.4-1.3-0.2-1.8,0.6l-0.4-1l-0.2,0.7c-2.2-3.6-3.7-6.8-4.8-10.7c1.1-1.6,2.3-3.4,3.4-5
          c3.4,2.7,6.7,3.5,8.1,0.3l1.1,0.3c0.5-1,0.4-1.8-0.2-2.5c2.5-4,5.7-6.2,9.9-7.1c1.4-5.5,4.6-8.1,9.4-6.6l0.9-1.4
          c1.7,2.4,3.6,5.4,4.8,7.7c-2,0.9-3.7,2.8-4.4,5l-1.5-0.3c0.1,3.3,0.1,5.2-0.1,7.8c1.4,0,2.8-0.4,4-1.2c-0.6,1.1-1.5,1.8-2.7,1.9
          c-0.2,0.7,0.1,1.1,0.9,1.2c-1.8,0.7-4,1.5-6.1,2.3c1,0.5,1.4,1.4,1,2.4c3.5-0.4,6.4-2.3,7.3-5c2.2-1.4,5-2.4,7.3-2.6l0.7-1.5
          c1.5,0.7,2.9,0.5,4.2-0.6c2,1.7,4.2,1.3,6.2-1l0.2,1.6c0.1,0.1,0.2,0.1,0.3,0c-0.1,0.2,0,0.4,0.1,0.6l0.4-0.1l0.1,3
          c1.1-0.1,1.7-0.6,1.7-1.7c1.8,2.6,4,3.2,6.7,1.9c-0.2,1-0.9,1.6-1.9,1.7c-2.8,4.3-4.7,9,2.4,9.2c-4.1,0.6-6.5,3-7.2,7.5
          c1.4-0.2,2.5,0,3.8,0.8c-1.9,0.7-2.3,1.8-1.5,3.1l1.9-0.9l0.8,0.9c1.6-0.5,2.1-1.3,1.6-2.4l1-0.4c0.5,0.8,1,1.7,1.5,2.6
          c1.2-0.9,2.5-0.9,3.9-0.1l-1.3,0.3c1.5,2.4,3.4,5.1,4.9,7.1l-0.7,0.7c0.6,1.1,1,2.2,1.1,3.3c-1.5-0.3-2.4-1.1-2.8-2.3l-0.8,1.2
          l-1.1-0.6l-2.1,1.9c1,1.9,2.4,2.7,4.1,2.3c-0.1,2,0.1,4.3,0.5,5.9l0.7-0.4l0.8,2.9c-2.9,1.7-3.9,4.3-3.4,8l-1-0.2
          c-0.5,2.7,0.2,4.2,2.2,4.5c0.3,1.6,0.3,2.4,0.1,3.8c1.4-0.2,2-1.1,1.9-2.6l0.5,1.1c1.9-2,4.5-3.3,7.1-3.6l0.1,0.9
          c1.5-1.6,2.4-1.3,2.6,0.9l1.6-0.3l0.4,0.8l0.9-0.4l-0.3-1.3c3.1,0.1,5.5-1,6.5-3.6c1.6-1.5,2.3-4.1,2.2-6.7
          c-0.5-0.2-0.9-0.1-1.2,0.4c0.6-10.9-2.2-21-8-30.7l-0.1,0c-2-3.7-5.3-7.1-8.8-9.1c-0.1-5.4,2.6-8.9,7.9-9.4c0.4-0.8,1-1.3,1.9-1.5
          l-0.2-1.3l4.9-3.2l-0.3-0.7c1.7-0.4,2.9-1.4,3.5-3c-1.9-4.8-1.5-9.7,1.3-14.8c1.4,0,3.3-0.8,4.4-1.8l0-0.1c0.8-0.4,1.2-1.2,1.2-2.3
          c1.4-0.5,2.2-0.2,2.6,0.9c2-3.2,3.8-5.8,5.9-8.8c2.9,0.3,4.7,1.3,3.8,4.8c1.8,0.6,3.3,1.7,4.4,3.3l1.1-0.7l0.7,1.2
          c1.9-0.8,3.6-1.6,5-2.3c2.1-0.5,4.5-2.2,6.1-4.2l-0.3-0.9c2.4-0.3,3-1.7,2.2-4.1c0.9,0.1,1.2,0.4,1.1,1c2.3-0.8,3-2.1,2-3.9
          l0.9-0.1l0.3-2.5c1.8-1.2,3.1-2.1,4.9-3.6c2.4-6.1,7.2-13.4,12.2-18.7c-0.2-3,1-6.9,3-10.2l-0.6-0.2c5-8.2,8.6-16.5,11.1-25.5
          l-1.2-0.2c1.5-5.1,1-9.6-1.6-13.6c1.3-0.7,2.2-1.8,2.4-3c-3.7-3.2-3.9-10.2-1.1-16.7l-0.7-0.7c0.8-0.8,1-1.6,0.3-2.4
          c0.5-1.9,1.1-3.2,2.4-4.6c-1.2-2-1-3.8,0-5.6c-2-2.1-4-5.9-5.8-11c1-6.8-4.1-14-12.3-19.5c-2.6,1.6-4.8,2.2-5.6,0
          c-0.7-1-1.7-1.5-2.9-1.5c-0.3,1.7,0.1,3.3,1.2,4.6c-0.1,2.4-1,4.8-2.9,6.5c0.8-2.1,1-4.1,0.6-6.2c-1,4.7-3.6,6.7-8.1,4.6
          c0.7-0.9,1.5-1.1,2.4-0.7c-0.2-1.8,0.5-3.1,2.1-3.8c-1-0.8-1.9-0.8-2.7,0.1l-0.4-1c-1.7,1-3.3,1.9-5,2.9c-1.5-3.9-2-8.9-1.4-13.5
          c-16.5,0.9-13.4-6.6-2.7-16.7l0.8-0.1c3.3-4.8,5.4-9.4,7-15.3l0.6,0.1c-0.1-2.1,0.7-3.1,2.4-3.2c0.7-2.6,2.8-5.2,5.2-6.7l-0.3-2.8
          c0.5-1.4,1.4-2.5,3.2-2.4c1.3-10.7,5.3-19.4,12.5-26.3c5.3,0.9,13.1,0.3,18.8-1.4l1.2,1.2l-1,1.6c1,0.4,1.8,1.2,2.2,2.3
          c0.6-1.1,1.4-1.8,2.6-2.2c0.4-4.9,5.8-3,11.2-0.8l-0.1-1.4c1.9-0.8,3.6-0.3,4.4,1.7l3.3-0.5c0.6-0.9,0.4-1.5-0.6-2l-0.8,0.4
          l-1.7-1.4l1.6-1.6l0.1,1.2l2.4-0.4c-1.6-0.6-2.1-1.5-1.5-2.7c4.3-1.5,8.4-1.1,13.1,1.1l-0.4,0.7c0.4,0.9,1,1.2,1.9,0.8l-0.4-1.3
          c3.3-0.1,6,1.2,7.2,3.8c2.1-0.3,3.8-0.1,4.8,1.3c-3.2,0-5.7,0.7-6.6,3.2c-0.9-0.6-1.5-0.5-1.9,0.4c1.9,0.7,2.9,1.7,3.3,4.1
          c1.7-0.4,3.2-1,4.7-1.9l-0.2-0.7l1.8-0.4l-0.8-1.9c1,1.8,2.5,3.3,4.5,2.2l-0.6-0.9c0.8-0.5,1.9-1,2.7-1.3c0.4-0.8,0.5-1.6,0.4-2.4
          c0.9-0.5,1.5-0.2,1.9,0.7l1.2-0.4c0.4,1.2,0.8,2,1.5,3l2.5-1.5l-0.8-1.1c1.5-0.8,3.1-0.8,4.8-0.2c0.8-0.8,0.6-1.6-0.5-2.5
          c0.8-1.5-0.2-2.5-1.7-3.2c-0.3,0.2-0.4,0.6-0.3,1c-0.8-0.4-1.9-0.9-2.6-1.1l0,0.8c-0.8-0.6-1.5-0.6-2.2,0l-1.1-1
          c0.1-1,0.7-1.5,1.5-1.5l-1.5-3.3l1.5-0.7c0.3-4.5,2.3-10,4.7-13.5l1.7-0.2c-1.9-3.3-1.1-6.6,2-8.8c-2-3.6-1.9-6.6,0.3-9.3
          c1.6-0.3,2.7-1.2,3.4-2.8c1.8,0.3,2.4,0.4,3.9,0.8c1-1.4,2.3-1.6,4-0.5c1.1-0.5,1.6-1,2.3-2.2c1.2-0.2,1.8-0.2,3.2,0.1l0,1.6
          c1.4,1.8,3,3.3,4.4-1.1c1.3,0.3,1.9-0.4,1.8-1.9l0.7,0.1c1.3,1.7,1.8,3.5,0.6,5.4c1.1,1.4,1,2.6-0.6,3.4c0.8,0.5,1,1.3,0.7,2.4
          l-0.5,0c-0.4,0.7-0.4,1.3,0,1.9c-0.5,0.5-1,0.9-1.5,1.3l0.3,0.9l1.6-1c0,1.2,0.6,1.8,1.8,2l-0.4,2.9c1.2-2,2.7-3.1,4.5-1.2l-1.8,2
          c1.1,0.9,1.5,2,1.2,3.4c2.7-2.7,4.7-5.6,6.1-9.1l-0.9-1.2c1.3-4.3,3.7-7.6,7.5-9.8c0,1.1,0.4,1.9,1.3,2.6l0.8-0.8
          c-1-0.9-1-1.9-0.1-2.9c-3-5.4-4.6-11-4.9-16.8c2.9-1.6,5.6-2.4,8.6-2.5c1.9,2.3,4.4,3.6,7.4,3.8l-2.3,0.7l0.8,1
          c-7.4,0.7-7.7,5.4-4.2,12l-0.5,0.6c1.5,2.5,1.5,5.7,0.4,8.7l0.8-0.9c0.9,2.9,1,6.6,0.3,9.5c2-0.6,3.1-0.3,2.3,1.7
          c-5.6,1-9.8,4.4-11.3,9.4l1.2-0.1c-1.6,1.9-2.5,4.1-1.6,6c-3.6,5.4-5.2,10.1-4.9,15.9l-1.2-0.3c-0.2,2.7-1.1,4.8-2.8,6.6
          c0.1,5.2-0.7,10.4-2.3,14.3c-1.2-0.9-2.6-1.2-4.1-1c0.2,2.7-0.6,4.7-2.7,5.9l-2.8-2.2c-1.5,0.2-2.2,1-2,2.3c4,2.2,4.7,5.8,2.1,9.8
          l0.7,1.2c-12.6,19.1,2.1,62.1,17,76c-0.8,1.4-2,1.9-3.5,1.2c3.2,8.9,5.1,16.1,6.3,23.2c5.5-6.8,9.2-13.5,11.8-20.8l-1.1-1.8
          c-0.7,0.4-1.4,0.3-1.9-0.2c1.2-1,1.2-2.1,0.3-3.6l0.8,0.5l0.8-0.6c-1.4-1.4-1.3-2.9,0.1-4.4c-1.2,0.2-2-0.2-2.4-1.3l1.2-1.4
          l1.3,1.6c2.8-1.2,4.2-1.8,7.2-2.7c0.4,0.9,1.1,1.3,2.2,1.3c-3.8-5.1-5.1-11.1-3.8-17.3c1.9-1.5,3.4-4.4,3.6-6.4
          c1.3,1,2.6,0.8,4-0.5l0.2,0.9l5-0.8c-0.3-1.5,0.2-2.5,1.6-3.1c-7.5-8.1-9.2-17.8-4.5-27.5l-1.9,0c0-2,1.3-3,3.4-2.9
          c0.4-0.7,0.4-1.4-0.2-1.9l1.2-0.7c-2.7,4.9-2,8.6,3.1,10.4c0.8-5.1-0.4-10.6-3-14.9c-1.3,1-2.1,1.6-3.2,2.5c-0.8-2.8-1.6-6-2.3-9.5
          c0.6-0.6,1.3-1.1,2.1-1.4c-0.5-1.2-0.1-2.1,1.2-2.6c-2.9-2.7,1.1-5.3-6.1-7.5c0,1.1-1,4.6-1.3,6.1c-1.5-1.8-3.1-6.3-5.3-7.5
          c0-5.9,1-11.5,3.3-17.3l-1,0.3c-1.6-3.1-0.8-3.2,1.5-1.5c0-1.1-0.7-2.4-1.7-3.3c0.2-0.9,0.7-1.1,1.3-0.8c-0.6-1.8-1.6-3.4-2.7-4.6
          l0.8-0.1c-1.3-2.6-1.2-5.1,1.2-6.8c-0.9-0.9-1-1.8-0.3-2.7c2.5,1.7,4.3,1.3,5.9-0.7c1,1.5,1.1,1.7,2.2,3.5l2.4-3.1l-1.6-1
          c1.9-1.8,3.8-4.1,5.3-6.6c1.9,3.6,2.9,7.2,3.4,11.5c2.5-3.3,4-7.5,3.7-11.1l1.4,1.2c1.5-0.6,2.4-1.8,2.7-3.5c1.9-1,4.1-1.5,6.1-0.7
          c4.2-1.7,7.4,0.1,8.7,4.6c1.2,0.2,2.3,0.5,3.3,1l-0.8,0.4l1.7,3l1-0.6c1,1.4,2.1,2.1,3.9,2.5c0.6-1.8,0.1-3.4-1.4-4.9
          c1.1-0.9,1-1.8-0.3-2.4c2.5-4.2,5-9.3,6.5-13.1l1.1-0.5c-0.6-1.9-1-3-1.3-4.5c1.7,0.9,2.8,0.5,3.4-1.3c-1.5-0.5-2.4-1.5-2.6-3
          c2,1.2,3.5,1.4,3-1.6c2.2-0.6,2.6-1.8,1.3-3.5c0.9-0.6,1.6-0.5,2.2,0.4c0.5-0.7,1-1.3,1.5-2l-0.7-0.9c1.4,0.2,2.6-0.3,3.6-1.5
          c-0.6-1-0.6-1.9,0.2-2.8l0.7,1.1l1.9-1.2c-0.7-1.6-0.7-3.2,0-4.7c0.9-0.2,1.4,0.1,1.5,0.8c1.5-0.9,2.9-2,4.1-3.2l-0.9-0.6l0.4-1.4
          c1.7,0.6,3.3,0.1,4.7-1.6l-1-1c1.8-0.1,3.4-0.4,5.5-1c-0.7-0.8-0.7-1.4,0.1-1.9c2.7,3,7.5,5.3,12.3,6.2c-0.5-1.6-1-3-1.6-4.2
          l1.1-0.1c1.1-5-0.2-8.9-3.5-12.5l1.4-0.9c-3.7-2.4-6.8-5.7-8.8-9.6l-0.7,1.4c-1.6-0.5-2.8,0.2-4.2,1.5c-0.7-1.9,0-3.1,2-3.6
          l-0.8-1.9c1-0.8,1.9-0.3,2.4,1.1c-0.7-3-2-5.6-3.9-7.8c-0.4,1-0.6,1.9-0.7,2.9c-2.2-0.8-3.3-2.7-2.8-5l1.5,0.6
          c-0.8-2.3-2.5-4.5-4.4-6c-1.5-1-9.3-3.8-12.8-4c-3.1-1-3.7,1.1-2.7,4.1c-2-1.7-2.2-3.9-0.6-6.2c-1.6-1.4-2.5-2.8-3.1-4.3
          c1.5-0.3,2.4,0.4,2.6,2.1l0.4-1.6c1.3-0.1,2.3,0.4,3,1.5l2.4-1c-0.3-2.2-1.7-3.6-4.2-4.2c-1.6,1.8-3.4,1.5-5.1-0.3
          c6,0.3,12.6,3.5,16.6,7.3l0.7,1.2l4.2-2c0.5,0.7,0.3,1.4-0.5,2.1c6.8-8.1,8.4-18.7,4.3-28.7c0.8,0.6,1.7,1.6,2,2.4
          c-3.5-2.9-7.2-6.8-10.9-11.9l0.5-0.9l2.3,0.4c1.5-2.4,0.1-3.6-2.2-4.3l1.2-0.5l-0.4-2.2l0.3-0.1c0.6,1.9,1.7,3.4,3.4,4.5
          c0.5-1.5,0.5-3.1,0.2-5l1-0.6c1.4,4.7,2.5,7.7,4.7,12.1c1.2-0.9,2.2-0.7,3.1,0.5l-0.5,2.8c4.9-1.5,7.2-5.7,6.7-11.4
          c0.6,1.2,0.7,2.5,0.3,3.8c2.4-0.2,4.7-1.2,6.1-2.7l2.5,1.5l-0.5,0.5c3,2,4.5,4.7,3.9,7.9c1.7-0.1,4.1,0,4.6,1.8
          c0.8,0.3,1.5-0.1,2-1.1c-0.8-1.5-0.5-2,0.9-1.5l0.1-2.1c1.5,0.5,1.9,1.4,0.9,2.7c5.5,2.8,10,3.9,11-1c1,0.8,1.5,2,1.6,3.4
          c2.8-0.1,3.5-1.5,2.3-4.1c-1.3,0.3-2.3-0.2-2.9-1.5l1.3-1.1L2046,144.6z M852,191.4l-0.9,1.2c0.1-1,0.9-1.7,2-1.8l0.1,0.3
          L852,191.4z M857.2,186c-0.5,2.6-2.3,3.4-4.4,3.2c2.7-0.5,4.6-2.2,6-5.7C859.3,184.5,858.8,185.3,857.2,186z M858.2,177.8
          c0.4,1.3,0.4,2.7-0.1,4.1C858.1,180.6,858.1,179.1,858.2,177.8z M862.3,170.9l-0.6,2.5l-3.8,0.4l-0.4,1.3c-0.2-0.5-0.1-1.1,0.3-1.6
          l3.8-0.4c0-1.6,0.6-2.9,1.7-4C863.8,169.7,863.5,170.3,862.3,170.9z M874.9,135.4c-11.5,2.9-16.1,13.8-15.4,28.4
          c-0.9-15.2,5.9-27.8,15.7-31.7C875.6,133.2,875.5,134.2,874.9,135.4z M883.2,114.3c-2.7,5.7-5.4,11.2-8.3,16.7
          c3.2-6,6.2-12.6,8.7-19.1C884,112.6,883.9,113.4,883.2,114.3z M896.5,99.9c-4,5.5-8.5,8.9-13.8,10.6c5.9-2.3,11.6-8,14.5-14.8
          C897.9,97.3,897.7,98.7,896.5,99.9z M908.6,86.5c-5.7-2-9.9,1.4-12,7.9c2.2-7.1,7-10.3,13.3-9l0.1,0.3L908.6,86.5z M910.7,82.4
          c0,0.8-0.4,1.3-1.3,1.5l-0.1-0.3c0.9-0.5,1.4-1.2,1.8-2.2C911.5,81.7,911.3,82.1,910.7,82.4z M923.5,83.8
          c-3.6-3.1-8.1-4.7-12.9-4.5l-0.1-0.3c4.8-0.1,9.4,1.5,13,4.5l0.4-1.8C924.1,82.4,924,83.1,923.5,83.8z M924.1,78.1l-0.7,2.3
          c-0.2-1.6,0.5-2.8,2-3.1l0-1.5c0.5,0.4,0.5,1,0.1,1.8L924.1,78.1z M934.3,73.5c-2-3.1-3.4-3-3.9,0.7c-0.5,0.4-0.9,0.3-1.2-0.2
          l-0.4,0.3l-0.1-0.2c-1.5,0.5-2.9,0.2-4.2-0.8l-0.2,1.4c-0.5-0.4-0.5-1,0.1-1.7c1.4,1.2,3.1,1.4,4.6,0.4c0.3,0.5,0.7,0.6,1.2,0.2
          c2-5.4,4.5-1.9,6.7,3.2L934.3,73.5z M984.6,79.7l1.9,0.2C986,80.3,985.4,80.3,984.6,79.7L984.6,79.7z M983.4,133.6l1.4,0l0,0
          L983.4,133.6L983.4,133.6z M983.2,76.6l-0.1,0.2c-0.6-0.6-1-1.2-1-2L983.2,76.6z M941.7,89.4l-0.2-1.4
          C941.7,88.4,941.8,88.9,941.7,89.4L941.7,89.4z M944.3,104l-0.2,2.2c0.5-2.2,0.6-3,1-5.1l0,0C945.7,102.4,945.4,103.3,944.3,104z
          M944.6,94.9c-0.2,2-0.6,3.6-1.4,5.4l-0.1,0c0.6-2.4,1.3-4.6,2.3-6.8C945.7,94,945.4,94.5,944.6,94.9z M961.4,72.4
          c0.2,6.6-2.5,10.1-8.4,11.8c-6.2-1.2-10.6-2.7-15.7-5.8c5.5,2.2,9.6,3.5,15.6,5.2c6.2-1.9,9-5.8,9.1-12.9
          C962.3,71.3,962.1,71.9,961.4,72.4z M972.4,195.9l-1.9,0.5C971,196,971.7,195.9,972.4,195.9L972.4,195.9z M975.7,67.8
          c-2.2-2.4-4.6-2.8-6.3-0.2c-1.7-0.5-3.3-0.6-5-0.4c-0.2,1.4-1.3,2.3-2.7,2.7l-0.2-0.5c1.4-0.3,2.5-1.3,2.7-2.7
          c1.8-0.2,3.3-0.1,5,0.4c4.3-0.7,8.9,2.2,12.6,6.8C978.7,73.1,976.5,71,975.7,67.8z M981.3,84L981.3,84l-0.9,0l0-0.1l0,0.1L981.3,84
          z M980.3,84L980.3,84l-2.2,0.3C978.9,84,979.6,83.9,980.3,84z M1132.7,495.4c-11.5,0.2-22-3.8-28.8-11.6
          c-10.4-3.2-12.7-10.6-7.9-20.7c0.5,1.4,0.6,2.5,0.2,4c1-7.6,4.3-12.5,11.2-13.5c-5.8-4.7-9.6-10.6-11.9-18.3
          c-2.5,1.7-4.7,3.1-7,4.6c-3.3-2.1-6.4-4.8-9.3-7.8l-1.3,2.5l-0.1-0.1l1.4-2.7c2.9,3,6,5.7,9.3,7.8c2.3-1.5,4.5-2.9,7-4.7
          c-4.8-4.9-7.2-10.9-7-17.5l-1-0.2l0.4-1.3l0.7,0.5c0.4-0.9,0.9-1.8,1.7-2.5c-0.7-0.3-1.3-0.2-1.9,0.4c-1.8-0.9-2.1-2.3-1-4.1
          c-1.1-0.3-1.8-1.1-2.1-2.2c-0.8,0.2-1.6,0.1-2.3-0.3c1.1-5.1,3.5-10,7-14.2c0.6,0.3,1,0.7,1.3,1.3c0.7,0,1.1-0.4,1.3-1l0.5,0.8
          c1.2-0.2,2-0.4,3.2-0.8c0.1-0.8-0.3-1.2-1.2-1.4c1.3,0.1,2.4,0.6,3.2,1.4l0.7-0.4c0.1-1.3-0.6-2.2-2.1-2.8c1.5,0.1,2.9,0.5,4.2,1.2
          c0.4-0.7,0.3-1.2-0.4-1.6l0.9,0.1c0.3-0.7,0.2-1.2-0.4-1.7l1.3,0c0.1-0.4,0.3-0.9,0.5-1.3c0.2,0.2,0.4,0.3,0.7,0.2
          c1.1,0.5,1.8,0.9,3.1,1.4c0.6-0.2,1-0.7,1.2-1.3c2.1-1,4.6-1.6,6.3-1.4c2.1-2,4.3-2.2,6.8-1.1c0,0.9,0.1,1.7,0.5,2.7
          c0.4-0.5,1-0.6,1.6-0.2c2.5-0.6,6.2,0.4,9.4,3c-0.8,2.7-1,5.6-0.6,8.5c-3.2,2-3,4.2,0.5,6.1c-2.3,1-4.4,0.6-6.3-0.8
          c-4-2.3-7.8-1.8-10.1,1.8c-0.2,2.5,0.7,4.3,2.8,4.8l0.2,0.9c-2.8,0-5.6-0.6-8.7-1.8c1.9,3.2,4.2,10.1,5,15.7
          c3.7,2.4,6.5,4.1,11.2,6.6c-2.7,10.7-2.3,21.9,0.8,32.1c0.2-0.8,0.1-1.6-0.6-2.2c1.2,0.2,2.7,0.2,4,0c0.1,1.2,0.1,2.5-0.2,3.9
          l1.1-0.2l0.7,1.6l-0.6,0.6c-1.2-0.3-2-0.7-2.7-1.4c-2,0.7-2.4,2-1.4,3.8l0.2-1.8C1133.3,475,1134.8,485.6,1132.7,495.4z"/>
      </g>
      <path class="st1" d="M1185.5,259.8c-2.4,0-4.4-2-4.4-4.4c0-2.5,2-4.4,4.4-4.4s4.4,2,4.4,4.4C1189.9,257.8,1187.9,259.8,1185.5,259.8
        z M1185.5,243.9c-6.4,0-11.5,5.2-11.5,11.6c0,4.6,1.9,9.2,5.5,13.3c2.7,3.1,5.3,4.9,5.4,4.9c0.2,0.1,0.4,0.2,0.6,0.2
        s0.4-0.1,0.6-0.2c0.1-0.1,2.8-1.8,5.4-4.9c3.6-4.2,5.5-8.8,5.5-13.3C1197,249.1,1191.9,243.9,1185.5,243.9z"/>
        <text x="1212" y="269" class="clients__map-text"> </text>
    </svg>