<svg width="47" height="46" viewBox="0 0 47 46" fill="none" xmlns="http://www.w3.org/2000/svg">
<path fill-rule="evenodd" clip-rule="evenodd" d="M0 0H47V46H0C0 35.5005 0 10.4995 0 0ZM30.4968 19.3337L29.6176 20.3079L32.415 23.2304L30.337 25.3412L27.5396 22.4186C25.7813 24.2046 25.4616 24.4482 25.1419 24.8541C26.2609 25.9906 27.9393 27.6955 31.5358 31.4298L29.5377 33.4594C25.6215 29.5626 23.9431 27.7766 23.0639 26.9648L16.5901 33.5406L14.592 31.511C17.789 28.1825 19.7071 26.3154 20.9859 24.9353C20.3465 24.0423 18.9878 22.7434 16.5901 20.3079L13.7928 23.1493L10.7557 20.1455L16.4303 14.3816H20.5863L21.5454 15.3558L18.7481 18.1972C21.1458 20.6326 22.3446 21.8504 23.2238 22.7434L25.6215 20.3079L22.8241 17.3853L24.9022 15.2746L27.7794 18.116L28.6586 17.223L25.8612 14.3816H30.0173L35.6918 20.1455L33.6138 22.2563L30.4968 19.3337Z" fill="#FF4644"/>
</svg>
