<svg width="42" height="42" viewBox="0 0 42 42" fill="none" xmlns="http://www.w3.org/2000/svg">
<path fill-rule="evenodd" clip-rule="evenodd" d="M0 0H42V41.9355H0V0ZM26.2592 17.8551L16.8148 27.2903H9.41496V24.0804H15.4516L24.9935 14.5479H32.2959V17.7578H26.2592V17.8551ZM14.1859 18.0496C14.1859 17.1742 13.5043 16.4933 12.628 16.4933C11.7517 16.4933 11.0702 17.1742 11.0702 18.0496C11.0702 18.9251 11.7517 19.606 12.628 19.606C13.5043 19.606 14.1859 18.9251 14.1859 18.0496ZM32.3933 11.5325H23.7277L14.9648 20.2868C14.3806 20.8705 13.5043 21.3568 12.628 21.3568C10.8754 21.3568 9.51233 19.8978 9.51233 18.1469C9.51233 16.396 11.0702 14.937 12.628 14.937C14.2832 14.937 15.3543 15.9097 15.6464 17.2715L23.0462 9.87891H32.3933V11.5325ZM27.6223 23.8859C27.6223 24.7613 28.3039 25.4422 29.1802 25.4422C30.0565 25.4422 30.738 24.7613 30.738 23.8859C30.738 23.0104 30.0565 22.3295 29.1802 22.3295C28.3039 22.2323 27.6223 23.0104 27.6223 23.8859ZM9.41496 30.5002H18.0805L26.8434 21.7459C27.4276 21.1623 28.2065 20.6759 29.1802 20.6759C30.9328 20.6759 32.3933 22.0377 32.3933 23.8859C32.3933 25.6367 30.8354 26.9985 29.1802 26.9985C27.525 26.9985 26.5513 26.0258 26.1619 24.664L18.7621 32.0566H9.41496V30.5002Z" fill="#025BFF"/>
</svg>
