<svg width="42" height="42" viewBox="0 0 42 42" fill="none" xmlns="http://www.w3.org/2000/svg">
<rect width="42" height="42" fill="#025BFF"/>
<path d="M13.976 24.6H8.776L7.784 27H5.128L10.12 15.8H12.68L17.688 27H14.968L13.976 24.6ZM13.16 22.632L11.384 18.344L9.608 22.632H13.16ZM18.2383 21.496H22.7663V23.496H18.2383V21.496ZM33.5704 15.8V27H31.0104V24.024H28.6424L26.6584 27H23.9224L26.2584 23.624C25.501 23.3147 24.9197 22.8507 24.5144 22.232C24.109 21.6027 23.9064 20.8507 23.9064 19.976C23.9064 19.112 24.1037 18.3707 24.4984 17.752C24.893 17.1227 25.453 16.6427 26.1784 16.312C26.9037 15.9707 27.757 15.8 28.7384 15.8H33.5704ZM28.8024 17.912C28.0664 17.912 27.501 18.0827 27.1064 18.424C26.7224 18.7653 26.5304 19.272 26.5304 19.944C26.5304 20.5947 26.717 21.096 27.0904 21.448C27.4637 21.8 28.013 21.976 28.7384 21.976H31.0104V17.912H28.8024Z" fill="#F1F5F9"/>
</svg>
