<svg width="421" height="418" viewBox="0 0 421 418" fill="none" xmlns="http://www.w3.org/2000/svg">
<path d="M209.5 418C169.372 418 133.11 408.955 100.713 390.865C68.6841 372.774 43.4661 347.948 25.0587 316.387C7.01958 284.44 -2 248.645 -2 209C-2 169.355 7.01958 133.752 25.0587 102.191C43.4661 70.244 68.6841 45.2256 100.713 27.1354C133.11 9.04512 169.372 0 209.5 0C249.628 0 285.706 9.04512 317.735 27.1354C349.764 45.2256 374.982 70.244 393.389 102.191C411.796 133.752 421 169.355 421 209C421 248.645 411.796 284.44 393.389 316.387C374.982 347.948 349.764 372.774 317.735 390.865C285.706 408.955 249.628 418 209.5 418ZM209.5 338.326C232.325 338.326 252.941 332.937 271.349 322.16C289.756 310.998 304.114 295.602 314.422 275.972C325.098 256.343 330.436 234.018 330.436 209C330.436 183.982 325.098 161.657 314.422 142.028C304.114 122.398 289.756 107.194 271.349 96.4171C252.941 85.2551 232.325 79.674 209.5 79.674C186.675 79.674 166.059 85.2551 147.651 96.4171C129.244 107.194 114.702 122.398 104.026 142.028C93.718 161.657 88.564 183.982 88.564 209C88.564 234.018 93.718 256.343 104.026 275.972C114.702 295.602 129.244 310.998 147.651 322.16C166.059 332.937 186.675 338.326 209.5 338.326Z" fill="#EEF1F7"/>
</svg>
