<svg width="20" height="20" viewBox="0 0 20 20" fill="none" xmlns="http://www.w3.org/2000/svg">
<path d="M17.7059 6.67982L12.8405 6.67982M12.8405 6.67982V1.81445M12.8405 6.67982L17.7059 1.81458M18.1054 14.6927V17.2729C18.1064 17.5125 18.0573 17.7496 17.9614 17.969C17.8654 18.1885 17.7247 18.3855 17.5482 18.5475C17.3717 18.7094 17.1633 18.8327 16.9364 18.9094C16.7094 18.9862 16.469 19.0147 16.2304 18.9931C13.5838 18.7055 11.0416 17.8012 8.80793 16.3527C6.72982 15.0321 4.96795 13.2703 3.64744 11.1922C2.19388 8.94838 1.2893 6.39375 1.00698 3.73524C0.985488 3.4974 1.01375 3.25769 1.08998 3.03137C1.1662 2.80505 1.28872 2.59708 1.44972 2.4207C1.61073 2.24433 1.80669 2.10341 2.02514 2.00692C2.24359 1.91043 2.47974 1.86048 2.71855 1.86026H5.29879C5.7162 1.85615 6.12085 2.00396 6.43734 2.27613C6.75382 2.54831 6.96054 2.92628 7.01896 3.3396C7.12787 4.16534 7.32984 4.9761 7.62102 5.75643C7.73674 6.06428 7.76178 6.39884 7.69318 6.72048C7.62459 7.04212 7.46523 7.33736 7.23398 7.57121L6.14168 8.66351C7.36605 10.8168 9.14892 12.5996 11.3022 13.824L12.3945 12.7317C12.6283 12.5005 12.9236 12.3411 13.2452 12.2725C13.5668 12.2039 13.9014 12.2289 14.2093 12.3447C14.9896 12.6358 15.8003 12.8378 16.6261 12.9467C17.0439 13.0057 17.4254 13.2161 17.6982 13.538C17.971 13.8599 18.1159 14.2709 18.1054 14.6927Z" stroke="#025BFF" stroke-width="2" stroke-linecap="round" stroke-linejoin="round"/>
</svg>
