<svg width="22" height="22" viewBox="0 0 22 22" fill="none" xmlns="http://www.w3.org/2000/svg">
<path d="M12.7013 5.30364C12.5181 5.49057 12.4155 5.74189 12.4155 6.00364C12.4155 6.26539 12.5181 6.51671 12.7013 6.70364L14.3013 8.30364C14.4882 8.48687 14.7396 8.5895 15.0013 8.5895C15.2631 8.5895 15.5144 8.48687 15.7013 8.30364L19.4713 4.53364C19.9742 5.64483 20.1264 6.88288 19.9078 8.08279C19.6892 9.2827 19.11 10.3875 18.2476 11.2499C17.3852 12.1124 16.2804 12.6915 15.0805 12.9101C13.8806 13.1287 12.6425 12.9765 11.5313 12.4736L4.62132 19.3836C4.2235 19.7815 3.68393 20.005 3.12132 20.005C2.55871 20.005 2.01914 19.7815 1.62132 19.3836C1.2235 18.9858 1 18.4462 1 17.8836C1 17.321 1.2235 16.7815 1.62132 16.3836L8.53132 9.47364C8.02848 8.36245 7.87624 7.12441 8.09486 5.9245C8.31349 4.72459 8.89261 3.6198 9.75504 2.75736C10.6175 1.89493 11.7223 1.31581 12.9222 1.09718C14.1221 0.878558 15.3601 1.03081 16.4713 1.53364L12.7113 5.29364L12.7013 5.30364Z" stroke="#A9BAD8" stroke-width="2" stroke-linecap="round" stroke-linejoin="round"/>
</svg>