<svg width="220" height="220" viewBox="0 0 220 220" fill="none" xmlns="http://www.w3.org/2000/svg">
<path fill-rule="evenodd" clip-rule="evenodd" d="M-0.000976562 0H219.999V220H-0.000976562V0ZM162.731 78.2474L156.494 85.0515L176.339 105.464L161.597 120.206L141.752 99.7938C129.277 112.268 127.009 113.969 124.741 116.804C132.679 124.742 144.587 136.649 170.102 162.732L155.927 176.907C128.143 149.691 116.236 137.216 109.999 131.546L64.0712 177.474L49.8959 163.299C72.5763 140.052 86.1846 127.01 95.2568 117.371C90.7207 111.134 81.0815 102.062 64.0712 85.0515L44.2258 104.897L22.6794 83.9175L62.9372 43.6598H92.4217L99.2258 50.4639L79.3805 70.3093C96.3908 87.3196 104.896 95.8247 111.133 102.062L128.143 85.0515L108.298 64.6392L123.04 49.8969L143.453 69.7423L149.69 63.5052L129.844 43.6598H159.329L199.587 83.9175L184.844 98.6598L162.731 78.2474Z" fill="#FF4644" fill-opacity="0.18"/>
</svg>