<svg width="45" height="45" viewBox="0 0 45 45" fill="none" xmlns="http://www.w3.org/2000/svg">
<path d="M15.9049 1C27.9452 1 17.0463 1 29.0866 1C41.1269 1 43.9915 3.86461 43.9915 15.9049C43.9915 27.9452 43.9915 17.0463 43.9915 29.0866C43.9915 41.1269 41.1269 43.9915 29.0866 43.9915C17.0463 43.9915 27.9452 43.9915 15.9049 43.9915C3.86461 43.9915 1 41.1045 1 29.0642C1 17.0239 1 22.5964 1 15.8825C1 3.86461 3.86461 1 15.9049 1Z" stroke="white" stroke-width="2" stroke-miterlimit="10"/>
<path fill-rule="evenodd" clip-rule="evenodd" d="M36.181 15.7932C36.3824 15.1218 36.181 14.6519 35.241 14.6519H32.1079C31.3022 14.6519 30.9441 15.0771 30.7427 15.547C30.7427 15.547 29.1537 19.4411 26.8934 21.9476C26.1548 22.6862 25.8415 22.91 25.4387 22.91C25.2373 22.91 24.9463 22.6862 24.9463 22.0148V15.7932C24.9463 14.9876 24.7225 14.6519 24.0511 14.6519H19.1276C18.6353 14.6519 18.3219 15.0323 18.3219 15.368C18.3219 16.1289 19.4409 16.308 19.5752 18.4117V23.0443C19.5752 24.0513 19.3962 24.2304 18.9933 24.2304C17.9415 24.2304 15.3454 20.3363 13.8236 15.8604C13.5327 14.9876 13.2194 14.6519 12.4137 14.6519H9.28053C8.38534 14.6519 8.2063 15.0771 8.2063 15.547C8.2063 16.3751 9.25815 20.493 13.1522 25.9312C15.7483 29.6463 19.3962 31.6605 22.7084 31.6605C24.7002 31.6605 24.9463 31.2129 24.9463 30.4519V27.6321C24.9463 26.7369 25.1254 26.5579 25.7744 26.5579C26.2444 26.5579 27.0277 26.7817 28.8852 28.5721C31.0112 30.6981 31.3693 31.6605 32.5554 31.6605H35.6886C36.5838 31.6605 37.0314 31.2129 36.7628 30.3401C36.4719 29.4672 35.4648 28.1916 34.122 26.6698C33.3835 25.797 32.2869 24.8794 31.9736 24.4094C31.5036 23.8052 31.6379 23.5366 31.9736 23.0219C31.9736 22.9995 35.8005 17.6284 36.181 15.7932Z" stroke="white" stroke-width="2" stroke-miterlimit="10"/>
</svg>