<svg width="37" height="38" viewBox="0 0 37 38" fill="none" xmlns="http://www.w3.org/2000/svg">
<path fill-rule="evenodd" clip-rule="evenodd" d="M33.9981 15.9572H32.0292H31.7726V18.0721L31.7655 18.0739V18.9991L31.7726 18.9973V23.8843H33.9999V15.9572H33.9981ZM6.99417 23.5647C7.50046 26.1129 8.557 28.5919 10.0143 30.6802C12.1538 33.7434 15.1493 35.9401 18.5211 36.2171C21.8929 35.9401 24.8884 33.7399 27.0279 30.6802C27.1298 30.5364 27.2265 30.389 27.3249 30.2416L27.1702 30.2984C25.5389 30.8969 23.6579 31.252 22.262 31.3195C22.1864 31.8131 21.9544 32.2571 21.6186 32.5963L21.6151 32.5998C21.202 33.0171 20.6306 33.2782 20.0048 33.2782H17.2589C16.6313 33.2782 16.06 33.0189 15.6468 32.5998L15.6433 32.5963C15.2302 32.179 14.9735 31.6018 14.9735 30.9697V30.6535C14.9735 30.0214 15.2302 29.4443 15.6433 29.027L15.6468 29.0234C16.06 28.6061 16.6313 28.3468 17.2589 28.3468H20.0048C20.6324 28.3468 21.2055 28.6061 21.6186 29.0234V29.027C21.8805 29.2933 22.0827 29.6236 22.1917 29.9912C23.4557 29.9362 25.1978 29.6059 26.7202 29.0483C27.3724 28.8085 27.9771 28.5333 28.4694 28.2261C29.1585 26.8179 29.6788 25.3102 30.0023 23.776V20.766C29.1603 20.7163 28.3533 20.6008 27.5834 20.4126C26.5936 20.1676 25.6725 19.8018 24.8286 19.2992C24.0516 20.0131 23.1955 20.576 22.2813 21.0146C21.2283 21.5172 20.0962 21.8563 18.9026 22.0748L18.5721 22.1351L18.3295 21.899L17.4558 21.0483L16.9178 20.5227L17.498 20.0486C17.5296 20.0237 17.5577 20.0007 17.5876 19.974C17.3362 20.0895 17.0849 20.2031 16.8282 20.3132H16.8247C15.784 20.7589 14.6993 21.1478 13.5601 21.4604L13.1206 21.5811L12.8552 21.2082L12.4491 20.6417L12.1432 20.2137L12.4878 19.8142C12.6636 19.6118 12.8288 19.3969 12.98 19.1678C12.254 19.5709 11.5156 19.8834 10.7685 20.1303C9.52739 20.5387 8.26517 20.7589 6.99417 20.8761V23.5647ZM18.9008 37.9645L18.5211 38L18.1414 37.9645C14.3038 37.5578 10.9496 35.0984 8.57809 31.7013C7.32115 29.9007 6.33848 27.8319 5.70561 25.6672H2.12114H1.24216V24.7775V20.4144L0.039711 20.4677C-0.129053 16.6107 0.217256 13.0503 1.5199 10.0456C2.71531 7.28784 4.68073 5.0326 7.73254 3.4788L7.65517 3.24436L7.4284 2.55714L8.04718 2.19486C10.4784 0.770688 14.186 -0.0035394 18.0078 1.21646e-05C21.6151 0.00178795 25.3578 0.697897 28.2479 2.18955L28.9739 2.56424L28.7049 3.20707C32.0802 4.76266 34.2126 7.1227 35.4801 10.0456C36.7827 13.0503 37.129 16.6107 36.9603 20.4677L35.7578 20.4144V24.7775V25.6672H34.8789H31.3366C30.6281 28.1 29.997 29.5082 28.4641 31.7013C26.0926 35.0984 22.7367 37.5578 18.9008 37.9645ZM5.23447 18.9973V18.0792V15.9572H4.89343H3.00186V23.8861H5.23622V23.6996V18.9973H5.23447ZM20.0048 30.1244C20.1472 30.1244 20.2773 30.1848 20.374 30.2806L20.3757 30.2789C20.4707 30.3765 20.5287 30.5079 20.5287 30.6535V30.9697C20.5287 31.1153 20.4707 31.2484 20.3757 31.3443C20.279 31.4402 20.149 31.4988 20.0048 31.4988H17.2589C17.113 31.4988 16.9829 31.4402 16.888 31.3443C16.793 31.2484 16.7333 31.1153 16.7333 30.9697V30.6535C16.7333 30.5079 16.793 30.3765 16.888 30.2789C16.9829 30.1847 17.113 30.1244 17.2589 30.1244H20.0048ZM5.41731 14.1797C6.15741 12.2085 7.34754 10.6476 8.93322 9.47385C11.0832 7.88097 13.9469 7.02679 17.4013 6.84388L17.3995 6.8137C17.7599 6.80482 18.1133 6.80306 18.4613 6.80839C18.8094 6.80483 19.1627 6.80482 19.5231 6.8137V6.84388C22.9775 7.02856 25.8412 7.88097 27.9894 9.47385C29.5769 10.6476 30.7652 12.2085 31.5071 14.1797H33.9841C33.7766 13.0858 33.476 12.0558 33.0647 11.1057C32.0661 8.80078 30.3697 6.92555 27.6801 5.66297L27.5658 5.94L27.2071 6.79592L26.3774 6.39641C23.9075 5.20664 21.3004 4.58866 18.5475 4.58156C15.7646 4.57091 12.8148 5.17822 9.6909 6.4337L8.82772 6.77994L8.5816 6.03766C6.3156 7.28426 4.84069 9.0192 3.93535 11.1057C3.52398 12.0558 3.22511 13.0858 3.01592 14.1797H5.41731ZM18.4613 8.58059C22.0142 8.63031 24.8937 9.37973 26.9505 10.9051C28.3621 11.9493 29.3958 13.3805 30.0023 15.2238V19.4342C29.2657 19.3862 28.5625 19.285 27.8927 19.1199C26.8802 18.8695 25.9502 18.4735 25.1152 17.9034L24.6634 17.5945L24.2784 17.9869C23.5119 18.7682 22.6523 19.3614 21.7188 19.8071C20.868 20.2138 19.9538 20.5032 18.9975 20.7003L18.8657 20.5707C19.0432 20.3754 19.2067 20.1623 19.3614 19.9332C19.655 19.4963 19.9046 19.0116 20.1156 18.4877L20.824 16.7208L19.1803 17.6549C18.2539 18.184 17.3011 18.6653 16.3113 19.0915C15.5835 19.404 14.8329 19.6863 14.0576 19.9314C14.1983 19.7236 14.3284 19.5052 14.4514 19.2761C14.7309 18.7487 14.9595 18.1663 15.1195 17.5146L15.5959 15.5932L14.0682 16.838C12.8745 17.8111 11.6317 18.4486 10.3624 18.8677C9.26369 19.2282 8.13685 19.4289 6.99594 19.5425V15.0711V15.0018C7.61474 13.2651 8.62028 11.9102 9.97215 10.9069C12.029 9.37969 14.9085 8.63031 18.4613 8.58059ZM18.0078 1.76869C14.8048 1.76692 11.7196 2.33696 9.55551 3.39355L9.90536 4.45367C12.9255 3.34025 15.8015 2.80042 18.544 2.8093C21.2653 2.81818 23.8459 3.36336 26.2948 4.41107L26.7132 3.41133C24.1905 2.29613 21.0578 1.77225 18.0078 1.76869Z" fill="#025BFF"/>
</svg>
