<svg width="54" height="39" viewBox="0 0 54 39" fill="none" xmlns="http://www.w3.org/2000/svg">
<path d="M51.849 6.78871C51.2588 4.52097 49.4881 2.73065 47.2452 2.10403C43.202 1 26.941 1 26.941 1C26.941 1 10.7094 1 6.63678 2.10403C4.39387 2.70081 2.65267 4.49113 2.03292 6.78871C1 10.9065 1 19.5 1 19.5C1 19.5 1 28.0935 2.09194 32.2113C2.68218 34.479 4.45289 36.2694 6.6958 36.896C10.7389 38 27 38 27 38C27 38 43.2316 38 47.3042 36.896C49.5471 36.2992 51.2883 34.5089 51.9081 32.2113C53 28.0935 53 19.5 53 19.5C53 19.5 52.941 10.9065 51.849 6.78871ZM21.6583 27.3177V11.6823L35.2338 19.5L21.6583 27.3177Z" stroke="white" stroke-width="2" stroke-miterlimit="10"/>
</svg>