<svg width="48" height="48" viewBox="0 0 48 48" fill="none" xmlns="http://www.w3.org/2000/svg">
<path fill-rule="evenodd" clip-rule="evenodd" d="M0 0H48V48H0V0ZM30.7692 20.0615L18.8308 32H9.47692V27.9385H17.1077L29.1692 15.8769H38.4V19.9385H30.7692V20.0615ZM15.5077 20.3077C15.5077 19.2 14.6462 18.3385 13.5385 18.3385C12.4308 18.3385 11.5692 19.2 11.5692 20.3077C11.5692 21.4154 12.4308 22.2769 13.5385 22.2769C14.6462 22.2769 15.5077 21.4154 15.5077 20.3077ZM38.5231 12.0615H27.5692L16.4923 23.1385C15.7538 23.8769 14.6462 24.4923 13.5385 24.4923C11.3231 24.4923 9.6 22.6462 9.6 20.4308C9.6 18.2154 11.5692 16.3692 13.5385 16.3692C15.6308 16.3692 16.9846 17.6 17.3538 19.3231L26.7077 9.96923H38.5231V12.0615ZM32.4923 27.6923C32.4923 28.8 33.3538 29.6615 34.4615 29.6615C35.5692 29.6615 36.4308 28.8 36.4308 27.6923C36.4308 26.5846 35.5692 25.7231 34.4615 25.7231C33.3538 25.6 32.4923 26.5846 32.4923 27.6923ZM9.47692 36.0615H20.4308L31.5077 24.9846C32.2462 24.2462 33.2308 23.6308 34.4615 23.6308C36.6769 23.6308 38.5231 25.3538 38.5231 27.6923C38.5231 29.9077 36.5538 31.6308 34.4615 31.6308C32.3692 31.6308 31.1385 30.4 30.6462 28.6769L21.2923 38.0308H9.47692V36.0615Z" fill="white"/>
</svg>
