<svg width="48" height="48" viewBox="0 0 48 48" fill="none" xmlns="http://www.w3.org/2000/svg">
<g clip-path="url(#clip0)">
<path d="M15.0001 21H33V24H15.0001V21Z" fill="#025BFF"/>
<path d="M15.0001 30.0005H24.0001V33.0005H15.0001V30.0005Z" fill="#025BFF"/>
<path d="M41.5606 12.4395L29.5606 0.439401C29.2794 0.158198 28.8985 0 28.5001 0H9.00007C7.3462 0 6.00006 1.34614 6.00006 3.00001V45C6.00006 46.6538 7.3462 48 9.00007 48H39.0001C40.6539 48 42.0001 46.6539 42.0001 45V13.5C42 13.1016 41.8418 12.7207 41.5606 12.4395ZM30.0001 5.12112L36.879 12.0001H30.0001V5.12112ZM39 45.0001H9.00007V3.00012H27V12.0002C27 13.6539 28.3462 15.0002 30.0001 15.0002H39.0001V45.0001H39Z" fill="#025BFF"/>
</g>
<defs>
<clipPath id="clip0">
<rect width="48" height="48" fill="white"/>
</clipPath>
</defs>
</svg>
