<svg width="48" height="48" viewBox="0 0 48 48" fill="none" xmlns="http://www.w3.org/2000/svg">
<g clip-path="url(#clip0)">
<path d="M43.5 15H39V4.50002C39 2.01856 36.9814 0 34.5 0H7.50002C5.01856 0 3 2.01856 3 4.50002V43.5C3 45.9814 5.01856 48 7.50002 48H34.5C36.9815 48 39.0001 45.9814 39.0001 43.5V32.9999H43.5001C44.3292 32.9999 45.0001 32.329 45.0001 31.4999V16.5C45 15.6709 44.3291 15 43.5 15ZM6.00001 43.5V4.50002C6.00001 3.67243 6.67233 3.00001 7.50002 3.00001H12V45H7.50002C6.67233 45 6.00001 44.3277 6.00001 43.5ZM36 43.5C36 44.3276 35.3277 45 34.5 45H14.9999V3.00001H34.4999C35.3275 3.00001 35.9999 3.67233 35.9999 4.50002V15.0001H32.9999C28.037 15.0001 23.9999 19.0372 23.9999 24.0001C23.9999 28.963 28.037 33.0001 32.9999 33.0001H35.9999V43.5H36ZM42 30H32.9999C29.6909 30 26.9999 27.3092 26.9999 24C26.9999 20.691 29.6908 18 32.9999 18H42V30Z" fill="#025BFF"/>
<path d="M35.1215 21.8787C36.2931 23.0503 36.2931 24.9497 35.1215 26.1213C33.9499 27.2929 32.0504 27.2929 30.8788 26.1213C29.7072 24.9497 29.7072 23.0503 30.8788 21.8787C32.0504 20.7071 33.9499 20.7071 35.1215 21.8787Z" fill="#025BFF"/>
</g>
<defs>
<clipPath id="clip0">
<rect width="48" height="48" fill="white"/>
</clipPath>
</defs>
</svg>
