<svg width="32" height="26" viewBox="0 0 32 26" fill="none" xmlns="http://www.w3.org/2000/svg">
<path d="M21.4545 18.3333V1H1V18.3333H21.4545ZM21.4545 18.3333H31V11.6667L26.9091 7.66667H21.4545V18.3333ZM10.5455 21.6667C10.5455 23.5076 9.01915 25 7.13636 25C5.25357 25 3.72727 23.5076 3.72727 21.6667C3.72727 19.8257 5.25357 18.3333 7.13636 18.3333C9.01915 18.3333 10.5455 19.8257 10.5455 21.6667ZM28.2727 21.6667C28.2727 23.5076 26.7464 25 24.8636 25C22.9808 25 21.4545 23.5076 21.4545 21.6667C21.4545 19.8257 22.9808 18.3333 24.8636 18.3333C26.7464 18.3333 28.2727 19.8257 28.2727 21.6667Z" stroke="white" stroke-width="2" stroke-linecap="round" stroke-linejoin="round"/>
</svg>
