<svg width="220" height="206" viewBox="0 0 220 206" fill="none" xmlns="http://www.w3.org/2000/svg">
<path fill-rule="evenodd" clip-rule="evenodd" d="M0 0.808594L67.9257 39.3055L63.306 47.2616C71.0054 44.8662 91.7938 41.1876 100.862 42.2997C104.113 42.7274 107.021 43.9251 109.759 45.8072C112.24 44.5239 114.977 43.583 117.886 43.0697C126.27 41.4442 147.999 45.1228 155.955 47.3471L151.25 39.3055L219.176 1.23634V125.111L206.172 132.639L200.441 122.801C198.901 128.019 196.249 133.323 192.741 137.002C196.848 147.525 189.319 158.646 178.455 160.528C177.599 169.425 172.209 175.242 163.056 176.611C161.345 187.305 153.817 192.951 143.209 194.149C141.155 198.939 137.22 202.447 132.686 204.329C122.762 208.435 115.747 204.243 107.278 199.624C98.381 204.414 85.5487 200.907 82.2123 190.812C72.4597 194.32 61.0817 188.759 59.5419 178.322C48.5061 181.487 36.8714 173.702 38.2402 161.726C23.0981 162.41 15.741 145.3 23.7826 133.495C21.5583 130.671 19.8473 127.164 18.564 123.485L13.26 132.554L0.256688 125.025V0.808594H0ZM146.032 172.505C141.497 170.28 131.232 164.463 135.766 158.903C138.845 155.138 147.229 161.469 151.164 163.779C153.56 165.148 156.041 166.345 158.693 166.944C164.253 167.543 167.675 164.378 168.103 159.587C165.793 158.731 163.569 157.619 161.43 156.251C157.581 153.941 146.887 148.209 151.421 142.563C156.811 135.89 165.109 149.578 173.749 150.775C180.593 151.717 186.239 143.589 182.39 139.654C170.841 130.158 160.832 120.919 151.678 111.851C142.781 103.039 134.397 94.0567 126.099 85.074C123.789 85.1596 121.479 85.3307 118.998 85.6728C115.32 86.9561 89.4839 105.178 82.9822 109.37C68.61 118.695 51.8425 98.933 62.5361 85.844C67.8401 79.3423 73.4008 73.3538 79.3892 67.7076C85.4632 62.0614 91.8793 56.9285 98.8943 52.2233C96.3278 51.1967 63.7337 54.1909 53.1257 64.2001L26.5201 109.455C26.1779 113.818 25.7502 119.807 31.0542 126.907C42.7744 121.176 56.6332 129.902 57.3176 142.477C66.2147 141.964 74.1707 148.722 74.9406 157.619C86.5752 156.422 97.2688 168.056 93.4191 179.605L119.511 194.833C123.618 196.972 129.435 195.86 132.344 192.095L118.485 183.027C113.523 178.75 120.11 171.05 125.072 175.328C128.152 177.894 135.937 183.626 139.872 184.225C144.235 183.968 147.486 183.027 149.625 181.145C151.079 179.862 152.02 178.066 152.533 175.585L146.032 172.505ZM70.4921 92.3457C82.1268 79.6845 102.573 56.4152 119.683 53.0788C124.388 52.1378 130.718 53.4211 135.68 54.1055C147.058 55.5598 159.377 57.2708 165.28 63.5158L191.287 107.83C193.254 113.134 189.49 124.769 185.812 129.303C169.557 115.615 155.613 101.842 141.583 86.8705C145.347 87.726 150.993 90.0359 152.533 84.6463C153.303 81.9943 151.763 79.1711 149.111 78.4012C137.135 74.8937 128.409 74.2093 116.688 75.8347C112.411 76.4336 84.9498 96.1954 77.5071 100.986C72.7164 103.98 66.728 96.3665 70.4921 92.3457ZM30.712 146.327C33.8773 158.218 54.1523 147.61 45.0841 137.943C44.2286 137.002 43.1165 136.318 41.9189 135.804C35.5027 133.324 29.0866 140.253 30.712 146.327ZM52.6124 155.395C41.32 167.372 55.1789 174.301 63.2205 164.207C69.2089 156.678 59.713 148.466 52.6124 155.395ZM78.5337 167.971C70.15 165.918 65.1026 180.119 74.4274 181.744C81.3568 182.942 88.1151 174.729 81.4423 169.425C80.5013 168.741 79.5603 168.227 78.5337 167.971Z" fill="#025BFF"/>
</svg>
